<?xml version="1.0" encoding="UTF-8"?>
<!DOCTYPE svg PUBLIC "-//W3C//DTD SVG 1.1//EN" "http://www.w3.org/Graphics/SVG/1.1/DTD/svg11.dtd">
<!-- Creator: CorelDRAW 2017 -->
<svg xmlns="http://www.w3.org/2000/svg" xml:space="preserve" width="66.668mm" height="54.951mm" version="1.1" style="shape-rendering:geometricPrecision; text-rendering:geometricPrecision; image-rendering:optimizeQuality; fill-rule:evenodd; clip-rule:evenodd"
viewBox="0 0 6667 5495"
 xmlns:xlink="http://www.w3.org/1999/xlink">
 <defs>
  <style type="text/css">
   <![CDATA[
    .fil2 {fill:#3E78FE}
    .fil1 {fill:url(#id0)}
    .fil0 {fill:url(#id1)}
   ]]>
  </style>
  <linearGradient id="id0" gradientUnits="userSpaceOnUse" x1="5268" y1="2830" x2="4116" y2="600">
   <stop offset="0" style="stop-opacity:1; stop-color:#4E8FFF"/>
   <stop offset="1" style="stop-opacity:1; stop-color:#79CCFE"/>
  </linearGradient>
  <linearGradient id="id1" gradientUnits="userSpaceOnUse" x1="6114" y1="3881" x2="1544" y2="1221">
   <stop offset="0" style="stop-opacity:1; stop-color:#6BB8FF"/>
   <stop offset="1" style="stop-opacity:1; stop-color:#3C75FE"/>
  </linearGradient>
 </defs>
 <g id="Слой_x0020_1">
  <metadata id="CorelCorpID_0Corel-Layer"/>
  <path class="fil0" d="M3299 3036c6,4 12,9 18,13 -6,-4 -12,-8 -18,-13zm-3276 819c25,-51 52,-101 82,-150 590,-978 2093,-1332 3065,-746 39,23 93,51 129,76 878,462 1959,189 2460,-640 479,-793 299,-1784 -425,-2364l0 0c693,347 1012,1047 1197,1739 203,759 113,1584 -316,2296 -430,712 -1118,1176 -1884,1350 -1522,347 -3103,-814 -4307,-1563z"/>
  <path class="fil1" d="M3242 3023c-79,-45 -72,-54 -326,-191 27,10 61,17 73,19 775,130 1651,-258 2118,-1033 346,-573 409,-1230 226,-1787 728,581 965,1565 466,2392 -499,826 -1622,1137 -2557,599z"/>
  <path class="fil2" d="M4409 865c-190,-115 -251,-361 -136,-551 115,-190 361,-251 551,-136 190,114 251,361 136,551 -115,190 -361,251 -551,136z"/>
 </g>
</svg>
