<svg width="173" height="44" viewBox="0 0 173 44" fill="none" xmlns="http://www.w3.org/2000/svg">
<g clip-path="url(#clip0_106_584)">
<path d="M74.6097 12.78C71.2797 12.78 68.1747 14.805 68.1747 18.03C68.1747 20.7 70.0047 22.11 73.9947 22.635L76.3797 22.965C79.5447 23.385 81.0747 24.57 81.0747 27.045C81.0747 29.73 78.4647 31.35 75.4647 31.35H75.2997C71.7747 31.35 69.4497 29.775 68.5347 27.405L67.6797 28.215C68.7597 30.855 71.4447 32.595 75.3147 32.595H75.4797C79.1697 32.595 82.4097 30.435 82.4097 27.045C82.4097 23.655 80.3847 22.215 76.4997 21.72L74.1147 21.39C70.7847 20.94 69.5097 19.92 69.5097 18C69.5097 15.42 72.1497 14.04 74.6097 14.04H74.9397C77.2947 14.04 79.5447 15.015 80.8497 16.845L81.7047 16.035C80.2647 13.95 77.7147 12.795 74.9397 12.795H74.6097V12.78ZM94.5147 18.33C91.7997 18.33 89.4447 19.935 88.3797 22.215L88.3197 18.525H87.3447V37.5H88.5897V28.845C89.6097 31.035 91.8597 32.565 94.4997 32.565C98.4446 32.565 101.52 29.4 101.52 25.47C101.52 21.54 98.4446 18.345 94.4997 18.345L94.5147 18.33ZM94.4247 19.545C97.6346 19.545 100.275 22.095 100.275 25.455C100.275 28.815 97.6346 31.365 94.4247 31.365C91.2147 31.365 88.5747 28.815 88.5747 25.455C88.5747 22.095 91.2147 19.545 94.4247 19.545V19.545ZM119.22 32.385V18.525H118.245L118.185 22.215C117.135 19.92 114.78 18.33 112.05 18.33C108.105 18.33 105.03 21.525 105.03 25.455C105.03 29.385 108.105 32.55 112.05 32.55C114.765 32.55 117.12 30.975 118.185 28.695L118.245 32.385H119.22ZM112.17 31.365C108.945 31.365 106.32 28.815 106.32 25.455C106.32 22.095 108.96 19.515 112.17 19.515C115.38 19.515 118.02 22.095 118.02 25.455C118.02 28.815 115.35 31.365 112.17 31.365ZM130.665 18.33C126.72 18.33 123.57 21.525 123.57 25.455C123.57 29.385 126.735 32.55 130.665 32.55C132.855 32.55 134.82 31.545 136.125 30L135.345 29.175C134.145 30.555 132.51 31.365 130.65 31.365C127.425 31.365 124.8 28.815 124.8 25.455C124.8 22.095 127.44 19.545 130.65 19.545C132.51 19.545 134.145 20.325 135.345 21.705L136.125 20.895C134.82 19.32 132.855 18.315 130.665 18.315V18.33ZM146.58 18.33C142.395 18.33 139.5 21.525 139.5 25.455C139.5 29.73 142.5 32.535 146.85 32.55C149.205 32.55 151.155 31.695 152.67 30.435L151.95 29.655C150.57 30.735 148.875 31.41 146.85 31.41C143.265 31.38 140.775 29.25 140.775 25.665H153.135C153.33 24.915 153.24 23.475 152.85 22.53C151.89 20.04 149.64 18.315 146.565 18.315L146.58 18.33ZM146.61 19.5C149.13 19.5 150.96 20.88 151.74 22.905C151.965 23.46 152.07 24.21 152.04 24.765H140.865C141.06 21.825 143.34 19.5 146.61 19.5V19.5ZM164.61 32.4V25.665L172.245 12.99H170.715L163.95 24.12L157.185 12.99H155.655L163.29 25.695V32.415H164.625L164.61 32.4Z" fill="#212121"/>
<path d="M46.1999 19.035C42.1649 25.71 33.465 27.915 26.385 24.195C26.085 23.985 25.665 23.775 25.35 23.58C17.52 18.855 5.41499 21.705 0.659999 29.58C0.419999 29.97 0.195 30.375 0 30.78C9.70499 36.81 22.425 46.155 34.695 43.365C40.8599 41.955 46.4099 38.22 49.8749 32.49C53.3399 26.76 54.0599 20.1 52.4249 13.995C50.9249 8.43 48.3599 2.79 42.7799 0C48.6149 4.665 50.0549 12.645 46.1999 19.035Z" fill="url(#paint0_linear_106_584)"/>
<path d="M42.7795 0C44.2495 4.485 43.7395 9.78 40.9645 14.385C37.1995 20.625 30.1496 23.76 23.8946 22.71C23.8046 22.695 23.5346 22.635 23.3096 22.56C25.3496 23.655 25.3046 23.73 25.9346 24.09C33.4646 28.425 42.5095 25.92 46.5295 19.26C50.5495 12.6 48.6295 4.68 42.7795 0V0Z" fill="url(#paint1_linear_106_584)"/>
<path fill-rule="evenodd" clip-rule="evenodd" d="M35.3245 6.70502C33.7945 5.79002 33.2995 3.79502 34.2295 2.26502C35.1445 0.735017 37.1395 0.240016 38.6695 1.17002C40.1995 2.10002 40.6945 4.08002 39.7645 5.61002C38.8495 7.14002 36.8545 7.63502 35.3245 6.70502Z" fill="#3E78FE"/>
</g>
<defs>
<linearGradient id="paint0_linear_106_584" x1="49.6199" y1="36.03" x2="6.62995" y2="4.39506" gradientUnits="userSpaceOnUse">
<stop offset="0.17" stop-color="#6CB9FF"/>
<stop offset="0.73" stop-color="#3D76FF"/>
</linearGradient>
<linearGradient id="paint1_linear_106_584" x1="22.3346" y1="0.495" x2="47.7596" y2="25.92" gradientUnits="userSpaceOnUse">
<stop offset="0.36" stop-color="#7ACEFF"/>
<stop offset="0.85" stop-color="#4F90FF"/>
</linearGradient>
<clipPath id="clip0_106_584">
<rect width="172.26" height="43.89" fill="white"/>
</clipPath>
</defs>
</svg>
