<svg id="Слой_1" data-name="Слой 1" xmlns="http://www.w3.org/2000/svg" xmlns:xlink="http://www.w3.org/1999/xlink" viewBox="0 0 13.33 46.09"><defs><style>.cls-1,.cls-3,.cls-5{fill:none;}.cls-2{clip-path:url(#clip-path);}.cls-3,.cls-5{stroke:#3e78fe;stroke-miterlimit:10;}.cls-3{stroke-width:13.33px;}.cls-4{clip-path:url(#clip-path-2);}.cls-5{stroke-width:10.8px;}</style><clipPath id="clip-path" transform="translate(2.58 -2.2)"><rect class="cls-1" x="1.67" y="4.07" width="4.83" height="31.86" rx="2.42" ry="2.42" transform="translate(8.17 39.99) rotate(-180)"/></clipPath><clipPath id="clip-path-2" transform="translate(2.58 -2.2)"><path class="cls-1" d="M6.14,42.89h0a2,2,0,0,1-2,2.11H3.62a2,2,0,0,1-2-2.11h0a2,2,0,0,1,2-2.11h.56A2,2,0,0,1,6.14,42.89Z"/></clipPath></defs><title>!</title><g class="cls-2"><polyline class="cls-3" points="6.67 0 6.67 8.09 6.67 17.13 6.67 23.74 6.67 32.24 6.67 37.5"/></g><g class="cls-4"><polyline class="cls-5" points="9.29 40.61 5.74 40.69 2.9 40.69"/></g></svg>