<?xml version="1.0" encoding="utf-8"?>
<!-- Generator: Adobe Illustrator 21.0.1, SVG Export Plug-In . SVG Version: 6.00 Build 0)  -->
<svg version="1.1" id="Слой_3" xmlns="http://www.w3.org/2000/svg" xmlns:xlink="http://www.w3.org/1999/xlink" x="0px" y="0px"
	 viewBox="0 0 433.6 112.9" style="enable-background:new 0 0 433.6 112.9;" xml:space="preserve">
<style type="text/css">
	.st0{clip-path:url(#SVGID_2_);}
	.st1{fill:none;stroke:#3E78FE;stroke-width:13;stroke-miterlimit:10;}
	.st2{clip-path:url(#SVGID_4_);}
	.st3{clip-path:url(#SVGID_6_);}
	.st4{fill:none;stroke:#3E78FE;stroke-width:12;stroke-miterlimit:10;}
	.st5{clip-path:url(#SVGID_8_);}
	.st6{fill:none;stroke:#3E78FE;stroke-width:12.28;stroke-miterlimit:10;}
	.st7{fill:none;stroke:#3E78FE;stroke-width:0.82;stroke-miterlimit:10;}
	.st8{fill:#3E78FE;}
	.st9{clip-path:url(#SVGID_10_);}
	.st10{fill:#3E78FE;stroke:#3E78FE;stroke-width:16;stroke-miterlimit:10;}
	.st11{clip-path:url(#SVGID_12_);}
	.st12{fill:none;stroke:#3E78FE;stroke-width:16;stroke-miterlimit:10;}
</style>
<title>text + lines</title>
<g>
	<defs>
		<path id="SVGID_1_" d="M406.8,25.5l-0.5-0.2c0,0.1,0.1,0.3,0.1,0.4l0.3,0.7c0,0.1-0.2,0.1-0.3,0.1c-0.2-0.2-0.5-0.3-0.8-0.4
			l-0.1,0.1v-0.1c0-0.1,0-0.1,0.1-0.2l-0.7-0.3l-0.4,0.1l-0.5-0.1l-0.3,0.4l0.3,0.3l-0.4,0.4l0,0c-0.1-0.2-0.1-0.3-0.3-0.3h-0.1
			l0.1,0.1l-0.3,0.3l-0.4-0.5l0.3-0.3c-0.2-0.1-0.2-0.2-0.2-0.3c0-0.3,0.5-0.3,0.5-0.5s-0.7-0.3-0.8-0.3l0.8-0.1l0.8,0.8l0.2-0.2
			l0.3,0.2l0.3-0.5v-0.2c-0.4-0.1-0.9-0.2-1.3-0.3h-0.2l-0.3-0.3H403c-0.3,0-0.4,0.1-0.7,0.1c-1.3,0.7-2,0.4-3.4,0.8l-0.2-0.1h-0.4
			l-0.3,0.3v-0.3c-0.7,0-1.3,0-2,0.1l1.2,0.9c-0.1,0-0.2,0.2-0.2,0.3c0,0.1,0,0.1,0.1,0.1l-0.3,0.3l-0.7-0.3l-0.5,0.3l-0.3-0.3
			l-0.4,0.3c-0.3,0-0.4-0.6-0.5-0.8l-0.8,0.3h-0.3c-0.1,0-0.2-0.2-0.2-0.3v-0.1l-0.5,0.2l-0.7-0.1l-0.2,0.3h0.8
			c0,0.7-0.8,0.8-1.3,0.8h-0.3l-0.1,0.2l-0.4-0.4c0-0.1,0.1-0.3,0.1-0.3l-0.3-0.5l0.3-0.3c0.2,0.1,0.3,0.1,0.5,0.1l0.5-0.4h-2.9
			l-0.1,0.3c-0.1,0-0.1-0.1-0.1-0.2h-1.6c-0.1,0.1-0.2,0.2-0.3,0.2h-0.1l0.2-0.2l-0.4-0.1l-0.1,0.2l0.7,0.7h-0.6
			c-0.3-0.2-0.8-0.6-0.8-0.8c0,0,0-0.1,0.1-0.1h-0.3c-0.4,0-0.8-0.1-1.3-0.2l-0.7,0.8c-0.1,0-0.1,0-0.1-0.1c0-0.1,0.1-0.3,0.1-0.3
			s-0.2-0.1-0.3-0.1H383l-0.3-0.1l-0.6,0.3l-0.6-0.2l-0.5,0.2l0.1,0.3l-0.7,0.3h-0.2l0.5-0.3V26l-0.1-0.1l-0.6,0.3h-0.4
			c-0.2,0-0.4,0-0.6-0.1l-0.6,0.2c-0.1,0-0.3-0.1-0.3-0.1s-0.1,0-0.1,0.1l0.1,0.1c0,0.3,0.3,0.9,0.7,0.9l0.7-0.3L380,27l0.4-0.2
			l1,0.8h0.2l0.2-0.2l-0.6-0.6v-0.1h0.5l0.8-0.2c0.2,0.1,0.3,0.1,0.5,0.1c0.4,0,0.7-0.1,1-0.3h0.3v0.3l-0.3,0.5l0.3,0.5V28l-0.3-0.2
			l-0.5,0.2l-0.5-0.3l-0.3,0.4c-0.2,0.1-0.2-0.3-0.2-0.4l0.2-0.4l-0.2-0.3c-0.8,1.1-1.4,0.7-2.2,1.2l-0.8-0.4
			c-0.5,0-0.9,0.3-1.3,0.7l-0.2-0.1l-1.1,0.7l-0.4-0.2l-0.6,0.2l-0.2-0.2l-0.5,1.3l0.2,0.4v0.1l-0.9,1.6l0.3,0.5l-0.5,0.4
			c-0.1,0.6-0.4,1.1-0.8,1.4c0.2,0.1,0.3,0.3,0.3,0.6c0,0.3-0.3,0.7-0.3,0.9c0,0.1,0.3,0.1,0.3,0.1l-0.8,1.1v0.2
			c0,0.4-0.4,0.8-0.4,1.2c0,0.2,0.1,0.3,0.3,0.4c-0.4,0.8-0.4,1.7-0.8,2.4v0.2c0,0.3,0.1,0.5,0.2,0.8h-0.1c-0.2,0-0.3,0.1-0.3,0.2
			c0,0.1,0.1,0.2,0.2,0.3l-0.4,0.9c-0.1,0-0.2-0.1-0.3-0.1l0.4,0.3v0.3h-0.3c-0.1,0-0.1,0.3-0.1,0.3s0.3,0.3,0.2,0.3l-0.1-0.1
			c-0.1,0-0.1,0.1-0.1,0.3s0,0.3,0.1,0.3c-0.1,0.2-0.2,0.4-0.3,0.5l0.2,0.4l-0.5,0.4h-0.1l0.2,0.1l0.1,0.5l-0.2,0.5l0.2,0.8
			l-0.3,0.4l-0.1,0.3l0.3,0.2v-0.1l0.2,0.1c-0.1,0.7-0.4,1.4-0.7,2.1l-0.1-0.2v1.3c0,0.7,0,1.5-0.2,2.2L370,55v0.3l0.2,0.3V56
			c-0.2,0.3-0.3,0.5-0.3,0.8c0.1,0.3,0.1,0.6,0.1,0.8c0,1-0.3,2.3-0.3,3.2h0.1l-0.2,0.5l0.1,0.3l-0.1,0.4h-0.1
			c-0.1,0-0.1-0.2-0.2-0.2l-0.2,0.2l0.5,0.8v0.6c-0.1,0-0.4,0-0.4,0.1v0.1l0.4,0.9v0.1c0,0.2,0.1,0.4,0.2,0.6
			c-0.1,0.3-0.2,0.6-0.2,0.8c0,0.4,0.1,0.8,0.1,1.2c0,0.4-0.1,0.7-0.1,0.9c0,0.3,0.1,0.5,0.2,0.8l-0.1,0.6c0.1,0.1,0.2,0.2,0.2,0.3
			c0,0.1,0,0.2-0.1,0.2l0.2,2.1l-0.2,0.6c0.3,1,0.6,2.1,0.8,3.1V76c0,0,0,0.5-0.2,0.5h-0.1c0.2,0.5,0.5,1,0.8,1.4l-0.2,0.4
			c0.1,0.9,0.7,1.7,1.6,2.1l0.1-0.1c0.6,0,0.7,0.8,0.7,1.3c0.1-0.1,0.2,0.2,0.2,0.2c0.8-0.3,2.3-1.1,2.3-1.9
			c0.3-0.2,2.2-1.9,2.2-2.5v-0.1l0.7-1.6l0.1,0.1c3-5.3,5.5-11,8.1-16.5c0.7-1.4,1.4-2.9,2.1-4.3h0.1c0.4,0,0.4-0.3,0.5-0.3l0.1,0.1
			c0,0.1-0.1,0.2-0.1,0.3s0.1,0,0.2,0l-0.2,0.4c0.1,0.1,0.3,0.3,0.3,0.3l-0.1,0.1c-0.9,2.7-1.9,5.8-2.9,8.8c-0.6,2-1.2,4-1.5,5.9
			c-0.1,0-0.1,0.1-0.1,0.2v0.2c0,0.7-0.3,1.3-0.8,1.8l0.2,0.3c0,0.3-0.4,0.7-0.3,0.6c-0.3,1-1.3,3-1.3,4.1l-0.3,0.4l-1-0.1
			c0.1,0.1,0.1,0.3,0.1,0.4c0,0.2-0.1,0.4-0.2,0.6l0.1,0.2l-0.3,0.3c0,0.1,0.1,0.1,0.2,0.1v0.8c0,0.2-0.3,0.3-0.4,0.3
			c-0.4,0.9-0.8,1.8-1.3,2.7l-0.3-0.1v0.5c-0.4,0.5-1,0.8-1.6,1c-0.7,0.7-1.5,1.3-2.4,1.7h-0.6c-0.7,0-4.6-0.3-4.6-1.2
			c-0.8-0.8-1.9-1.4-2.8-2.3c0-0.3-2.5-3-2.5-5.5L365,77c-0.3-1.8-1.2-3.6-1.2-5.5c0-0.5,0-1,0.2-1.4c0-0.1-0.1,0.2-0.2,0.2
			l-0.2-0.1l-0.1-0.7h0.1l0.3-0.4l-0.1-0.4c0.1-0.3,0.2-0.7,0.2-1c0-0.5-0.1-1-0.2-1.4c0.1-0.1,0.1-0.1,0.1-0.2
			c0-0.2-0.1-0.3-0.2-0.4l0.3-0.4l-0.3-0.6l0.3-0.8l-0.1-0.1l-0.2-0.6l0.3-0.7l-0.1-0.3c0-0.2,0.1-0.8,0.1-1.2c0-0.2,0-0.4-0.1-0.4
			c0-0.6,0.3-0.6,0.3-0.8v0h0.4l0.1-0.4l-0.2-0.8c-0.1,0-0.4,0-0.4-0.1h0.1c0.4-0.3,0.6-0.7,0.6-1.2v-0.1c0-0.1,0-0.5-0.2-0.5h-0.1
			c0.5-2,0.8-4,0.9-6c0-0.5,0-1.9,0.4-2.3l0.1,0.1v-0.1l-0.2-0.3c0.5-1.6,0.8-3.2,0.9-4.8c0.6-1.5,1.1-3,1.5-4.5l0.3-0.3l0.1,0.2
			h0.5c0-0.8,0.5-1.3,0.5-2.1v-0.2l-0.1,0.1l0.1,0.1l-0.6,1.2c-0.1-0.3-0.1-0.6-0.1-0.9c0-0.3,0.1-0.5,0.1-0.8
			c0.3-0.1,0.6-0.3,0.7-0.6v0.2c0.7-0.8,0.9-2.4,1.3-3.4h-0.1c-0.1,0-0.2-0.1-0.3-0.2l-0.2,0.8l-0.1,0.1c-0.1,0,0-0.1,0-0.2l0.1-0.5
			c-0.1-0.1-0.1-0.2-0.1-0.3l1.6-3.1v-0.1c0-0.2-0.1-0.3-0.3-0.3l-0.1,0.1h-0.1c-0.2,0-0.3-0.2-0.5-0.2h-0.1
			c-0.4-0.2-0.9-0.4-1.3-0.4c-0.2,0-0.4,0-0.6,0.1c-0.1,0-0.2,0-0.3,0.1l0.7,0.2c-2.6,0.2-5.9,0.8-8.7,0.8c-0.8,0-1.5,0-2.3-0.1
			c-0.2,0.3-0.7,0.3-0.9,0.3l-0.7-0.3c-0.3,0.2-0.7,0.4-1.1,0.3c-1.9-0.1-3.6-1.5-4-3.4l0.2-0.4c-0.1-0.1,0.2-0.2,0.2-0.2
			c0.6,0.2,1.2,0.4,1.8,0.3c1.1-0.1,2.2-0.2,3.3-0.4h0.1l0.8-0.1l0.4,0.1l0.4-0.1l0.2,0.1c0.8-0.3,1.7-0.4,2.6-0.3
			c0.5,0,0.9,0.1,1.3,0.1l0.2-0.1l9.3-1.3c0.3,0.1,0.6,0.1,0.9,0.2c0.6,0,1.2-0.4,1.3-1l0.2,0.1l-0.2,0.5l0.1,0.3
			c0.1,0,0.2-0.1,0.3-0.1l2-7.6l-0.1-0.2l0.8-0.6l0.3,0.2l0.1-0.2l-0.1-0.7l-0.1-0.1c-0.1,0-0.2,0.2-0.3,0.2l-0.1-0.2l0.3-0.5
			l0.3,0.5l0.3-0.1l-0.4-0.6l-0.3,0.2c-0.1-0.5,0.2-1,0.6-1.3v0.2c0.2-0.5,0.6-0.9,1-1.3c0.1,0,0.2-0.1,0.3-0.2l-0.3-0.1l-0.4,0.2
			l-0.1-0.1l0.3-0.6l0.2,0.1l0.5-0.3l-0.2-0.5l0.3-0.7c0,0,0-0.1-0.1-0.1c-0.2,0-0.3,0.3-0.3,0.3V9.4l-0.1-0.3l0.5-0.9v0.6l0.7-0.4
			c0-0.1-0.1-0.3-0.1-0.3c0.2-0.3,0.4-0.6,0.3-1l0.3-0.2l0.3-0.5l1-0.8c0.2,0,0.5,0,0.7,0.1l0.3-0.3c1,0,1.3,0.5,1.3,1.4
			c-0.1,0.8-0.4,1.5-0.7,2.3v0.2c-0.8,1.3-1.2,2.8-2,3.9l0.1,0.1c0,1.1-1.1,2.5-1.6,3.4l0.1,0.2c-0.4,2-1,4-1.9,5.9h-0.2l0.1,0.1
			l-0.5,0.5c0.1,0.1,0.1,0.2,0.2,0.3c0,0,0,0.1-0.1,0.1h0.7c0.3,0,0.8-1.3,1-1.3l1.3,0.2l0.5-0.2c0.2,0.1,0.5,0.1,0.8,0.1
			c0.8,0,1.6-0.2,2.4-0.4l0.8,0.1c2.2,0,4.5-0.4,6.8-0.4c0.5,0,1.1-0.1,1.6-0.3h0.4c1.1,0,2.2-0.1,3.3-0.2l0.5,0.2
			c0.6-0.1,1.2-0.2,1.8-0.3l1.3,0.3l0.4-0.3l0.3,0.2c0.5-0.2,0.9-0.3,1.4-0.3l0.3,0.2l0.5-0.2c0.2,0.1,0.4,0.1,0.6,0.1
			c0.4,0,0.9-0.1,1.4-0.1c0.3,0,0.5,0,0.8,0.1l0.5-0.2l1.1,0.2l0.5-0.2l0.5,0.3l0.6-0.2l0.6,0.2c0.1,0,0.2-0.1,0.3-0.1
			s0.3,0.1,0.3,0.1c0.4-0.1,0.8-0.2,1.3-0.2c3.4,0,12.3,2.9,12.9,5c0.2,0.2,0.4,0.5,0.6,0.8l-0.3-0.1v0.1c0,0.1,0,0.1,0.1,0.1
			s0.2,0,0.2-0.1l0.7,0.9l0.1-0.1v0.4c0,0.2,0.1,0.5,0.2,0.7l-0.1,0.5l0.4,0.5l-0.1,0.1l-0.3,0.8l-0.1-0.1l-0.4,0.4
			c0,0.1,0.2,0.2,0.3,0.2c0.1,0,0.1,0,0.2-0.1l0.3,0.4l-0.3-0.1l-0.5,0.3h-0.3c-0.1,0,0-0.1,0-0.2l0.2-0.2l-0.4-0.3
			c-0.2-0.7-0.1-1.3-0.9-1.3c0,0-0.1,0-0.1-0.1c0-0.1,0.1-0.2,0.2-0.2h0.1c-0.6-0.1-1.1-0.5-1.4-1.1c0.1-0.1,0.2-0.2,0.3-0.2
			c0.1,0,0.2,0,0.3,0.1l0.7-0.4h0.1l0.3-0.3c0-0.1-0.1-0.1-0.3-0.1s-0.6,0.1-0.7,0.3l-0.9-0.8l-0.5,0.5c0.1,0.1,0.2,0.2,0.3,0.2
			s0.2-0.1,0.3-0.1V28l-0.2,0.3l-0.7-0.3l0.3-1.1l-0.3-0.3l-0.6-0.1v0.1c0,0.1-0.1,0.2-0.2,0.3c-0.6-0.2-1.2-0.5-1.6-0.9l-0.3,0.2
			c0,0.3,0.5,0.1,0.5,0.3c0,0.1-0.4,0.1-0.5,0.1v0.1l0.2,0.4l-0.1,0.8H420c-0.2-0.2-0.5-0.4-0.8-0.6l-0.3,0.4l-0.6-0.3h-0.1l0.3-1.2
			l-0.3-0.1l-0.4,0.2L417,26l-0.4,0.3c0,0.2,0.2,0.2,0.3,0.2s0.3,0,0.3-0.2l0.6,0.5l-0.1,0.1H417c-0.1,0-0.1,0-0.1,0.1
			c0,0.1,0,0.3,0.1,0.4l-1.1-0.3l-0.4,0.1l-0.2-0.2c0.3-0.1,0.5-0.4,0.5-0.8c-0.4-0.2-0.8-0.2-1.2-0.3h-0.4l-0.1,0.1l0.3,0.3h0.5
			L415,27c-0.7-0.2-1.3-0.5-1.9-0.8h0.2c0.1,0,0.2-0.1,0.3-0.2l0.4,0.1L414,26c0-0.2-0.1-0.3-0.1-0.4c-0.7-0.1-1.4-0.2-2.1-0.2
			l-0.6,0.1l0.3,0.3l-0.4,0.1c-0.3,0-0.6-0.2-0.9-0.2c-0.3,0-0.7,0.2-0.8,0.5l-0.4-0.4h-0.1c-0.2,0-0.5,0.1-0.7,0.2
			c-0.1-0.2-0.5-0.3-0.7-0.3l-0.1-0.1l0.4-0.4l0.6,0.3h0.1c0.2,0,0.2-0.1,0.2-0.2s-0.2-0.3-0.2-0.4l-0.8-0.3
			c-0.1,0.1-0.2,0.3-0.3,0.3h-0.1l-0.4,0.5v0.2c0,0.2-0.2,0.2-0.3,0.2L406.8,25.5z M364.4,56.8C364.3,56.8,364.3,56.8,364.4,56.8
			L364.4,56.8z M367.2,42.7C367.2,42.6,367.2,42.6,367.2,42.7L367.2,42.7z M369.5,34.3l0.4-0.8l0.2,0.2c-0.3,0.4-0.4,0.9-0.5,1.3
			v-0.1l-0.8,0.1c0-0.2,0.1-0.4,0.3-0.6c-0.1-0.1-0.1-0.3-0.1-0.6s0-0.3,0.1-0.3h0.3l0.1,0.1l-0.1,0.6L369.5,34.3z M369.6,35.6
			c-0.1,0.2-0.1,0.4-0.1,0.6c0.1-0.1,0.1-0.2,0.1-0.3V35.6z M370.1,49.8L370.1,49.8l-0.1-0.2l-0.1,0.1L370.1,49.8z M372.5,41.6v0.3
			V41.6L372.5,41.6z M373.1,39.2L373.1,39.2C373.1,39.1,373.1,39.1,373.1,39.2C373.3,39.1,373.2,39.2,373.1,39.2L373.1,39.2z
			 M373.5,37.8v-0.3l0.1,0.1L373.5,37.8z M375.1,23.3c-0.1,0-0.2,0.1-0.2,0.2h0.2V23.3z M374.9,32.6C375,32.6,375,32.6,374.9,32.6
			L374.9,32.6L374.9,32.6z M375.8,27.7l0.1,0.2v-0.3L375.8,27.7z M375.9,28.7l0.3,0.1c0.1,0,0.2-0.2,0.3-0.2s0.2,0.1,0.3,0.2
			l0.3-0.4v-0.7l-0.3-0.3v0.1l-0.7,0.9l-0.1-0.1L375.9,28.7z M376.8,27.2c0.3,0,0.6,0.1,0.8,0.3l0.6-0.5v-0.1h-0.1l-0.2-0.1
			l-0.6,0.3l-0.3-0.3c0-0.1,0.2-0.1,0.2-0.3c0-0.2-0.1-0.3-0.2-0.3c-0.3,0-0.7,0.5-0.7,0.8c0,0.1,0,0.2,0.1,0.3
			C376.6,27.2,376.7,27.2,376.8,27.2L376.8,27.2z M377.4,16c0.1-0.1,0.2-0.2,0.2-0.3l-0.2-0.2l-0.3,0.3v0.1l0.1,0.1L377.4,16z
			 M377.7,25.6l0.2-0.1l0.2,0.1l0.1-0.3l-0.2-0.3l-0.3,0.3V25.6z M378.1,16.4L378.1,16.4v-0.3V16.4z M378.7,25.5
			c0.1,0,0.2-0.1,0.3-0.2v-0.2l-0.1-0.1l-0.2,0.2V25.5z M379.2,25.3v0.3l0.4-0.5l0.1,0.1v-0.3L379.2,25.3z M379.7,27.6L379.7,27.6
			l0.2-0.2l-0.2-0.2l-0.2,0.3L379.7,27.6z M379.9,17.1c0.2,0,0.1-0.1,0.3-0.1c-0.1-0.1-0.2-0.1-0.3-0.1h-0.1L379.9,17.1z M380.1,7.9
			L380.1,7.9c0-0.3,0.1-0.5,0.3-0.7h0.1v0.2l0.1,0.1L380.1,7.9z M381,25.2l-0.4-0.3l-0.3,0.3l0.1,0.1l0.1,0.3c0-0.1,0.2-0.2,0.3-0.2
			s0.2,0.1,0.3,0.2L381,25.2z M381,22.7L381,22.7l0.3,0.5l0.3-0.5l-0.1-0.1C381.5,22.6,380.9,22.6,381,22.7L381,22.7z M382.1,25
			l-0.9-0.3c0.1,0.3,0.3,0.4,0.6,0.4L382.1,25z M384.5,27.5L384.5,27.5h0.2v0.2L384.5,27.5z M384.6,25.8L384.6,25.8l0.4,0.3
			l-0.2,0.3l0.2,0.4l-0.3,0.4l-0.2-0.6L384.6,25.8z M385.2,27.6V27l0.4-0.7l0.5,0.7c0,0.2,0,0.8-0.3,0.8l-0.4-0.1l-0.3,0.2l-0.1-0.1
			L385.2,27.6z M389.8,26.3l-0.3,0.1c-0.2-0.1-0.3-0.2-0.5-0.2c-0.4,0.1-0.8,0.3-1,0.7l-0.3,0.3l-0.5-0.8c0.6-0.2,1.2-0.3,1.8-0.3
			h0.7L389.8,26.3z M388.9,27.3L388.9,27.3v-0.2V27.3z M389.3,26.9L389.3,26.9L389.3,26.9L389.3,26.9z M391.3,26.4h0.3l-0.1-0.1
			L391.3,26.4z M393.8,25.7l-0.1-0.2h-0.3l-1.1,0.1l-0.1,0.3l0.4,0.2l0.3-0.3c0-0.1,0-0.1,0.1-0.1s0.3,0.1,0.3,0.2L393.8,25.7z
			 M394.7,25.7c0.2,0,0.4-0.1,0.6-0.1l0.3,0.1l0.3-0.2l-0.3-0.3h-0.3c-0.3,0-0.6,0.1-0.8,0.2L394.7,25.7z M396.5,26.3l0.3,0.1v-0.3
			l-0.3,0.1V26.3z M400.7,25.6l-0.7,0.5h-1c-0.3,0-0.5-0.1-0.8-0.3c0,0.1-0.2,0.1-0.3,0.1l-0.3-0.3h0.9c0.8,0,1.6,0,1.8-0.3
			L400.7,25.6z M400.2,21.9l0.3-0.3v-0.2l-0.3-0.2c-0.3,0.1-0.8,0.3-0.8,0.7L400.2,21.9L400.2,21.9z M400.9,25.5l0.5,0.2l-0.2,0.2
			c-0.2-0.2-0.4-0.3-0.6-0.3L400.9,25.5z M401,26.4l0.1-0.2c0.1,0.1,0.2,0.3,0.2,0.5L401,26.4z M401.3,26.8
			C401.3,26.8,401.3,26.8,401.3,26.8L401.3,26.8L401.3,26.8z M402.6,25.6h0.2l-0.6,0.2l-0.5-0.4l0.2-0.2c0.2,0,0.3,0.1,0.5,0.1
			L402.6,25.6z M401.8,24.9v-0.2h0.3l0.1,0.2l-0.3,0.2L401.8,24.9z M405,26.4h-0.2c0,0.1-0.1,0-0.1,0.1v-0.1
			C404.8,26.3,404.8,26.3,405,26.4L405,26.4z M405.9,25.2V25h-0.4c0,0.1,0.1,0.2,0.2,0.3c0,0,0,0,0.1,0L405.9,25.2z M407.2,26.2
			l-0.2,0.2l-0.3-0.2L407,26L407.2,26.2z M410.2,26.3l0.2-0.2c0.1,0,0.2,0.1,0.3,0.3L410.2,26.3L410.2,26.3z M411.2,26.7H411
			c-0.1-0.1-0.1-0.2-0.1-0.3h0.1c0.2,0,0.2,0,0.2,0.2V26.7z M413,26.5c-0.2-0.1-0.3-0.2-0.4-0.3V26l0.3-0.1l0.1,0.1L413,26.5z
			 M413.2,25.5c0.1,0,0.1,0,0.2,0.1c-0.1,0-0.2,0-0.2,0.1V25.5z M414.5,24.9c0,0.3,0.3,0.5,0.5,0.7C415,25.3,414.8,25,414.5,24.9
			L414.5,24.9z M415.1,27.1C415,27,415,27,415,26.9L415.1,27.1z M419.1,26.4l0.5,0.3l0.2-0.3l-0.2-0.3l-0.4-0.3L419,26L419.1,26.4z
			 M420.9,27.2c-0.1,0-0.1-0.1-0.1-0.2h0.1V27.2z M421.2,27.9c0-0.1,0-0.1-0.1-0.2l0.1-0.1V27.9L421.2,27.9z M423.6,26l0.4-0.1
			l-0.5-0.3h-0.1L423.6,26z M423.8,25l-0.2-0.3l-0.1,0.2l0.1,0.2L423.8,25z M424.4,26.2L424.4,26.2L424.4,26.2v0.2
			C424.5,26.4,424.5,26.4,424.4,26.2L424.4,26.2z M424.5,25.6L424.5,25.6c0.1,0.1,0.2,0.2,0.3,0.2l0.1-0.1l-0.2-0.1H424.5z
			 M424.9,28.5L424.9,28.5L424.9,28.5l-0.3-0.1l-0.1,0.2L424.9,28.5z M425.4,26.3L425.4,26.3L425.4,26.3c-0.1,0.2,0.3,0.3,0.3,0.3
			L425.4,26.3z"/>
	</defs>
	<clipPath id="SVGID_2_">
		<use xlink:href="#SVGID_1_"  style="overflow:visible;"/>
	</clipPath>
	<g class="st0">
		<g>
			<path class="st1" d="M385.3,2.9l-3.6,7.1l-3.3,7.8L373,31.2c0,0-3.4,10.1-3.9,12.6s-2,12.3-2,15s-1.1,10.5-0.5,15.3
				s1.5,6,3.1,7.8s2.3,1.9,4.2,1.9s4.9-3.5,4.9-3.5l2.4-4l0.9-1.8l3.3-7.8l4.1-12.3v-2.1"/>
			<path class="st1" d="M350.8,27.7c0,0,12.7-0.9,15-1.2s20.9-2.9,25.8-2.9S405,23,409.8,23s11.2,1.4,12.8,2.3
				c1.1,0.5,2,1.3,2.7,2.2c0.7,0.9,2,5.6,2,5.6"/>
		</g>
	</g>
</g>
<g>
	<defs>
		<path id="SVGID_3_" d="M354.2,68.2c-0.1,0.1-0.2,0.2-0.2,0.3v0.1c-0.1,0.3-0.3,0.6-0.5,0.6c0,0.2-0.3,0.3-0.5,0.4
			c0,0-0.1,0.1-0.1,0.2c-0.1,0.1-0.2,0.3-0.2,0.4v0.2c0,0.3-0.3,0.5-0.5,0.8c-0.2,0.1-0.3,0.3-0.5,0.4c-0.7,0.8-1.4,1.6-2.2,2.3
			c-0.1,0.1-0.1,0.2-0.2,0.2c-0.1,0-0.1,0-0.2-0.1c-0.1,0-0.2-0.1-0.3-0.1s-0.2,0.1-0.3,0.3l-0.8,0.7c-0.4,0.2-0.7,0.4-1,0.6h-1.5
			c-0.4,0-0.7-0.1-1-0.3h-0.2c-0.3,0-0.6,0.1-0.9,0.1h-0.3c-0.4,0-0.8,0.1-1.3,0.2c-0.2,0.1-0.4,0.2-0.6,0.2H341l-1.3-0.3
			c-0.2-0.2-0.5-0.4-0.8-0.5c-0.2-0.1-0.4-0.2-0.5-0.3s-0.2-0.3-0.3-0.3c-0.3-0.4-0.6-0.8-0.8-1.2c-0.2-0.3-0.3-0.7-0.4-1.1
			c-0.2-0.5-0.2-1-0.3-1.6c0-0.3-0.1-0.5-0.1-0.7v-0.3c0-0.1,0-0.1,0.1-0.2c0.1,0,0.1,0.1,0.2,0.2v0.1c0,0.5,0.1,0.9,0.3,1.3
			c0,0.6,0.2,1.2,0.5,1.8l0.4,0.8c0.1,0.1,0.3,0.3,0.3,0.5c0.1-0.1,0.1-0.1,0.2-0.2l-0.3-0.3c-0.2-0.6-0.4-1.1-0.7-1.7
			c-0.4-0.9-0.6-1.8-0.6-2.8c0-0.3-0.1-0.6-0.1-0.8v-0.3c-0.1,0-0.2,0-0.2,0.1c-0.1,0.1-0.1,0.2-0.1,0.3v0.5c0,0-0.1,0-0.1-0.1
			c0-0.3-0.2-0.5-0.2-0.7s0.1-0.5,0.2-0.6v-1.6c0-0.1,0-0.3,0.1-0.4c0.2-0.2,0.1-0.4,0.3-0.7v-0.3c0-0.4,0.1-0.8,0.3-1.2l0.3-0.9
			c0-0.2,0.1-0.5,0.2-0.7c0.1-0.3,0.2-0.7,0.3-1c0.1-0.1,0.1-0.2,0.1-0.3c0.1-0.2,0.1-0.4,0.1-0.6c0.1,0,0.1-0.2,0.1-0.2
			c0.3-0.3,0.2-0.8,0.4-1.1c0.1-0.3,0.3-0.7,0.4-1l0.2-0.3c0-0.3,0.2-0.4,0.2-0.7V56c0-0.2,0.1-0.4,0.3-0.6c0.1-0.3,0.1-0.6,0.3-0.7
			c0.1-0.2,0.2-0.5,0.3-0.8c0.2-0.2,0.3-0.5,0.4-0.8c0.1,0,0.2-0.2,0.2-0.3v-0.2c0.1-0.4,0.2-0.8,0.4-1.2c0-0.1,0.2-0.3,0.2-0.4
			c0.1-0.2,0.1-0.4,0.3-0.6c0.1-0.3,0.3-0.6,0.5-0.9c0.1-0.1,0.1-0.2,0.1-0.3c0.3-0.3,0.3-0.8,0.5-1.1c0-0.3,0.2-0.5,0.4-0.7
			l0.5-0.4c0-0.1,0.1,0,0.1-0.1l0.8-0.9l0.9-0.8c0.1-0.2,0.3-0.3,0.4-0.4c0.1,0,0.2-0.1,0.3-0.1s0.2,0.1,0.3,0.1
			c0.1,0.1,0.2,0.1,0.3,0.1h0.4c0.3,0.1,0.3,0.3,0.5,0.4h0.4c0.1,0.1,0.2,0.2,0.2,0.3c0,0.1,0,0.1-0.1,0.2v0.3
			c-0.1,0.2-0.2,0.2-0.2,0.3s0.1,0.2,0.2,0.3s0.2,0.1,0.3,0.1c0.3-0.2,0.7-0.3,1.1-0.3h1.1c0.3,0.2,0.6,0.3,1,0.3
			c0.1,0,0.3,0,0.4,0.1c0.5,0.3,0.9,0.6,1.3,0.8c0.3,0.2,0.5,0.5,0.6,0.8c0,0.2,0.2,0.3,0.3,0.3c0.4,0.1,0.6,0.5,0.7,0.8
			c0,0.1,0,0.2,0.1,0.3c0,0,0.1,0,0.1,0.1c0,0.1,0,0.1-0.1,0.2s-0.1,0-0.1,0.1v0.5c0.1,0.2,0.4,0.2,0.6,0.1c0,0,0.1-0.1,0.1-0.1
			v-0.3c0,0,0-0.1,0.1-0.1v0.1c0,0.1,0.1,0.2,0.1,0.3s-0.1,0.3-0.1,0.3s-0.1,0.2-0.1,0.3s0.1,0.3,0.1,0.3s-0.1,0.3-0.1,0.3v0.6
			c0.1,0.1,0.1,0.3,0.1,0.4v0.2c-0.1,0.1-0.3,0.2-0.3,0.3v0.1c0.2,0,0.3,0.1,0.4,0.2c0.1,0,0.2,0.2,0.2,0.2v0.5
			c-0.2,0.1-0.3,0.1-0.5,0.1h-0.2c0,0-0.1,0-0.1,0.1s0,0.1,0.1,0.1c0.1,0.1,0.1,0.1,0.1,0.2c0.1,0.1,0.1,0.2,0.1,0.3
			c0,0.1,0,0.2-0.1,0.3c-0.1,0-0.2,0-0.3,0.2V56c0,0.1,0.2,0.1,0.3,0.1s0.1-0.1,0.2-0.1s0.3,0.1,0.3,0.2v0.2c0,0.3,0.1,0.3,0.3,0.3
			h0.2c0.2,0,0.5-0.1,0.5-0.3c0,0,0.1-0.1,0.2-0.1l0.1-0.1c0,0.1,0.1,0.1,0.1,0.2l-0.1,0.1c0,0.2,0,0.3,0.2,0.3c0.6,0,1.1,0,1.7-0.1
			l2.3-0.6c0.3-0.2,0.7-0.1,1-0.3h0.5c0.5-0.1,1-0.3,1.5-0.6l0.9-0.3c0.1,0,0.2,0,0.3-0.1c0.3-0.2,0.6-0.3,0.9-0.3
			c0.3-0.1,0.6-0.2,0.7-0.2c0.8-0.3,1.4-0.5,2.1-0.7c0-0.1,0.1-0.1,0.3-0.2c0.2-0.1,0.4-0.2,0.6-0.2h0.4c0.1,0.1,0.1,0.1,0.1,0.2
			v0.1c-0.1,0.3-0.2,0.5-0.4,0.8c0,0.1-0.1,0.1-0.2,0.2c-0.2,0.1-0.4,0.2-0.6,0.4l-0.1,0.1c0,0.1,0.1,0.1,0.2,0.1s0.3,0,0.4,0.2
			c0,0.1,0,0.2-0.1,0.3l-0.3,0.5c-0.1,0.2-0.2,0.2-0.3,0.2h-0.5c-0.3,0-0.3,0.1-0.3,0.3s-0.3,0.3-0.3,0.3h-0.3
			c-0.3,0-0.5,0.2-0.6,0.5c-0.2,0.2-0.3,0.2-0.5,0.2s-0.5,0-0.6,0.1h-0.3c-0.2,0-0.4,0.1-0.6,0.3l-0.2,0.3c-0.1,0.2-0.2,0.2-0.3,0.2
			h-0.4c-0.1,0-0.2,0-0.3,0.1c-0.1,0.2-0.3,0.3-0.3,0.3s-0.2,0.2-0.3,0.2s-0.1-0.1-0.2-0.1c-0.1-0.1-0.4-0.1-0.5,0
			c-0.1,0.2-0.3,0.3-0.6,0.3c-0.1,0-0.2,0-0.3-0.1h-0.1c-0.1,0-0.2,0.1-0.2,0.2v0.1c0,0.3,0.2,0.5,0.5,0.5c0,0,0,0,0,0
			c0.4-0.1,0.9-0.3,1.3-0.5c0,0,0.2,0,0.2,0.1l0.1,0.1l-0.1,0.1c0,0.1,0,0.1-0.1,0.2c-0.2,0-0.4,0.1-0.6,0.1
			c-0.4,0.1-0.7,0.2-1.1,0.2c-0.1,0.1-0.2,0.1-0.3,0.1h-0.2c-0.1,0-0.1-0.1-0.2-0.1S361,60,360.9,60l-0.3,0.3
			c-0.2,0.2-0.5,0.4-0.8,0.3h-2.9c-0.2,0-0.4,0-0.5,0.1s-0.3,0.1-0.3,0.2s0.1,0.2,0.3,0.3V62c0,0.3-0.1,0.5-0.2,0.8
			c0,0.1-0.1,0.2-0.1,0.3c-0.2,0.5-0.3,0.9-0.3,1.4v0.2c0,0.2-0.1,0.5-0.3,0.7c-0.3,0.3-0.5,0.7-0.5,1.1v0.2
			c-0.1,0.4-0.3,0.8-0.7,0.8C354.4,67.7,354.3,67.9,354.2,68.2z M336.9,65.8L336.9,65.8C337,65.7,337,65.7,336.9,65.8L336.9,65.8z
			 M341.8,67.1v1.9c0,0.2,0.1,0.4,0.3,0.4l0.2,0.3c0,0.4,0.1,0.8,0.3,1.2c0.1,0.5,0.3,0.8,0.8,0.8h0.2c0.6-0.2,1.1-0.6,1.6-0.6
			c0.4-0.2,0.7-0.5,0.9-0.9c0.7-0.5,1.3-1,1.9-1.6c0.3-0.4,0.7-0.8,0.9-1.3c0.1-0.3,0.4-0.6,0.6-0.9c0.4-0.7,0.7-1.4,0.9-2.1
			c0.2-0.6,0.4-1.2,0.5-1.8l0.5-2.1V60c0-0.1-0.1-0.2-0.3-0.2s-0.3-0.1-0.3-0.2h-0.3c-0.4-0.1-0.9-0.3-1.3-0.5l-0.6-0.4
			c-0.1,0-0.3,0-0.4-0.1c-0.4-0.3-0.8-0.6-1.2-1c-0.2-0.2-0.4-0.3-0.7-0.3c0-0.1-0.1-0.1-0.3-0.1c-0.3,0-0.4-0.3-0.7-0.4
			s-0.3-0.3-0.3-0.3c-0.1-0.1-0.2-0.1-0.3-0.1c-0.1,0-0.2,0-0.3,0.1c-0.3,0.2-0.3,0.3-0.3,0.7v0.3c0,0.3-0.2,0.5-0.2,0.7
			c-0.1,0.2-0.3,0.4-0.5,0.5c-0.1,0.1-0.2,0.3-0.2,0.4c0.1,0.1,0.1,0.2,0.1,0.3c0,0.2-0.1,0.3-0.3,0.3l-0.3,0.6
			c-0.1,0.5-0.2,1-0.3,1.4c-0.1,0.5-0.2,1-0.3,1.4c-0.2,0.7-0.4,1.5-0.4,2.3L341.8,67.1z M352,54.8c0-1-0.2-2-0.4-3
			c0-0.2-0.1-0.4-0.1-0.6c-0.3-0.3-0.4-0.7-0.8-0.9c-0.2-0.2-0.3-0.3-0.3-0.4s-0.1-0.1-0.3-0.2c-0.3-0.2-0.7-0.2-0.8-0.3h-0.2
			l-0.6,0.2c-0.3,0.1-0.5,0.4-0.6,0.7v0.2h0.1c0.1,0,0.2-0.1,0.2-0.2l0.6-0.3l0.1,0.1c0,0,0.1,0,0.1,0.1c-0.1,0.1-0.1,0.2-0.2,0.3
			l-0.5,0.7v0.3c0.1,0.2,0.2,0.4,0.2,0.7l0.3,0.7c0.3,0.3,0.3,0.7,0.7,0.9c0.1,0,0.1,0.2,0.1,0.3l0.2,0.3c0.6,0.5,1.2,1,1.9,1.3
			c0.1,0,0.2,0.1,0.3,0.1s0.1-0.1,0.1-0.3L352,54.8z M354.3,66.7c-0.2,0-0.3,0.2-0.4,0.3c-0.1,0.3-0.3,0.3-0.3,0.6
			c0,0.1-0.1,0.1-0.1,0.2v0.3c0,0,0,0.1,0.1,0.1c0-0.1,0-0.1,0.1-0.2c0.2-0.1,0.3-0.3,0.3-0.3l0.4-0.3c0.1-0.1,0.2-0.3,0.2-0.4
			C354.4,66.8,354.3,66.7,354.3,66.7z M354.7,49.3c0,0,0-0.2-0.1-0.2c-0.1-0.1-0.2-0.1-0.3-0.1h-0.2c0,0-0.1,0.1,0,0.1
			c0.1,0.2,0.2,0.3,0.3,0.3C354.6,49.5,354.7,49.4,354.7,49.3L354.7,49.3z M355.1,61.6C355,61.6,355,61.6,355.1,61.6
			c-0.1,0.2-0.2,0.4-0.2,0.6v0.2c0,0.1,0.1,0.1,0.1,0.2v0.1c0,0.1,0,0.1-0.1,0.2s-0.3,0.3-0.3,0.4v0.3c0.1,0.1,0.2,0.2,0.2,0.3
			c0.2,0.2,0.3,0.5,0.3,0.8c0,0.2,0,0.3-0.2,0.4V65c0,0.1,0,0.1,0.1,0.2h0.1c0-0.1,0-0.1,0.1-0.2l0.3-1.1v-0.4
			c-0.1-0.1-0.2-0.1-0.3-0.1c-0.2,0-0.2,0-0.2-0.2s0.3-0.2,0.3-0.3c0.1-0.1,0.1-0.2,0.1-0.3c0-0.2-0.1-0.3-0.2-0.4
			c-0.1,0-0.2-0.2-0.2-0.3s0.1-0.2,0.2-0.3C355.1,61.7,355.1,61.7,355.1,61.6L355.1,61.6z M355.1,51.3L355.1,51.3
			c0.1-0.1,0.1-0.1,0-0.2V51.3z M355.7,62.6c0.1,0,0.1,0,0.2,0.1v-0.2c-0.1,0-0.1,0-0.1-0.1C355.8,62.5,355.7,62.6,355.7,62.6
			L355.7,62.6z M356.5,52.8c-0.1,0-0.1-0.1-0.1-0.2s0.2-0.2,0.3-0.2h0.1c0.3,0,0.3,0.2,0.3,0.3s0.1,0.2,0.1,0.3
			c-0.1,0.1-0.1,0.3-0.1,0.4c0,0.1,0,0.3,0.1,0.4c0,0.2,0,0.3,0.1,0.3v0.2c0.4,0.2,0.3,0.4,0.3,0.6V55c-0.1-0.1-0.1-0.1-0.2-0.1
			s-0.1,0-0.2,0.1c-0.1,0.3-0.3,0.3-0.5,0.3c0,0-0.1,0-0.1-0.1l-0.2-0.5v-0.1c0.1-0.1,0.2-0.2,0.2-0.3c0-0.1-0.1-0.2-0.2-0.3
			c0-0.2,0-0.4,0.1-0.6c0-0.1,0-0.2,0.1-0.3L356.5,52.8z M356.5,52.3C356.5,52.3,356.5,52.3,356.5,52.3l-0.1-0.2
			c0-0.1,0-0.1,0.1-0.2C356.6,52,356.6,52.1,356.5,52.3C356.6,52.4,356.6,52.4,356.5,52.3L356.5,52.3z M365.3,58.9v0.2
			c0,0-0.1,0.1-0.2,0.1c-0.1,0-0.2,0-0.3-0.1c0-0.1,0.1-0.2,0.3-0.2H365.3z"/>
	</defs>
	<clipPath id="SVGID_4_">
		<use xlink:href="#SVGID_3_"  style="overflow:visible;"/>
	</clipPath>
	<g class="st2">
		<path class="st1" d="M347.2,44.5c-1.8,2.9-3.4,5.9-4.8,9c-1.2,2.9-2.3,5.8-3.2,8.8c-0.4,1.6-0.6,3.3-0.5,5
			c0.1,1.1,0.3,2.2,0.7,3.3c0.2,0.9,0.7,1.7,1.4,2.3c0.8,0.6,1.8,0.9,2.8,0.8c1.3,0.1,2.5-0.2,3.7-0.9c1.3-0.8,3.4-3.8,4-4.9
			c0.6-1,2.6-8.8,2.8-10.6s0.1-5.7-1.4-7.5c-1-1.2-1.8-1.9-3.3-1.9c-1.3,0-2.4,0.6-3.2,1.6c-0.8,1-1.2,2.3-1.3,3.5
			c0,0.8,0.3,1.5,0.8,2c1,0.8,2.1,1.5,3.3,2c1.4,0.6,3,1,4.5,1.1c1.6,0.2,3.1,0.3,4.7,0.3c2.1-0.3,4.1-0.9,6-1.7
			c1.1-0.5,2.2-1,3.2-1.5"/>
	</g>
</g>
<g>
	<g>
		<defs>
			<path id="SVGID_5_" d="M337.5,64.8c-0.3,0.4-0.3,0.8-0.8,1c-0.3,0.2-0.5,0.6-0.5,0.9v0.2c0,0.3-0.2,0.4-0.4,0.6l-0.1,0.1V68
				l-0.4,0.3c-0.4,0.3-0.4,0.4-0.7,0.5c-0.3,0.4-0.5,0.9-0.6,1.4c-0.2,0.2-0.3,0.4-0.4,0.6c-0.2,0.1-0.3,0.2-0.3,0.4
				c-0.1,0.2-0.3,0.2-0.3,0.3c-0.2,0.4-0.6,0.7-0.9,0.9c-0.1,0.2-0.2,0.4-0.4,0.5h-0.3c-0.1,0-0.2,0-0.2,0.1l-0.8,0.9
				c-0.2,0.1-0.2,0.4-0.4,0.7v0.1l-0.2-0.2c-0.3,0.3-0.3,0.6-0.5,0.8s-0.4,0.3-0.6,0.6c-0.2,0.2-0.3,0.3-0.3,0.4
				c-0.1,0.3-0.4,0.7-0.7,0.7s-0.4,0.3-0.4,0.3v0.1h0.1v0.1c-0.4,0.4-0.9,0.7-1.3,1c0,0.1-0.2,0.1-0.3,0.1c-0.4,0-1.3,0.3-1.9,0.3
				h-0.5c-0.1,0-0.3,0.1-0.3,0.1c-0.3-0.1-0.7-0.1-1-0.3c-0.2,0-0.4,0-0.5-0.2l-0.5-0.3l-0.8-0.3c-0.6-0.2-1.1-0.6-1.5-1
				c-0.1,0-0.3,0-0.4-0.1c-0.1-0.1-0.2-0.1-0.3-0.1h-0.4c-0.1,0-0.2,0-0.2-0.1c-0.1-0.3-0.3-0.7-0.5-0.8c-0.2-0.1-0.3-0.2-0.4-0.3
				c-0.1-0.4-0.2-0.8-0.4-1.2c-0.1-0.1-0.1-0.2-0.1-0.3c0-0.1,0-0.2,0.1-0.2c0.1-0.1,0.2-0.3,0.3-0.5v-0.1c0-0.2-0.1-0.5-0.2-0.7
				c0-0.2-0.2-0.7-0.2-1v-0.3c-0.1-0.4-0.2-0.8-0.2-1.3c0-0.4,0-0.9,0.1-1.3c0.1-0.7,0.2-1.4,0.3-2.1c0.1-0.5,0.2-1,0.3-1.4v-0.3
				c0-0.3,0.1-0.8,0.1-1.2c0.1-0.3,0.2-0.6,0.2-0.9c0.3-0.5,0.4-1,0.3-1.6c0.3-0.8,0.3-1.6,0.5-2.3c0.1-0.2,0.1-0.4,0.3-0.6
				c0.1-0.1,0.1-0.2,0.1-0.3c0-0.1,0-0.2-0.1-0.3c0.1-0.4,0.2-0.7,0.2-1.1c0.1-0.2,0.2-0.4,0.2-0.7c0.2-0.5,0.4-1.1,0.3-1.7
				c0.2-0.2,0.3-0.5,0.3-0.8c0-0.1,0-0.2,0.1-0.3c0.2-0.4,0-1,0.5-1.4c0-0.1-0.1-0.2-0.1-0.3c0.1-0.3,0.2-0.6,0.2-0.9v-1.1
				c0-0.1-0.1-0.2-0.2-0.2h-0.1l-0.7,0.3c-0.1,0-0.1,0.2-0.1,0.2v0.3c0,0.3-0.1,0.3-0.4,0.3v0.1c0,0.5-0.3,0.6-0.6,0.8
				c-0.2,0.3-0.4,0.5-0.7,0.7c-0.3,0.1-0.6,0.3-0.6,0.7v0.1c-0.1,0.3-0.3,0.5-0.6,0.6c-0.2,0.2-0.5,0.4-0.7,0.7
				c-0.1,0-0.1,0.1-0.2,0.2c-0.1,0.2-0.2,0.4-0.2,0.7c-0.1,0.1-0.2,0.2-0.2,0.3c-0.2,0.3-0.4,0.5-0.7,0.7c-0.2,0-0.3,0.1-0.5,0.1
				s-0.3,0.3-0.5,0.6c-0.3,0.4-0.4,0.7-0.8,1.2c-0.2,0.1-0.2,0.2-0.2,0.3v0.3c-0.1,0.2-0.4,0.4-0.6,0.6c-0.1,0.1-0.1,0.2-0.1,0.3
				h0.3c0.2-0.1,0.4-0.3,0.5-0.5h0.2c0,0-0.1,0.1-0.1,0.2c0,0.3-0.3,0.5-0.3,0.8h-0.3c-0.3,0.1-0.6,0.4-0.8,0.8
				c-0.2,0.2-0.3,0.4-0.4,0.5s-0.1,0.1-0.1,0.2s0.1,0.2,0.3,0.3h0.1c0,0.2-0.1,0.3-0.2,0.4V62l-0.2-0.2l-0.1-0.1
				c-0.1,0.1-0.2,0.2-0.1,0.2c-0.1,0.2,0,0.3-0.2,0.3s-0.3,0.2-0.3,0.3c-0.3,0.4-0.6,0.8-0.8,1.3c0,0.1,0,0.3-0.1,0.4
				c-0.3,0.1-0.3,0.2-0.3,0.3c0,0.3,0,0.5-0.2,0.8c0,0-0.1,0.1-0.1,0.2v0.2c0,0.3-0.3,0.4-0.4,0.8c-0.2,0.1-0.3,0.2-0.4,0.4V67
				c0,0.2-0.1,0.3-0.1,0.5V68l-1.1,0.7c-0.1,0.1-0.1,0.1-0.1,0.2v0.3c0,0.3,0,0.5,0.1,0.8l-0.2,0.3c-0.3,0.3-0.3,0.7-0.6,1
				c-0.2,0.1-0.3,0.4-0.4,0.5s-0.3,0.2-0.3,0.2c-0.2,0.3-0.3,0.6-0.3,1v0.1c0,0.2-0.1,0.3-0.3,0.4c-0.1,0-0.2,0.2-0.2,0.2v0.2
				c0,0.5-0.2,0.9-0.4,1.3c-0.4,0.7-0.7,1.3-1,1.8c-0.3,0.3-0.5,0.6-0.7,1h-1.1c0-0.2-0.4-0.3-0.6-0.6c-0.4-0.1-0.7,0-0.9-0.3
				l0.1-0.1c0-0.1-0.2-0.1-0.2-0.1s-0.3-0.1-0.4-0.1s-0.1-0.1-0.2-0.1H299c-0.3,0-0.5-0.3-0.8-0.4c-0.1-0.2-0.2-0.3-0.4-0.3h-0.3
				c-0.2,0-0.3-0.2-0.5-0.3c-0.1,0-0.1,0-0.2-0.1c0-0.2,0.1-0.3,0.1-0.5c0-0.4-0.1-0.9-0.3-1.3c0.2-0.8,0.3-1.6,0.3-2.3
				c0.6-3.6,0.8-7.3,1.3-11.3v-3.3c0-1,0.1-2,0.4-2.9l0.2-0.4v-0.4c0.3-0.8,0.5-1.6,0.6-2.4v-0.3l0.1,0.1v0.4c0,0.4-0.1,0.8-0.2,1.2
				l0.1,0.2v-0.2c0.1-0.2,0.2-0.4,0.2-0.6v-0.4c0-0.1,0.1-0.2,0.1-0.3v-0.5c0.1-0.1,0.3-0.2,0.3-0.3s-0.1-0.2-0.2-0.3s0-0.1,0.2-0.2
				s0.2-0.2,0.2-0.3s-0.1-0.1-0.2-0.2s-0.1-0.1-0.1-0.2s0.1-0.1,0.2-0.2c0.2-0.4,0.3-0.8,0.3-1.3v-0.3c0.4-0.4,0.5-1,0.5-1.5
				c0-0.2,0.1-0.4,0.2-0.6l0.6-2.3v-0.3c0-0.2,0-0.5,0.1-0.7c0-0.2,0-0.3,0.1-0.5c0.4-0.8,0.5-1.5,0.9-2.4c0-0.3,0.1-0.3,0.2-0.4
				c-0.1-0.4,0.1-0.7,0.4-0.9h0.1c0.3,0,0.4-0.1,0.4-0.3v-0.1c-0.1,0-0.1,0-0.2-0.1c0.2-0.1,0.4-0.2,0.6-0.3c0,0,0-0.1,0.1-0.1
				c0,0,0.1,0,0.1,0.1l0.3,0.4c0,0-0.1,0.1-0.1,0.2h0.1c0.1,0,0.2,0,0.3-0.1c0-0.1,0.2-0.1,0.2-0.1c0.1,0,0.1,0,0.2-0.1
				c0.1,0,0.1,0.1,0.1,0.2s-0.2,0.3-0.2,0.3l0.1,0.1c0.2,0,0.2-0.1,0.2-0.1c0.1,0,0.3,0,0.4-0.1c0.2,0,0.4,0.1,0.5,0.3l0.4,0.3
				c0.3,0,0.3,0.4,0.3,0.6v0.4c0,0.3,0,0.6,0.1,0.9c0.1,0.2,0.1,0.4,0.1,0.6c-0.2,0.3-0.4,0.5-0.5,0.8c0,0.1-0.1,0.3-0.1,0.4
				c-0.2,0.6-0.4,1.2-0.6,1.8c0,0.1,0,0.2-0.1,0.3c-0.2,0.4-0.3,0.8-0.3,1.2v0.2c-0.1,0.6-0.3,1-0.3,1.4c0,0.1-0.1,0.2-0.1,0.3V48
				c0,0-0.1,0.1-0.1,0.2l-0.6,2.9c0,0.8-0.2,1.5-0.6,2.2c0,0.1,0.1,0.2,0.1,0.3s-0.1,0.1-0.1,0.2s-0.2,0.3-0.3,0.3
				c0,0.3,0.1,0.4,0.1,0.8v0.7c0,0.1-0.1,0.3-0.1,0.3c-0.1,0.4-0.2,0.9-0.3,1.3c0,1-0.1,2-0.2,3c0,0.3-0.3,0.8-0.3,1.2V62
				c0,0.6-0.1,1.2-0.2,1.8c-0.1,0.2-0.1,0.4-0.1,0.6c0,0.3,0.1,0.7,0.1,0.9h0.2l0.2-0.3c0.2-0.1,0.2-0.4,0.3-0.6
				c0.2,0,0.3-0.1,0.3-0.3c0.1-0.4,0.4-0.8,0.7-1.1l0.4-0.5c0.1-0.3,0.1-0.5,0.3-0.7c0.1,0,0.3-0.1,0.3-0.3l0.8-1.7
				c0.6-0.9,1-1.8,1.6-2.8c0.1-0.1,0.2-0.3,0.2-0.5c0-0.1,0-0.2,0.1-0.3c0.4-0.4,0.8-1,1.2-1.3c0-0.4,0.2-0.6,0.2-0.8l0.5-0.4
				c0.4-0.3,0.4-0.5,0.7-0.9c0.2-0.5,0.4-0.9,0.7-1.3c0.2-0.1,0.3-0.3,0.3-0.3s0.3-0.3,0.5-0.6l0.1-0.1c0-0.5,0.3-0.7,0.5-1
				c0.2-0.1,0.4-0.3,0.5-0.5c0.2-0.5,0.6-1,1-1.3c0.2-0.3,0.5-0.5,0.8-0.8c0.1,0,0.2-0.1,0.3-0.2c0.1-0.4,0.4-0.8,0.8-1.1
				c0.5-0.5,1-1,1.4-1.6c0.1-0.1,0.1-0.3,0.3-0.3c0.6-0.5,1.2-1,1.7-1.6c0.8-0.6,1.5-1,2.3-1.5c0.3,0,0.3-0.2,0.8-0.2l0.4-0.3
				c0.2,0,0.3-0.1,0.5-0.1s0.3,0.1,0.6,0.3c0.1,0.1,0.3,0.1,0.4,0.2h0.2c0.3,0,0.3,0.2,0.6,0.4c0.7,0.3,0.6,0.4,0.8,1.4l0.2,2
				c0,0.4-0.1,0.8-0.2,1.3c-0.1,0.4-0.1,0.8-0.2,1.3v0.3c0,0.5,0,1-0.2,1.4c-0.2,0.4-0.3,0.9-0.4,1.3v0.5c0,0.3,0,0.7-0.3,0.8v0.2
				c0.1,0.1,0.1,0.2,0.1,0.3c0,0.3-0.3,0.5-0.3,0.8s-0.4,0.7-0.4,1c0,0.1,0,0.2,0.1,0.3c-0.1,0.3-0.2,0.7-0.2,1v0.1
				c-0.1,0.2-0.2,0.4-0.2,0.7v0.3c-0.1,0.2-0.2,0.3-0.3,0.3c-0.1,0.1-0.1,0.2-0.1,0.3c0,0.1,0,0.2,0.1,0.2s0.3,0.1,0.3,0.2
				s0,0.1-0.1,0.2c-0.1,0.1-0.1,0.2-0.1,0.3l-0.2,1.8c-0.1,0.2-0.2,0.4-0.2,0.7v0.2c0,0.2-0.1,0.3-0.2,0.4c-0.3,0.2-0.3,0.8-0.3,1
				v0.5c0,0.2,0,0.3,0.1,0.5c-0.1,0.2-0.1,0.3-0.3,0.4c-0.2,1.1-0.4,2.2-0.4,3.3v0.4c-0.1,0.2-0.2,0.4-0.2,0.6V67
				c0,0.1-0.1,0.1-0.1,0.2c0,0,0,0.1,0.1,0.1v0.6c0,0.1,0,0.2-0.1,0.3v1c0,0.2,0.1,0.5,0.1,0.6c-0.1,0.2-0.1,0.3-0.1,0.5v0.2
				c0,0.2,0.1,0.3,0.2,0.5c0,0.8,0.4,1.6,1,2.2c0.1,0.3,0.3,0.3,0.7,0.3s0.8,0.3,0.9,0.3c0.3,0,0.6-0.1,0.8-0.4
				c0.7-0.4,1.4-1,1.9-1.6l1.2-0.8c0.5-0.5,1-1,1.5-1.4c0.3-0.5,0.7-0.9,1.2-1.2c0.3-0.3,0.8-0.4,0.8-0.8c0.2-0.3,0.5-0.7,0.8-0.9
				c0.4-0.4,0.9-0.8,1.3-1.1c0.4-0.5,0.9-0.9,1.5-1.2c0-0.1,0.3-0.1,0.3-0.3l0.1-0.1h0.3l-0.2,0.1c0,0.1-0.1,0.1-0.1,0.3v0.1
				l0.4,0.3c0.1,0.2,0.1,0.2,0.2,0.2s0.1,0,0.2-0.2h0.2C337.5,64.7,337.5,64.8,337.5,64.8z M314.4,54.9l-0.2-0.3
				c0,0.2,0,0.3,0.1,0.5C314.4,55,314.4,55,314.4,54.9z M315.2,53.5L315.2,53.5c0-0.1,0-0.2-0.1-0.3c-0.1,0.1-0.2,0.2-0.3,0.3
				L315.2,53.5C315.2,53.6,315.2,53.6,315.2,53.5L315.2,53.5z M315.9,52.7c0-0.1-0.3-0.2-0.3-0.3h-0.1c0,0.2-0.1,0.4-0.2,0.5
				c0,0.1,0,0.2-0.1,0.3C315.6,53,315.9,52.9,315.9,52.7z M336.5,65.3C336.5,65.3,336.5,65.3,336.5,65.3L336,66c0,0,0,0.1,0.1,0.1
				l0.5-0.5V65.3z"/>
		</defs>
		<clipPath id="SVGID_6_">
			<use xlink:href="#SVGID_5_"  style="overflow:visible;"/>
		</clipPath>
		<g class="st3">
			<path class="st4" d="M306.5,35.5c0,0-2.8,7.4-3.3,9.3s-1.9,8.4-2.1,10.2s-1.3,10.8-1.3,13.1c0,2.3-0.9,6.4,0.2,6.6
				c1.7,0.4,5.7-8.7,6.7-10.6c1.1-1.9,2.4-5.3,4.7-9.1s4.8-7.6,7-9.3s2.8-1.9,3.6-1.7c1.7,0.5,0.8,3,0.8,3.9
				c-0.2,2.2-1.5,8.2-1.5,8.2l-1.5,7.9c0,0-0.9,3.9-1.1,5.7c-0.2,1.5,0.1,3,0.8,4.3c0.4,0.7,0.1,0.7,0.9,1.4c0.8,0.8,1.9,1.3,3,1.4
				c1.1,0,3.1-1.4,3.8-2.1s5.2-5.4,5.2-5.4l6.5-6"/>
		</g>
	</g>
</g>
<g>
	<g>
		<defs>
			<path id="SVGID_7_" d="M14.7,104.4c-0.2-0.1-0.4-0.2-0.5-0.4c-1.2-1.3-2.3-2.6-3.3-4c-0.5-0.8-1.1-1.5-1.7-2.1
				c-1.2-1.3-2.9-4-4.3-3C4,95.5,4.2,96.8,5,98.2c1.5,2.7,3.3,5.3,5.3,7.7c0.8,1,2.5,2.8,3.7,2.8c2.3,0,7.3-5.9,9.1-8
				c0.8-0.9,1.5-1.8,2.2-2.8c0.4-0.6,1-1.9,0-2.6s-2.6,0.4-3.4,1.2c-1,1-2.2,2.3-3.4,3.7c-1.5,1.5-1.5,1.7-2.8,3.2
				C15.7,103.4,14.8,104.4,14.7,104.4z"/>
		</defs>
		<clipPath id="SVGID_8_">
			<use xlink:href="#SVGID_7_"  style="overflow:visible;"/>
		</clipPath>
		<g class="st5">
			<path class="st6" d="M5.2,94.1l5.8,9.4c0,0,1.9,2.8,2.5,3.1c0.7,0.2,1.5,0.2,2.2-0.2c1.5-1.4,2.9-2.9,4.2-4.6
				c1.4-2,7.1-8.6,7.1-8.6"/>
		</g>
	</g>
	<path class="st7" d="M14.7,104.4c-0.2-0.1-0.3,0-0.4-0.1c-1-0.9-2.3-2.6-3.3-4c-0.5-0.8-0.7-1-1.8-2.4c-1.2-1.3-2.9-4-4.3-3
		c-0.8,0.6,0.1,2.4,0.9,3.9c2.1,3.1,2.2,3,2.9,4c0.9,1.3,0.9,1.3,2.1,2.6c0.9,1,2.6,3.1,3.8,3.1c2.3,0,4.5-3.2,8.7-7.8
		c0.8-0.9,1.5-1.8,2.2-2.8c0.4-0.6,1-1.9,0-2.6s-2.4,0.8-3.2,1.5c-1,1-1.3,1.4-2.9,3.1c-1.7,1.8-1.1,1.1-3,3
		C16.2,103.1,14.8,104.4,14.7,104.4z"/>
</g>
<g>
	<path class="st8" d="M20.9,87.2c32.2,0.2,115.5-0.3,115.5-0.3l132.5-1.7c4.2,0.1,8.4,0,12.6-0.4c2.1-0.2,3.1-1.2,3.1-2.3
		c0-0.7-0.3-2-3.7-2.2c-7.3-0.4-24.4,0.1-24.4,0.1L73.6,81.8c0,0-38.1,0.2-53.8,0.2c-0.7,0-3,0.5-3.3,2.4c-0.1,0.9,0.4,1.8,1.2,2.3
		C18.7,87.1,19.8,87.3,20.9,87.2z"/>
	<g>
		<defs>
			<path id="SVGID_9_" d="M20.9,87.2c32.2,0.2,115.5-0.3,115.5-0.3l132.5-1.7c4.2,0.1,8.4,0,12.6-0.4c2.1-0.2,3.1-1.2,3.1-2.3
				c0-0.7-0.3-2-3.7-2.2c-7.3-0.4-24.4,0.1-24.4,0.1L73.6,81.8c0,0-38.1,0.2-53.8,0.2c-0.7,0-3,0.5-3.3,2.4
				c-0.1,0.9,0.4,1.8,1.2,2.3C18.7,87.1,19.8,87.3,20.9,87.2z"/>
		</defs>
		<clipPath id="SVGID_10_">
			<use xlink:href="#SVGID_9_"  style="overflow:visible;"/>
		</clipPath>
		<g class="st9">
			<polyline class="st10" points="10.1,83.7 152.3,83.7 288.9,82.4 			"/>
		</g>
	</g>
</g>
<g>
	<defs>
		<path id="SVGID_11_" d="M287.5,80.2c-0.8-0.7-11.9-3.7-12.5-3.6c-1.2,0.2-1.3,2.3-1.4,3.1s3.6,1.1,3.1,1.1
			c-0.8,0.5-10.8,6.7-11.8,7.3s3.1,4,4.4,3.6s18.1-9.3,18.6-9.7S288.3,80.9,287.5,80.2z"/>
	</defs>
	<clipPath id="SVGID_12_">
		<use xlink:href="#SVGID_11_"  style="overflow:visible;"/>
	</clipPath>
	<g class="st11">
		<path class="st12" d="M272.3,77.5c0,0,10,2.6,11.1,3.1s-1,1.4-2.3,2.3c-1.2,0.8-18.2,9.8-18.2,9.8"/>
	</g>
</g>
</svg>
