<svg id="Слой_1" data-name="Слой 1" xmlns="http://www.w3.org/2000/svg" xmlns:xlink="http://www.w3.org/1999/xlink" viewBox="0 0 726.53 58.36"><defs><style>.cls-1,.cls-3{fill:none;}.cls-2{clip-path:url(#clip-path);}.cls-3{stroke:#3e78fe;stroke-miterlimit:10;stroke-width:25.49px;}</style><clipPath id="clip-path" transform="translate(1.33 9.81)"><path class="cls-1" d="M3,14.66c7.25-.21,606.26-10.14,625.56-9.5,3.17.11,34.34.45,35,.5s2,.15,2,.39-1.75.22-2.12.26c-1.73.21-23.83.5-43.89,1.56-15.09.8-31.67,1-42.62,1.38-7.12.25-132,3.42-153.08,9A5.84,5.84,0,0,0,422,19a2.84,2.84,0,0,0-1,2.2,2.4,2.4,0,0,0,1.59,2.53c1.66.71,5.34.65,5.94.66,25.64.24,41.61.35,60.51-.17,2.15-.06,20.2.53,23.7,1,3.7.54,8.52,1.07,13.26,3.57a49.6,49.6,0,0,1,5.79,3.81c.7.56,1.79,1.84,2.6,2.1.62.2,1,.2,1.5-.56a2.24,2.24,0,0,0,0-2.37,21.25,21.25,0,0,0-6.82-6.44c-3.76-2.48-10.41-4-14.81-4.73-13.12-2.29-58.2-.72-72-.3-.44,0-2.66.1-2.69-.36s2-.48,2.65-.52c5.48-.3,169.46-6.09,170.75-6.09,1.52,0,16-.44,21.75-.62,7.23-.23,27.86-1.12,36.58-1.25,8.29-.13,24.59-.13,32.93-.18,10.33-.06,12.81.1,16.73-.44,2.42-.33,3.4-1.2,3.42-2.79a2.94,2.94,0,0,0-2.58-3.25c-2.84-.6-5.29-.76-10.67-1.33C687.92,1,569,0,569,0S9.39,8.74,7.25,8.8c-5.13.13-6.44.3-7.14,1.39A3.92,3.92,0,0,0-.28,12a3,3,0,0,0,1.42,2.36A4.42,4.42,0,0,0,3,14.66Z"/></clipPath></defs><title>line 3 block 2</title><g class="cls-2"><path class="cls-3" d="M-1,11.5c2.58.06,564.37-8.63,567.3-8.56l7.67.17,7.67.18,6.63.15,5.11.12,4,.1,5.68.17,4.93.15,3.32.1,3.88.12,4.27.13,4.73.14,7.11.22,8.72.26,4.82.15,7.68.23,4,.14,7.64.27,8.84.32,8.4.31,6.82.25,5.68.22,6.9.27,4.74.2,3.79.18c1.23.06,2,.11,2.32.15.74,0,.9.31.9.82s-.31.92-1.05,1c-.13,0-1.08,0-2.69,0H632l-1.85.16-3.2.28-3.82.33-5.06.44c-1.45.13-4.59.21-6.19.35l-4.35.38-4.66.41-4.56.4-4.59.4-4.67.41-2.74.24c-2.15.19-26.34-.11-28.43.07-1.53.13-12.38.18-13.86.32-2.12.19-43.17,1.26-45.13,1.43-1.24.11-61.05,3.81-62.21,3.92l-4.8.43-4.28.38-5.09.46-1.55.15c-.68.1-1.44,1-1.44,1a8.9,8.9,0,0,0,1.42.22l5.69.1,4.23.09L436,22l3.92.08,3.74.1,5,.1,6.25.13h31.82l3.52,0h6.2l2,0,2.66,0,2.61.06,2.25.08,2.32.12c1.4.09,2.66.2,3.67.34s5.06.35,6.1.6q.75.18,1.49.4c.71.2,1.42.43,2.11.66,1,.33,1.9.69,2.79,1.05.63.26,1.22.52,1.79.79s1.13.55,1.63.82a20.11,20.11,0,0,1,1.76,1c.48.33,1.45,1.08,2.26,1.75a18.58,18.58,0,0,1,2.13,2.1c.54.58,1.26,1.43,1.82,2s.81,1.05,1.26,1.54a4.57,4.57,0,0,1,.85,1.06" transform="translate(1.33 9.81)"/></g></svg>