<svg id="Слой_1" data-name="Слой 1" xmlns="http://www.w3.org/2000/svg" xmlns:xlink="http://www.w3.org/1999/xlink" viewBox="0 0 456.66 21.01"><defs><style>.cls-1{fill:none;}.cls-2,.cls-4{fill:#3e78fe;}.cls-3{clip-path:url(#clip-path);}.cls-4{stroke:#3e78fe;stroke-miterlimit:10;stroke-width:19.77px;}</style><clipPath id="clip-path" transform="translate(9.93 7.87)"><path class="cls-1" d="M7.33,6.53H196.52l9.93-.07,13.1-.09,10.78-.08,8.19-.07L248,6.14l8.6-.07,19.82-.47,12-.09L305,5.39l12.83-.09,10.39-.07,11.47-.08L352.82,5l16.1-.12,12-.09,12.84-.09,9-.07,10.73-.08s3.28.07,9.17,0c1.85,0,4-.07,6.29-.14l5.18-.19a11.32,11.32,0,0,0,3.28-.56c1-.33,1.62-.93,1.64-1.58s-.63-1.2-1.64-1.45a18,18,0,0,0-4.39-.55c-1.64,0-3.44-.08-5.47-.1H411.2l-9,.09c-5.36.07-9.12.13-9.12.13L380.62.29,367.79.35l-14.2.06L337,.46H316L304.5.51,290.3.56,276.91.62l-11.34,0H247.36L234.46.72,221.63.78H203.74l-14.2.06-11.73,0H157.73l-11.88,0H5.56a19,19,0,0,0-3.5.24C.87,1.44-.22,2-.37,3.59A2.57,2.57,0,0,0,2.05,6.26,41.6,41.6,0,0,0,7.33,6.53Z"/></clipPath></defs><title>line 3 block</title><path class="cls-2" d="M7.72,6.53H196.91l9.93-.07,13.1-.09,10.78-.08,8.19-.07,9.44-.07,8.6-.07,9.45-.39,10.37-.07,12-.09,16.66-.12,12.83-.09,10.39-.07,11.47-.08L353.21,5l16.1-.12,12-.09,12.84-.09,9-.07,10.73-.08s3.28.07,9.17,0c1.85,0,4-.07,6.29-.14l5.18-.19,2.64-.09c2.64-.08,2.68-1.66,2.68-2.11s0-2-2.72-2c-2.11,0-2.2,0-3.71,0S430,0,428,0H411.59l-9,.09c-5.36.07-9.12.13-9.12.13L381,.29,368.18.35,354,.41,337.37.46h-21l-11.47,0-14.2.06L277.3.62,266,.67H247.75L234.85.72,222,.78H204.13l-14.2.06L178.2.88H158.12l-11.88,0H5.95a11.87,11.87,0,0,0-3,.45A3.28,3.28,0,0,0,.46,3.24c-.62,1.09.22,2.28,2,2.82A18.07,18.07,0,0,0,7.72,6.53Z" transform="translate(9.93 7.87)"/><g class="cls-3"><polyline class="cls-4" points="0 11.13 232.93 11.13 456.6 9.89"/></g></svg>