<svg id="Слой_1" data-name="Слой 1" xmlns="http://www.w3.org/2000/svg" xmlns:xlink="http://www.w3.org/1999/xlink" viewBox="0 0 459.84 48"><defs><style>.cls-1,.cls-3,.cls-5{fill:none;}.cls-2{clip-path:url(#clip-path);}.cls-3,.cls-5{stroke:#3e78fe;stroke-miterlimit:10;}.cls-3{stroke-width:10.27px;}.cls-4{clip-path:url(#clip-path-2);}.cls-5{stroke-width:19.28px;}</style><clipPath id="clip-path" transform="translate(4.16 -0.5)"><path class="cls-1" d="M446.33,8.54c0,2.66,0,12.27.06,19.51,0,1.11.18,1.78-2.2,1.78-54.15,0-261.23.39-261.23.39L22.74,30c-5.06-.12-9.59,2.32-14.65,2.8-2.54.24-3.74,1.45-3.74,2.77,0,.84,0,.37,4.11.61,8.8.48,28.75,0,28.75,0l351.6.24,57.65-.23c.83,0,6.16-.66,6.16-4.91,0-12.07.06-20.6,0-22.94-.07-2.78,0-3.88-2.9-4C446.45,4.43,446.45,5.87,446.33,8.54Z"/></clipPath><clipPath id="clip-path-2" transform="translate(4.16 -0.5)"><path class="cls-1" d="M.89,35.92c1,.84,14.37,4.46,15.06,4.34,1.45-.24,1.57-2.77,1.68-3.74s-4.36-1.29-3.76-1.29c1-.61,13-8.08,14.22-8.8s-3.74-4.83-5.31-4.34S1,33.26.38,33.74-.14,35.07.89,35.92Z"/></clipPath></defs><title>line3 4 block&amp;apos;</title><g class="cls-2"><path class="cls-3" d="M449.36.91s2.44,31,.34,31.53-22.59.67-22.59.67h-54.8l-43.12-.35-47.35-.3-40.17.65H186.91l-25.5-.7-20,.2-15.28.14-17.28.16-17.07.16-17.67.16-13.46.12-21.49.21-17.45.16-14.17.13L-1.06,34" transform="translate(4.16 -0.5)"/></g><g class="cls-4"><path class="cls-5" d="M19.18,39.17S7.13,36,5.84,35.43,7,33.74,8.58,32.66,30.51,20.86,30.51,20.86" transform="translate(4.16 -0.5)"/></g></svg>