<svg id="Слой_1" data-name="Слой 1" xmlns="http://www.w3.org/2000/svg" xmlns:xlink="http://www.w3.org/1999/xlink" viewBox="0 0 339.08 191.93"><defs><style>.cls-1,.cls-3,.cls-5,.cls-7,.cls-9{fill:none;}.cls-2{clip-path:url(#clip-path);}.cls-3,.cls-5,.cls-7,.cls-9{stroke:#3e78fe;stroke-miterlimit:10;}.cls-3{stroke-width:42.95px;}.cls-4{clip-path:url(#clip-path-2);}.cls-5{stroke-width:29.41px;}.cls-6{clip-path:url(#clip-path-3);}.cls-7{stroke-width:15.4px;}.cls-8{clip-path:url(#clip-path-4);}.cls-9{stroke-width:13.35px;}</style><clipPath id="clip-path" transform="translate(1.67 2.9)"><path class="cls-1" d="M179.63,120.8c.19-.19.19-.19.38-.19v.93a1.69,1.69,0,0,0,.55,1.31c0,.19.19.19.38.19a1.4,1.4,0,0,0,.38.74c0,.19,0,.19-.19.19A2.38,2.38,0,0,1,180,125.3v.19a.19.19,0,0,1-.19-.19h0l-.19-.19c.19-.19-.19-.19-.19-.19s-.55.38-.55.55a2.76,2.76,0,0,1-.55,1.31l-.19.19c.19.19.19.19.19.38s.19.19.38.19.19,0,.19-.19a1.12,1.12,0,0,1,.19-.86h.29s.38.19.38.38,0,.19-.19.38a.83.83,0,0,1-.55.55c0,.38,0,.55.19.55a.57.57,0,0,0,.38.19v-.38c.38-.38.55-.38.74-.38a.4.4,0,0,1,.38.38,1.12,1.12,0,0,1,.19.74l-.38.55a1.4,1.4,0,0,1-.74.19c-.19,0-.38,0-.38-.19v-.38H179v.38c-.19.19-.19.55-.38.55s-.38-.19-.55-.38h-.48a.4.4,0,0,0-.55.48v1.31c0,.19.19.38.19.55s-.19.38-.38.55a.57.57,0,0,0-.19.38c0,.19,0,.19.19.19v1.12c0,.38-.55.74-.93,1.12a.64.64,0,0,0-.19-.38l-.19.19-1.12,1.5v.6a1.62,1.62,0,0,1-.55,1.12c-.19.19-.38.38-.38.55s.19.38.38.55-.19.38-.38.38a3,3,0,0,0-.55,1.67c-.38.19-.38.55-.55.93s-.38.19-.38.38v.33a3.36,3.36,0,0,0-.93,1.31v.93q-.29.55-.55.55a4.12,4.12,0,0,1-1.5.19c-.19,0-.55,0-.55.19l-.43.45c-.19,0,0,.19.19.38s.19-.19.38-.19h.86v.55c-.19.55-.55.55-.74.74s-.55.19-.55.55a1.12,1.12,0,0,1-.19.74l-.19.19c-.38.19-.38.38-.55.74v.19c-.55.19-.55.55-.93.74s-.74.93-1.12,1.12a1.76,1.76,0,0,1-.38,1.31h-.93a.6.6,0,0,0-.55.55.69.69,0,0,1,.19.55,2.69,2.69,0,0,1-1.31,1.86c-.55,1.12-1.12,1.67-1.5,2.59h-.19c.19,0,.19,0,.38.19s.38.19.74.19h.67a1.4,1.4,0,0,1-.19.93,8.14,8.14,0,0,1-1.31.74.19.19,0,0,0-.19.19h0v.19c.19.19.19.19.19.38s-.19.38-.19.55-.38.19-.93.38l-1.5,1.12c-.19.19-.19.19-.38.19a2.74,2.74,0,0,0-1.12.93v.48a2.38,2.38,0,0,0-2.24.93,3.21,3.21,0,0,0-1.5.19c-.19,0-.19,0-.55-.19s-.93,0-.93.38-.55.19-.74.19a8.38,8.38,0,0,0-2,.19h-1.12c.19-.19-.19-.19-.19-.19h-.79a1.57,1.57,0,0,1-1-.36,6.86,6.86,0,0,1-2.79-.74s-.38,0-.38-.19a11.48,11.48,0,0,0-1.12-.74,1.24,1.24,0,0,1-.93-.74,2.93,2.93,0,0,1-.93-1.5c-.55-.19-.55-.55-.74-.74h-.26c-.74-.38-.74-.74-.74-1.12V161h-.19a5.71,5.71,0,0,1-.93-2.38c-.55-.19-.55-.38-.74-.74a1.93,1.93,0,0,1-.19-.93v-.19c0-.38,0-.74.38-.93l.19-.19a3.17,3.17,0,0,0-.38-.93h-.19c-.38-.19-.38-.19-.38-.55v-2.83a1.86,1.86,0,0,0,.55.19c.19,0,.19,0,.19-.19v-.19a28.87,28.87,0,0,1-.38-3.36,23.8,23.8,0,0,1,.38-3.17v-.29c0-.38-.38-.74-.38-1.12V143a1.12,1.12,0,0,1-.19-.74.69.69,0,0,1,.19-.55,2.67,2.67,0,0,1,.43-1.1,8.19,8.19,0,0,1,.38-1.86h0a.19.19,0,0,1,.19-.19h0a.64.64,0,0,0,.38.19h.38a.64.64,0,0,1,.19-.38c0-.19-.19-.19-.38-.19s-.38-.38-.38-.55a2.64,2.64,0,0,0-.38-1.12,3.48,3.48,0,0,0-.55-1.12l-.38-.55v.38c-.55,1.12-.93,1.67-1.86,1.86,0-.19-.19-.19-.19-.38a.19.19,0,0,1,.19-.19h0c.19,0,.38,0,.38-.19a.64.64,0,0,1-.17-.48v-.38c0-.19,0-.19.19-.19h0a5.17,5.17,0,0,0,1.12-1.5v-.31c1.31-.55,1.31-2,2-3.36v-.38c0-.19,0-.19.19-.19a2,2,0,0,0,.38-1.31l-.19-.19c-.55.19-.74.55-1.12.55s-.55.38-.55.74,0,.55-.38.74-.19.19-.19.38v.64a3.31,3.31,0,0,0-.74,1.86c-.38.55-.38,1.12-1.12,1.31a2.5,2.5,0,0,1-1.67.93h-.17c-.19,0-.38,0-.55.38v1.31a15.5,15.5,0,0,1-.74,2.79.4.4,0,0,0,.38.38c.19.19.19.19.38.19a.19.19,0,0,0,.19-.19h0a.19.19,0,0,1,.19-.19h0c-.19-.19-.19-.19-.19-.38a.19.19,0,0,1,.19-.19h.19c.55-.19.74-.38.74-.93s.38-.55.55-.93h.55v.38a.64.64,0,0,0-.19.38c0,.19.19.19.38.38a2.38,2.38,0,0,1,.38.55h.19l-.19.19h-.43c-.19-.19-.19.19-.19.55s0,.19.55.93h-.19c0,.19-.19-.38-.19-.38l-.38-.19-.19-.19c-.19,0,0,.19-.19.19l.55,1.12c0,.38,0,.55-.38.74a1.31,1.31,0,0,0-.74.93c0,.19-.38.19-.55.19l-.19-.19c-.19,0-.19,0-.19-.19v-.55c0-.19-.19-.38-.55-.55a.64.64,0,0,0,.19.38c0,.38,0,.74-.55.93s-.74.38-.74.74c-.38.19-.38.55-.93.55s-.38.38-.38.55.19.38.38.74c-.55.38-.55.55-.93.55s-.19-.38-.38-.38-.55.38-.74.55,0,.38.38.38v.74a1.79,1.79,0,0,1-1.5,1.67.19.19,0,1,1-.38,0,.64.64,0,0,1-.38-.19c-.19,0-.19.19-.19.38s-.55.74-.55,1.12,0,.93-.38,1.12l-1.12.74a.57.57,0,0,0-.19.38v.19a1,1,0,0,0-.93.55l-1.31.74a3.9,3.9,0,0,1-2.38.93h-.48a2.69,2.69,0,0,1-1.31.38,1.67,1.67,0,0,0-.93.19h-4.76a.64.64,0,0,1-.38.19c-.19,0-.38-.19-.55-.38-.93-.38-1.67-.38-2.38-.74-.19,0-.38.19-.55.19a3.12,3.12,0,0,1-.93-.38,2.69,2.69,0,0,0-1.31-.38,4.76,4.76,0,0,1-1.31-.74l-1.31-.74c-.19,0-.38,0-.55-.38-.19,0-.19-.19-.19-.38v-.43c0-.19-.19-.19-.38-.19s-.38-.19-.55-.74-.38-.19-.74-.19l-.55-1.5a4.76,4.76,0,0,1-1.12-2.38v-.19a12.9,12.9,0,0,1-.93-2.38c0-.19-.19-.38-.19-.74a.69.69,0,0,1,.19-.55v-.93a5.74,5.74,0,0,1,.38-1.5c.19.19,0-.55-.19-.74a3.52,3.52,0,0,1-.55-1.5v-.19a1,1,0,0,0,.38-.74c0-.19-.19-.55-.19-.74a13.26,13.26,0,0,0,.79-3.86c0-.19,0-.19.19-.38.74-.38.93-.38.93-.74s.19-.38.38-.55.19-.38.38-.74a3.17,3.17,0,0,1-.19-1.31.19.19,0,0,0,.19-.19h0a1.4,1.4,0,0,1-.21-.86c0-.19,0-.38.19-.38a7.71,7.71,0,0,0,.74-1.86,36.57,36.57,0,0,1,1.86-8.19c.38,0,.38-.38.38-.74v-.38c0-.38.19-.55.55-.74a1.36,1.36,0,0,0,.55-1.12,2.38,2.38,0,0,1,.74-1.12,2.69,2.69,0,0,1,.38-1.31,7.14,7.14,0,0,0,1.12-2c0-.19,0-.19.19-.19v-.19c0-.38.19-.55.19-.93s.19-.74.55-.74c0-.38.38-.38.55-.55a5.43,5.43,0,0,0,.55-1.12c.17-.38.38-.74.74-.74v-.52c0-.38.19-.38.55-.55a9.52,9.52,0,0,1,1.31-2.79,3.12,3.12,0,0,0,1.67-2c.19-.38.38-.74.93-.74a5.14,5.14,0,0,1,1.67-.19c.55-.19.74-.93,1.5-1.5a1,1,0,0,1,.93-.55h.36c-.19-.19-.19-.19-.19-.38.93-.74,2-.93,2.79-1.5a9.52,9.52,0,0,1,2.38-.93l.19-.19c.19,0,.38.19.55.38a.19.19,0,0,1,.19-.19h.19a2.38,2.38,0,0,0,1.12.19h.81c.55,0,1.31-.38,1.86-.38H128a8.07,8.07,0,0,0,1.31.74c.19,0,.38.19.74.38a2.69,2.69,0,0,0,1.31.38,40.16,40.16,0,0,1,4.76,2.59,2.12,2.12,0,0,0,1.12.55l.19.19c.38.55.93.74,1.12,1.12v.38l-.19.19-.93-.19c-.19,0-.19-.19-.38-.19a.19.19,0,0,0-.19.19h0a1.45,1.45,0,0,1-1.31.55c-.38,0-2.24-.19-3.55-.19-.55,0-1.12,0-1.12.19v.38l-.19.19h-.19a1.4,1.4,0,0,0-.74-.19c-.38,0-.38.19-.38.38A17.71,17.71,0,0,0,126,102a1.6,1.6,0,0,1-1.12.55q-.29,0-.55.55a6.67,6.67,0,0,1-.93,1.67h-.19c-.19,0,0,.19-.19.19a24.33,24.33,0,0,0-3.12,3.88,11.9,11.9,0,0,0-1.31,2.24,1.26,1.26,0,0,1-.74,1.12c-.19,0-.19.19-.19.38-.19,1.12-1.12,1.86-1.5,3l-.38.55c-.38,0-.55.55-.74.93a.93.93,0,0,1,0,1.12c-.19.19-.19.19-.19.38a4.36,4.36,0,0,1-.93,1.86h-.19a.4.4,0,0,0-.38.38,5.5,5.5,0,0,1-.38,1.86c-.19.19-.19.55-.38.93a.86.86,0,0,0-.55.93v1.12c0,.19,0,.38-.19.38-.74.38-.55,1.12-.74,1.86-.19.19-.19.19-.19.38v.6a2.38,2.38,0,0,1-.55,1.67c0,.38-.38.74-.55,1.31a9.88,9.88,0,0,1-.55,2.24l-.55.74v2.59a.64.64,0,0,0-.19.38c-.19.55-.38.74-.38,1.12a3.14,3.14,0,0,0-.4,1.86A2.38,2.38,0,0,0,108,142c0,.19.19.38.19.55a6.9,6.9,0,0,0-.74,2.79,1.21,1.21,0,0,0,.38.93v.5a1.33,1.33,0,0,1,.55,1.12c.19.19.38.38.55.38a.19.19,0,0,0,.19-.19h0c.38,0,1.12-.19,1.31-.55a3,3,0,0,0,1.67-.93c.38,0,.74-.38,1.12-.55a10.45,10.45,0,0,0,3.36-3,11.28,11.28,0,0,1,1.86-1.31.69.69,0,0,0,.19-.55V141a5,5,0,0,1,1.12-.93.4.4,0,0,0,.38-.38c.55-.93,1.31-1.12,1.31-2v-.43c.38,0,.93-.19,1.31-.19s.55-.38.55-.74c.19-.93.55-1.12.93-1.86a3.07,3.07,0,0,0,.74-.74,2.93,2.93,0,0,0,1.31-1.31l1.12-1.31a8.17,8.17,0,0,0,1.5-1.86.4.4,0,0,0,.36-.33,11.17,11.17,0,0,0,1.67-2.38.69.69,0,0,1,.19-.55,6.5,6.5,0,0,0,.93-1.5c.74-.55.93-1.31,1.67-2,0-.19.19-.19.38-.38.55-.93,1.67-1.12,1.67-2.79a5.43,5.43,0,0,1,.38-1.67c.55-.93.74-2,1.5-3.17l.74-.55a1,1,0,0,0,.38-.74.93.93,0,0,1,0-1.12c.93-1.86,1.67-3.9,2.59-5.59v-.14l.74-1.67a3.76,3.76,0,0,0,.74-1.5c0-.19.38-.55.38-.74s.38-.74.38-1.12a.69.69,0,0,1,.19-.55c.55-.74.55-2,1.31-2.79a4.45,4.45,0,0,0,1.12-2,10.88,10.88,0,0,1,.38-2.38c0-.19.38-.55.55-.74a22.28,22.28,0,0,0,.55-3.71c.38-.38.19-.55.38-.74L148.8,86a9.38,9.38,0,0,1,2-4.76c.19,0,0-.19,0-.19a1.9,1.9,0,0,1,.93-1.12c.19-.38.55-.38.74-.55a.83.83,0,0,1,.74-.55l1.12-.55c.19-.19.19-.19.38-.19a.69.69,0,0,1,.55.19l.55.74a2.38,2.38,0,0,0,1.5.55,1,1,0,0,1,.93.38,2.21,2.21,0,0,0,1.31,1.31H160c.19-.19.19-.19.38-.19s.55.38.74.55a2,2,0,0,0,.93.19.4.4,0,0,1,.38.38,8.07,8.07,0,0,0,.19.93c.19,0,.38.38.55.55a2.38,2.38,0,0,1,.17,1.12c-.55.55-.55,1.12-.93,1.67v.19c-.74.38-.74,1.12-.93,1.67l-.93,1.86a14,14,0,0,1-1.12,2.38c-.19.19-.19.38-.38.93a2,2,0,0,1-.38,1.31c0,.19-.19.38-.19.74a1.1,1.1,0,0,1-.38.93c-.19.38-.19.74-.38.93a9.33,9.33,0,0,1-.93,2.38c0,.19-.19.38-.19.55v.38a1.43,1.43,0,0,1-.38.93l-.38.38a.69.69,0,0,0-.19.55c0,.19,0,.19.19.38a.69.69,0,0,1,.19.55c0,.38-.19.74-.19,1.12V105a2.71,2.71,0,0,0-.55,1.12,1.12,1.12,0,0,0-.19.74v.38a2.69,2.69,0,0,1-.38,1.31c-.19.74,0,1.5-.93,2a.19.19,0,0,0,.19.19h0V111c0,.19-.19.19-.19.55s0,.19.19.38-.19.55-.19.93v.19a8.33,8.33,0,0,1-.55,2,8.38,8.38,0,0,0-.55,2c-.19.19-.19.55-.38,1.12,0,.19,0,.38-.38.74a1.12,1.12,0,0,0-.19.74,1.21,1.21,0,0,0,.38.93c0,.55,0,1.5-.55,1.86h-.14a.19.19,0,0,0-.19.19h.19c0,.19.19.19.19.38s-.19.19-.19.38v.69a2.38,2.38,0,0,0-.55,1.31,4.38,4.38,0,0,1-.38,1.5v1.31l-.38.38-1.12,1.5c0,.19,0,.38.38.74s.38.19.38.38l-.19.19a1.67,1.67,0,0,0-.19.93l-.55,1.67v.74a2.38,2.38,0,0,1-.19,1.12,1.12,1.12,0,0,0-.19.74,2.38,2.38,0,0,0,.19,1.12c-.19,0-.19.38-.19.38a18.09,18.09,0,0,0-.74,2,10.88,10.88,0,0,1-.38,2.38c0,.19.19.55.19.74a3.14,3.14,0,0,1-.38.93v.93c-.38.38-.38,1.12-.74,1.67a.4.4,0,0,0,.38.38.64.64,0,0,0,.38-.19v2.88c0,1.31-.19,2-.19,2.79-.19.19-.19.19-.19.38s0,.38.19.38v.93h-.31c.55.74.38.93.74,1.67l.74,1.67c.19.55.55.74.55,1.5a.19.19,0,0,0,.19.19h0l.93.74c0,.38.19.55.38.55a1.4,1.4,0,0,0,.93.19c.55-.38,1.31-.74,1.5-1.5a2.67,2.67,0,0,0,.55-.38c.38-.19.74-.55.93-.55a4.29,4.29,0,0,0,1.12-1.67,3.38,3.38,0,0,0,1.5-1.12l1.86-2.79c.19-.19.19-.38.38-.38a10.57,10.57,0,0,0,2-2.59c.19-.19.38-.38.38-.55a2.17,2.17,0,0,1,1.12-1.12c.38-.74.74-1.31,1.12-1.31v-.24c.74-.93,2-1.12,2.59-2.24a6.45,6.45,0,0,0,1.31-2.24,40.9,40.9,0,0,0,2.79-4.76c.19-.55.74-.93.93-1.31s.93-.74.93-.93c.19-.55,0-1.12.55-1.31a16.45,16.45,0,0,0,1.67-3.71c.19-.38.19-.38.19-.55a7.14,7.14,0,0,0,1.67-3.36,6.55,6.55,0,0,1,1.5-2.38l.74-1.12h.19s.19,0,0,.19v.38l.19.19a3.36,3.36,0,0,0,.74-1.67c0-.19-.19-.38-.19-.55Zm-52.9,26.81a.19.19,0,0,1-.19-.19h0c-.19.19-.19.19-.19.38A.57.57,0,0,0,126.73,147.61Zm.86-5.4h-.74v.38c0,.19,0,.19.38.38l.19.19c.19-.19.19-.38.38-.38a1.45,1.45,0,0,1-.17-.57Zm.55,2.59c.19,0,.19-.19.19-.38l-.5-.07v.74Zm.55-3-.38-.19v.19c.19,0,.19,0,.38.19Zm.55-.93c.19-.19.74-.19.74-.55a.83.83,0,0,0-.55-.55,2.38,2.38,0,0,0-.55.93c0,.19,0,.19.19.19Zm1.67.93c-.19,0-.19-.19-.19-.38h-.19v.19c0,.21.29.21.48.21Zm.38,2.24c0,.19,0,.38-.19.38l-.19-.19c.26,0,.26-.17.45-.17Zm.93-2.38v-.21h-.31v.19Zm3.17-3.55v.24h-.19c-.19-.19-.19-.38-.38-.38l.38-.19h.38a.57.57,0,0,0,0,.31Zm-.29-9.28c0,.19,0,.19.19.19h.19l.19-.19a.19.19,0,0,0,.19.19h0c.38,0,.19-.38.74-.38v-.38c0-.19,0-.19.19-.38a.64.64,0,0,1,.19-.38,7.14,7.14,0,0,1,.55-1.86,3.45,3.45,0,0,0,.38-1.31l-.19-.19h-.19c-.19.19-.19.38-.19.74-.38.38-.38.55-.74.55a1.4,1.4,0,0,0-.74.38c-.19,0,0,.19-.19,0V126c0,.19-.19,0,0,.19a2.38,2.38,0,0,0,.55.93v.19c0,.19,0,.19-.19.19l-.38.19c-.19,0-.19,0-.19.19s.19.55.19.74a.69.69,0,0,0-.67.21Zm.55,8.93H136v-.19a.19.19,0,0,0-.19-.19h0v.19a.19.19,0,0,1-.19.17Zm.19-1.31c0-.19.19,0,.19,0v.38Zm1.67,22.14v-.38c-.19,0-.19-.38-.38-.74s-.19-.55-.38-.55l.19-.19a.69.69,0,0,0-.55.19c.19,0,0,.55.38.93a.57.57,0,0,1,.19.38v.38Zm.19-21.59h-.57v.19c.19.19.38.19.38.38Zm.55,1.12a.19.19,0,0,1,.19-.19h0l-.19-.19a.69.69,0,0,0-.55-.19Zm.74-14.71v-.19a.64.64,0,0,0-.38-.19h-.19c-.19,0-.19.19-.38.19a1.4,1.4,0,0,0,.74.38c.24,0,.24,0,.24-.19Zm-.55,3.36a.19.19,0,0,0-.38,0,1.4,1.4,0,0,1,.19.74v.17c.19,0,.19-.19.38-.19v-.38A.64.64,0,0,1,138.42,126.78Zm.19-6.69a.19.19,0,0,0-.19.19h0c0,.19,0,.19.19.19a1.4,1.4,0,0,1,.38.74c0,.19.55-1.5.74-1.5s.38,2.24.74,2.38l.19-.19s.19-.19,0-.19c-.38-.38-.74-.38-.93-.74-.19,0-.19,0-.19-.19v-1.12h0a.64.64,0,0,1-.38-.19.69.69,0,0,0-.74.6Zm.88-4.31h-.79c-.19,0-.38.38-.19.38l.74.74H139v.19l.19-.19a.19.19,0,0,1,.19-.19h0Zm.93-1.12-.19-.19H140a2.64,2.64,0,0,0-.38,1.12,1.31,1.31,0,0,0,.76-1Zm0,2.59c-.19.19-.19.19-.38.19l.38.38v-.19a.19.19,0,0,1,.19-.19h0Zm1.31,47.28v.19l.19-.19a2,2,0,0,0-.93-.38l-.19.19a1.69,1.69,0,0,0,.86.21Zm3.17-18.24-.19.19a.69.69,0,0,0-.19.55.6.6,0,0,0-.55.55,2.69,2.69,0,0,1,.38.55c.19-.38.38-.55.38-.93h.38V147a.64.64,0,0,1,.19-.38Zm-.38.74c0,.19,0,.19.19.19V147Zm.74-2.24a.19.19,0,0,0,.19-.19h0a.74.74,0,0,1,.38-.74v-.38h-.55a1.43,1.43,0,0,0-.38.93c0,.19.19.19.38.38Zm2-16.19a.57.57,0,0,0-.38.19c0,.19-.19.38-.19.74a9.86,9.86,0,0,0-.55,2.24v.38c-.38.19-.38.74-.74,1.12s-.19.19-.19.38.38.38.55.38.55,0,.55-.38a2.69,2.69,0,0,0,.29-1.21v-.55a23.18,23.18,0,0,1,.74-3,.19.19,0,0,0-.14-.21Zm-1.86,19.9h.4v-.19c.19-.19,0-.19,0-.19C145.45,148.13,145.28,148.51,145.45,148.51Zm.19-6.33c-.19,0-.19.19-.19.38l.19.19h.21v-.55Zm2.38-11.9-.19-.19h-.19c0,.55-.38,1.12-.38,1.5s0,.19.19.38a.67.67,0,0,1,.19.55,2,2,0,0,0-.74,1.67v.64l.19.19h.19c.19,0,.19-.19.19-.38a2.59,2.59,0,0,1,.74-1.67v-1.86c0-.17-.14-.55-.14-.74Zm.93-3.17h-.43a2.79,2.79,0,0,1-.55,1.5c-.19.19-.19.19-.19.38s0,.38.19.38l.19.19.38-.38c.38-.19.19-.38.38-.38a1.4,1.4,0,0,0,.38-.74v-.74c0-.21-.36-.21-.36-.21Zm0-5.21c0-.19,0-.19-.19-.38a.19.19,0,0,1-.19.19h0a1.36,1.36,0,0,1-.38,1.12h.19a1,1,0,0,0,.55-.74Zm.55,2h.19a1.12,1.12,0,0,0,.19-.74c-.19,0-.19-.38-.38-.38s-.19,0-.19.19l-.19.19Zm1.12-5.21h.29c0-.19.19-.38.19-.55s-.19-.19-.38-.19l-.19.19.19.19Zm2-7.71c-.19,0-.38,0-.38.19a.64.64,0,0,0,.19.38v.19a.4.4,0,0,0,.38-.38v-.19Zm6.57,51.23V162c0-.19.19-.19.19-.38s.19,0,.38-.19q.83,0,1.12-1.12c.19,0-.19-.38-.19-.38h-.31c-.38,0-.38.38-.55.74s-.74.38-1.12.74a1.86,1.86,0,0,0-.74.93c-.19,0-.38.19-.38.55l.38.19h0c.26-.33,1-.5,1.19-.83Zm3.71-7.14a.19.19,0,0,0-.19-.19h-.55c.19,0,.19.19.38.19l.19.19a.19.19,0,0,0,.17-.19Zm2-3.33c0,.19-.38.19-.55.19s-.19.38-.38.38v.19c0,.19-.19.19,0,.19h.93l.55-.74Zm1.12-1.31-.19-.19c-.19,0-.38-.19-.38,0s-.38.38-.38.55a.69.69,0,0,0,.19.55h.38c.29,0,.29-.33.48-.9Zm1.31-1.5c-.19,0-.19,0-.19-.19a.19.19,0,0,1,.19-.19h.38v-.19h-.38c-.38.19-.74.19-.93.55a.19.19,0,0,0,.19.19h0a.69.69,0,0,0,.55.19c.29,0,.29-.14.29-.33Zm5.21-3.55h-.21V145a8,8,0,0,1-.19-.93l.55-.55h.21a.19.19,0,0,0,.19.19h0c-.26.57,0,1.14-.45,1.69Zm.38-9.12c.19.38.19.38.19.55h.19a.67.67,0,0,0,.74-.74v-.38c-.19-.38-.19-.74-.55-.74h-.19a.19.19,0,0,0-.19.19h0v.38c0,.19,0,.19-.19.38Zm6-15.26v-.26c0-.19.19-.19.38-.19h.21c-.19.38-.19.38-.19.55a.57.57,0,0,1-.29-.14Zm.19,10v-.19c0-.19,0-.19.19-.19h.21c0,.19,0,.38-.19.38ZM182.35,113a8.24,8.24,0,0,0,.93-2.79l.55-.74h.33v.19a3.45,3.45,0,0,0-.38,1.31h.55a1.86,1.86,0,0,0,.19-.55,1.69,1.69,0,0,1,.55-1.31.64.64,0,0,0,.19-.38c0-.19-.19-.19-.19-.38s0-.19-.19-.19l-.38.38-.19.19v-.38c0-.38.19-.55.55-.74a4.76,4.76,0,0,0,.38-1.31c0-.19.19-.55.38-.55-.19-.19,0-.19,0-.19l.55.19-.19.38c0,.19-.19.19-.38.38a.19.19,0,0,0-.19.19h0c0,.19.19.38.38.55a.64.64,0,0,0,.43.19l.19.19c.19,0,.19-.19.19-.55a.19.19,0,0,1,.19-.19h0a.64.64,0,0,1,.38.19v.55c-.74.74-.55,1.67-.74,2.38a.4.4,0,0,1-.38.38c-.55.55-.38,1.5-1.31,1.86a.19.19,0,0,0-.19.19h0v.38c0,.55-.55.93-.55,1.67,0,.19-.19.38-.19.55-.55.55-.38,1.31-.74,1.86v.19c0,.19,0,.19.19.38v.93c-.19.19-.19.38-.19.74V120a1.52,1.52,0,0,0-.74,1.12c0,.19.19.38.19.55s-.19.38-.38.55-.19.19-.19.38a1.36,1.36,0,0,1-1.12.38c0-.19,0-.38.19-.38s.38-.38.55-.38a.57.57,0,0,0,.19-.38c-.31-.17-.31-.17-.31-.31a.19.19,0,0,1,.19-.19h0a1.69,1.69,0,0,0,.55-1.31.19.19,0,1,1,0-.38h0c.19-.19.19-.19.19-.38s0-.19-.19-.55a.64.64,0,0,1,.19-.38v-.21l-.19.19c-.19,0-.38.19-.55.38a1.12,1.12,0,0,0-.19.74v.74a1,1,0,0,1-.38.74h-.19v-.74c0-.19-.19-.38-.38-.55l-.38-.38v-.38a1,1,0,0,1,.38-.74L182,117c0-.19,0-.19.19-.38s.55,0,.55-.19a.64.64,0,0,1-.19-.38c-.38-.38-.38-.74-1.12-.74V115l.55-1.12c0-.36.4-.55.4-.93Zm-1.67,3.9a.64.64,0,0,1,.38-.19c0,.19,0,.38-.19.38Zm1.31-2.24c0,.19.19.19.38.38a.19.19,0,0,0,.38,0c0-.19.19-.55.19-.74a.19.19,0,0,0,.19-.19h0c0-.19-.19-.19-.38-.19H182Zm.38,9.31c.19-.38.19-.38.38-.38a.64.64,0,0,0,.19.38c-.19.38-.19.55-.38.55a.19.19,0,0,1-.19.19h0a.19.19,0,0,0-.19-.19h0a.93.93,0,0,0,.24-.4Zm1.12-11.36h.19c.19,0,.19,0,.19-.19s.19-.19.38-.38c-.19-.19-.19-.38-.38-.38s-.19.38-.55.55c.21,0,.21.26.21.43Zm.19.74a.19.19,0,0,1-.19.19h.19Zm.38,7.64v-.19a.19.19,0,0,0,0-.24h0a.19.19,0,0,1,.19.19h0c-.17,0-.17.21-.36.21ZM187.44,105l-.19-.19c-.19-.38-.38-.38-.74-.38h-.26v-.38L187,103a.64.64,0,0,0,.38-.19,1,1,0,0,0,1.12-.93h.14c.38.38.38.55.55.55s.19.19.19.38a.64.64,0,0,1-.19.38L188.06,105a.19.19,0,0,0-.19.19h0C187.63,105,187.63,105,187.44,105Z"/></clipPath><clipPath id="clip-path-2" transform="translate(1.67 2.9)"><path class="cls-1" d="M301.35,153.43a.77.77,0,0,1-.61.21c-.61.43-1,.83-1,1.25a.77.77,0,0,0,.21.61h.61c-.61.43-.61.83-.61,1.47v.43a.77.77,0,0,1-.43.61.64.64,0,0,1-.21-.43,3.84,3.84,0,0,0-.43-1.47c-.21,0-.43-.21-.61-.21l-.21.21c0,.43-.43,1-.43,1.47v.21H297l.43.21.21-.21h.21l.21.21c-.21.43-.21.83-.61,1l-.43.43a.64.64,0,0,1,.43.21.77.77,0,0,0-.21.61c0,.21,0,.43.21.43h0a4.4,4.4,0,0,1-1.47.61,1.6,1.6,0,0,1-.61.21c0-.21,0-.61.21-.61,0-.43.21-.61.43-1.25l-.43-.21c-.21,0,0,.21,0,.21a1.76,1.76,0,0,0-.83,1.47c-.61,0-.61.43-.61.61a3.44,3.44,0,0,1,.43,1.87l-1.68.43c0,.43-.83,1-.83,1.87h-.4c0,.43-.21.43-.61.61l-.21.21v-.61l-.21-.21-.83,1.68-.83.43c-.83.61-1,1.25-2.08,2.08A3.31,3.31,0,0,1,285,172h-.21c-.21,0-.21.21-.43.43a.72.72,0,0,1-.43.21h-.29c-.21,0-.61.21-.83.21a.45.45,0,0,1-.43.43c-.21.21-.83.21-1.25,1-.21,0-.61.43-.83.61h-.21v-.21h-.83c-.43-.21-.61-.43-.61-.21s-.43.61-1,1c-.21.21-.43.21-1,.21h-1.25a.64.64,0,0,0-.43.21c-.43.61-.61.83-1,.83s-.43.21-.61.21a.45.45,0,0,0-.58-.27h0c-.21,0-.43.21-.61.21-.61,0-1.47.43-2.08.43h-2.51a2.67,2.67,0,0,1-1.25-.21H265a2.67,2.67,0,0,1-1.25-.21h-.21a.64.64,0,0,1-.43.21,2.16,2.16,0,0,0-.83.21c-.21-.83-.61-.83-1.25-1s-.43.21-.43.21a2.67,2.67,0,0,0-.61-.43,8.17,8.17,0,0,0-2.67-1c-.43-.43-1-.43-1.25-.83-.83-.61-1.87-.83-2.51-1.68a14.09,14.09,0,0,1-2.3-1.47,3.68,3.68,0,0,1-1.87-1.68,2.67,2.67,0,0,1-.43-.61,5.74,5.74,0,0,1-1.68-1.25c-.43-.21-.43-.61-.83-1s0-.21-.21-.43a8,8,0,0,0-1.47-2.3c0-.21,0-.21-.21-.43a5.34,5.34,0,0,0-.61-1.68,1.57,1.57,0,0,1-.21-1v-1.09l.43,1a.21.21,0,0,0,.21.21h.21l.21-.21v-.24c-.43-.43-.43-.83-.61-1a1.12,1.12,0,0,1-.61-.83.21.21,0,0,1,.21-.21c0-.61,0-1.25-.21-1.47s-.21-.88-.21-1.28a.77.77,0,0,1,.21-.61.45.45,0,0,0-.43-.43,2.24,2.24,0,0,1-.43-1.25v-.37a1.57,1.57,0,0,1,.21-1v-4c0-.21-.21-.61-.21-.83a2,2,0,0,1,.61-1v-.43a8,8,0,0,0-.43-3.12l.21-.21.43-3.34v-.43c0-.21,0-.43.43-.61a2.08,2.08,0,0,0,.61-.21v-.43a.77.77,0,0,0-.21-.61c-.21,0-.43.21-.61.21s-.21-.21-.21-.83a3.74,3.74,0,0,0,.83-1.87c0-.21,0-.21.43-.21H245c0-.83.61-1.25.61-2.08v-2.51c0-.43.43-1,.83-1a1.76,1.76,0,0,0,.43-1.25v-.77a11,11,0,0,1,.43-3.76c.61-1.68,1.25-3.12,1.68-4.59a.72.72,0,0,1-.21-.43c-.21,0-.21,0-.21.21a.21.21,0,0,1-.21.21,2.51,2.51,0,0,1-.43,1.68c-.21.21,0,.61-.43.61a7.37,7.37,0,0,1,.83-3.55.72.72,0,0,0,.21-.43,1.87,1.87,0,0,0,1-1.68l.61-.61v-.43h.21a.21.21,0,0,0,0-.43.77.77,0,0,1-.21-.61l.21-.21a4.4,4.4,0,0,1,1-2,.21.21,0,0,0,.21-.21c.21-.43.61-.83.83-.83s.21,0,.21.21a1.25,1.25,0,0,1,.21.83.77.77,0,0,1-.21.61c-1,.83-.83,1.68-1.25,2.51-.21,0-.21.43-.43.83a12.17,12.17,0,0,1-1.25,3.12.64.64,0,0,1-.21.43,10.2,10.2,0,0,0-.21,2.51c-.61.61-.83,1.87-1,2.08a.21.21,0,0,0-.21.21.83.83,0,0,1,.43.83l.21-.21c.43-.83.83-1,1-1.68a3.84,3.84,0,0,1,1-2.51h.43a2.67,2.67,0,0,1-.21-1.25,3.92,3.92,0,0,1,.43-1.68v.43a1.57,1.57,0,0,1-.21,1v1.47c0,.21-.43.61-.61,1.25a.21.21,0,0,0-.21.21.77.77,0,0,0-.21.61v.61l-.21.21a1.57,1.57,0,0,0,.21.83v.21c.21,0,.43-.21.61-.21.21-.83.83-1,.83-1.47a.72.72,0,0,1-.19-.32,1.57,1.57,0,0,1,.43-.83.21.21,0,0,1,.21-.21c0-.21,0-.43-.21-.43v-1a1.57,1.57,0,0,0-.21-.83,1.63,1.63,0,0,0,.83-.83c.21-.43.61-.43.61-.83v-.21c0-.21.43-.21.43-.21l.61-1v-.19c-.43-.21-.43-.21-.43-.43s0-.21.21-.43v-.48a1.15,1.15,0,0,1,1-.61h.43s.43-.21.43-.43a4.94,4.94,0,0,0-.43-1.68.21.21,0,0,1-.21.21h-.43c.43-.61.43-1,1-1h.21c.61-.21.61-.43,1-.61a2.51,2.51,0,0,1,.83-1.68c.21.21.21.21.43.21a.72.72,0,0,0,.21.43.21.21,0,0,0,.21-.21c.43-.61.61-1,1.47-1.25v-.61c0-.43.61-.83.61-1.25.21,0,.21-.21.21-.43a6.08,6.08,0,0,1,1.87-2.51,14,14,0,0,0,2.51-3.34l2.67-2.3c.61-.21.83-.21,1.25-.83,0-.21.21-.43.43-.61a.21.21,0,0,0,.21-.21.72.72,0,0,0-.43-.21A8.25,8.25,0,0,1,266.34,96c-.21.43-.43.61-.83.61s.21-.43.43-.83h-.29v-.24l.21-.21v.43s.43-.43.43-.61L268,93.86a3.52,3.52,0,0,1,1-.43c.61-.43.83-.61,1-.61s.21.21.21.43a.45.45,0,0,0,.43.43l.83-.43c.21-.21.43-.21.43-.61v-.83a1.07,1.07,0,0,0-1-.83A7.29,7.29,0,0,1,269,92.24l-.83.83c-.21,0-.21,0-.61.61a3.55,3.55,0,0,1-1.47.83.77.77,0,0,1-.61-.21v-.61l1-.83a.72.72,0,0,0,.21-.43h-.43c-.43,0-.61,0-.61.21a7.18,7.18,0,0,1-2.51,2.51c0,.21-.43.43-.61.61a1.57,1.57,0,0,0-.21.83c.21,0,0,.21-.21.21V97c0-.21-.43-.43-.61-.43h-.21a.21.21,0,0,0-.21.21c0,.21-.21.43-.21.83a1,1,0,0,0-.61.21c0-.21-.43-.21-.61-.43.61-.43.61-1,.83-1.87l1.68-.83a3.28,3.28,0,0,1,1-1.68c.21-.43.61-.61.61-.83a3,3,0,0,1,1.25-.43,7.82,7.82,0,0,0,1.47-1.25c.21-.21.43-.43.61-.43h0a.64.64,0,0,1,.43-.21c.43-.43,1.68-.61,2.3-1,1-.21,1.68-.83,2.91-1a2.22,2.22,0,0,1,1-.43h.43a5.34,5.34,0,0,0,1.47.43h.83a.77.77,0,0,1,.61.21c.43,0,.43,0,.61.21L278,88c.21,0,.21.21.43.43a3.36,3.36,0,0,0,1.87.61h.61l1-.21c.43,0,.83.21,1.47.21a.77.77,0,0,0,.61.21h.43c.61,0,.83.21,1,1-.21.21-.21.21-.21.43s.43.21.43.21c.43,0,.61,0,.83.43.61.21,1.47.61,1.47,1.25,0,.21-.21.21-.21.43.43.21.43.43.61.61a1.65,1.65,0,0,1,.43.83,4.24,4.24,0,0,0,0,1c-.21.21-.43.21-.43.43l.21.21a8.86,8.86,0,0,1,.43,2.3v1c-.21.83,0,1.68-.43,2.08v1a3,3,0,0,1-.43,1.47L287,107.82c-.43.61-.83.83-1,1.25s-.43.43-.43.61.21.21.21.43v2.51c-.43.21-.61.61-1.25,1.25a.21.21,0,0,1-.21.21v-.21h-.51l-.21-.21c-.21,0-.21.21-.43.43a.64.64,0,0,0-.21.43s0,.21.43.21.21.21.21.43c-.61.61-.61,1-1.47,1a.72.72,0,0,1-.43-.21.21.21,0,0,0,.21.21c-.21.21-.61.43-.61.83a27.27,27.27,0,0,0-1.68,3.55v1a10.09,10.09,0,0,0-1.87,2.3l-.21-.21h.21v-1.23c-.61.21-.61.61-1.25.83v.21a.72.72,0,0,0,.21.43h-.43v.93h-.72c-.43,0-.43,0-.43.61s-.43.83-1.47.83c-.21,0-.21.21-.43.61-.43.83-1.47,1-2.3,1.47v-.21c-.83,0-1.25.21-1.47.83s-.43.21-.61.43a5,5,0,0,0-2.67.83h0c-.43.21-.61,0-1.25.43-.21,0-.21,0-.43.21H261.8a1.09,1.09,0,0,1-.83.43c-.21,0-.43-.21-.83-.21a7.42,7.42,0,0,0-2.08.43h-.21V132a5.34,5.34,0,0,1-1.25,2.67h-.21c-.21,0,0-.61-.43-.83v-.32h-.21a3.66,3.66,0,0,0-.21,1.25c0,.83,0,.83-.61,1h-.51c-.21.61-.21,1-.43,1.25v.21h.61c.61,0,1,0,1.25-.21h0c0-.21,0-.21.21-.43v-1.07c.21,0,.43-.21.61-.21v.43l.43,1.25c.21,0,0,.43-.43.43a.64.64,0,0,1-.43.21c-.21,0-.21,0-.21.21s0,.43.21.43l.21.21V140c0,.21,0,.21.21.43h-1.87V140a1.57,1.57,0,0,0,.83-.21c0-.21.21-.61,0-.43-.21-.21-.21-.21-.43-.21h-.43c-.21,0-.43,0-.43.21-.43,0-.43.21-.61.43v.83l-.21.21a.64.64,0,0,0,.43-.21h.45a1.33,1.33,0,0,1,1,.43c.21.21.83.21.83.21a.64.64,0,0,1,.43-.21v.43a.77.77,0,0,0,.21.61.72.72,0,0,1-.43.21l-.21-.21a.21.21,0,0,0-.21-.21.72.72,0,0,0-.43.21c-.21,0-.43.43-.43.61a.48.48,0,0,0,.43.43c.21.43.61.21.61.43v.21c0,.43-.43.61-.83.61s-.43,0-.43-.21-.21,0-.43,0c-.61.43-1.25.21-2.08.43-.21,0-.21.21-.21.43h0l-.21.21.21.21V145c.21,0,.43,0,.43.21v.43h.61a1.63,1.63,0,0,1,.21-.61.64.64,0,0,0,.43-.21,1.57,1.57,0,0,1,.21.83v.56c-.21.21-.21.21-.21.43s.21.43.61.61a2.22,2.22,0,0,1,1.47,1.87c0,1,.21,1.68.21,2.67V152a1.57,1.57,0,0,1-.43.83c0,.21-.21.21-.21.43s.21.43.43.61.21.43.21.83v1.68c0,.43,0,.61-.21.83v.21c.83.61.43,1.25,1.25,2.08a7.42,7.42,0,0,1,.21,1.25c.21.43,0,1,.61,1.68a.77.77,0,0,1-.21.61l.61,1c.83.43.83,1,1.25,1.47.61,0,.61.43.83.43h.21a.77.77,0,0,1,.61.83,3.28,3.28,0,0,0,2.3,2.08,12,12,0,0,0,2.91-.61c.21,0,.43-.21.61-.21.83-.21.83-.61,1.87-.83a20.26,20.26,0,0,0,3.12-2.08h.64c.61-.21.83-.61,1.47-.61l.21-.21a.21.21,0,0,1-.21-.21,10.68,10.68,0,0,1,1.68-1.47c.43,0,.61,0,.83-.21a1.52,1.52,0,0,1,1.25-1.25c.43-.61.61-.83.61-1l1.89-1.87c1.25-.43,1.47-1.47,2.67-2.67a6.94,6.94,0,0,0,2.3-1.87c.21-.21.21-.21.61-.21a12.94,12.94,0,0,1,3.6-4.64l.21-.43c1.47-1.25,1.68-2.91,2.91-3.55.61-1.25,1.87-1.87,2.3-2.91,0-.83,1-1.87,2.08-2.67l.83-1.47c.21,0,.21-.61.61-.83a9.55,9.55,0,0,0,1.68-2.67,6.43,6.43,0,0,0,2.3-3.12c.61-.43.83-1,1.68-1.68.43-.83.83-1.25.83-1.87q.61-.32.61-.61v-.35c0-.21.43-.43.83-.61h.21c0,.21.21,0,.43,0s.83-.43.83-.83-.21-.43-.21-.61c.21-.61.21-1.68,1-2.3a8.59,8.59,0,0,0,2.08-2.67l.83-1c0-.61.21-1,.43-1v.21c0,.21.21.21.43.61v-.35c.61-.61.83-.83.83-1.25l.21-.43h-.11a3.55,3.55,0,0,1-1.25,1.25,5.34,5.34,0,0,1,1.87-2.3h.43l-.21.21h.21a2.16,2.16,0,0,0,1.09-1.41v-.43c0-.21,0-.43.21-.43v-.21a1.63,1.63,0,0,0-.21-.61v-.21a2.05,2.05,0,0,0,1.68-.83c.43-.83,1.25-1.47,1.25-2.08s-.27-.21-.27-.53a.64.64,0,0,0,.43-.21,2.67,2.67,0,0,1,.43.61v.21a.45.45,0,0,0,.43.43h.61a9,9,0,0,0-.21,1,2.67,2.67,0,0,0-.61.43h0c-.21,0-.43-.21-.43-.61l-.21-.21c0,.43-.21.43-.21.61s-.43.43-.43.61v1.47c0,.43.21.61.21,1a9,9,0,0,1-.21,1,.21.21,0,0,0,.21.21.72.72,0,0,1,.43-.21H319V115a7.18,7.18,0,0,1,1-2.3.21.21,0,0,1-.21-.21l.21-.21a5.34,5.34,0,0,0,1.87-2.51c.21-.83.21-1,.61-1.47a4.83,4.83,0,0,0,1.68-2.67h.13a.45.45,0,0,1,.43-.43.21.21,0,0,0,.21.21c0,.83-.43,1-.61,1.47l-.61,1v.93c0,.21.21.21.21.43a.21.21,0,0,1-.21.21,2.67,2.67,0,0,0-1,1.87c0,.21-.21.21-.43.21s-.43,0-.43-.21l.21-.43h-.21a3.31,3.31,0,0,1-1.25,1c.21,0,.21.21.43.21s0,.21-.21.21h-.19a.72.72,0,0,0-.43.21c0,.21.21.21.43.61a1.33,1.33,0,0,1,1,1v.61c0,.43,0,.61-.61,1h-.61a1.25,1.25,0,0,0-.83.21c-.43.43-.43.61-.43.83a1.52,1.52,0,0,0-.43,1.25c-.43,0-.61.43-.61,1a.21.21,0,0,0,.13.27h.43a.72.72,0,0,0-.21.43c0,.21.21.21.43.21v.43a.77.77,0,0,0-.21.61v1.25l-.21.21c-.43-.43-.61-.61-.61-1v-.21a.72.72,0,0,1-.43-.21c-.21,0-.21.21-.21.43-.83.61-1,.83-1.47.83l-1.47,1a.21.21,0,0,0,.21.21c0,.43-.61.43-.61.83v.4h.43a.64.64,0,0,0,.43-.21c.43-.43.83-.61.83-.83s.21-.61.43-.61l.21-.21a.72.72,0,0,1,.21.43v2.08l-.21.21a2.51,2.51,0,0,1-2.08,1v.61a.64.64,0,0,1,.43.21c.21,0,.21,0,.21.21a3.52,3.52,0,0,0-.43,1v.43c0,.43-.21,1-.21,1.47-.43,0-.43.61-.43,1.25,0,.21-.43,0-1,.43-1.25.21-1.47.83-2.3,2.3l-.61.83a6.14,6.14,0,0,0,1.87.61h.21c.43-.21.43-1.25.43-1.47s-.21-.21-.21-.43,0-.43.21-.43h.27a.56.56,0,0,1,.61.61,5.66,5.66,0,0,1-.61,1.68c-.21.43-.83.61-.83,1.25-.21.21-.21.43-.43.43a1.57,1.57,0,0,1-.83.21c0,.21,0,.43-.61.43v-.24a.64.64,0,0,1,.21-.43s.43,0,.43-.21a.77.77,0,0,0,.21-.61h0c.21,0-.43-.21-1.25-.43l-.61.83a2.14,2.14,0,0,1-1.23.85c-.61.21-.61.83-.83,1a4.22,4.22,0,0,0-.61,1.87l-1.68,1.47c-1.25,1.47-1.47,3.76-2.91,4.59l-.43.43.21.21c-1.68,1-1.68,2.3-2.3,2.91.21,0,.43-.21.83-.43h.43c.83-.21.83-1,1.25-1.87.21,0,.43-.21.61-.21s.21.21.43.21H303c.21,0,.21-.21.61-.21H304a1.57,1.57,0,0,0-.21.83c0,.21,0,.43.21.43-.83.43-1,1-1.68,1.68-.21,0-.21.21-.43.43a3.87,3.87,0,0,0-.43,1.47ZM244,144l-.43.61a.64.64,0,0,0,.43.21l.21-.21c-.21-.21-.21-.21-.21-.43Zm0,3.55v-.43c-.21,0-.21.21-.43.21a.21.21,0,0,0,.21.21Zm.61-14.38-.29-.32a.21.21,0,0,0,.21-.21Zm0,3.34v-.43l-.21.43Zm1,9.18-.21-.21h-.21a.21.21,0,0,0,.21.21c-.21.21,0,.21,0,.21A.21.21,0,0,0,245.63,145.72Zm.21-18.68a4.54,4.54,0,0,1-.21,1.25h-.21v-.43c0-.43.21-.61.43-1Zm-.43,9.61a6.43,6.43,0,0,1,.43,1.68l.21.21a.21.21,0,0,0,.27-.32,7.07,7.07,0,0,0,.21-2.08h-.83Zm.85,2.88a.77.77,0,0,0-.21-.61h-.21l-.43.83V140c0,.21.21.21.43.43s.43-.21.43-.43Zm.21-14.6h-.16c-.21-.21-.21-.21-.21-.43s.21-.43.43-.61Zm0,8.35h.21a.83.83,0,0,1,.43-.83c.21,0,.43-.43.43-.61a9,9,0,0,1-.21-1,.21.21,0,0,0-.21-.21h-.8c.21.61.21,1.47.43,1.68a1.87,1.87,0,0,1-.24,1.12Zm.83-3.76-.21-.21c0,.21-.21.43-.21.61h.43Zm-.21-8.67c0-.21,0-.43.43-.61,0,.24,0,.43-.43.61Zm.21,6.89a3.44,3.44,0,0,0,.83-.83,2.08,2.08,0,0,0-.21-.61h0l-.21.43a.45.45,0,0,0-.43.43Zm1.47,1.68a.72.72,0,0,0-.21-.43c0,.21-.21.21-.43.43.21.21.43.21.43.43a.72.72,0,0,1,0-.4Zm0,18.36H249v-.24l-.21-.21Zm1.47-12.09h.21a.64.64,0,0,0-.43-.21v-.83a.21.21,0,0,0-.21-.21,2.08,2.08,0,0,1-.21.61Zm.83-3.34a.77.77,0,0,1-.21-.61c0-.21,0-.21.21-.43,0-.61.21-1,.21-1.47h-.61v1.25l-.83,1.68c-.21,0,0,.21.21.21s.21,0,.61-.21c0,0,.37-.21.37-.43Zm-.21,1-.43.21c-.21,0-.43,0-.43.21h.43Zm0,12.94a.93.93,0,0,0-.61.83c.21.21.21.43.21.83v.91c0,.43.21.83.21,1.25,0-.21.21-.61.21-.83s.43-.43.21-.43v-1a2.67,2.67,0,0,0,.21-1.25v-.4a.21.21,0,1,0-.43,0h0Zm.21-2.67v-.83h-.21a1.57,1.57,0,0,0-.21.83,2.27,2.27,0,0,0,.21,1c-.21.21-.21.21-.21.43v.43l.21-.21h.21c0-.21-.21-.43-.21-.83a1.25,1.25,0,0,0,.19-.91Zm.21-6.27a3.87,3.87,0,0,0-.43,1.47c0,.21,0,.21.21.61l.21-.21c.21-.43.21-1,.61-1.47a.64.64,0,0,0-.21-.43Zm-.21,2.91h-.21v.43l.21.21s.21,0,0-.21Zm.43-24.82v-.24a.64.64,0,0,1,.43.21s.21.21,0,.21c-.21.43-.43.43-.61.43a1,1,0,0,1,.16-.59Zm.43,18.68c.43-.21.43-.43.43-.83v-1c0-.21-.21-.61-.21-.83a.64.64,0,0,1,.21-.43l-.21-.21V131c-.21.43,0,.83-.43,1.25l-.21.21s0,.21.21,0a.77.77,0,0,1,.21.61Zm-.21.21-.21.21a.21.21,0,0,0,.21.21v-.21a.64.64,0,0,0,.21-.43c-.24,0-.24,0-.24.27Zm1-14c0-.21-.21,0-.21,0a.21.21,0,0,0-.21.21c0,.21.21,0,.43,0l.43.43c.21,0,.21,0,.21-.21l.43-1.47v-.21l-.43.21c-.21.21,0,1-.61,1.25ZM254.22,107c0,.43-.21.83-1,1.47H253a.77.77,0,0,1-.21-.61c-.21.21,0-.21,0-.21v-.19c0-.21.21-.43.61-.83v-.21h.43c.21,0,.21.21.43.21Zm-1.47,32v.45c.21,0,.21,0,.21-.21Zm1-7.71a.72.72,0,0,0-.21.43v.43A.64.64,0,0,0,254,132a.21.21,0,0,0,.21-.21Zm0,6.27a1,1,0,0,0-.21.61l.61.43.21-.21Zm.53-15.43a4,4,0,0,1,.83-1.25l.61-2.67v-.21a2.11,2.11,0,0,1-.61.21c0,.21-.21.43-.21.83v.43c0,.21-.21.83-.61.83s-.21.61-.43.61a1,1,0,0,0,0,1.25Zm2.91-4.16c.43,0,.43-.21.43-.21v-1a1.25,1.25,0,0,0-.61-1.25v-.43c-.21-.21-.21-.21-.43-.21h-.43a.64.64,0,0,1,.21.43H256c-.21,0-.21,0-.43-.43.21,0,.43,0,.43-.21v-.56h-.43c-.21.43-.43.83-.61.83h-.21c-.43,0-.43.43-.43.83h-.21a.72.72,0,0,1,.21.43c0,.21.21.43.21.61a.64.64,0,0,1-.43.21c0,.21,0,.21.43.61l.21-.21c-.21,0-.21-.21-.21-.43v-.21c0-.21.21-.43.43-.61s.21,0,.21-.21.43-.21.43,0v.43c0,.21,0,.21-.21.43l.43.43h.43c.21,0,.21,0,.21-.43l.21-.21v.19c.43.21.43.43.43.43a3.39,3.39,0,0,0-.83,2.08c.21,0,.21,0,.43-.21a2.67,2.67,0,0,0,.56-1.07Zm-1.47,14.38a7.29,7.29,0,0,1,1-1.68h-.43c-.43,0-.43.83-1.25.83l-.21.21a1.6,1.6,0,0,1-.21.61c-.21,0,0,.21.21,0Zm0-28.58v.83h-.43c-.21-.43-.43-.43-.43-.61v-.27l.43-.83Zm-.61,6.35h.21l.43-.21v-.21a1.63,1.63,0,0,1-.61.21Zm.43-7.5v.21h-.21v-.21Zm1.87-3.55a2.43,2.43,0,0,1,1.25-1.25c.21,0,.61-.43.83-.43s.21.43.21.61a2.08,2.08,0,0,1-.61,1,4.91,4.91,0,0,0-.43,1.68,3.12,3.12,0,0,1-1.87.83.21.21,0,0,0-.21.21v.83c.21.21.21.21.21.43s-.21,0-.21-.21a1.87,1.87,0,0,1-1-.21,9.1,9.1,0,0,0,.83-1.47,3.9,3.9,0,0,0,1-2Zm-1,23.06.21-.21a.21.21,0,0,0-.21-.21Zm.43-15.43h.43V107c-.43,0-.43.21-.61.21a.64.64,0,0,1,.16-.4Zm.21,3.12.43-.43a.77.77,0,0,0,.08-.61c-.45,0-.67.67-.67,1.09Zm.21,10.44v.83h.29v-.83a.21.21,0,0,0-.21-.21.21.21,0,0,1-.15.26h0Zm1.25-14.81c.21,0,.43-.21.43,0l.21.21c-.21.43-.83.83-1,1a.64.64,0,0,0-.43.21c0-.37.59-1,.8-1.41Zm0,5.84c-.21.21-.83.43-.83.61l.21.21c.43,0,.61-.61.61-.61Zm-.61,3.34-.21.21H258a.21.21,0,0,1,.21-.21Zm0-10v.43c0-.19-.24-.37,0-.37Zm.61-.21a.77.77,0,0,1-.61.21c-.24-.19.37-.19.59-.19Zm0,14.2c-.21,0-.61.21-.61.43s.21.21.43.21h.21c.21,0,.21,0,.43.21V120h-.21a.21.21,0,0,0,.21.21h.61c-.21-.21-.21-.61-.21-1.25a1.15,1.15,0,0,0-.88-.21Zm.61-9.79a.64.64,0,0,0-.21.43v.21l-.21.21a.21.21,0,0,0,.21.21h.83c.83,0,.83,0,1-.43a.45.45,0,0,1,.43-.43,1.25,1.25,0,0,0-.21-.83,2.37,2.37,0,0,1-.61-1.25,9.74,9.74,0,0,1-1.28,1.89Zm-.21,3.87a.21.21,0,0,1,.21-.21,1.63,1.63,0,0,0-.21-.61Zm5.34-1.87c0-.21-.21-.43,0-.43.21-.43.21-.43.21-.61s-.21-.21-.83-.43c-.21-.21-.61-.43-.61-.61a1.87,1.87,0,0,1-1,.21c-.21,0-.43.43-.43.61s.43.21.43.43h1.47l.21.21a.72.72,0,0,1-.21.43,1,1,0,0,0-.61,1v.43a1.57,1.57,0,0,1-.83,1.47c0-.21-.21-.43-.21-.61a.91.91,0,0,0-.21.61c-.21.21-.43.61-.61.61a1.12,1.12,0,0,1-.61.83v.83c0,.21,0,.43-.21.43a.72.72,0,0,0-.43-.21h-.45s0,.43.21.43L260,118h.32v1.25c0,.21,0,.43.43.61a.21.21,0,0,1,.21-.21,5.5,5.5,0,0,1,1.87-1,13.34,13.34,0,0,0,3.58-3.2,5.34,5.34,0,0,1,1.47-2.3c.61-.43.61-.83,1-1.47a4.38,4.38,0,0,1,1.47-2.3c.61-1.47,1.47-2.91,2.08-4.8l.61-.61a23.27,23.27,0,0,1,1-2.67c0-.61.21-1,.21-1.68,0-.21-.21-.61-.43-.61s-1.25.61-1.47.61-.21,0-.21-.21l-.21.21a3.2,3.2,0,0,1-1.47,1v.43a2.08,2.08,0,0,0,.21.61,1.79,1.79,0,0,0-.61,1.25,2.11,2.11,0,0,0-.61.21c-.21-.43-.43,0-.83-.61h-.83a24.83,24.83,0,0,0-1.68,2.51.21.21,0,0,0-.21.21h.43c.43,0,.43-.21.61-.21l.83-1.47H268V105a1.25,1.25,0,0,1-.83,1,7.13,7.13,0,0,0-1.25,1.25c-.21,0,0,.21,0,.43a2.32,2.32,0,0,1-.61,1.47c-.43.43-.43,1-.61,1.87ZM260,104.43v.43h-.61v-.43Zm.21-.83-.21.21a11,11,0,0,1,1.68-3.12c.21,0,.43-.21.83-.43q.61-.93.61-.61c0,.43,0,.61-.43.83s-.83,1.25-1,1.87-1,.61-1.25,1.25Zm.43,5.34a1.15,1.15,0,0,1-.61,1c0-.61,0-1.25.61-1.47Zm0-2.08h-.29a.21.21,0,0,0,.21.21Zm3.12-9.61a13.34,13.34,0,0,0-1.47,2.51,1.84,1.84,0,0,1-1,.83h-.43c.21-.21.21-.21.21-.43v-.43c.43-.43.43-1,1-1.68a.21.21,0,0,1,.21-.21s.61-.61,1-.61Zm-1.87,14h-.21a.72.72,0,0,0-.21.43h.21a.21.21,0,0,0,.21-.21Zm.61,4.8a3.52,3.52,0,0,1-.43,1h-.43V115c0-.21,0-.61.21-.61a.21.21,0,0,0,.21-.21c0,.21.61.43.43.61Zm-.61-9.85V107c0,.21.21.43.43.83h.21c.21,0,.43-.21.43,0s.21.21.61.21a7.36,7.36,0,0,0,.21-1.47c-.21,0-.21-.43-.21-.61-.43-.21-.43-.21-.61-.21s-1.23,0-1.23.37Zm.16,6.51.21-.21-.21-.21-.21.21a1.63,1.63,0,0,0-.21.61Zm.43-8.35-.21-.21a.21.21,0,0,0-.21.21Zm.43,0v.21a1.76,1.76,0,0,0,.43,1.25c.43-.43.61-.61,1-.61h.43c.21,0,.43,0,.43-.21a.21.21,0,0,0-.21-.21,3,3,0,0,1-.43-.83,3.1,3.1,0,0,1-1.47.21h0Zm.43-2.08v.43c0-.21,0-.21.21-.43Zm.21,9.61a.21.21,0,0,0,.21-.21.64.64,0,0,1,.43-.21v.08a.45.45,0,0,0-.43.43Zm1-10.22.43-.21c.61-.21.83-.61,1-1.25a.72.72,0,0,1,.21-.43l-.21-.21-.21.21c-.21,0-.21,0-.21.21a4.94,4.94,0,0,0-1,1Zm.61,1.47v-.21c-.61.21-.61.21-.61,1,.48-.32.69-.53.69-.93Zm-.43-6.06v-.37h.43a.21.21,0,0,1-.21.21Zm.83,5.84a.77.77,0,0,0,.83-.72h0v-.43h.21l-.43-.43-.21.21c-.21.21-.61.21-1,.61,0,.21.21.43.21.61s.32,0,.53,0Zm-.43,4.16c0-.43-.21-.43-.21-.43v.43Zm2.67-14.6c.43-.43.61-1,1-1.25V91a.91.91,0,0,1-.61-.21c-.21.61-.83.61-1.47,1a1,1,0,0,1,.21.61c0,.21.21.21.43.43.35-.51.35-.51.56-.51Zm.43,5h.43c.21,0,0,0,.21.43l.43-.21a2,2,0,0,1,.43-1.47l-.21-.21h-.21c-.21,0-.21.43-.61.43l-.21.21c0,.21-.21.21-.21.43v.21c-.43.21-1.25.83-1.25,1.47,1.17,0,1.17-1,1.36-1.39Zm1.87,3.12c-.43-.21-.43-.21-.61-.21s-.43.61-.61,1a.64.64,0,0,0,.43.21c.21-.61.43-.83.83-.83Zm-.21-2.51c-.43,0-.61.21-.83.83v.21h.21l.83-.83Zm16.49,11.48a.21.21,0,0,1-.21-.21.72.72,0,0,1,.21-.43l.21.21c.21-.21,0,.21,0,.21h0ZM287,93.94c0-.21,0-.21-.21-.21h-.21v1.79a.45.45,0,0,0,.43.43.72.72,0,0,0,.43-.21c0-.21-.21-.61-.21-.83V93.76Zm.61,3.34v-.59c-.21.21-.43.21-.43.43a.21.21,0,0,1,.21.21ZM289,164.59a.64.64,0,0,1-.21.43H289c0,.21.43,0,.43-.21s0-.32-.27-.32Zm4.38-1.47c0-.21.43-.43.43-.43l-.21-.21h-.43c-.21,0-.21,0-.43.21-.43,1-.83,1-1.47,1s-.61.43-.83.43a.21.21,0,0,0-.21.21.64.64,0,0,0,.21.43c0,.21.21.43.43.61l.21-.21a.21.21,0,1,0,.43,0h0c0-.83.43-1,1.25-1.47.21,0,.43-.21.61-.83Zm.83-3.12h.61l-.21-.21Zm3.44-7.31c-.21.21-.43.43-.61.43s-.21,0,0,.21-.21.43-.21.61c.43,0,.43-.21.61-.43a.85.85,0,0,0,.21-.61Zm0-12.94v-.21c-.21.21-.43.21-.43.43s.4-.43.59-.43Zm2.08,13.16h.59c.21,0,.21,0,.21-.21v-.43c-.21,0-.21.21-.43.43Zm1.25.61c.21-.21.21-.61.61-.83a.21.21,0,0,1,.21-.21v.21H302c0,.43-.21.61-.43.61v.43c0,.61-.43.83-.61,1.25l-.83.61c0-.21.21-.43.43-.61Zm1.25-3.55c.21-.21-.21-.21-.21-.21s-.21,0,0,.21Zm4-3.34v-.4a.72.72,0,0,1-.43.21l-.21.21h-.21c-.21.21-.61.43-.61.61h-.21c-.43,0-1.25.21-1.47.21a.72.72,0,0,1-.21-.43v-.21c.61-1.25,1.47-1.25,1.87-2.51v-.24c0-.43.43-.61.83-1v-.43c.43-.21.83-.43.83-.83v-.21c0-.21.83-.61,1.25-.61s.21-.21.21-.43v-.21c.21-.61.21-.61.21-.83v-.21l.21-.21a.21.21,0,0,0,.21.21l.61.61c0,.21.21.21.21.43s-.21.43-.43.61l-.43.21a.72.72,0,0,0-.43.21l.21.21a.77.77,0,0,1,.21.61c0,.43-.21.43-.43.61l-1,1a1.92,1.92,0,0,0-.61,1c0,.21,0,.21.21.21s.43.43.43.61-.21.21-.21.43c-.43.61-.43,1.47-1.25,2.3a2.51,2.51,0,0,0-1,1,5.55,5.55,0,0,1-1,1.25v-.21c0-.43.21-.61.21-1a7.26,7.26,0,0,0,2.67-2.94Zm-.83-1.25h-.21c-.43.43-.43.83-.83.83a.64.64,0,0,1,.21.43H305a.72.72,0,0,1,.43-.21Zm-.48-7.71v.21h.21c0-.21.43-.61.61-1a1.63,1.63,0,0,0-.67.75Zm2.08-.43c-.43,0-1,.21-.83.43h.43a.21.21,0,0,0,.21.21c.21-.21.43-.43.43-.61Zm2.91-11.48a1.57,1.57,0,0,0-.21.83v1a4.24,4.24,0,0,0,1-1.87l.61-.83v-.21l-.21-.21c-.21-.21-.43-.21-.43-.43a.72.72,0,0,1,.43-.21c.43-.21.43-.61.61-.61.61-1.47,1.25-2.08,1.68-3.34.61-.83.83-2.51,1.68-2.91s.61-.83,1-1.25v-.29a.64.64,0,0,1-.43.21c-.43,0-.43,0-.43.21s-.61.43-1.25,1c-.21.21,0,.61-.43.83s-.21.83-.43,1.25a5.74,5.74,0,0,1-1,.83,1.25,1.25,0,0,0-.21.83v.4c0,.21,0,.21-.21.21a6.94,6.94,0,0,0-1.25,2.08l-1.87,2.08a5.34,5.34,0,0,1-.83,1.47l-.21.61v.43h.21c.21,0,.61-.61.61-1a4.38,4.38,0,0,1,1.25-1.68.77.77,0,0,0,.45.67Zm-1.87,7.1v.61c0-.21.21-.43.21-.61Zm1,.43v-.21a.21.21,0,0,1,.21-.21v-.21a.64.64,0,0,1-.43.21h-.21a.64.64,0,0,0,.21.43Zm.83,8v-.16h.35a.21.21,0,0,1,.21.21Zm0-16.49a.21.21,0,0,1,.21-.21Zm.61-3.76a.72.72,0,0,0-.21.43l-.21.21a.21.21,0,0,0,.21.21s-.21.21.21,0Zm1.25,8.57v-.21h-.21c-.43.21-.61.83-1,1s0,.21,0,.21a.21.21,0,0,1,.21.21Zm-1,2.91s.21.21.21,0l.83-.43c0-.21.21-.43.43-.61-.43.43-1.25.43-1.47.61l-.21.43Zm5-13.77-.21-.21c-.21.21-.21.21-.43.21-.83.21-1,1-1.47,1.87a.21.21,0,0,0,.21.21l1.68.43a.72.72,0,0,0,.43.21v-.21l-.61-.61h-.21c-.21,0-.21,0-.21-.21a.64.64,0,0,1,.21-.43,2.67,2.67,0,0,0,.61-1Zm-.61,11.9a3,3,0,0,0-.61.43h-.43a2.67,2.67,0,0,1,.83-1.87,3,3,0,0,0,.61-.43H317l.21.21a19.43,19.43,0,0,0-2.08,2.08Zm0,.43a1,1,0,0,1,.21.61c-.21.43-.43.61-.83.61h-.43Zm4-5.34v.45a3,3,0,0,1-1.25,1.47h0c0-.21,0-.21-.21-.21a1.25,1.25,0,0,1,.21-.83c.61-.21.83-.43,1-1.25v-.48c0-.21.43-.21.61-.21a1.57,1.57,0,0,0-.21,1Zm-.61-9.39a.21.21,0,0,0,.21-.21.72.72,0,0,1-.21-.43Zm1.47-9.61c0,.21.21.21,0,.21l-.83,1-.21.21a.21.21,0,0,1-.21-.21v-.48a8,8,0,0,1,1-.61ZM319.56,124a2.08,2.08,0,0,1,.61.21,3.55,3.55,0,0,1-.83.61c.16-.45.16-.67.35-.88Zm.43-15.64a.64.64,0,0,0,.21-.43c.43-.43.83-.61.83-1v-.24c0-.21.21-.43.61-.43h.61a.21.21,0,0,1-.21.21c-.21.61-1,1-1.25,1.87v.51c0,.43-.43.83-.83,1.25Zm1.47,14.38a.21.21,0,0,1,.21.21c-.43.21-.61.43-.83.43s-.43-.21-.61-.21a.21.21,0,0,1,.21-.21.77.77,0,0,1,.61-.21Zm-.11-5.92v.43h-.21a.64.64,0,0,1-.21-.43l.21-.21h.43Zm.21-11.48h-.21V105c0-.21,0-.21.21-.43Zm1.47,8.75h-.21a.21.21,0,0,1-.21-.21v-.43a1.09,1.09,0,0,1,.43-.83c0,.43.21.43.21.61v.83Zm.61-10-.21.43-.21-.21c.21-.21.21-.21.21-.43Z"/></clipPath><clipPath id="clip-path-3" transform="translate(1.67 2.9)"><path class="cls-1" d="M35.87,10.43a4.35,4.35,0,0,0,1-2.15,8.24,8.24,0,0,0,.78-2.35,6.63,6.63,0,0,0,.2-2l.39-1V2.8a.61.61,0,0,0,.39.2c.2,0,.2-.2.2-.39l.39-1.17a.72.72,0,0,1,.2-.59h.2v.39a1.17,1.17,0,0,1-.2.78,10.36,10.36,0,0,0-.59,2.35v.39H39a6.12,6.12,0,0,0,1-2,1.47,1.47,0,0,0,.2-1,.19.19,0,0,1,.2-.2l.2.2a1.49,1.49,0,0,1,.39,1c-.2.2-.2.39-.2.78V4a.72.72,0,0,0-.2.59c0,.2,0,.2.2.39v1h.39V4.56c.2-.39.2-.78.59-1.17l.39-.78a.72.72,0,0,1,.2-.59c0-.39.2-.39.39-.59.39,0,.39,0,.39.2V2c0,.2.2.2.39.2.2-.2.39-.2.39-.39h.39c.2,0,.2,0,.39.19v.39c0,.39.2.39.39.39.2.2.2.2.39.2h.2a1,1,0,0,1,.2-.59c0-.2,0-.2.2-.2V2a.19.19,0,0,1,.2.2V2.8c0,.2,0,.2.2.2s.39-.2.59-.39c.2-.39.39-.39.78-.39v.2c.2.19.39.39.39.59h.59a.69.69,0,0,1,.2-.39c0-.19,0-.19.2-.19a.19.19,0,0,1,.2-.2l.2.2V3.78l.2.19h.39c.2,0,.2,0,.39.2a.9.9,0,0,0,1,.59c.2,0,.2.2.2.39a1.48,1.48,0,0,1-.2.78.69.69,0,0,0-.2.39c0,.2,0,.2.39.39h.2c0,.2,0,.39-.2.39-.39.2-.39.59-.59.78,0,.39-.2,1-.2,1.37v.19a10.33,10.33,0,0,0-.78,3.33l-.59,2.15a7.27,7.27,0,0,1-.39,2.35l-.2.2L48.58,20a3.68,3.68,0,0,0-.39,1.56,6,6,0,0,0-.39,1.57,1.64,1.64,0,0,1-.39,1.37v.78A4.93,4.93,0,0,1,47,26.66a8,8,0,0,1-.59,1.56A2.78,2.78,0,0,1,46,29.4v.78c0,.2,0,.39-.2.39V31c0,.39-.2,1-.2,1.37,0,.2-.2.39-.2.59a1.48,1.48,0,0,1-.39,1,.61.61,0,0,0-.2.39c0,.19,0,.19.2.19v.59c-.2.19-.2.19-.2.39v.2c0,.19,0,.39-.2.39-.2.2-.39.2-.39.39a.69.69,0,0,1,.2.39V37c0,.2-.2.59-.2.78s0,.39-.2.39c-.39.19-.59.39-.59.78l-.39.59v1h.2v1c0,.2-.2.39-.39.59s-.2.2-.2.39l-.2.19a.19.19,0,0,0,.2.2v.59c0,.59-.2,1-.2,1.57h-.2c-.2-.2-.2-.2-.39-.2-.2.39-.59.59-.78.78v.19c0,.2.2.39.2.78A2.78,2.78,0,0,1,41,47.78a5.42,5.42,0,0,0-.59,2.54l-.39.59h-.2a.19.19,0,0,0,.2.2.68.68,0,0,0,.2.39,79.58,79.58,0,0,1-.39.39.72.72,0,0,0-.2.59v.78a3.34,3.34,0,0,0-.39,1v.2c0,.19-.2.39-.2.59v.19a.61.61,0,0,1-.2.39c-.2,0-.2.19-.2.39v.39c0,.2,0,.2-.2.39V57c0,.19,0,.19.2.39l.2.2a.61.61,0,0,0-.39.19v.59c0,.2,0,.2-.2.39-.39.39-.59.78-1.17.78-.39,0-.59,0-.59.2-.2,0-.2.2-.39.2,0-.2-.2-.2-.2-.39v-1c0-.2.2-.39.39-.59.39,0,.39-.2.39-.59V55.22c0-.19.2-.19.39-.39s.39-.39.59-.39v-.59c0-.2-.39-.2-.39-.39H37a.61.61,0,0,0-.2.39,7.24,7.24,0,0,0-.78,2.74.72.72,0,0,1-.2.59,1.48,1.48,0,0,0-.39.78c-.2.59-.2,1-.59,1.37h-.2a.69.69,0,0,0-.39-.2.19.19,0,0,0-.2.2c0,.19.2.19.2.39s.2.2.39.39c0,.19.2.19.2.39a.68.68,0,0,1-.2.39v.2c0,.2,0,.2.2.39h.39a2.49,2.49,0,0,1,.2-1.17.19.19,0,0,1,.2-.19.69.69,0,0,0,.39.19c.2.2.39.39.59.39v.39c.2.2.39.39.39.59-.2.2-.39.39-.39.59a.61.61,0,0,0-.2.39c0,.2,0,.2.2.2,0,.2.2.2.39.2.39,0,.39.39.39.59L36.65,65c0,.19-.2.19-.59.19-.2,0-.2,0-.2.2a1.47,1.47,0,0,0-.2.78,1.17,1.17,0,0,0,.2.78v.78c0,.39-.2.39-.2.39v-.59h-.2c-.2,0-.2,0-.2.19,0,.59-.59.78-1.17.78-.2.2-.39.39-.39.59h-.2a.19.19,0,0,0,.2.2h.59a.72.72,0,0,1,.59.2.19.19,0,0,0,.2.19l-.2.2a1.5,1.5,0,0,0-.39,1c0,.2,0,.39-.2.39a.52.52,0,0,1-.59.59h-.2l-.2.19a.19.19,0,0,0,.2.2h.2c.2,0,.2-.2.2,0h.2c0,.2,0,.39-.2.39a1.46,1.46,0,0,0-.2,1V74c0,.2-.2.2-.39.2h-.39c0-.2-.2-.39-.2-.2v.59H32c0,.2-.2.2-.39.2s-.39,0-.39-.2a.19.19,0,0,1-.2-.19l.2-.2a3.73,3.73,0,0,0,.59-1.56.19.19,0,0,0-.2-.2h-.2a.68.68,0,0,1-.2.39A1.39,1.39,0,0,1,30.59,74v.2c0,.59-.39,1-.39,1.57a3.76,3.76,0,0,1-.59,2l-.39,1.18a2.49,2.49,0,0,1-.2,1.17,2.72,2.72,0,0,0-.59,1.76,4.14,4.14,0,0,1-.78,2c0,.19-.2.59-.2.78a4.29,4.29,0,0,1-.2,1.57.72.72,0,0,0-.2.59A5.19,5.19,0,0,1,26.48,89l-.59,2v.59c0,.2,0,.2.2.2.2-.2.2-.39.39-.39a3.92,3.92,0,0,1,.78-1.57.19.19,0,0,1,.2-.2l.2.2v2.35c-.2.2-.39.2-.39.39a.19.19,0,0,0-.2.19c0,.2,0,.39.39.39h.2v.39h-.59a1.18,1.18,0,0,1-.78-.2v-.59c0-.19-.2-.39-.39-.59h-.2c0,.39-.2.59-.2,1s-.2.78-.39.78v.59a16.27,16.27,0,0,1-.78,2.93,1.75,1.75,0,0,0-.2,1,1.44,1.44,0,0,1-.39,1.17v.78a2.39,2.39,0,0,1-.59,1.76.72.72,0,0,0-.2.59v.39c-.2.39,0,1-.39,1.37a1.49,1.49,0,0,0-.39,1v.78a1.75,1.75,0,0,1-.2,1l-.39,1.57a10.57,10.57,0,0,1-1,2.15v.39a2.39,2.39,0,0,1-.59,1.76v1c-.2,0-.2,0-.2.2v.2a.72.72,0,0,1-.2.59v.19a1.76,1.76,0,0,1-.2,1,.72.72,0,0,0-.2.59v.39a1.18,1.18,0,0,1-.2.78v.78c0,.19-.2.19-.2.39l-.39.59v1.37a1.17,1.17,0,0,0-.2.78v.59c0,.2-.39.39-.59.59a.61.61,0,0,0-.2.39c0,.2,0,.2.2.2l.2.2c-.2.39,0,1-.39,1.37a4.29,4.29,0,0,1-.2,1.57,2.35,2.35,0,0,1-.39,1.56s-.2.2-.2,0c-.39,0-.59.2-.78.2h-.2v-.78c0-.39,0-.59.2-.78a.19.19,0,0,1,.2-.2,1,1,0,0,0,.78-.39.72.72,0,0,0,.2-.59,1.17,1.17,0,0,0-.2-.78.19.19,0,0,1-.2-.2l.2-.2c0-.19.2-.19.2-.39v-.39a.61.61,0,0,1-.2-.39.72.72,0,0,1-.2-.59c0-.19.2-.39.39-.59a1,1,0,0,0,.39-.78v-1.17c0-.19.2-.39.2-.59a.69.69,0,0,1,.2-.39c0-.2-.2-.2-.39-.39v-.39c0-.2.2-.59.2-.78.2-.19.2-.19.39-.19l.2-.2v-.2h-.2a.19.19,0,0,1-.2-.19l.2-.2a.61.61,0,0,0,.39-.2v-.19l-.59-1.18a.69.69,0,0,0-.2-.39c0-.2.2-.2.39-.39l.2-.2a.19.19,0,0,1-.2-.2h-.2c-.2,0-.2.2-.39.39,0,.19,0,.19-.2.19s-.2,0-.2.2a1.49,1.49,0,0,1,.39.78c0,.19-.2.39-.2.59-.2.2-.2.2-.2.39v.2c0,.2-.2.39-.39.59s-.2.2-.2.39v.39c.2.19,0,.78.39,1v.2c-.2.2-.2.39-.39.39s-.2-.19-.39-.19h-.2a.19.19,0,0,0-.2.19.61.61,0,0,0,.2.39c.2.19.2.19.2.39v.59c-.2.2-.2.2-.2.39-.2.2-.2.2-.2.39a.72.72,0,0,0,.2.59v.2h-.39c-.39,0-.39.19-.39.59v1.56c0,.39,0,.59.2.78,0,.2-.2.39-.2.59a1.18,1.18,0,0,0-.2.78v.39c0,.2,0,.2-.2.39h-.59c-.39,0-.39,0-.39.2s.2.2.2.39h.2c.2,0,.2.2.39.2v.59c-.2.2-.2.2-.2.39s0,.19.2.39a.19.19,0,0,1-.2.2.71.71,0,0,0-.2.59,7,7,0,0,0-.39,2A3.3,3.3,0,0,1,14,134c0,.39-.39.78-.39,1.18a2.48,2.48,0,0,0-.2,1.17,4.61,4.61,0,0,1-.39,1.56.19.19,0,0,1-.2.2.68.68,0,0,0,.2.39,2.82,2.82,0,0,1,1.37.39.19.19,0,0,0,.2.19v-.39a.6.6,0,0,0-.2-.39c-.39,0-.39,0-.59-.39,0-.2,0-.39.2-.39a.61.61,0,0,0,.2-.39l.2-.19-.2-.2c-.2,0-.2,0-.39-.2v-.19A.69.69,0,0,0,14,136a.72.72,0,0,0,.2-.59l.59-2.54c0-.19,0-.39.39-.59v-.39a.19.19,0,0,1-.2-.2l.2-.2a.19.19,0,0,1,.2-.19c.2-.2.39-.39.39-.59v-.78c0-.39.2-.59.59-1,0-.2.39,0,.59.19v.2a1.47,1.47,0,0,0-.2,1,3.51,3.51,0,0,1-.59,2.15l-.39.78v.19c.2.2.2.2.2.39,0,.78-.2,1.37-.2,2l-.39.59V137a3.32,3.32,0,0,1-.2,1.37v2.15c-.2.39-.39.59-.39,1v1.37l-.39,2a1.47,1.47,0,0,1-.2.78v2a3.33,3.33,0,0,0-.2,1.37v.59c-.2.19-.39.39-.39.59a2.48,2.48,0,0,0,.2,1.17v.39a1.68,1.68,0,0,1-.59,1.17v.2a.72.72,0,0,1,.2.59,3.31,3.31,0,0,1-.2,1.37v.39c0,.2,0,.39.2.39v.39a1.47,1.47,0,0,0-.2.78,1.17,1.17,0,0,0,.2.78c.2.19.2.19.2.39,0,.39,0,.59-.2.59-.39.2-.39.39-.39.59.2.39.2.78.39,1a1.48,1.48,0,0,1,.2.78.72.72,0,0,0-.2.59,1.46,1.46,0,0,1-.2,1,.6.6,0,0,0-.2.39c0,.2,0,.2.2.2a.19.19,0,0,0,.2.2l-.2.19V164c0,.19,0,.19.2.19v.59a1.17,1.17,0,0,0-.2.78v1.37A15.84,15.84,0,0,0,13,170v.2c0,.39.39.39.39.78v1.76a3.68,3.68,0,0,0,.39,1.56H14v-.59a.19.19,0,0,1,.2-.2.69.69,0,0,0,.39.2c.2,0,.59,0,.59-.2a1,1,0,0,1,.39-.78,2.91,2.91,0,0,1,.59-1.37.68.68,0,0,1,.39-.2.19.19,0,0,0,.2-.2,10.36,10.36,0,0,0,1-2.15,6.09,6.09,0,0,0,1-2,.19.19,0,0,1,.2-.2,4.88,4.88,0,0,0,.78-1.37A3.62,3.62,0,0,0,20,164l.39-.59A6.79,6.79,0,0,0,21.79,161a.68.68,0,0,0,.2-.39l1-2.15.59-.78c0-.39.39-.59.39-.78l.78-1.57a2.77,2.77,0,0,0,.39-1.17l.59-1a.42.42,0,0,0,.39-.39,2,2,0,0,1,.78-1c0-.2,0-.2.2-.39a21.45,21.45,0,0,1,1.56-2.94,40.47,40.47,0,0,1,2.93-4.89l.39-.78v-.19c.39-.2.59-.59.78-.78a2.77,2.77,0,0,1,.39-1.17,4.84,4.84,0,0,1,.78-1.37c.39-.2.59-.59.78-.78a17.79,17.79,0,0,1,1.76-3.32l1.17-1.37.39-.78c0-.39.2-.78.59-.78.2,0,.2,0,.2-.19a.72.72,0,0,1,.2-.59c.2-.19.39-.39.39-.59l.78-1.37a10.53,10.53,0,0,1,1.76-2.35l2.74-4.5c.2,0,.59-.39.78-.78l.59-.78c0-.39.39-.59.59-1l1.56-2a21.39,21.39,0,0,0,2.54-3.33,2.35,2.35,0,0,1,1-1c.2-.2.2-.39.39-.39a5.26,5.26,0,0,1,1.37-1.56l2.15-2.35c.78-1,1.76-1.56,2.35-2.35.2-.19.39-.19.39-.39l.78-.59a.42.42,0,0,0,.39-.39l.39-.39,1.56-1.37a4.15,4.15,0,0,1,1.17-.78,4.61,4.61,0,0,1,1.76-1.56l1-.59A5.1,5.1,0,0,1,67.94,100l.2-.2h.39a2.47,2.47,0,0,1,1.17.2l1,.78c.39.39.59.59,1,.59s.59,0,.59.39c-.2,0,0,0,0,.2h.39v.39c0,.2,0,.2.2.2H73l1.17,1.17c1.76,1.76,1.37,3.13,2,4.89a1.47,1.47,0,0,1,.2,1,.72.72,0,0,0,.2.59.19.19,0,0,1-.2.19c-.2.2-.39.39-.39.59,0,4.3-2.15,9-2.15,10.17,0,.2,0,.39.2.39a1.49,1.49,0,0,1,.78-.39c.2,0,.2,0,.2.39a.19.19,0,0,1-.2.2c-.2.2-.39.2-.39.39l-.2.2a.19.19,0,0,1-.2-.2.69.69,0,0,0-.39.2c0,.39-.2.39-.39.59a.19.19,0,0,0-.2.2v.2a.42.42,0,0,0,.39.39.72.72,0,0,0,.59-.2v.2l-.39.39.2.2H74v-.2c.2,0,.2.2.2.39a.72.72,0,0,0-.2.59c0,.19,0,.19.2.39V127c0,.19.2.39,0,.39a.42.42,0,0,1-.39-.39v-.78l-.2-.2a79.59,79.59,0,0,1-.39.39v1c0,.39,0,.39.59.39H74v.2a1.48,1.48,0,0,1-.2,1c0,.59,0,.59.2.78h.2a.19.19,0,0,1-.2.2l-.2.2c-.2,0-.2-.2-.39-.39a.19.19,0,0,0-.2-.19c-.2-.2-.2,0-.2,0h-.2a2.48,2.48,0,0,1,.2,1.17l.2.19v-.39a.19.19,0,0,1,.2-.2H74v.59a1.77,1.77,0,0,0-.2,1,1.87,1.87,0,0,1-.39,1.37v.39A.42.42,0,0,0,73,134c0,.2-.2.39-.2.59l.2.2a.72.72,0,0,1,.2.59c0,.2-.2.39-.2.78a.19.19,0,0,1-.2.2c-.2,0-.2.39-.39.59a.68.68,0,0,1,.2.39c.2.2.2.39.59.39a.19.19,0,0,0,.2.2v.39c-.2.39-.59.59-.78.78a.2.2,0,0,0,0,.39.42.42,0,0,0,.39.39v.2c0,.19,0,.19-.2.19s-.39,0-.39-.19h-.2v.19c0,.59.2,1.18.2,1.76v.59a8.54,8.54,0,0,0,.2,1v.2a.19.19,0,0,0,.2-.2c0-.59.2-1.17.2-1.76a.72.72,0,0,0-.2-.59.19.19,0,0,0-.2-.2.68.68,0,0,0,.39-.2l.2.2a4.84,4.84,0,0,1,.2,1.76v1.37a.42.42,0,0,1-.39.39h-.2l-.2-.2h-.2v.2a.19.19,0,0,1,.2.19v.39c-.2.19-.39.19-.39.39l.2.2v1h.2v-1c0-.2.2-.2.39-.2s.2,0,.2.2V146l-.2.2a.19.19,0,0,0,.2.2c.2,0,.2.19.39.19,0,.2-.2.2-.2.39v.39c0,.2.2.39.2.78,0,.2-.2.39-.2.59v.2l.2.19.39-.39v.2a2.13,2.13,0,0,1-.2,1c0,.2,0,.39.2.39,0,.2.2.39.2.78,0,1-.59,1.76-.59,2.94.2.39.2,1,.59,1.37v.39l-.2.19a.19.19,0,0,0,.2.2,2.9,2.9,0,0,1,.39,1.76v.39c0,.19-.2.19-.2.39l.59.39a.19.19,0,0,0,.2.2c0,.2-.2.39-.2.59v.2a7.38,7.38,0,0,1,1.17,2.54v.59c0,.2,0,.2.2.2a.42.42,0,0,1,.39.39l1.17,1.56c.2.2.2.2.39.2h.2a3.47,3.47,0,0,0,2.15-1.37l4.11-3.91a5.2,5.2,0,0,0,1-1.18l2.15-2c.2-.2.2-.59.59-.59l.2-.19a1.67,1.67,0,0,1,.59-1l2.93-2.93a8.37,8.37,0,0,1,2-1.76,15,15,0,0,0,1.76-1.76l1.76-2,1.17-1a.72.72,0,0,1,.59-.19.19.19,0,0,1,.2.19.69.69,0,0,0-.2.39c.2.19.2.19.2.39a1.48,1.48,0,0,1-.39.78c-.39.39-1,.78-1,1.37a.19.19,0,0,0-.2.19c-.78.2-.78.78-1.17,1.37l-1.37,2.15c-.2.19-.2.19-.39.19h-.59a.42.42,0,0,0-.39.39l.2.19c.2.2.39.39.39.59l-.78.39v.39c.2.2.39.2.39.39h.2a.19.19,0,0,0-.2.19v.39a1.17,1.17,0,0,1-.2.78c-.2.2-.2.2-.2.39s0,.39.2.39c0,.2,0,.39-.2.39-.2.19-.2.39-.39.39,0,.59-.39,1-.39,1.17-1.56.78-7.63,7-7.63,8.6-1,.78-.78,1.17-1.56,1.57a.19.19,0,0,0-.2.2c-.2.59-.59.59-1,.78h-.2a.19.19,0,0,1-.2.2v.2c-.39,0-.59.39-.78.59-.39.39-.59.78-1,.78l-1,.78v.2c0,.39-.39.59-.39,1l-.2.2H78.7c-.39,0-.59.2-.78.59a.19.19,0,0,1-.2.2h-.59a2.5,2.5,0,0,0-1.17.19h-.39c-.59,0-1.37-.19-2-.19-.39.19-.39.19-.59.59v.39a.19.19,0,0,1-.2-.19.69.69,0,0,1-.2-.39.78.78,0,0,0-.78-.39c-.2.19-.2.39-.39.39,0,.2-.2.2-.39.2l-.59-.39v-.78c-.2,0-.39,0-.39.19v.2c-.2.2-.2.2-.39.2s-.2-.2-.2-.39v-.19c0-.2,0-.39-.2-.39l-.59-.39h-.2c-.2,0-.2.2-.39.2-.2-.2-.39-.39-.39-.59-.2-.59-.59-.78-.78-1.37-.2-.2-.39-.2-.39-.39A.52.52,0,0,0,66,171l-.2-.19c0-.2-.39-.39-.39-.78a.72.72,0,0,0-.2-.59,3.34,3.34,0,0,1-.39-1c-.39-1-2-2-2.35-2.93a7,7,0,0,1-.39-2,1.77,1.77,0,0,1-.59-1.37v-2.35a.72.72,0,0,1-.2-.59v-.39c0-.39,0-.39.2-.59a.19.19,0,0,0,.2-.2.69.69,0,0,1-.2-.39c0-.2-.2-.2-.2-.39s-.2-.39-.2-.59-.2-.2-.2-.39.2-.39.39-.59v-.59c-.2,0-.2-1-.2-1a.42.42,0,0,1,.39-.39c.2,0,.39-.39.39-.78.2,0,0-.2,0-.2h-.2c-.39,0-.39-.19-.59-.59V152a.19.19,0,0,1-.2-.2l-.2.2h-.2l.39-1.57a1.18,1.18,0,0,0,.2-.78v-2.15c-.2,0-.2,0-.2-.2a.6.6,0,0,1,.2-.39v-5.28c0-.19.2-.39.2-.59a.19.19,0,0,0,.2-.2.68.68,0,0,1-.2-.39v-1.56c-.2-.2-.39-.2-.39-.39a.69.69,0,0,1,.2-.39v-.2h.2c0,.2.2.2.2.39a.19.19,0,0,0,.2-.2s.2-.2,0-.2a.68.68,0,0,0-.2-.39c0-.2-.2-.2-.39-.39l.39-.59V134c0-.19.2-.39.2-.59a.69.69,0,0,0-.2-.39v-4.11c0-.2,0-.39.2-.39h.2c-.2-.39,0-.78-.39-1.17v-9.19l.2-.2h-.2l-1.56.39a.19.19,0,0,0-.2.2V119l-.2.2c-.2,0-.39,0-.39-.2v-.19c0-.59,1.76-1,2.35-1.37a.19.19,0,0,1,.2-.2.19.19,0,0,0-.2-.19v-.2c-.2,0-.2,0-.2-.2v-.19c0-.2.39-.2.39-.2.2,0,.2.2.39.2s.2,0,.39-.2a.19.19,0,0,0-.2-.2c-.2,0-.39,0-.39-.2a.68.68,0,0,0,.2-.39h-.2l-.2.2c-.2.19-.2.19-.39.19s-.2,0-.39-.19c-.2,0-.2,0-.39.19v.59a.72.72,0,0,1-.2.59.69.69,0,0,1-.39.19c0,.39-.39.59-.78.78a.42.42,0,0,0-.39.39v.39c-.2.19-.2.19-.2.39a.19.19,0,0,0,.2.2l.2.2c-.2.39-.39.59-.78.59a.19.19,0,0,1-.2-.2h.2l.2-.2v-.19c0-.2-.39-.39-.59-.39l-.2.2v.2a.42.42,0,0,1-.39.39c-.39.2-.59.59-1,1a2,2,0,0,0-.78,1.37c0,.2,0,.2-.2.2h-.39a.19.19,0,0,0-.2.2h.2a.19.19,0,0,0,.2.19l-.2.2a.72.72,0,0,1-.2.59.69.69,0,0,1-.39.2c-.2.19-.59.39-.59.78,0,.2-.2.2-.2.39-.39.19-.59.39-.59.78,0,.19,0,.19-.2.19-.39.2-.39.59-.59,1-.2.19-.39.39-.59.39-.59.2-.59.59-.78,1.17l.2.2c0,.2.2,0,.2,0h.39l-.39.78a.2.2,0,0,1-.39,0v-.2h-.2c-.2,0-.2.2-.39.39a.61.61,0,0,0-.2.39c0,.19,0,.19.2.19s.2.2.39.2a.19.19,0,0,0,.2.2l-.2.19c-.2.2-.2.2-.2.39a.61.61,0,0,1-.39.19c-.2,0-.2,0-.2-.19a1.17,1.17,0,0,0-.2-.78.72.72,0,0,1,.2-.59v-.39c-.2,0-.2.19-.39.19,0,.2-.2.39-.2.59,0,.39-.2.59-.39.59s-.2.2-.2.39l-.39.59a.6.6,0,0,1-.39.2v-.39a1.44,1.44,0,0,1,.39-1.17,7.63,7.63,0,0,0,1.57-2,.19.19,0,0,1,.2-.2c.2-.19.39-.39.39-.59v-1h-.2c-.2-.2-.2-.2-.2-.39l.39-.78v-.39A.61.61,0,0,0,50,125c-.2.39-.59.78-.59,1.17V127c0,.19.2.19.2.39a.68.68,0,0,1-.2.39l-.39.78c0,.39-.39.39-.39.78a.42.42,0,0,1-.39.39c0,.2-.2.39-.2.59a4.27,4.27,0,0,1-1,1.57c-.2,0-.39.2-.59.39.2,0,.39.2.59.2a.72.72,0,0,1,.2.59H47c-.2.39-.39.59-.39.78a1.48,1.48,0,0,0,.39.78c.39.2.2.59.39,1a.19.19,0,0,1-.2.2c-.39.19-.59.39-.59.78,0,.2,0,.2-.2.39h-.2v-.59a.78.78,0,0,1,.39-.78l.2-.2V135H46c-.2.2-.2.39-.39.39a.68.68,0,0,1-.39-.19v-.59a.19.19,0,0,0,.2-.19h.39a8.49,8.49,0,0,1,.2-1v-.19h-.39l-.2.19a.19.19,0,0,1-.2.2v-.78l.2-.19h-.2a.61.61,0,0,0-.39.19c-.2.2-.39.2-.39.39s.2.19.2.39v.2c-.39,0-.59-.2-.78-.2-.59,0-1.17.2-1.17.78,0,.19-.2.19-.2.39s-.2.2-.2.39v.19l.39.39v.39l-.2.2h-.78l.2.19a.72.72,0,0,1,.2.59,8.47,8.47,0,0,1-.78,1.37l-.2.2a.19.19,0,0,0,.2.2h.2c.2-.39.39-.59.78-.59v-.39c0-.2,0-.59.39-.59v-.59c.2,0,.39,0,.39.2v.59c0,.39.39.39.59.39a.19.19,0,0,1,.2-.2.6.6,0,0,1-.2-.39c0-.2-.2-.39-.2-.59s.2-.2.39-.2a1,1,0,0,0,.78-.39l.2-.2a.19.19,0,0,0,.2.2V137c-.2.19-.2.19-.2.39l-.2.2v.19h.78c.2.2.2.39.39.39,0,.2,0,.2.2.2a.6.6,0,0,0,.39-.2l1.17-1.37c.2-.2.2-.2.39-.2a3.69,3.69,0,0,1-.39,1.57c-.39.39-.59.78-1,.78-.2,0-.2.19-.2.39-.2,0-.2.2-.39.39l-.2.2v-1c0-.2,0-.39-.2-.39h-.78l-.2-.19c-.2,0-.2.19-.39.39l-1,.59a.42.42,0,0,0-.39.39,1,1,0,0,1-.39.78c-.2.2-.39.39-.39.59a.69.69,0,0,1-.2.39c0,.39-.39.39-.59.39,0-.39.39-.59.39-.78v-.39c-.2-.2-.2-.2-.39-.2s-.39,0-.39.2-.2.19-.2.39v.2c0,.2-.2.2-.39.39a.19.19,0,0,0-.2.2l.2.2c0,.39-.2.39-.2.39a.19.19,0,0,0-.2.2l.2.19h.2l.59-.78c.2,0,.2-.2.39-.2v.59c0,.2,0,.39-.39.59-.2,0-.39.2-.39.59-.2.39-.39.59-.39.78-.2.39-.2.59-.59.78-.2,0-.2.19-.2.39,0,.39-.2.78-.2,1.17v.78H38.8c-.39.2-1,.39-1,.78a1.08,1.08,0,0,1-.59,1,.19.19,0,0,0,.2.2c.2.19.2.19.2.59l-.2.19a.72.72,0,0,1-.2.59H37V151c.2.2.2.2.2.39s-.2.39-.2.59l-.2.19c-.2.39-.59.59-.78.78s-.2.2-.39.2-.39,0-.39-.2v-.39l-.59-1.17h-.2l.2-.2h.2c.2,0,.2.2.39.2l.59-.78a3.3,3.3,0,0,1,.39-1h-.2a.19.19,0,0,0-.2-.19c-.2,0-.39.19-.59.19-.59,0-.78.59-1,1.18v.59c0,.19-.2.19-.2.39l-.2.2a.19.19,0,0,0,.2.19c.2.2.39.39.59.39.39.19.39.59.39,1l-.2.2a.19.19,0,0,1-.2-.2c0-.2-.2-.2-.2-.39a1.48,1.48,0,0,0-1.37-.78c-.39,0-.59,0-.59.59-.2.39-.2.78-.78.78-.2,0-.2.2-.39.39v1.17c0,.2,0,.2-.2.39-.2,0-.39.39-.59.59v.39a1,1,0,0,0-.39.78c0,.2.2.39.39.59a.61.61,0,0,0,.39-.2c0-.19.2-.39.39-.59v1.17c.2,0,.2-.19.39-.19l1-1.37v-.78a2,2,0,0,1,.78-1h.2a1,1,0,0,1-.39.78.69.69,0,0,1-.2.39v.19c0,.2-.2.39-.39.59a1.44,1.44,0,0,1-.39,1.17v.39a1,1,0,0,1-.39.78c-.2,0-.2.19-.39.19a1,1,0,0,0-.39.78v.39c0,.19-.2.19-.39.39a2.48,2.48,0,0,0-.2,1.17v.39a.19.19,0,0,1-.2.2l-.2-.2a.72.72,0,0,0-.2.59.19.19,0,0,1,.2.19c0,.2-.2.2-.2.39h-.59c-.2,0-.2.19-.2.39v.2a.72.72,0,0,1-.2.59,1.48,1.48,0,0,0-.78.39c0,.2-.39.2-.59.39-.39.2-.59.2-.59.59a1.17,1.17,0,0,0,.2.78.19.19,0,0,1,.2.2,2.35,2.35,0,0,0-.39,1.56s.2,0,0,.2l-.2.2c0,.2.2.2.39.39.2,0,.2.2.2.39-.2.19-.2.39-.39.39h-.39a.52.52,0,0,0-.59.59v.2c0,.59,0,.59-.59.59a.42.42,0,0,0-.39.39l.2.2c0,.2-.2.2-.2.39s.2.2.39.39a.69.69,0,0,0,.2.39.19.19,0,0,1-.2.2.42.42,0,0,0-.39.39.42.42,0,0,1-.39.39.72.72,0,0,1-.59.2c-.2.2-.39.2-.39.39s.2.2.2.39v.2c-.2.19-.2.19-.39.19l-.2.2a.6.6,0,0,0,.2.39,1.17,1.17,0,0,1,.2.78c0,.2,0,.2.2.2h.2c.2,0,.2-.2.39-.2l.2-.2.2.2c0,.2.2.59.2.78a1,1,0,0,1-.39.78c-.2.19-.2.39-.39.39-.39.39-.59.59-.59.78a3,3,0,0,1-1.17,1.56c0,.39-.2.59-.39,1a.42.42,0,0,1-.39.39l-1.56,1.37c0,.19-.2.39-.2.59,0,0-.2,0-.2.39a.19.19,0,0,1,.2.2v.2c-.2,0-.39-.2-.59-.2a.68.68,0,0,0-.39.2c-.59,0-1,.59-1.56.59v.19a2,2,0,0,1-1,.78.61.61,0,0,1-.39.2c-.2,0-.2,0-.2-.2h-.78a20,20,0,0,1-3.32.2c-.2,0-.39,0-.39-.2a.19.19,0,0,1-.2-.2l-.2.2c-.2.39-.59.39-.78.59s-.2,0-.2,0c0-.39-.2-.39-.59-.39H8.69a2.51,2.51,0,0,1-1.17.19,2.77,2.77,0,0,1-1.17-.39L5.95,187a.42.42,0,0,0-.39-.39l-.78-.59c-.39-.19-.59-.39-.59-.78s-.2-.59-.39-.59c-.78,0-.78-.39-1-1v-.2c-.39,0-.39-.59-.59-1-.2-.2-.2-.39-.2-.78a2.79,2.79,0,0,1-.39-1.17c0-.39,0-.78-.39-1a5,5,0,0,1-.39-1.37L.28,175.1v-.78c0-.39-.2-1-.2-1.37v-.39a8.49,8.49,0,0,0-.2-1c0-.39.2-.59.59-1v-.39c0-.2,0-.2-.2-.2H.08c-.2,0-.2,0-.2-.2v-1.37a.72.72,0,0,1,.2-.59c.2-.19.39-.39.39-.59L.08,166.1c-.2,0-.2,0-.2-.2a.61.61,0,0,1,.2-.39l.39-.39a.69.69,0,0,1,.2-.39c0-.19-.2-.19-.59-.19-.2-.2-.2-.2-.2-.39v-.39H.47v-.59a.19.19,0,0,0,.2-.2.69.69,0,0,1-.2-.39l.2-.2V162c-.2-.2-.39-.39-.39-.59V161a1.53,1.53,0,0,1,.2-.59V160a6.76,6.76,0,0,0,.2-1.76,6.76,6.76,0,0,0-.2-1.76v-.39c0-.39.2-.39.39-.59a.72.72,0,0,0,.2-.59c0-.39-.59-.39-.59-.59a.19.19,0,0,0,.2-.2,1.17,1.17,0,0,0,.2-.78,4.61,4.61,0,0,0,.39-1.56,2.89,2.89,0,0,0,.2-1.37v-.78a8,8,0,0,1,.2-2.15,1.46,1.46,0,0,0,.2-1v-.78a2.14,2.14,0,0,1,.2-1V143c-.2,0-.2-.2-.2-.39a5.65,5.65,0,0,1,.78-2.74.19.19,0,0,1,.2-.2,1.76,1.76,0,0,0,.2-1c-.2,0-.2,0-.2-.2a.61.61,0,0,1,.2-.39v-2.35c0-.2,0-.39.39-.39v-1c0-.39,0-.59.2-.78v.2l.2.19v-.19a.19.19,0,0,1-.2-.2,8.54,8.54,0,0,0,.2-1c.2-.2.2-.78.2-1.18v-1c.2-.2.39-.2.39-.39a.72.72,0,0,0,.2-.59v-.39a1.49,1.49,0,0,1,.2-.78.72.72,0,0,0-.2-.59,1.48,1.48,0,0,0,.2-.78l.39-.78v-.78a8.54,8.54,0,0,1-.2-1c0-.2.2-.39.39-.78a1.48,1.48,0,0,0,.39-.78c0-.19,0-.19-.2-.39-.2,0-.2,0-.2-.2a.6.6,0,0,1,.2-.39l.2-.2v-.59a1.49,1.49,0,0,0,.39-1V120a7.42,7.42,0,0,0,.59-2v-.39c0-.2,0-.2.2-.39.39-.39.2-.78.39-1.17v-.78c0-.19,0-.19.2-.39a1.48,1.48,0,0,1,.2-.78c0-.19.2-.39.2-.78,0-.2,0-.2.2-.2a1.18,1.18,0,0,1,.2-.78.72.72,0,0,1,.2-.59v-.39c.2-.59.2-1,.59-1.37v-.2a5,5,0,0,1,.39-1.37.71.71,0,0,0,.2-.59c-.2,0-.2-.19-.2-.39s0-.2.2-.39v-.59a.72.72,0,0,1,.2-.59,2.48,2.48,0,0,0,.2-1.17.6.6,0,0,1,.2-.39v-.78a1.49,1.49,0,0,0,.39-.78c0-.39,0-.59.2-.78s.2-.2.2-.39v-.39a2.47,2.47,0,0,1,.2-1.17c0-.2.2-.39.2-.59V99a.72.72,0,0,1,.2-.59.71.71,0,0,0,.2-.59v-.39c0-.2.2-.39.2-.59a9.93,9.93,0,0,0,.59-3.33A3.6,3.6,0,0,0,13,92.18a3.82,3.82,0,0,0,.2-1.37.68.68,0,0,1-.2-.39c0-.2.2-.2.39-.39.2,0,.2,0,.39-.2s.2-.2.2-.39v-.78a.72.72,0,0,1,.2-.59l.59-.78c.2-.2.2-.2.2-.39s0-.39-.2-.39v-.39a2.11,2.11,0,0,0,.39-1.57v-.39c0-.2,0-.39.2-.39v-1c.2-.19.39-.39.39-.59v-.39c0-.2.2-.39.2-.59a3.71,3.71,0,0,0,.39-1.57c0-.39.2-1,.2-1.37l.2-.19a.42.42,0,0,0,.39-.39,4.64,4.64,0,0,1,.59-2.35.19.19,0,0,0,.2-.2.68.68,0,0,1-.2-.39v-.2c0-.19,0-.39.39-.59.2,0,.39-.19.39-.59V73c0-.2,0-.2.2-.39v-1c0-.2.2-.39.39-.59v-.59c.2,0,.2-.2.39-.2a.69.69,0,0,1,.2-.39c0-.59.39-1.17.39-1.76v-1s-.2,0,0-.19V65.78l.78-.59c.2,0,.39,0,.39-.19a.69.69,0,0,1-.2-.39c-.2-.19-.39-.39-.39-.59s.2-.19.2-.39a.19.19,0,0,1,.2-.2l.2.2c.2,0,.39,0,.39-.2L22,61.87a.69.69,0,0,0,.2-.39c0-.19-.2-.19-.2-.39-.2,0-.2-.2-.2-.39s.2-.39.2-.78h.2c.2,0,.39,0,.39-.2s.2-.39.39-.78v-.39c0-.39-.2-.39-.39-.39V58c.2,0,.39,0,.39-.2.2-.39.59-.78.59-1.17L24.13,55v-.39c0-.19,0-.19-.2-.39V54a11.89,11.89,0,0,1,.59-2.54c0-.19.2-.39.2-.59a1.76,1.76,0,0,1,.2-1h.2v.19l.2-.19v-.2h-.2a9.94,9.94,0,0,1,.39-2.54c.2-.2.2-.39.59-.39.2,0,.2-.2.39-.39l.39-.59v-.59h-.2a.19.19,0,0,0-.2.2h-.39a32.31,32.31,0,0,1,1.17-4.11c.2,0,.2,0,.2-.2,0,.2.2.39.2.59s-.2.2-.2.39l.2.2v-.59a5.86,5.86,0,0,1,.78-2v-.2A6.23,6.23,0,0,1,29,36.83v-.39a.19.19,0,0,0-.2.2c0,.2-.2.39-.39.59v-.39c.39-1.17.59-2.74,1-4.11L30,30.38a1.18,1.18,0,0,0,.2-.78,2.91,2.91,0,0,1,.2-1.37,15.14,15.14,0,0,0,1-2.74,25.22,25.22,0,0,0,.78-3.72,1.39,1.39,0,0,1,.59-1.17c0,.19.2,0,.2-.2a5.86,5.86,0,0,0,.78-2l.39-1.17a31.22,31.22,0,0,1,1-4.11.61.61,0,0,0,.2-.39,1.49,1.49,0,0,0,.39-.78c0-.19-.2-.19-.2-.39s0-.59.2-.59C35.67,10.82,35.87,10.63,35.87,10.43ZM11.42,158.67c0-.2,0-.2-.2-.39a.19.19,0,0,0-.2.19v.2l.2.2Zm-.2-4.3v1.37h.39a.61.61,0,0,1,.39-.2v-.39l-.39-.78-.2-.2Zm.78-4.11v.39l-.59,2.15v.39h.39l.59-.39a.19.19,0,0,0,.2-.19.69.69,0,0,1-.2-.39c-.2-.19-.39-.39-.39-.59s.2-.39.39-.59c.2,0,.2,0,.2-.19a.72.72,0,0,0,.2-.59v-.19c-.2-.2-.2-.2-.39-.2C12,149.87,12,149.87,12,150.26Zm.2,8.61c0-.39,0-.59-.2-.59l-.2-.2v.2s-.2,0,0,.19c0,.2.2.39.39.78ZM12.4,146c.2,0,.2-.19.2-.39a.42.42,0,0,0-.39-.39,2,2,0,0,0-.2.59A.69.69,0,0,0,12.4,146Zm.2,3.52a.42.42,0,0,0,.39-.39v-.19l-.59-.78v-.2c-.2,0-.2.2-.39.2v.39c.2.2.2.2.2.39v.39Zm0,5.09V155a1.46,1.46,0,0,0,.2-1,.19.19,0,0,0-.2-.2l-.39.39s-.2.2,0,.2a.19.19,0,0,0,.2.2Zm-.39-10.17c0,.2,0,.2.2.2Zm.39-3.91a.69.69,0,0,0,.39.2.19.19,0,0,0,.2-.2.42.42,0,0,0,.39-.39v-.2c0-.2-.2-.39-.39-.59a.68.68,0,0,0-.39-.2c-.2.2-.2.39-.2.78Zm.2,2-.2-.2v1.37c.2-.2.39-.39.39-.59A.72.72,0,0,1,12.79,142.44Zm.39,5.48v-1H13a1.18,1.18,0,0,0-.2.78c-.2,0,0,.19.2.39Zm-.2-2.15c0,.19,0,.19.2.19h.2v-.39a.19.19,0,0,0-.2-.2A.61.61,0,0,0,13,145.77Zm.78,25.81H14a.19.19,0,0,1,.2.2c0,.39.2.78.2,1.17v.2h-.2c-.2-.39-.59-.59-.59-1.17C13.57,171.78,13.77,171.78,13.77,171.58Zm.59-9.39H14V162a2.91,2.91,0,0,1,.2-1.37v-.2a.19.19,0,0,0,.2.2Zm0,2.15c0,.2-.2.2-.2.39l-.2-.19c0-.2,0-.2.2-.2ZM14.16,125h.2v-.2h-.2Zm0,3.32c.2-.19.2-.19.2-.39h.2l.2.2a.19.19,0,0,0-.2.19Zm.2,30.7-.2.2v-.59c0-.2,0-.2.2-.2Zm.2-69.62h.2v-.2h-.2Zm.78,41.07v.2a.19.19,0,0,1-.2-.2Zm2.74-17.41s.2.39.39.39.2-.19.2-.39h.2a.69.69,0,0,0,.2-.39c0-.19-.2-.19-.2-.39a1.17,1.17,0,0,1,.2-.78.42.42,0,0,1,.39-.39h.2c.2,0,.2,0,.2-.2v-.19a.69.69,0,0,1,.2-.39v-.78h-.2c-.2.2-.2.2-.2.39l-.2.2a.19.19,0,0,1-.2-.2v-.39c0-.19.2-.19.2-.39l-.2-.2a.69.69,0,0,0-.39.2c-.2.2-.39.39-.39.59v2s-.39.2-.39.39Zm1-8.21a2.83,2.83,0,0,0,.39-1.37h-.39c0,.2-.2.39-.2.59a.72.72,0,0,0-.2.59c0,.2,0,.2.2.39A.19.19,0,0,1,19.05,104.89Zm.59-2.35-.2-.2-.2.2c0,.19.2.19.2.39C19.44,102.74,19.64,102.74,19.64,102.55Zm-.39,5.28c.2,0,.2.2.39.39s.2.59.39.39c.2,0,.2-.39.2-.59a.19.19,0,0,0,.2-.2c0-.19-.39-.59-.39-.59,0-.19,0,0-.2,0Zm1-1.37.2-.19a.42.42,0,0,0,.39-.39.9.9,0,0,1,.59-1,.19.19,0,0,0,.2-.2c.2-.19.2-.19.2-.39v-.2c-.2-.19-.2-.59-.39-.59,0-.39-.2-.78-.2-1.17h-.39v.2l-.59,1.37c0,.19-.2.39-.2.59s-.2.39-.2.78a8.49,8.49,0,0,1,.2,1Zm.2,12.71-.39.59a.19.19,0,0,1-.2-.19,1.78,1.78,0,0,0,.2-1,.19.19,0,0,1,.2-.2.19.19,0,0,0,.2.2c0,.2,0,.2.2.39C20.42,119,20.42,119,20.42,119.17Zm.2-2.15v-.39c.2,0,.2,0,.2.2Zm.2-2H21a.19.19,0,0,1,.2.19c0,.2,0,.2-.39.39Zm.39-1.76v-.2h.59v.2c0,.19-.2.19-.39.19A.19.19,0,0,1,21.2,113.3Zm.39-13.11a.72.72,0,0,0-.2.59v.39h.2c.2,0,.2,0,.2-.2l.59-.39c.2,0,.2-.2.2-.39a1.76,1.76,0,0,1-.2-1c.2-.39.2-.78.39-1a.69.69,0,0,0,.2-.39c0-.19,0-.19-.2-.39l-.2-.2a.6.6,0,0,1,.2-.39c.2-.39.39-.39.59-.39a.19.19,0,0,1,.2.2c.2-.2.2-.2.39-.2a.19.19,0,0,0-.2-.19l-.39-.59c-.2,0-.2-.2-.39-.2l-.2-.2a.69.69,0,0,0-.2.39v.39a4.6,4.6,0,0,0-.39,1.57V98c-.39.39-.2,1-.59,1.37Zm0,11.74c0-.2.2-.59.2-.78a.72.72,0,0,0,.2-.59c0-.2.2-.39.2-.78v-.39c0-.2.39-.59.39-.59v1.37a1.17,1.17,0,0,1-.2.78l-.59,1.17h-.2Zm2,66.1-.78.78v.2l.2.19c.2,0,.59,0,.59-.19Zm-.39-83.9v-.2a.19.19,0,0,0-.2.2ZM23,106.85v-.39a.61.61,0,0,1,.2-.39h.39v.39c0,.2-.2.2-.39.39Zm.59-13.5v-.19h-.2a.19.19,0,0,0-.2.19c0,.2,0,.2.2.2A.19.19,0,0,0,23.55,93.35Zm.39-2.54h-.2a.72.72,0,0,0-.2.59c0,.19,0,.19.2.39.2,0,.2,0,.2-.2a.68.68,0,0,0,.2-.39C24.13,91,24.13,91,23.94,90.81Zm0-.59.2-.19v-.39a.19.19,0,0,1-.2.2ZM24.53,102a2.11,2.11,0,0,1,.2-1.17h.39v.39c0,.39-.2.59-.39,1h-.2Zm.2,69.43V171a.19.19,0,0,1-.2.2Zm.2-119.69-.2.2c0,.19,0,.19.2.19Zm1,33.44v-.39l-.2-.2h-.2c-.2.2-.2.2-.2.39l-.59,2.54v.59h.39a1.46,1.46,0,0,1,.2-1,.72.72,0,0,0,.2-.59Zm-1-2a1.17,1.17,0,0,1,.2.78h.39a.19.19,0,0,0,.2-.19.69.69,0,0,1-.2-.39.69.69,0,0,1-.39-.19Zm2.54-2.54a1,1,0,0,0-.39-.78c0-.2-.2,0-.39,0v.78c-.2.59-.39,1-1,1.17l-.59.39v.39c.2.19.2.19.39.19h.2c.39,0,.59.2,1,.39.2,0,.2.19.2.39s-.2.2-.2.39l.2.2h.2c0-.2.2-.39.2-.59s-.2-.39-.2-.59a1.48,1.48,0,0,0-.39-.78c0-.19.2-.39.59-.59a.19.19,0,0,0,.2.2.69.69,0,0,0,.2-.39.72.72,0,0,1-.2-.59ZM25.11,96.48a.69.69,0,0,1,.39-.19h.2v.19c-.39.59-.2,1.18-.59,1.76Zm.39,80.38h-.2c-.2-.2-.2-.2-.2-.59a.42.42,0,0,1,.39.39ZM25.9,95.5l-.2.2v-.2h-.2c0-.39.2-.59.2-.78l.2-.19c.2,0,.2.19.39.19Zm0-14.28h.2c.2,0,.2,0,.2-.2l-.2-.2c-.2,0-.39,0-.39.2A.19.19,0,0,0,25.9,81.23Zm0,94.26h-.2c0-.2,0-.2.2-.2s.2-.19.2-.39c-.2,0-.2,0-.2-.2a.61.61,0,0,1,.2-.39c.39,0,.39-.2.59-.39,0-.39.2-.78.2-1.17l.59-1.37.2-.2c.2,0,.39-.39.59-.59l.59-1.37.59-.78h.39v.2a20.22,20.22,0,0,1-.78,2c-.2,0-.2,0-.2.2L28,172.56c0,.2,0,.39-.2.39a4.62,4.62,0,0,1-1,2c0,.2-.2.39-.2.59-.2.2-.2.2-.59.2A.19.19,0,0,1,25.9,175.49Zm-.2-6.26v.2c0,.2,0,.2.2.2a.6.6,0,0,0,.39-.2c-.2-.2-.2-.2-.39-.2Zm.39-75.29c-.2,0-.2,0-.2-.19.2,0,.2-.2.39-.2v.39Zm1.56-14.86a.42.42,0,0,0-.39-.39l-.2.2c0,.19.2.59.39.59S27.66,79.27,27.66,79.08Zm-.2,85.27v-.2h-.2c-.2,0-.2,0-.2.2a.19.19,0,0,1,.2.2A.19.19,0,0,1,27.46,164.34Zm.2-89-.2.2a.72.72,0,0,1,.2.59v.39c0,.2,0,.2-.2.2a.19.19,0,0,0-.2.2v.19h.39v.2c0,.2-.2.2-.2.39-.2,0-.2.2-.2.39l.39.39c0-.2.2-.2.2-.39l.39-.59a.42.42,0,0,1,.39-.39h.2a.19.19,0,0,0,.2-.19,1,1,0,0,1,.39-.78v-.39c-.59-.2-1-.59-1.37-.59A.69.69,0,0,0,27.66,75.36ZM29,87.09c-.2.39-.59.39-.78.78a1.5,1.5,0,0,0-.39,1c-.2.19-.2.19-.39.19,0-.19-.2-.39-.2-.59a.19.19,0,0,1,.2-.19,4.7,4.7,0,0,0,.39-1.76v-.19c.2,0,.2-.2.39-.2a1.5,1.5,0,0,1,.78.39ZM28.24,164v-1h-.39c-.2,0-.2.2-.39.39a.2.2,0,1,0,0,.39h.2a.72.72,0,0,1,.2.59v.2c0,.19.2.19.39.19.2-.19.2-.19.39-.19Zm-.39-83.71H28a.19.19,0,0,0,.2-.19l-.2-.2a.19.19,0,0,0-.2-.2c0,.2,0,.2-.2.2C27.66,80.06,27.66,80.06,27.85,80.25ZM28.63,75c.2,0,.39,0,.39-.2s0-.2-.2-.2h-.2a.72.72,0,0,0-.59.2C28.24,74.77,28.44,75,28.63,75ZM28,161.41a.42.42,0,0,0,.39-.39.68.68,0,0,0-.39.2Zm.39-77.05H29c0,.39,0,.59-.2.59-.2.2-.2.2-.39.2v-.2a.19.19,0,0,1-.2-.2A.67.67,0,0,1,28.44,84.36Zm1.17-2.54c0,.39,0,.78-.39,1a.19.19,0,0,1-.2.2v-.2h-.2a.71.71,0,0,0,.2-.59c.2-.19.39-.39.39-.59h.2Zm.2,80h-.2c-.2,0-.59.2-.78.2v.19c.2,0,.2.2.39.2A.88.88,0,0,0,29.81,161.8Zm-.2-92.31h-.39v.39h.2c.2,0,.2,0,.2-.2Zm-.39,4.11c0,.2,0,.2.2.2v-.2Zm1,87.61v-.39c-.2,0-.39-.2-.59-.39l-.39.2V161c0,.2,0,.2.2.2,0,.2.2.2.39.2A.6.6,0,0,0,30.2,161.22Zm-.39-89.77a.42.42,0,0,0-.39.39V72a.42.42,0,0,0,.39.39h.39c.2-.2.39-.39.39-.59v-.2c0-.2-.2,0-.2,0A.72.72,0,0,1,29.81,71.45Zm.39-1.56v.2h.2c.2-.59.2-1,.59-1.18,0-.19,0-.19-.2-.19-.2-.2-.2-.2-.2-.39a12,12,0,0,1,.59-2.15.69.69,0,0,0,.2-.39c0-.19-.2-.19-.2-.39H31a5.86,5.86,0,0,1-.78,2v1.17a.72.72,0,0,1-.2.59c-.2,0-.2.2-.39.39C30,69.49,30.2,69.49,30.2,69.89Zm0,88.2v-.2H30a1.48,1.48,0,0,0-.39.78C30,158.67,30,158.28,30.2,158.09Zm-.59,1h.2c0-.19-.2-.19-.2-.39Zm1.76-80.57c0,.2,0,.2.39.2a.19.19,0,0,1,.2.2c.2,0,.2.19.39.19a.19.19,0,0,1-.2.2,1.07,1.07,0,0,0-.78,1.17l-.59.78c0,.19-.2,0-.2,0,0-.2-.2-.39-.2-.59,0,0-.2-.2-.2,0l-.2.19h-.2s-.2,0,0-.19v-.78c0-.39.2-.39.39-.78.2-.19.2-.39.2-.78v-.59a.69.69,0,0,1,.39-.19h.39c.2.19.39.19.39.59A.67.67,0,0,0,31.37,78.49Zm-.78-13.3V65h-.2c-.2,0-.2.19-.39.19v.2a.72.72,0,0,0,.2.59ZM30,167.47c0-.2,0-.2.2-.39a.72.72,0,0,0,.2-.59c0-.59.59-1,1-1.57h.2v.2c-.39.39-.39,1.17-.59,1.76,0,.39-.39.78-.59,1.17h-.2a.19.19,0,0,1-.2-.2Zm.78-8.21H30.2v.2a.19.19,0,0,1,.2.19Zm-.2-4.5.2-.19h-.39Zm1.17-79.4-.59,1.57H31c-.2,0-.2,0-.2-.2v-.59c.2,0,.2,0,.2-.2s-.2-.19-.2-.39v-.2c.2,0,.59-.2.78-.2Zm-.59,81.16H31a.19.19,0,0,1,.2-.19Zm0-92.89h.2l.2-.2a.19.19,0,0,1-.2-.19.19.19,0,0,0-.2.19Zm.59-2.93c-.2,0-.39,0-.39.19s0,.2.2.2c0,.2.2,0,.2-.2Zm-.2,96,.2-.2H32v.2c-.2.2-.2.59-.59.59A.72.72,0,0,1,31.57,156.72Zm0-130.44h.2v-.39a.19.19,0,0,0-.2-.19ZM32,70.86a.61.61,0,0,1-.2.39v.39H32c.2,0,.2,0,.2-.2s.2-.39.2-.59Zm.2-11H32c0,.2,0,.39.2.39Zm0,16.23-.2-.2.39-.59c0-.2.2-.2.39-.2v.39c0,.39-.2.59-.39.59Zm0,78.62v.39a.19.19,0,0,0-.2-.2Zm.59-132v-.39c-.2,0-.2,0-.2-.2l-.2.2v.39a1.18,1.18,0,0,1-.2.78v.78a.19.19,0,0,0,.2-.2Zm.59,44.59h-.59v.2c0,.39,0,1-.39,1.17-.2.19-.2.19-.2.39v.78c.2,0,.39,0,.59-.39v-.59c0-.39,0-.59.39-.59a.72.72,0,0,0,.2-.59Zm-.59-2.74c-.2,0-.2.2-.2.39s0,.19.2.19Zm.39,9c.2-.2.2-.2.2-.39V73c-.2-.2-.39-.39-.59-.39,0,.19,0,.19-.2.39a.19.19,0,0,0,.2.2c0,.19.2.19.2.39Zm.59,87.61v.2c-.2.39-.39.59-.39,1-.2.39-.39.39-.59.59a.69.69,0,0,1-.2-.39l.59-1.37ZM33.13,63c0-.2,0-.2-.2-.39h-.2v.2c0,.2.2.2.2.39Zm-.39,91.53v-.2a.42.42,0,0,1,.39.39.19.19,0,0,0-.2.2C32.74,155,32.74,154.76,32.74,154.57Zm1.17,2.74v.39a1.94,1.94,0,0,1-1,.78h-.2v-.19c.39-.39.78-.59,1-1Zm-1-138.66v-.39l.2.2ZM33.72,57l-.59-.78h-.2v.19c0,.39.2.59.59.78Zm-.2,2.74a1.18,1.18,0,0,0-.2-.78h-.2a.61.61,0,0,1-.2.39.42.42,0,0,0,.39.39Zm-.2,4.11a.19.19,0,0,1-.2-.2c0,.2-.2.2-.2.39a.19.19,0,0,1,.2.2A.61.61,0,0,0,33.33,63.82Zm0-46.55s.2,0,0,.2h-.2v-.2c0-.2.2-.2.2-.39Zm.2,38.33a.69.69,0,0,1,.39-.2c.2,0,.2-.2.2-.39a1.17,1.17,0,0,0-.2-.78h-.2c-.2.2-.2.2-.2.39V55l-.39.59a.19.19,0,0,1,.2.19A.19.19,0,0,1,33.52,55.61Zm1.17,6.84-.2-.2-.2.2v.78c-.39.59-.39,1.17-1,1.56a.72.72,0,0,0-.2.59c.2,0,.2.2.2.39a.19.19,0,0,0,.2.2v-.2c.39-.19.39-.39.39-.59a2.11,2.11,0,0,1,.59-1.37c.2-.2.2-.59.2-1.18ZM33.52,16.3a.19.19,0,0,1,.2.19c-.2.2-.2.39-.39.39A.72.72,0,0,1,33.52,16.3Zm-.2,41.26v.19c0,.2,0,.2.2.2v-.39Zm.39,17.8h-.39a.19.19,0,0,0,.2-.2Zm1-22.49c-.2-.2-.2-.2-.2-.39h-.2c-.39.19-.39,1-.39,1.17h.2Zm0,107v.2c-.39,0-.59.2-.78.2,0-.2.39-.2.59-.39Zm-.39-93.48V67a.19.19,0,0,0,.2.19.67.67,0,0,0,.2-.39c0-.2-.2-.2-.2-.39Zm.59-15.06a.19.19,0,0,0-.2-.2h-.2a.19.19,0,0,0,.2.2Zm.39,5.08a.42.42,0,0,0-.39-.39l-.2.2a.42.42,0,0,0,.39.39Zm.39-1.76v-.19c0-.2-.2,0-.2,0-.2.19-.2.19-.2.39C35.48,54.83,35.48,54.63,35.67,54.63Zm-.39,1h.39a1,1,0,0,0-.39-.78Zm0,7.82c0,.2,0,.2.2.2,0-.2.2-.39.2-.59a.19.19,0,0,1-.2-.2.19.19,0,0,1-.2.2Zm.78,84.1-.2-.2a.19.19,0,0,0-.2.2c-.2.2-.39.39-.39.59v.59c.2,0,.39,0,.39-.2a1,1,0,0,0,.39-.78ZM35.87,11a.19.19,0,0,1-.2.2V11Zm0,42.83h.2a.61.61,0,0,1,.2-.39h-.2c0-.2-.2,0-.2,0Zm3.32,90.35a.42.42,0,0,0-.39.39c0,.39-.39.59-.78.59-.2-.2-.2-.2-.39-.2a.68.68,0,0,0-.39.2l.2.19c0,.2.2.39,0,.39-.39.19-.39.59-.59.78s-.39.2-.39.39.2.19.2.39v.39a1.17,1.17,0,0,0-.2.78v.59l.2.2.2-.2a1.47,1.47,0,0,1,.39-.78c.2-.2.39-.39.39-.59.2-.2.2-.2.2-.39v-.39c-.2,0-.39,0-.39-.2s.2-.2.39-.2c0-.19.39-.39.78-.59l.2-.19a1.79,1.79,0,0,1,.78-1.17V144a.72.72,0,0,0-.59.2ZM37.43,60.11v.39h-.2a.72.72,0,0,1-.59.2C36.65,60.3,37,60.3,37.43,60.11ZM36.85,155c0-.2,0-.2-.2-.39h.2l.59-1h.2a.19.19,0,0,1,.2.2,1.69,1.69,0,0,1-.59,1.17Zm.39-92.7h.2v-.2A.19.19,0,0,1,37.24,62.26Zm.59-10.17a.19.19,0,0,0-.2-.19v.19c-.2,0,0,.2,0,.2Zm.2-3.32a.19.19,0,0,1-.2.19v.2c.2,0,.39,0,.39-.2Zm-.2,95.44c0-.2.39-.39.78-.59.2,0,.39-.2.78-.39l-.2-.2a.72.72,0,0,0-.59.2,1.49,1.49,0,0,1-.78.39ZM39,151.63c-.2.39-.2,1-.78,1.17v.2c-.2,0-.2.39-.39.2v-.59l.59-1.17H39Zm-.59-2.74c-.2,0-.2,0-.2-.2v-.2h.2c0-.19.2,0,.2.2ZM39,5.74V5.54c0-.2,0-.2-.2-.2s-.2,0-.2.2A.68.68,0,0,0,39,5.74Zm0,41.66v-.2h-.39v.39a.19.19,0,0,0,.2.19A.67.67,0,0,0,39,47.39Zm.39,95.24c0-.2-.2-.2-.2-.39a.19.19,0,0,1-.2.2c0,.2,0,.2.2.2Zm-.2,8.21.59-1.18a2.81,2.81,0,0,0,.39-1.37.19.19,0,0,0,.2-.2h.2v.59a.72.72,0,0,0-.2.59v.59l-.59,1a.72.72,0,0,1-.59.19Zm.39-102.28c0-.2,0-.2-.2-.2v.2c0,.2,0,.2.2.2Zm.59,92.5H40a1,1,0,0,0-.39.78h.2c.2-.2.39-.39.39-.59Zm.2-95.24a.19.19,0,0,0,.2-.19.69.69,0,0,1-.2-.39V45a1.47,1.47,0,0,0-.2.78Zm0,5.67v-.39l.2-.2a.19.19,0,0,0,.2.2l-.2.2v.19ZM41,42.7h.2l-.2-.19h-.2l-.2.19a.61.61,0,0,0,.2.39C40.76,42.9,41,42.9,41,42.7Zm-.39,1.76.2-.2a.19.19,0,0,1-.2-.2Zm.59,95.24v-.19c0-.2,0-.2-.2-.2s-.39.39-.39.39c0,.2.2.2.39.2Zm.2-98a.19.19,0,0,0-.2-.2v.2Zm1.76,102.87c0,.19-.2.39-.39.59a7.67,7.67,0,0,1-.39,1.17c-.2.39-.39.39-.78.59v-.2h-.2v-.2l1.17-1.76c0-.39.2-.59.39-.59a.19.19,0,0,1,.2.2S43.3,144.59,43.11,144.59ZM41.54,43.68c0,.19,0,.39.2.39a.2.2,0,1,0,0-.39Zm.2,91.33v-.2a.19.19,0,0,0-.2.2Zm.78,7.63h-.59a.19.19,0,0,1-.2-.2h.78Zm.39-4.5c-.2.2-.39.39-.39.59v.39c.2.2.2,0,.2,0a.42.42,0,0,1,.39-.39.19.19,0,0,0,.2-.2C43.3,138.34,42.91,138.14,42.91,138.14Zm-.2-2.74.59-1a.2.2,0,1,1,.39,0v.19a.84.84,0,0,1-.78.78Zm2.15,6.06c0,.39,0,.59-.39.78a4.13,4.13,0,0,0-.78,1.17v.39H43.3v-.59l1-1.37c.2,0,.2-.2.39-.39Zm.78-.78a.42.42,0,0,0-.39.39l-.2-.2v-.19c.2-.2.2-.39.59-.39Zm0-8.8a8.4,8.4,0,0,1,1-.2v-.2c0-.19,0-.59-.2-.59a.69.69,0,0,0-.39.2c-.2.2-.2.59-.59.59v.2Zm1.56-2.15H47a.19.19,0,0,0,.2.2Zm.59-.78a2.7,2.7,0,0,0,1-1.57v-.2c0-.19-.2-.19-.39-.19-.39,0-.2.19-.78,1.76,0,.2,0,.39.2.39Zm.2,7.62v-.19c0-.2-.2-.39-.2-.59s.2-.39.59-.59a.69.69,0,0,0,.2-.39l.2-.2c.2,0,.2,0,.39.2,0,.39-.39.78-.59,1.17,0,.2-.2.39-.39.59Zm1-4.89h.2v.2H49Zm.78,2-.2.2v-.2a.42.42,0,0,1,.39-.39C50,133.44,50,133.64,49.76,133.64Zm.39-.78a.71.71,0,0,0,.2-.59.68.68,0,0,0,.39-.19c0-.59.59-.78.78-1.37v-.2c.59-.39.78-1.17,1.37-1.76,0-.2,0-.39.2-.39.2-.19.2-.39.2-.78a.19.19,0,0,0,.2-.2l.2.2V128a1.18,1.18,0,0,1-.2.78,4.1,4.1,0,0,0-.78,1.17.68.68,0,0,1-.2.39c-.2,0-.2,0-.2.2-.39.2-.39.78-.78,1-.39.39-.39.78-.59,1.18,0,.19-.2.19-.39.19s-.39.2-.59.39C50,133.05,50,132.86,50.15,132.86Zm.78-9.19a.71.71,0,0,0-.59.2v.19a.69.69,0,0,0,.2.39.19.19,0,0,1-.2.19v.2a1.75,1.75,0,0,0,1-.2l.39-.59c0-.19-.2-.19-.2-.39Zm.39,2.74a1,1,0,0,1,.39-.78l1.17-1.57v-.39h-.2a4.7,4.7,0,0,1-1.17,1.56h-.2c0,.2-.2.39-.39.59a.19.19,0,0,0-.2.19v.2c0,.2.2.2.2.39A.61.61,0,0,1,51.32,126.41Zm.78,1.17h.2c0,.19,0,.19-.2.19Zm2.74-8.21c-.2,0-.39,0-.39.2-.2.19-.2.19-.2.39a.52.52,0,0,1-.59.59c-.39,0-.78.2-.78.39a.42.42,0,0,0-.39.39,3.32,3.32,0,0,1-.2,1.37c.39-.2.59-.59,1-1a.61.61,0,0,1,.39-.2c.2,0,.2,0,.2.39v.19h.2a.2.2,0,1,0,.39,0l.78-1.17v-.39c0-.59,0-.59.2-.78s.39-.19.39-.39Zm-1.37,3.72a.19.19,0,0,0-.2-.2v.2Zm.59-.39-.2-.2v.2ZM56,119c.2-.39.2-.78.39-1,.2,0,0-.2,0-.2h-.2a1.49,1.49,0,0,0-.78.39v.19c0,.39.39.59.39,1C55.82,119.17,56,119.17,56,119Zm3.91.78v.39h.2v.19l-.59.59c-.2,0-.2.2-.39.2,0,.2,0,.39-.2.39-.2.2-.59.39-.78.78,0,.39-.2.39-.2.59a5.31,5.31,0,0,1-1.37,1.57c-.2,0-.39,0-.39-.2s-.2-.2-.2-.39,0-.39.2-.39c.39,0,.39-.19.39-.39l.78-1a.52.52,0,0,0,.59-.59v-.39c.39,0,.59-.2.78-.59l.59-.78Zm-2.74-2.93v.2l.78.39c0-.39-.2-.59-.2-.78A.72.72,0,0,1,57.19,116.82Zm.59-.2.2-.19a.19.19,0,0,0-.2-.2Zm1.56,2.74.2-.2c.2.2.39.2.2.2s-.2,0-.2.2l-.2.19h-.2A.68.68,0,0,0,59.34,119.36Zm.2-2v-.2a.19.19,0,0,0-.2.2Zm2.54,8.41a.69.69,0,0,1-.2-.39v.39Zm.2,37.74v-.19h-.2v.19Zm10.36-14.28c0,1,.2,1,.59,1a2.8,2.8,0,0,0-.39-1.17h-.2Zm.39-1c0-.2,0-.2.2-.39H73a.19.19,0,0,1-.2.2Zm0-16.62c.2.2.2.2.2.39v.19c.2-.19.2-.19.2-.39a.19.19,0,0,0-.2-.2Zm0,1.17a.19.19,0,0,0,.2.2v-.2Zm.39-7.82a.19.19,0,0,0,.2.19l.2-.19a.19.19,0,0,0-.2-.2h-.2c-.2,0-.2,0-.2.2Zm0,11.73h-.2a.19.19,0,0,1,.2-.2Zm.2-2.74c-.2-.19-.2-.19-.2-.39a.19.19,0,0,0,.2.2Zm0,12.52v-.19h.2v.19Zm.2-8.41H74v.2h-.2ZM74,157.7l.2.19a.19.19,0,0,1,.2-.19Zm18.58-.39c0-.19.2-.19.39-.39h.2a.19.19,0,0,0,.2-.2.69.69,0,0,1-.2-.39v-.39l-.2-.19-.2.19a.69.69,0,0,0-.39.2l-1.17,1a.19.19,0,0,0-.2.19c0,.2,0,.2.2.39,0,0,.2.19.2,0,.2-.2.78,0,.78-.39Zm-.78,1.57a.19.19,0,0,1-.2-.2l-.2.2Zm.78-1.57v.78c-.2.2-.2.2-.2.39s0,.39.2.39v.19h.2v-.19c0-.2.2-.39.39-.78v-.59c0-.2-.2-.2-.39-.2Zm.59-2.15a.69.69,0,0,0,.2-.39v-.39a.19.19,0,0,0-.2.2Zm.78.78v-.19c0-.2,0-.2-.2-.2C93.76,155.74,93.76,155.93,94,155.93Z"/></clipPath><clipPath id="clip-path-4" transform="translate(1.67 2.9)"><path class="cls-1" d="M238.65,140.68a4,4,0,0,0-1.37,1.17,2.76,2.76,0,0,1-1.17.39,9.83,9.83,0,0,0-2.93,1,.87.87,0,0,0-.78.59v.59c0,.2,0,.2-.2.2a1.33,1.33,0,0,1-1.17.59,8.54,8.54,0,0,1-1,.19c0,.2-.78.39-1,.39a2.94,2.94,0,0,0-1.17.19h-1.17a1.47,1.47,0,0,1-.78.2h-.39c-.2,0-.2,0-.78.2h-.2c-.2,0-.59-.2-.78-.2-.39,0-.59.2-1,.2v.19c-.2,0-.39-.39-.39-.19a.2.2,0,0,1-.39,0,1.51,1.51,0,0,0-.59-.2h-2.74a.72.72,0,0,0-.59-.2h-1.56a6.91,6.91,0,0,1-2-.39c-.39,0-.39-.2-1-.2H213a4.9,4.9,0,0,1-1.56-.19,1,1,0,0,0-.78-.39h-.2c-1-.59-2.54-.59-3.52-1.37a1.5,1.5,0,0,0-1-.39,2.08,2.08,0,0,0-1-.59c0-.2-.39-.39-.78-.59-.39-.39-.59-.59-.78-.59s-.2,0-.2.2v.59a2,2,0,0,1-.2.59c-.78.19-1,.59-1,.78v.39a6.93,6.93,0,0,1-.59,2.15l-.39,2.15a4.61,4.61,0,0,1-1.17,1.76l-.39,1.57v.19c0,1-1,1.57-1.37,2.54a2.12,2.12,0,0,1-.78,1.76,1,1,0,0,1-.2.59c0,1,0,1.37-.59,1.76v.59c0,.59-.2,1-1,1.17-.39.39-.39.78-1,1.37-.2.39,0,1.17-.59,1.56-.39.59-1,1.17-1,1.76v.2c0,.2-.2.2-.39.2-.39.19-.59.39-.59.59h1.17v.19a.69.69,0,0,1,.2.39c0,.2-.2.39-.39.59,0,.39-1,1.17-1,1.76,0,.2-.2.2-.2.39a11,11,0,0,0-2,2.94,7.1,7.1,0,0,0-1.76,1.56c-.2.59-1.17,1-1.37,1.57-.2.19-.59.19-.59.78,0,.39-1,.19-1,.59a1.47,1.47,0,0,0-.39.78v.2a2,2,0,0,1-.2.59c-.2,0-.2-.2-.39-.2-.39,0-.59.59-1,1l-.59,1c0,.2-.39.39-.39.39-1,.19-1.37,1-2,1l-.59.39a2.79,2.79,0,0,1-2.15.59,1.43,1.43,0,0,0-1.17-.39c-1,0-1.37,0-1.76-.39h-.2c-.59.19-.59.78-1,.78a3.62,3.62,0,0,0-1.37-.39H170a1.46,1.46,0,0,0-1,.2.6.6,0,0,1-.39.2c-.2,0-.2,0-.39-.2-.39-.2-.59-.59-1-1v-.59a2.48,2.48,0,0,1-.2-1.17.68.68,0,0,0,.2-.39c0-.2-.2-.39-.2-.59-.39,0-.59,0-.59-.2a.86.86,0,0,0,.2-.59c0-.2.2-.59.2-.78,0-.39-.2-.59-.59-1a1,1,0,0,1-.39-.78v-1.37a4.84,4.84,0,0,1,.2-1.56,1.46,1.46,0,0,0-.2-1v-.59c0-.19.2-.39.2-.78,0-.2-.2-.2-.39-.39,0-.39-.2-.78-.2-1.17a17,17,0,0,1,.39-2c-.2,0-.2,0-.2-.2a.61.61,0,0,1,.2-.39,1.17,1.17,0,0,0,.2-.78c0-.39-.2-.59-.2-1v-.39c0-.2.2-.59.2-.78s-.2-.39-.2-.78.2-1,.2-1.37v-1.37a1.17,1.17,0,0,1-.2-.78,1.47,1.47,0,0,1,.2-.78c0-.2-.2-.2-.2-1h.2a.19.19,0,0,0,.2-.19.69.69,0,0,1-.2-.39v-.19a.42.42,0,0,0,.39-.39c0-.19-.2-.19-.39-.39a1.17,1.17,0,0,1-.2-.78.78.78,0,0,0,.39-.78.72.72,0,0,0-.2-.59c.39-.59.2-1.17.78-1.76a5.39,5.39,0,0,1,.2-1.76,3.34,3.34,0,0,1,.2-1.37v-.19c0-.2,0-.2-.2-.39a4.62,4.62,0,0,1,.39-2.54c0-.39-.2-.78-.2-1.17V143a11.48,11.48,0,0,1,.39-2.54,8.54,8.54,0,0,1-.2-1c0-.2,0-.2.2-.39,0-.59.2-1.17.2-1.76h-.39c-.2,0-.2-.2-.2-.39s0-.2.2-.39c0-.59.2-.78.2-1.17a.19.19,0,0,0,.2-.19c0-.2,0-.2-.2-.39s-.2-.2-.2-.39v-.2c.39-.2.59-.39.59-.59a1.08,1.08,0,0,0,.39-1,1,1,0,0,1,0-1.18,2.12,2.12,0,0,1,.2-1s0-.2-.39-.39a2.14,2.14,0,0,1-.2-1,.72.72,0,0,1,.2-.59c.39-.2.59-.39.59-.59v-.39a.68.68,0,0,1-.39.19c-.2,0-.2-.19-.2-.39.2-.2.2-.2.2-.78a1.93,1.93,0,0,1,.39-1.17v-2.15a.42.42,0,0,1,.39-.39l.39-.19c-.39-.39-.2-1.18-.39-1.76l.2-.39a.72.72,0,0,0,.2-.59.78.78,0,0,1,.39-.78c0-.39,0-.59.2-.78-.2-.19-.39-.19-.39-.39s.2-.39.2-.59c.2-1,.78-1.57.78-2.54a1.18,1.18,0,0,1-.2-.78v-.59c-.2-.19-.2-.19-.2-.39s.2-.39.2-.59c.2,0,.39-.39.39-.59a1.48,1.48,0,0,0,.39-.78v-1a4.58,4.58,0,0,1,.39-1.57.6.6,0,0,0-.2-.39,11.3,11.3,0,0,1,.39-2,.19.19,0,0,0,.2-.2c0-.2-.2-.2-.2-.39a1,1,0,0,1,.78-1,.72.72,0,0,0-.2-.59v-.39c.2-.39.39-.59.39-1v-.19c.2-.2.2-.59.39-.59a7.07,7.07,0,0,0,.59-1.37,3.09,3.09,0,0,1,1-1.57s-.2-.19,0-.19a6.75,6.75,0,0,1,1.76-1.17,3.92,3.92,0,0,1,.78-1.57,4.68,4.68,0,0,0,1.37-.59,4,4,0,0,1,1-.2h1.56c.59,0,.78,0,1.17.39a4.5,4.5,0,0,0,.78.19c.78,0,1,.59,1.56.78l.2.39a1,1,0,0,0,.39.78c.2.2.39.2.39.39l-.2.19c.2.59.2,1,.59,1.17.39.78.2,1.37.39,2v.59a.71.71,0,0,0,.2.59.69.69,0,0,1-.2.39v.19c0,1-1,2-1,2.94l.2.19a.69.69,0,0,1-.39.2c-.39.59-.39,1.17-.78,1.57,0,.19.2.59.2.78s-.2.39-.39.59v.2c0,.2,0,.2.2.39a3.86,3.86,0,0,1-1.17,2.35v.59c0,.2.2.39.2.78,0,.19,0,.19-.2.39,0,.39-.2.59-.2,1,0,.59,0,.78-.39,1.18a1.78,1.78,0,0,0-.59,1c0,.2.2.2.2.39a2.91,2.91,0,0,1-.59,1.37v2.74c-.59.39-.2,1-.78,1.37V126c0,.39-.2.59-.2,1.17a2.49,2.49,0,0,0-.2,1.17c0,.39-.2.59-.2,1.18a1.75,1.75,0,0,1-.2,1c0,.2.2.39.2.78l-.59,1.17c.2.2.2.39.2.78a1.07,1.07,0,0,1-.78,1.17c-.39.19-.39.39-.39.59v.78l-.2.19a.71.71,0,0,0,.2.59c0,.39.2.59.2,1a8.42,8.42,0,0,1-.2,1v.2c-.39.2-.59.39-.59.59a1.49,1.49,0,0,0,.39.78v.39a1.18,1.18,0,0,1-.2.78,3.34,3.34,0,0,1,.2,1.37c-.39.39-.2.78-.39,1.37v1.18c0,.39-.2.59-.2,1-.2.2-.2,1-.39,1.37,0,.2.39.39.39.59v.2a.19.19,0,0,0-.2.19c0,.2.39.39.39.39a3.23,3.23,0,0,1-.39,2V151c0,.2.2.2.2.39v.19a2.6,2.6,0,0,1-.59,1c0,.39.2.59.2,1s-.2.59-.2,1v.59c-.2,0-.2.19-.2.39,0,0,0,.39.2.39a.72.72,0,0,1-.2.59c-.2.78-.39,1-.39,1.18v.39a1.49,1.49,0,0,1,.39.78c0,.39-.2.59-.2,1v.59c0,.2.2.39.2.59a3.82,3.82,0,0,0,.2,1.37c-.2.2-.2.59-.39,1v1.17c0,.39-.2.78-.2,1.17v.19l.39,1.37a2.89,2.89,0,0,1-.2,1.37c-.2.2-.2.2-.2.39s0,.39.2.39a.19.19,0,0,0,.2.2,2.11,2.11,0,0,0,1.17-.2,6.77,6.77,0,0,1,1.76-1.17c.39-.2.59-.59,1-1.17.59-1,1.37-1.57,2-2.54,0-.2.2-.2.2-.39a1.06,1.06,0,0,0,.59-1c.59-.39,1-.59,1-1.37a6.93,6.93,0,0,1,1.56-2.54,6.82,6.82,0,0,0,.59-2.35c.59-.78.59-1.37,1.17-2l-.2-.2a5.29,5.29,0,0,1,1-2.15c.59-1,.59-1.57,1-2.15v-.39c.2-.2.2-.78.39-1a1.46,1.46,0,0,0,.2-1,1.77,1.77,0,0,0,.2-1c.59-1.17.78-2.15,1.17-2.93.2-.39,0-1,.59-1.37.39-.19.39-.78.59-1.17a5,5,0,0,0,.39-1.37c0-.39.2-.78.2-1.17a4.8,4.8,0,0,0,.78-2.15c0-1,.59-1.57.78-2.35a35.37,35.37,0,0,0,2.15-5.87,9.22,9.22,0,0,0,.78-3.33,1.46,1.46,0,0,1-.2-1v-.78a1.14,1.14,0,0,1,.78-.2,16.42,16.42,0,0,1,2.35-3.72c.2,0,.2,0,.2-.19v-.2c1.17-.39,1.76-1,1.76-2,.2,0,.39-.39.39-.39,1,0,1.37-.78,2.35-1.18h.78c.39.2.39.39.78.39.59.2,1.17.39,1.37.78l1,.59c.39.19.59.39.59.78.39.2.39.59.39,1a2.48,2.48,0,0,1,.2,1.17v.39c0,.39.2.39.2.78v.39c0,.2,0,.2.2.2a7.36,7.36,0,0,1,.2,2.15,3,3,0,0,0,.78,1.56v2.15c0,.39.39.78.59,1.37a2.8,2.8,0,0,0,.78,2,1.68,1.68,0,0,0,1.56,1.37.19.19,0,0,0,.2.2c.59.59.78,1.17,1.76,1.17.59.2.78,1,1.56,1.17.2.2.39.2.78.2a2.9,2.9,0,0,1,1.17.2c0,.19.2.19.39.19h1.56a4.35,4.35,0,0,0,1.56-.19h.39c.39,0,.78-.2,1.37-.2a3.43,3.43,0,0,1,1.17-.2,3.66,3.66,0,0,1,1.37-.39,1.65,1.65,0,0,1,1.37-.39,3,3,0,0,1,1.56-.39,7,7,0,0,1,1.76-.78l1.76-1a4.49,4.49,0,0,0,1.37-1h.39c.2,0,.2,0,.2-.19.59-.59,1.17-.39,1.37-1a.19.19,0,0,1,.2-.19H239c.59,0,1-.39,1.56-.59l1.76-1.18a1,1,0,0,1,.78-.39v-.2c1.17-1,2.15-1.56,2.93-2.35a1.22,1.22,0,0,1,1-.59,1.18,1.18,0,0,0,.78-.2,1.12,1.12,0,0,1,1.17-.78,4.48,4.48,0,0,1,1.76-1.17,3.34,3.34,0,0,0,1.17-1.18c0-.39.39-.59.59-.78.2-.39,1-.39,1.17-.59s.39-.59.78-.59c0-.2.2-.39.2-.59a8.91,8.91,0,0,0,1.37-1.37,1.93,1.93,0,0,0,1-1.37c.2-.2.39-.2.39-.39l1.37-1c.39-.2.59-.78,1.17-1v-.2a2,2,0,0,1,.59.2c-.39.39-.39,1-.78,1.37-.39.2-.39.78-.78,1.18h.2a1.93,1.93,0,0,1,1.17-.39v.78c0,.39-.2.59-.2,1v.39c-.2.39-.59.59-.59,1,0,.2.2.39,0,.39-.2.39-.39.39-.59.59l-.39.59.2.19h-.2a2.9,2.9,0,0,1,.2,1.17c.2.2.2.2.2.39s-.2.39-.39.59c-.39.2-.59.59-1.17.78-.2.19-.2.78-.59.78v.2a.72.72,0,0,1-.78.78.68.68,0,0,1-.39.2,2.12,2.12,0,0,1-.2,1l-.2.2c-.59.19-1.17,1-1.56,1.37h-.39l-.39-.19v1a.19.19,0,0,1-.2.2h-.59a.72.72,0,0,0-.59.2c-.39.39-.78.59-1,1,.2.2-.2.2-.2.2-.59,0-.59.19-.59.39,0,.39,0,.39-.39.39s-.78.39-1.17.78v.39c0,.19,0,.19-.2.39a.68.68,0,0,1-.2.39c-.2,0-.2-.19-.39-.39a.6.6,0,0,0-.2-.39h-.2c-.39.39-.39.78-.78,1a3,3,0,0,1-1.76.59s-.2.39-.39.39V135c-.2,0-.2.2-.59.39l-.78.59c-.2.2-.2.2-.2.39v1a.61.61,0,0,1,.2.39c0,.2,0,.39-.2.39-.59,0-.78.39-1,.78a1.67,1.67,0,0,1-1.17.39c-.2,0-.39.2-.78.39a.69.69,0,0,0-.2.39c0,.19-.59.39-.78.39Zm-46.74,26.6c-.2,0-.39,0-1,.39-.2,0-.2.19-.39.39-.39.2-.39.78-.39,1.17v.2a1.47,1.47,0,0,1,.78-.2c.39-.2.39-.39.39-.59a1,1,0,0,1,.39-.78v-.19ZM241.59,137c-.2,0-.39,0-1,.39,0,.2-.2.39-.39.59-.2.39-.59.2-.78.39a1.34,1.34,0,0,0-1,.59l.2.19c.59,0,1,0,1.17-.39.2,0,.59-.39.59-.39l.78-.59h.59v-.19C241.78,137.36,241.78,137,241.59,137Zm-2.93,3.13h-.2v.19a.19.19,0,0,0,.2.2Zm17.41-14.87c.2,0,.2,0,.2-.19-.2-.2,0-.2-.2-.2l-.2-.2-.2.2C255.47,124.84,256.06,125,256.06,125.23Z"/></clipPath></defs><title>line 4 block</title><g class="cls-2"><path class="cls-3" d="M136.73,94.76a34,34,0,0,0-15.5,4.36,14.88,14.88,0,0,0-3.17,2.38,28.12,28.12,0,0,0-4.76,6.28,75.85,75.85,0,0,0-3.83,7.86c-.88,2-1.64,3.86-2.38,5.21a51.71,51.71,0,0,0-4.76,19.21,27.45,27.45,0,0,0,.36,4.76,10.33,10.33,0,0,0,2.83,6.09,8.09,8.09,0,0,0,6.07,1.5,10.12,10.12,0,0,0,5.26-1.55,21.78,21.78,0,0,0,4.26-4.21l2.88-3.88q3.36-4.76,6.45-9.52,2.26-3.52,4.38-7.14c.79-1.38,1.64-3,2.55-4.76,1.86-3.55,3.9-7.59,5.69-11.21,2-4.12,3.74-7.64,4.4-9.12.26-.57.83-1.74,1.57-3.21,1.07-2.17,2.52-5,4-8s3-5.76,4.17-8c1.71-3.19,2.83-5.09,2.38-3.86-.88,3-2.09,6.93-3.45,11.36-1.17,3.74-2.38,7.83-3.71,11.9l-2.62,8.33-2.4,8.62c-1.07,3.48-2,6.62-2.83,9.21s-1.24,4.14-1.6,5.38a55.25,55.25,0,0,0-1.67,13.33q0,2.74.26,5.48a43.54,43.54,0,0,0,.64,4.55,11.38,11.38,0,0,0,3.86,6.5,6,6,0,0,0,7.14.4,21.28,21.28,0,0,0,6.38-6c1.14-1.5,2.09-3,2.79-4,1.5-2.38,2.93-4.48,4.19-6.52s2.83-4.76,3.86-6.38c1.5-2.57,2.38-4.17,2.38-4.17l3.48-6.57,5.19-9.83L186,111l2.19-4.14" transform="translate(1.67 2.9)"/></g><g class="cls-4"><path class="cls-5" d="M251.34,128.61q2.3-.72,4.59-1.55,3.47-1.25,6.83-2.67L266,123l3.44-1.68a20.55,20.55,0,0,0,3.6-3.18,40.51,40.51,0,0,0,4.48-6,50.71,50.71,0,0,0,3.2-5.92,30.61,30.61,0,0,0,1.79-4.86,7.07,7.07,0,0,0,.29-3,7.5,7.5,0,0,0-11.16-4.56,30.66,30.66,0,0,0-5.76,4.59c-2.27,2.19-4.48,4.67-6.19,6.59a14.09,14.09,0,0,0-1.52,2.22,55.26,55.26,0,0,0-3,6.25c-.8,1.92-1.57,4-2.32,6.14-.56,1.57-1.07,3.18-1.57,4.75-1,3.23-1.84,6.35-2.38,8.86-.24,1.2-.43,2.3-.53,3.2a37.36,37.36,0,0,0,0,4.88,57.51,57.51,0,0,0,.69,8q.4,2.46,1,4.86t1.23,4.27q.69,2.11,1.57,4.16a23.54,23.54,0,0,0,10.68,11.16,8.62,8.62,0,0,0,6.3-.77c1.55-.61,3.31-1.44,5.34-2.46l2.05-1a16,16,0,0,0,3.12-2.05,60.66,60.66,0,0,0,7.07-7.13c1.52-1.73,3-3.52,4.24-5.18,1-1.23,1.84-2.38,2.67-3.36,1.63-2.16,2.67-3.63,2.67-3.63l2.19-3.52,3.58-5.79,2.67-4.51,3.34-5.34,3.2-5.15,1.95-3.15,2.67-4.19,3-5,3.36-5.34,2-3.18" transform="translate(1.67 2.9)"/></g><g class="cls-6"><path class="cls-7" d="M45.18-.92,43,7.37,40.88,15.2l-2,7.59L37.74,27,37,29.88l-1.35,5.05L33.9,41.31l-2.53,9.44-1.58,5.9-2.41,9-.29,1.09-1.63,6.1-1.68,6.28-.39,1.45-1.82,6.8L20,93.85l-.36,1.46-1.46,5.95-.4,1.63-1.54,6.29-.74,3L14.05,118,12,126.56l-1.52,6.2-1.16,4.72-1.06,4.32s-.35,2.36-.78,5.9c-.19,1.6-.4,3.44-.59,5.41-.29,2.93-.55,6.16-.7,9.31-.13,2.81-.17,5.55-.06,8,.16,3.51.64,6.37,1.61,7.83,1.28,1.92,2.35,2.64,4.09,2.91a28.84,28.84,0,0,0,4.12.17c1.9,0,3.67-1.84,5.13-4.14.27-.42.52-.85.76-1.29A47.66,47.66,0,0,0,25.16,168s2.57-5.13,6.06-12c1.12-2.19,2.33-4.56,3.58-7,1.16-2.25,2.35-4.56,3.53-6.83l.6-1.16,1.19-2.28c1.1-2.09,2.17-4.12,3.19-6,.78-1.46,1.53-2.83,2.22-4.08,1.6-2.89,2.92-5.15,3.75-6.36,1.45-2.1,3-4.17,4.53-6.1,1.67-2.11,3.33-4,4.85-5.64a30,30,0,0,1,4-3.65,20.22,20.22,0,0,1,3.89-2.53c1-.33,1.72-.07,2.78,1a8.23,8.23,0,0,1,1.11,3,31.3,31.3,0,0,1,.56,3.26,30.58,30.58,0,0,1,.16,5.92,17.87,17.87,0,0,1-.8,4.22c-.4,1.19-.87,2.82-1.36,4.7-.43,1.65-.87,3.49-1.29,5.4-.35,1.63-.69,3.31-1,5-.37,2.11-.67,4.19-.85,6.09a30.51,30.51,0,0,0-.13,5c.12,1.54.32,3.27.59,5.05s.57,3.39.93,5a49.42,49.42,0,0,0,1.31,4.85,12.51,12.51,0,0,0,2.31,4.57,13.66,13.66,0,0,0,3.21,2.7,6.39,6.39,0,0,0,4,.39,7.25,7.25,0,0,0,2.76-1.83c.92-.82,2-1.87,3.12-3.06s2.48-2.67,3.77-4.14c1.63-1.86,3.28-3.8,4.8-5.63.95-1.14,1.84-2.23,2.65-3.23s1.75-2.16,2.41-3c1.05-1.32,1.69-2.13,1.69-2.13" transform="translate(1.67 2.9)"/></g><g class="cls-8"><path class="cls-9" d="M182.25,92l-6.16,23.61L172,144.36s-2.05,21.56,0,26.69,2.05,5.13,5.13,5.13,11.29-10.27,9.24-7.19,12.32-27.72,12.32-27.72,4.11-16.43,8.21-17.45-2.05,12.32,2.05,15.4,12.32,2.05,15.4,2.05,16.43-7.19,16.43-7.19l16.43-9.24" transform="translate(1.67 2.9)"/></g></svg>