<?xml version="1.0" encoding="utf-8"?>
<!-- Generator: Adobe Illustrator 22.1.0, SVG Export Plug-In . SVG Version: 6.00 Build 0)  -->
<svg version="1.1" id="Layer_1" xmlns="http://www.w3.org/2000/svg" xmlns:xlink="http://www.w3.org/1999/xlink" x="0px" y="0px"
	 viewBox="0 0 511 512" style="enable-background:new 0 0 511 512;" xml:space="preserve">
<style type="text/css">
	.st0{fill:none;stroke:#FFFFFF;stroke-width:28;stroke-miterlimit:10;}
	.st1{fill:none;stroke:#FFFFFF;stroke-width:28;stroke-linecap:round;stroke-linejoin:round;stroke-miterlimit:10;}
</style>
<g>
	<path class="st0" d="M260,286.4L260,286.4c-63.7,0-115.3-55.1-115.3-123.1V156v-9.4c0-68,51.6-123.1,115.3-123.1h0
		c63.7,0,115.3,55.1,115.3,123.1v16.7C375.3,231.3,323.7,286.4,260,286.4z"/>
	<path class="st0" d="M220,116"/>
	<path class="st1" d="M160.5,313c-17,0-33.9,1-52,1c-34.5,0-65,40-69,70c1,46,2,59,4,105c147,0,286-1,433-1c0-49,4-62,4-111
		c-6-26-24-49-49-59c-7-3-15-4-23-5c-16-2-31,0-46-0.4"/>
	<g>
		<polygon class="st1" points="204,272 257,359 200,392 160,310 		"/>
		<polygon class="st1" points="316,272 263,359 320,392 360,310 		"/>
	</g>
	<polygon class="st1" points="215,385 232,425 286,425 305,385 257,359 	"/>
	<path class="st1" d="M225,489c1-3.2,6-64,6-64h54l10,64H225z"/>
	<path class="st1" d="M145.8,157.1c34.4,0,43.3-42.8,43.3-42.8s22.4,31.3,76.6,31.3c46.4,0,62.6-31.3,62.6-31.3s8.3,50.1,45.9,42.8"
		/>
</g>
</svg>
