<svg width="115" height="115" viewBox="0 0 115 115" fill="none" xmlns="http://www.w3.org/2000/svg">
<path d="M65 90L67.5 96L63 102.5L67.5 107.5L74 103L79.5 105L82 113H88.5L90.5 105L94.5 103L102.5 107.5L107.5 102.5L102.5 96L105 90H112.5V82.5L105 80.5L102.5 75.5L107.5 68.5L102.5 64L93.5 67.5L90.5 65.5L88.5 58H82L79.5 65.5L74 67.5L67.5 64L63 67.5L67.5 75.5V78.5L57.5 82.5V90H65Z" fill="#3E78FE"/>
<circle cx="86" cy="85" r="11.5" fill="white" stroke="black" stroke-width="3"/>
<path d="M59.024 71.2477C58.5943 70.342 57.511 69.9557 56.6052 70.3858C55.1313 71.0853 53.586 71.6634 52.0123 72.1037C51.354 72.2878 50.8552 72.8258 50.7213 73.4962L48.8004 83.1001C48.6109 84.0484 47.7713 84.7368 46.8041 84.7368H41.5642C40.597 84.7368 39.7577 84.0486 39.5679 83.1001L37.647 73.4962C37.5129 72.8258 37.0138 72.2878 36.3559 72.1037C34.1328 71.4815 31.9873 70.5925 29.9791 69.4613C29.3832 69.1258 28.6494 69.1534 28.0807 69.5326L19.9305 74.9658C19.1259 75.5022 18.0456 75.3951 17.3614 74.7114L13.6562 71.006C12.9723 70.3221 12.8656 69.2417 13.4018 68.4369L18.8351 60.2867C19.2144 59.7178 19.2421 58.9842 18.9063 58.3883C17.7749 56.3799 16.8859 54.2342 16.264 52.0114C16.0798 51.3531 15.5418 50.8543 14.8714 50.7204L5.26754 48.7995C4.31924 48.61 3.63081 47.7704 3.63081 46.8032V41.5633C3.63081 40.5961 4.31901 39.7568 5.26754 39.567L14.8714 37.6461C15.5418 37.512 16.0798 37.0129 16.264 36.355C16.8861 34.1319 17.7751 31.9864 18.9063 29.9782C19.2418 29.3825 19.2142 28.6487 18.8351 28.0798L13.4022 19.9305C12.8658 19.1257 12.9728 18.0456 13.6567 17.3614L17.3619 13.6562C18.0458 12.9723 19.1264 12.8656 19.9309 13.4018L28.0811 18.8351C28.6498 19.2144 29.3838 19.2418 29.9795 18.9063C31.9877 17.7751 34.1332 16.8861 36.3564 16.264C37.0147 16.0798 37.5136 15.5418 37.6475 14.8714L39.5683 5.26754C39.7579 4.31924 40.5975 3.63081 41.5646 3.63081H46.8046C47.7717 3.63081 48.6111 4.31901 48.8009 5.26754L50.7217 14.8714C50.8558 15.5418 51.3549 16.0798 52.0128 16.264C54.236 16.8861 56.3814 17.7751 58.3897 18.9063C58.9856 19.2418 59.7194 19.2142 60.2881 18.8351L68.4383 13.4018C69.2428 12.8654 70.3229 12.9725 71.0073 13.6562L74.7125 17.3614C75.3964 18.0453 75.5031 19.1257 74.967 19.9305L69.5337 28.0807C69.1543 28.6496 69.1267 29.3832 69.4625 29.9791C70.5936 31.9873 71.4826 34.1328 72.1048 36.3559C72.289 37.0143 72.8269 37.5131 73.4974 37.647L83.1012 39.5679C84.0495 39.7574 84.7379 40.597 84.7379 41.5642V46.8041C84.7379 47.7713 84.0497 48.6106 83.1012 48.8004L73.4974 50.7213C72.8269 50.8554 72.289 51.3545 72.1048 52.0128C71.6535 53.6255 71.0581 55.2074 70.3349 56.7148C69.9009 57.6188 70.2823 58.7035 71.1863 59.1372C72.0904 59.5713 73.1753 59.1897 73.6088 58.2857C74.2615 56.9252 74.8219 55.5109 75.2803 54.0682L83.8134 52.3616C86.4524 51.8333 88.3683 49.496 88.3683 46.8039V41.564C88.3683 38.8718 86.4524 36.5347 83.8123 36.0065L75.2794 34.2999C74.7197 32.538 74.0104 30.8252 73.1604 29.1857L77.9877 21.9446C79.4809 19.7045 79.1833 16.697 77.2796 14.7932L73.5744 11.0881C71.6704 9.18428 68.6629 8.8869 66.4231 10.3799L59.1819 15.2072C57.5425 14.3575 55.8296 13.6479 54.0677 13.0882L52.3612 4.5553C51.8336 1.91592 49.4963 0 46.8041 0H41.5642C38.872 0 36.535 1.91592 36.0067 4.55598L34.3001 13.0889C32.5383 13.6486 30.8254 14.3579 29.186 15.2079L21.9452 10.3805C19.7054 8.88734 16.6977 9.18473 14.7939 11.0887L11.0887 14.7939C9.18518 16.6977 8.88734 19.705 10.3805 21.9452L15.2079 29.1864C14.3582 30.8258 13.6486 32.5385 13.0889 34.3005L4.55575 36.0071C1.91592 36.535 0 38.8722 0 41.5644V46.8043C0 49.4965 1.91592 51.8336 4.55598 52.3618L13.0889 54.0684C13.6484 55.83 14.3579 57.5429 15.2079 59.1825L10.3805 66.4237C8.88734 68.6638 9.18495 71.6713 11.0887 73.5751L14.7939 77.2802C16.6977 79.184 19.7052 79.4814 21.9452 77.9884L29.1864 73.1611C30.8258 74.0108 32.5385 74.7204 34.3005 75.2801L36.0071 83.8134C36.535 86.4526 38.8722 88.3687 41.5644 88.3687H46.8043C49.4965 88.3687 51.8336 86.4528 52.3618 83.8128L54.0684 75.2799C55.4675 74.8354 56.8408 74.2947 58.1626 73.6672C59.0685 73.2368 59.4543 72.1537 59.024 71.2477Z" fill="black"/>
<path d="M111.505 79.3582L106.254 78.3081C105.935 77.3565 105.549 76.4272 105.103 75.529L108.074 71.0732C109.219 69.355 108.991 67.0482 107.53 65.5883L105.096 63.1535C103.635 61.6935 101.329 61.4651 99.6107 62.6104L95.1549 65.5811C94.2567 65.1346 93.3275 64.7494 92.3758 64.4297L91.3257 59.179C90.9208 57.1542 89.1282 55.6846 87.0633 55.6846H83.6198C81.5552 55.6846 79.7624 57.1542 79.3574 59.179L78.3074 64.4297C77.3557 64.7496 76.4265 65.1348 75.5283 65.5811L71.0725 62.6104C69.3542 61.4653 67.0475 61.6933 65.5875 63.1535L63.1528 65.5883C61.6926 67.0485 61.4644 69.3552 62.6097 71.0732L65.5803 75.529C64.9662 76.7639 64.4687 78.0572 64.0968 79.3871C63.8266 80.353 64.3906 81.3547 65.3562 81.6252C66.322 81.8954 67.3238 81.3316 67.5942 80.3658C67.9895 78.9525 68.5546 77.5891 69.2734 76.3131C69.6089 75.7173 69.5813 74.9835 69.2022 74.4147L65.6315 69.0589C65.4431 68.7762 65.4806 68.3966 65.7209 68.1562L68.1557 65.7215C68.396 65.4814 68.7756 65.4441 69.0584 65.6321L74.4142 69.2027C74.9829 69.582 75.7167 69.6095 76.3126 69.2739C77.5889 68.5551 78.952 67.99 80.3652 67.5947C81.0236 67.4105 81.5224 66.8726 81.6563 66.2021L82.9184 59.8913C82.9849 59.5582 83.28 59.3163 83.6198 59.3163H87.0633C87.4029 59.3163 87.6981 59.5582 87.7648 59.8913L89.0269 66.2026C89.1609 66.873 89.66 67.411 90.3179 67.5952C91.7312 67.9905 93.0945 68.5556 94.3705 69.2743C94.9662 69.6099 95.7002 69.5823 96.2689 69.2031L101.625 65.6325C101.908 65.4441 102.287 65.4814 102.527 65.7219L104.962 68.1567C105.202 68.397 105.24 68.7766 105.052 69.0594L101.481 74.4152C101.102 74.9841 101.074 75.7177 101.41 76.3136C102.129 77.5898 102.694 78.953 103.089 80.3662C103.273 81.0245 103.811 81.5234 104.482 81.6573L110.792 82.9193C111.126 82.9858 111.367 83.281 111.367 83.6208V87.0643C111.367 87.4039 111.126 87.699 110.792 87.7657L104.481 89.0278C103.811 89.1619 103.273 89.661 103.089 90.3189C102.693 91.7321 102.128 93.0955 101.409 94.3715C101.074 94.9674 101.101 95.7012 101.481 96.2699L105.051 101.626C105.24 101.908 105.202 102.288 104.962 102.528L102.527 104.963C102.287 105.204 101.907 105.241 101.624 105.053L96.2685 101.482C95.6998 101.103 94.9658 101.075 94.3701 101.411C93.0939 102.13 91.7307 102.695 90.3175 103.09C89.6591 103.274 89.1603 103.812 89.0264 104.483L87.7643 110.793C87.6978 111.126 87.4027 111.368 87.0629 111.368H83.6194C83.2798 111.368 82.9846 111.126 82.9179 110.793L81.6559 104.482C81.5218 103.812 81.0227 103.274 80.3648 103.089C78.9516 102.694 77.5882 102.129 76.3122 101.41C75.7163 101.075 74.9823 101.102 74.4138 101.482L69.058 105.052C68.7752 105.241 68.3956 105.203 68.1553 104.963L65.7205 102.528C65.4804 102.288 65.4429 101.908 65.6311 101.625L69.2017 96.2695C69.5811 95.7005 69.6087 94.967 69.2729 94.3711C68.5542 93.0948 67.989 91.7317 67.5937 90.3184C67.4096 89.6601 66.8716 89.1612 66.2012 89.0274L59.8903 87.7653C59.5572 87.6988 59.3153 87.4037 59.3153 87.0638V83.6204C59.3153 83.2807 59.5572 82.9856 59.8903 82.9189L66.3357 81.6252C67.3191 81.4284 67 80.5 67.76 79.4884C67.5632 78.5051 66.6077 77.8683 65.623 78.0642L59.1776 79.3579C57.1532 79.7631 55.6836 81.5557 55.6836 83.6206V87.0641C55.6836 89.1287 57.1532 90.9215 59.1781 91.3265L64.4288 92.3765C64.7486 93.3282 65.1338 94.2574 65.5801 95.1556L62.6094 99.6114C61.4639 101.33 61.6923 103.636 63.1525 105.096L65.5873 107.531C67.0475 108.991 69.3542 109.22 71.0723 108.074L75.5281 105.104C76.4263 105.55 77.3555 105.935 78.3072 106.255L79.3572 111.506C79.7626 113.53 81.5552 115 83.6201 115H87.0635C89.1282 115 90.921 113.53 91.326 111.506L92.376 106.255C93.3277 105.935 94.2569 105.55 95.1551 105.103L99.6109 108.074C101.329 109.219 103.636 108.991 105.096 107.531L107.531 105.096C108.991 103.636 109.219 101.329 108.074 99.6112L105.103 95.1554C105.55 94.2572 105.935 93.328 106.254 92.3763L111.505 91.3263C113.53 90.9213 114.999 89.1287 114.999 87.0638V83.6204C115 81.5557 113.53 79.7631 111.505 79.3582Z" fill="black"/>
<path d="M47.3 47C47.2 47 47.2 47 47.3 47C47.1 47 47.1 46.9 47 46.9H46.9C46.9 47 46.9 47 47 47.1H47.1C47.2 47.2 47.2 47.2 47.2 47.3V47.4H47.1C47.1 47.4 47.1 47.4 47 47.4C47 47.4 47 47.4 47 47.3H46.9C46.8 47.3 46.8 47.3 46.8 47.3C46.8 47.3 46.8 47.3 46.7 47.3C46.7 47.3 46.7 47.3 46.7 47.2C46.7 47.2 46.7 47.2 46.7 47.1V47C46.7 47 46.7 47 46.6 47V46.9H46.7C46.7 46.9 46.8 46.8 46.8 46.9C46.8 46.9 46.8 46.9 46.9 46.8H46.8C46.7 46.8 46.7 46.8 46.6 46.7C46.5 46.6 46.4 46.6 46.4 46.5H46.2H46.1C46.1 46.5 46 46.4 46.1 46.4C46.1 46.4 46 46.3 45.9 46.3C45.8 46.3 45.8 46.3 45.7 46.2V46C45.7 46 45.7 45.9 45.6 45.9H45.5V45.8C45.5 45.8 45.5 45.8 45.4 45.8V45.7H45.3L45 45.5L44.9 45.4H44.8H44.7H44.6V45.3C44.6 45.3 44.6 45.3 44.5 45.4C44.4 45.4 44.4 45.4 44.4 45.4C44.4 45.4 44.4 45.4 44.3 45.4C44.3 45.4 44.3 45.4 44.2 45.4H44.3C44.3 45.4 44.3 45.4 44.4 45.3H44.3H44.2H44.1C44.1 45.3 44.1 45.3 44.2 45.3H44.3C44.3 45.3 44.3 45.3 44.2 45.3C44.2 45.3 44.2 45.3 44.3 45.2C44.3 45.2 44.3 45.2 44.2 45.1L44.1 44.9C44.1 44.8 44.1 44.7 44.1 44.6C44.1 44.6 44.1 44.6 44.2 44.5C44.2 44.4 44.2 44.4 44.2 44.4C44.2 44.4 44.2 44.3 44.3 44.3H44.4H44.3L44.2 44.2C44.2 44.1 44.2 44 44.2 43.9C44.2 43.8 44.2 43.8 44.3 43.8H44.4C44.5 43.8 44.6 43.8 44.6 43.7V43.6H44.5L44.1 42.9C44.1 42.9 44.1 42.9 44.1 42.8C44.1 42.8 44.1 42.8 44.1 42.7C44.1 42.7 44.1 42.7 44.1 42.6C44.1 42.6 44.1 42.6 44.1 42.5H44.2C44.3 42.5 44.2 42.4 44.3 42.4C44.3 42.4 44.3 42.4 44.3 42.3C44.3 42.3 44.3 42.2 44.2 42.2V42.1H44.3L44.4 41.8V41.7C44.4 41.7 44.3 41.6 44.4 41.5C44.4 41.5 44.4 41.4 44.3 41.4C44.3 41.3 44.3 41.1 44.3 41C44.3 40.9 44.3 40.8 44.3 40.6V40.5C44.3 40.5 44.3 40.5 44.3 40.4V40.5V40.4H44.5C44.5 40.4 44.5 40.4 44.5 40.3V40.2V40.1V40V39.9C44.5 39.9 44.5 39.8 44.6 39.8C44.6 39.7 44.6 39.6 44.6 39.5C44.6 39.4 44.6 39.3 44.6 39.2C44.6 39.2 44.6 39.1 44.5 39C44.4 39 44.4 38.9 44.4 38.9C44.4 38.9 44.4 38.8 44.5 38.8C44.6 38.8 44.6 38.7 44.6 38.7C44.6 38.6 44.6 38.6 44.6 38.6C44.6 38.6 44.5 38.5 44.6 38.5V38.4C44.6 38.3 44.6 38.3 44.6 38.2C44.6 38.2 44.6 38.1 44.6 38V37.9C44.6 37.9 44.6 37.9 44.6 37.8C44.6 37.7 44.6 37.7 44.6 37.5V37.4V37.3V37.2V37.1V36.6V36.5V36.4L44.3 35.7H44.4H44.5L44.3 35.6V35.5C44.4 35.5 44.4 35.4 44.4 35.4V35.3C44.4 35.2 44.4 35.1 44.4 35C44.4 34.9 44.4 34.8 44.4 34.7C44.4 34.6 44.4 34.5 44.4 34.5V34.3V34.2C44.4 34.2 44.4 34.1 44.3 34.1C44.3 34 44.3 34 44.2 33.9C44 33.9 43.9 33.8 43.9 33.7C43.9 33.6 43.8 33.6 43.7 33.6H43.6C43.6 33.5 43.6 33.5 43.5 33.5V33.4C43.5 33.4 43.5 33.4 43.4 33.4C43.4 33.4 43.4 33.4 43.3 33.4H43.2H43.1V33.5C43 33.4 43 33.4 42.9 33.4L42.8 33.3C42.7 33.3 42.7 33.3 42.6 33.3C42.5 33.3 42.5 33.3 42.5 33.2L42.4 33.1C42.3 33 42.3 33 42.3 33C42.3 33 42.3 33 42.3 33.1C42.1 33.2 42.1 33.2 42.1 33.2L42.2 33.3C42.2 33.3 42.2 33.3 42.2 33.4C42.1 33.4 42.1 33.4 42.1 33.5C42.1 33.6 42.1 33.5 42 33.5C41.9 33.5 41.8 33.5 41.8 33.6C41.8 33.6 41.8 33.6 41.8 33.7C41.8 33.8 41.8 33.8 41.7 33.8C41.6 33.8 41.6 33.9 41.6 33.9C41.6 33.9 41.6 33.9 41.6 34C41.5 33.9 41.5 34 41.4 34C41.2 34 41.2 34 41.2 34.1C41.1 34.1 41 34.2 41 34.2C41 34.2 41 34.2 41 34.3C41 34.3 41 34.3 41 34.4C41 34.6 41.1 34.7 41.1 34.8C41.2 34.8 41.2 34.9 41.2 35C41.2 35.1 41.1 35.1 41.1 35.1V35.2L41.3 35.4C41.4 35.5 41.4 35.6 41.4 35.7V35.8C41.3 36 41.4 36 41.4 36.1C41.4 36.2 41.4 36.2 41.4 36.3V36.4V36.5L41.5 36.6V36.7V36.8V36.9V37L41.6 37.1C41.6 37.2 41.6 37.3 41.6 37.3C41.6 37.3 41.6 37.4 41.5 37.4C41.5 37.4 41.5 37.4 41.4 37.5L41.3 37.9L41.4 38V38.1V38.2V38.3C41.5 38.4 41.5 38.4 41.5 38.5C41.5 38.6 41.5 38.6 41.5 38.7C41.5 38.8 41.5 38.8 41.5 38.9V39V39.1C41.5 39.2 41.5 39.2 41.5 39.2C41.5 39.2 41.5 39.3 41.6 39.3C41.6 39.4 41.6 39.5 41.6 39.5C41.6 39.5 41.6 39.6 41.5 39.6C41.5 39.6 41.5 39.7 41.5 39.8V40.2V40.3C41.5 40.3 41.5 40.3 41.5 40.4C41.5 40.4 41.5 40.4 41.5 40.5V40.6C41.6 40.6 41.6 40.6 41.6 40.6C41.5 40.6 41.5 40.6 41.5 40.7C41.5 40.7 41.5 40.8 41.6 40.8C41.6 40.8 41.6 40.8 41.7 40.8C41.7 40.8 41.7 40.8 41.7 40.9V41C41.6 41 41.6 41 41.6 41C41.6 41 41.6 41 41.5 40.9C41.5 40.9 41.4 40.9 41.4 40.8C41.4 40.8 41.3 40.8 41.3 40.7V40.8C41.3 40.8 41.3 40.8 41.3 40.9L41.6 41V41.1V41.3H41.5V41.2L41.4 41.1C41.3 41.1 41.3 41.1 41.3 41.1C41.3 41.1 41.3 41.1 41.3 41.2C41.3 41.2 41.3 41.2 41.3 41.3V41.4V41.5V41.6C41.3 41.7 41.4 41.7 41.3 41.8V41.9V42V42.1L41.4 42.2V42.3C41.4 42.4 41.4 42.4 41.4 42.6C41.4 42.7 41.5 42.8 41.5 42.8C41.5 42.9 41.5 42.9 41.5 43H41.6C41.6 43 41.6 43 41.7 43V42.9H41.8L41.9 43C41.9 43.1 41.9 43.2 41.9 43.2C41.9 43.2 41.9 43.3 41.8 43.3L41.9 43.4C41.8 43.4 41.8 43.4 41.8 43.5V43.6V43.7C41.7 43.7 41.7 43.8 41.7 43.8V43.9V44.1C41.7 44.2 41.7 44.2 41.8 44.3C41.8 44.3 41.9 44.4 41.9 44.5C41.9 44.6 41.9 44.6 41.9 44.7V44.8C41.9 44.9 41.9 44.9 41.8 44.9H41.7C41.7 44.9 41.7 44.9 41.8 44.9C41.8 44.9 41.8 44.9 41.9 44.9C42 44.9 42 44.9 42 44.9C42 45 41.9 45 41.9 45.1H41.8H41.7L41.5 46C41.5 46 41.5 46 41.6 46H41.7H41.6C41.6 46 41.6 46 41.5 46H41.6C41.7 46 41.8 46 41.9 46C41.9 46 41.9 46 42 46V46.1C42 46.1 42.1 46.1 42.2 46.1C42.3 46.1 42.3 46.1 42.4 46.2C42.5 46.2 42.5 46.3 42.5 46.3V46.4H42.6H42.7C42.7 46.4 42.7 46.4 42.8 46.4H42.9C42.9 46.4 42.9 46.4 42.9 46.5L43.1 47C43.1 47 43.2 47.1 43.1 47.2L43.2 47.1C43.2 47.1 43.2 47.1 43.2 47H43.3H43.4C43.4 47 43.5 47.1 43.4 47.1C43.4 47.1 43.4 47.1 43.5 47.1H43.6C43.6 47.1 43.6 47.1 43.6 47.2C43.6 47.2 43.6 47.2 43.7 47.2C43.8 47.2 43.8 47.2 43.9 47.2H44C44 47.2 44 47.2 44 47.3C44 47.4 44 47.5 44 47.5H44.1C44.2 47.5 44.2 47.5 44.2 47.5H44.3L44.4 47.6C44.4 47.7 44.4 47.7 44.4 47.8V47.9L44.3 48C44.4 48 44.4 48 44.5 48H44.6H44.7V48.1C44.7 48.1 44.7 48.1 44.8 48.1C44.9 48.1 44.9 48.1 44.9 48.1H45H45.1L45.2 48.2V48.3C45.3 48.3 45.3 48.3 45.4 48.3C45.4 48.3 45.5 48.3 45.5 48.4C45.7 48.4 45.8 48.4 45.9 48.5C45.9 48.5 45.9 48.6 46 48.6C46 48.6 46.1 48.6 46.2 48.6C46.3 48.6 46.3 48.6 46.3 48.6V48.7C46.3 48.7 46.4 48.7 46.5 48.7C46.6 48.7 46.6 48.6 46.7 48.7H46.8C46.8 48.7 46.8 48.7 46.7 48.7V48.8V48.9L46.8 49C46.8 49 46.9 49 47 49C47 49 47 49 47 49.1C47.1 49 47.2 49 47.3 49.1H47.4H47.5L47.6 49.2C47.7 49.3 47.7 49.3 47.8 49.3C47.8 50 47.8 50 47.8 50H47.9L48 50.1H48.1C48.1 50.2 48.1 50.2 48.1 50.2H48.2H48.3L48.4 50.3C48.4 50.4 48.4 50.4 48.4 50.5H48.5H48.6H48.7C48.8 50.5 48.8 50.5 48.9 50.5V50.6C48.9 50.6 48.9 50.7 48.8 50.7H48.9H49V50.6H49.1V50.7C49.2 50.7 49.2 50.7 49.2 50.7C49.2 50.7 49.3 50.8 49.4 50.8L49.5 50.9H49.6C49.6 50.9 49.6 50.9 49.7 50.9H49.8C49.8 50.9 49.8 50.9 49.8 51C49.8 51.1 49.8 51.1 49.8 51.1C49.8 51.1 49.8 51.1 49.8 51.2V51.3C49.8 51.3 49.9 51.3 50 51.3V51.4C50 51.4 50 51.4 50 51.5C50 51.5 50.1 51.5 50.1 51.6C50.1 51.6 50.2 51.6 50.2 51.7C50.2 51.7 50.3 51.8 50.3 51.9V52C50.3 52 50.4 52 50.4 51.9C50.4 51.9 50.5 51.8 50.5 51.9V52H50.6C50.6 52 50.6 52 50.7 52C50.7 52.1 50.7 52.1 50.7 52.1H50.8C50.8 52.1 50.8 52.1 50.8 52.2C50.9 52.3 50.9 52.3 51 52.3C51.1 52.3 51.1 52.3 51.2 52.3C51.2 52.3 51.2 52.3 51.3 52.3H51.4C51.5 52.3 51.6 52.3 51.6 52.4C51.6 52.4 51.7 52.4 51.9 52.4C51.9 52.4 52 52.5 52 52.4H52.1C52.1 52.4 52.2 52.4 52.3 52.3C52.3 52.2 52.4 52.2 52.4 52.3C52.5 52.3 52.5 52.2 52.6 52.2C52.7 52.2 52.7 52.1 52.8 52.1C52.8 52 52.8 52 52.8 52C52.8 52 52.8 52 52.8 51.9C52.8 51.9 52.8 51.9 52.9 51.8L53 51.7V51.6L52.9 51.5H52.8C52.8 51.5 52.8 51.5 52.7 51.5L52.6 51.4V51.3C52.7 51.3 52.7 51.3 52.7 51.2C52.8 51.1 52.8 51 52.7 51L52.5 50.9C52.4 50.9 52.4 50.9 52.3 50.9C52.2 50.9 52.2 50.9 52.2 50.9H52.1C52.1 50.9 52 50.9 51.9 50.9C51.9 50.9 51.9 50.9 51.8 50.9C51.8 50.8 51.7 50.8 51.7 50.8C51.7 50.8 51.7 50.8 51.6 50.8C51.6 50.8 51.5 50.8 51.5 50.7L51.4 50.6H51.3C51.3 50.6 51.3 50.6 51.3 50.7C51.3 50.7 51.3 50.7 51.3 50.8H51.2C51.2 50.8 51.2 50.8 51.1 50.8V50.7L51 50.6C51.7 51 51.6 51 51.6 51C51.5 51 51.5 50.9 51.4 50.9C51.3 50.9 51.3 50.9 51.2 50.9L51.1 50.8C51.1 50.8 51.1 50.8 51.1 50.7H51.2C51.2 50.6 51.2 50.6 51.2 50.5C51.2 50.5 51.2 50.4 51.3 50.4V50.3C51.4 50.2 51.4 50.1 51.4 50C51.4 49.9 51.3 49.8 51.3 49.8C51.3 49.8 51.2 49.8 51.1 49.8C51.1 49.8 51.1 49.8 51 49.8C51 49.8 51 49.8 50.9 49.8C50.9 49.7 50.9 49.7 50.9 49.7H50.8C50.7 49.7 50.7 49.7 50.7 49.8H50.6C50.6 49.9 50.5 49.9 50.5 49.9C50.5 49.9 50.5 50 50.5 50.1V50.2C50.6 50.2 50.6 50.2 50.7 50.1C50.8 50.1 50.8 50.1 50.8 50.1H50.9L51 50C51 50 51 50 51 50.1V50.2C51 50.2 50.9 50.3 50.8 50.3H50.7H50.6C50.6 50.2 50.6 50.2 50.6 50.2C50.6 50.2 50.6 50.2 50.5 50.2H50.4H50.3V50.1L50.2 50L50.1 49.9L50 49.8L49.9 49.7H49.8H49.7C49.6 49.6 49.6 49.6 49.5 49.6L49.3 49.4L49.2 49.3C49.2 49.3 49.1 49.3 49 49.3H48.9L48.7 49C48.7 49 48.6 48.9 48.6 48.8L48.5 48.7H48.4V48.6V48.5C48.4 48.5 48.4 48.4 48.5 48.4L48.6 48.3C48.5 48.3 48.3 48.3 48.3 48.4C48.2 48.5 48.1 48.5 48.1 48.4H48L47.9 48.3L47.8 48.2L47.7 48.1L47.6 48L47.5 47.9C47.5 47.9 47.5 47.9 47.5 47.8L47.6 47.7C47.6 47.7 47.7 47.7 47.7 47.6V47.5C47.7 47.5 47.7 47.5 47.7 47.4C47.7 47.4 47.7 47.4 47.8 47.3C47.9 47.2 47.9 47.2 47.9 47.2V47.1C47.8 47 47.7 47 47.6 46.9C47.3 47.1 47.3 47.1 47.3 47ZM51.5 50.4V50.5C51.5 50.5 51.6 50.6 51.7 50.5V50.6V50.7C51.7 50.7 51.7 50.7 51.7 50.8L51.8 50.7C51.8 50.7 51.8 50.7 51.8 50.6C51.8 50.6 51.8 50.6 51.8 50.5V50.4C51.8 50.3 51.8 50.3 51.8 50.3H51.7C51.7 50.3 51.6 50.3 51.5 50.4ZM52.1 50.9C52.1 50.8 52.1 50.8 52.1 50.9V50.9ZM49 48.2C48.9 48.2 48.9 48.2 48.9 48.2V48.3H48.8C48.8 48.3 48.7 48.3 48.7 48.4V48.5C48.8 48.5 48.9 48.5 48.9 48.5L49.3 48.4V48.3C49.3 48.3 49.3 48.3 49.4 48.3H49.3H49.2C49.1 48.3 49.1 48.3 49.1 48.3C49.1 48.3 49.1 48.3 49.1 48.2C49.1 48.4 49.1 48.3 49 48.2ZM48.2 47.9C48.2 47.8 48.3 47.8 48.2 47.8C48.2 47.8 48.2 47.8 48.2 47.7V47.6H48V47.7C48 47.7 48 47.7 48 47.8C48 47.8 48 47.8 48.1 47.8C48.1 47.8 48.1 47.8 48.1 47.9C48.1 47.9 48.1 47.9 48.1 48C48.1 47.9 48.1 47.9 48.2 47.9ZM48.4 48C48.4 47.9 48.3 47.9 48.3 47.9L48.2 48C48.2 48 48.1 48 48.1 48.1V48.2C48.2 48.3 48.2 48.2 48.3 48.2C48.4 48.1 48.4 48.1 48.4 48ZM45.7 46.9C45.6 46.8 45.6 46.8 45.6 46.9V47C45.6 47 45.6 47 45.6 47.1V47.2C45.5 47.2 45.5 47.2 45.5 47.2V47.1H45.4C45.3 47.1 45.3 47.1 45.3 47.1H45.2C45.2 47.1 45.1 47 45.2 47C45.2 47 45.2 47 45.4 46.9H45.5C45.6 46.9 45.6 46.9 45.6 46.9C45.6 46.9 45.7 46.9 45.8 46.8C45.8 46.8 45.7 46.8 45.6 46.7C45.6 46.7 45.5 46.6 45.6 46.6C45.6 46.6 45.6 46.6 45.6 46.5V46.4C45.7 46.3 45.7 46.3 45.6 46.2L45.7 46.1C45.8 46.1 45.9 46.1 46 46.2V46.3C46 46.3 46 46.3 46 46.4L45.9 46.5L46 46.6C46.1 46.5 46.2 46.5 46.2 46.5C46.3 46.5 46.3 46.4 46.3 46.5H46.4C46.4 46.5 46.4 46.5 46.5 46.5C46.5 46.5 46.5 46.5 46.6 46.5H46.7C46.7 46.5 46.7 46.5 46.7 46.6C46.7 46.6 46.7 46.6 46.6 46.6H46.5H46.4H46.3C45.9 46.9 45.8 46.9 45.7 46.9C45.8 46.9 45.8 46.9 45.7 46.9ZM44.4 45.9C44.4 45.8 44.4 45.8 44.4 45.8C44.4 45.8 44.4 45.7 44.5 45.7V45.6H44.6C44.6 45.6 44.7 45.7 44.8 45.7L45 45.8V45.9C44.9 46 44.9 46 44.8 46C44.8 46 44.7 46 44.6 46.1C44.6 46.2 44.5 46.2 44.5 46.2C44.5 46.2 44.5 46.2 44.4 46.2C44.4 46.2 44.4 46.1 44.5 46C44.5 45.8 44.5 45.8 44.4 45.9ZM47.1 47.6V47.7H47C47.1 47.6 47.1 47.6 47.1 47.6ZM45.9 46.6C45.9 46.7 45.9 46.7 45.9 46.6C46 46.7 46 46.6 45.9 46.6ZM43.4 45.7C43.4 45.6 43.3 45.6 43.4 45.7C43.3 45.6 43.3 45.6 43.4 45.7C43.4 45.6 43.4 45.6 43.5 45.5C43.5 45.5 43.5 45.5 43.6 45.4C43.7 45.4 43.7 45.3 43.7 45.3H43.8C43.8 45.3 43.8 45.4 43.7 45.4C43.7 45.4 43.7 45.4 43.8 45.5H43.9C43.9 45.5 43.9 45.5 43.9 45.6C44 45.6 44 45.6 44.1 45.6H44.2C44.2 45.6 44.2 45.6 44.3 45.6C44.4 45.6 44.3 45.6 44.3 45.6C44.4 45.6 44.4 45.6 44.4 45.6C44.4 45.6 44.4 45.6 44.5 45.6L44.4 45.7C44.3 45.8 44.2 45.8 44.2 45.7C44.2 45.7 44.2 45.7 44.1 45.7L44 45.8H43.9C43.9 45.8 43.9 45.8 43.9 45.7L44 45.6C44 45.6 44.1 45.6 44.1 45.5C44 45.5 44 45.5 43.9 45.6C43.9 45.6 43.9 45.6 43.8 45.6C43.7 45.6 43.7 45.7 43.6 45.7H43.4ZM49.4 49.9C49.3 49.9 49.3 49.8 49.4 49.8V49.9ZM48.2 49.1C48.2 49 48.3 49 48.2 49.1C48.3 49 48.4 49 48.4 49.1H48.2ZM48.9 49.8H49H48.9ZM44.8 46.8C44.7 46.9 44.7 46.9 44.7 46.9L44.8 46.8C44.7 46.8 44.8 46.8 44.8 46.8ZM43.7 43.4H43.6C43.6 43.4 43.6 43.4 43.7 43.4C43.6 43.4 43.7 43.4 43.7 43.4ZM43.5 45.9C43.5 45.9 43.5 46 43.5 45.9C43.5 46 43.6 46 43.6 46C43.6 46 43.6 46 43.5 46C43.5 46 43.4 46 43.5 45.9C43.4 46 43.3 46 43.2 46C43.2 46 43.2 46 43.1 46C43.1 46 43.1 46 43.2 46H43.3C43.3 46 43.3 46 43.4 46C43.4 45.9 43.4 45.9 43.5 45.9C43.4 45.9 43.5 45.9 43.5 45.9ZM46.6 48.7C46.5 48.8 46.5 48.8 46.6 48.7C46.5 48.8 46.5 48.8 46.5 48.7C46.5 48.7 46.5 48.7 46.5 48.6L46.6 48.7ZM43.3 43.7C43.4 43.7 43.4 43.7 43.3 43.7C43.4 43.8 43.3 43.8 43.3 43.7ZM43 45.7L42.9 45.8C42.9 45.6 43 45.6 43 45.7ZM46.2 48.4L46.4 48.5V48.6C46.3 48.6 46.3 48.6 46.3 48.6L46.2 48.5C46.2 48.5 46.2 48.5 46.2 48.4C46.2 48.3 46.2 48.3 46.2 48.2C46.1 48.3 46.1 48.4 46.2 48.4C46.1 48.4 46.2 48.4 46.2 48.4ZM44.1 38.3L44 38.2H44.1V38.3ZM46 48.7C45.9 48.7 45.9 48.8 46 48.7V48.7ZM48.2 50.7C48.1 50.7 48.2 50.7 48.2 50.7C48.2 50.8 48.2 50.7 48.2 50.7ZM42.8 42L42.9 42.2L42.7 41.9C42.7 41.9 42.7 41.9 42.7 42H42.8C42.9 42 42.9 42 42.8 42ZM41.9 44.4C41.9 44.4 41.9 44.5 41.9 44.4C41.8 44.5 41.8 44.4 41.9 44.4C41.9 44.4 41.8 44.4 41.9 44.4C41.8 44.4 41.9 44.3 41.9 44.4ZM41.9 41.9H41.8L41.6 41.6C41.7 41.6 41.7 41.7 41.7 41.7L41.9 41.9C41.9 41.8 41.9 41.9 41.9 41.9ZM41.9 37.1H41.8C41.8 37.2 41.8 37.1 41.9 37.1C41.8 37.1 41.8 37.1 41.9 37.1Z" fill="#3E78FE"/>
<path d="M87.6262 87.0732C87.5421 87.0732 87.5421 87.0732 87.6262 87.0732C87.5421 86.9878 87.4579 86.9878 87.4579 86.9878H87.3738C87.3738 87.0732 87.3738 87.0732 87.4579 87.1585C87.4579 87.1585 87.5421 87.2439 87.4579 87.3293L87.3738 87.4146H87.2897C87.2897 87.4146 87.2897 87.4146 87.2056 87.4146C87.2056 87.4146 87.2056 87.4146 87.2056 87.3293C87.2056 87.3293 87.2056 87.3293 87.1215 87.3293C87.0374 87.3293 87.0374 87.3293 87.0374 87.3293C87.0374 87.3293 87.0374 87.3293 86.9533 87.3293V87.2439C86.9533 87.2439 86.9533 87.2439 86.8692 87.2439V87.1585H86.9533C86.9533 87.1585 87.0374 87.0732 87.0374 87.1585C87.0374 87.1585 87.0374 87.1585 87.1215 87.0732H87.0374C87.0374 87.0732 86.9533 87.0732 86.9533 86.9878C86.8692 86.9024 86.8692 86.9024 86.8692 86.8171H86.785H86.7009V86.7317C86.7009 86.7317 86.6168 86.7317 86.5327 86.6463C86.5327 86.6463 86.4486 86.6463 86.3645 86.561L86.2804 86.4756V86.3902H86.1963C86.1963 86.3902 86.1963 86.3902 86.1963 86.3049C86.1963 86.3049 86.1963 86.3049 86.1121 86.3049V86.2195H86.028L85.9439 86.1341H85.8598H85.7757L85.8598 86.0488C85.8598 86.0488 85.8598 86.0488 85.7757 86.1341C85.6916 86.1341 85.6916 86.1341 85.6916 86.1341C85.6916 86.1341 85.6916 86.1341 85.6075 86.1341H85.5234H85.6075C85.6075 86.1341 85.6075 86.1341 85.6916 86.1341H85.6075H85.5234H85.4393C85.4393 86.1341 85.4393 86.1341 85.5234 86.1341H85.6075C85.6075 86.1341 85.6075 86.1341 85.5234 86.1341C85.5234 86.1341 85.5234 86.1341 85.6075 86.0488C85.6075 86.0488 85.6075 86.0488 85.5234 85.9634L85.4393 85.878C85.4393 85.7927 85.4393 85.7927 85.4393 85.7073C85.4393 85.7073 85.4393 85.7073 85.5234 85.622C85.5234 85.5366 85.5234 85.5366 85.5234 85.5366C85.5234 85.5366 85.5234 85.4512 85.6075 85.4512H85.6916H85.6075L85.5234 85.3659C85.5234 85.2805 85.5234 85.1951 85.5234 85.1098C85.5234 85.0244 85.5234 85.0244 85.6075 85.0244H85.6916C85.7757 85.0244 85.8598 85.0244 85.8598 85.0244V84.939H85.7757L85.6916 84.8537C85.6916 84.8537 85.6916 84.8537 85.6916 84.7683C85.6916 84.7683 85.6916 84.7683 85.6916 84.6829L85.7757 84.7683C85.6916 84.6829 85.6916 84.5976 85.6916 84.5976C85.6916 84.5976 85.6916 84.5122 85.6075 84.5122C85.6075 84.5122 85.6075 84.5122 85.6075 84.4268H85.6916L85.7757 84.1707C85.7757 84.1707 85.7757 84.1707 85.7757 84.0854C85.7757 84.0854 85.6916 84 85.7757 83.9146C85.7757 83.9146 85.7757 83.8293 85.6916 83.8293C85.6916 83.7439 85.6916 83.6585 85.6916 83.5732C85.6916 83.4878 85.6916 83.4024 85.6916 83.3171V83.2317V83.3171C85.6916 83.3171 85.6916 83.3171 85.6916 83.2317H85.8598V83.1463V83.061V82.9756V82.8902C85.8598 82.8902 85.8598 82.8049 85.9439 82.8049C85.9439 82.7195 85.9439 82.6341 85.9439 82.6341C85.9439 82.5488 85.9439 82.5488 85.9439 82.4634C85.9439 82.4634 85.9439 82.378 85.8598 82.378C85.7757 82.378 85.7757 82.2927 85.7757 82.2927C85.7757 82.2927 85.7757 82.2073 85.8598 82.2927C85.9439 82.2927 85.9439 82.2927 85.9439 82.2073C85.9439 82.122 85.9439 82.122 85.9439 82.122C85.9439 82.122 85.8598 82.0366 85.9439 82.0366V81.9512C85.9439 81.8659 85.9439 81.8659 85.9439 81.7805V81.6951C85.9439 81.6951 85.9439 81.6951 85.9439 81.6098C85.9439 81.6098 85.9439 81.6098 85.9439 81.5244C85.9439 81.5244 85.9439 81.439 85.9439 81.3537V81.2683V81.1829V81.0976V81.0122V80.6707V80.5854V80.5L85.8598 80.1585H85.9439H86.028L85.9439 80.0732C86.028 80.0732 86.028 80.0732 86.028 79.9878V79.9024C86.028 79.8171 86.028 79.7317 86.028 79.7317C86.028 79.6463 86.028 79.561 86.028 79.561C86.028 79.4756 86.028 79.4756 86.028 79.3902L85.9439 79.3049V79.2195C85.9439 79.2195 85.9439 79.1341 85.8598 79.1341C85.8598 79.0488 85.8598 79.0488 85.7757 79.0488C85.6916 78.9634 85.6075 78.9634 85.6075 78.878C85.6075 78.878 85.5234 78.7927 85.4393 78.7927H85.3551C85.3551 78.7073 85.3551 78.7073 85.271 78.7073C85.271 78.7073 85.271 78.7073 85.1869 78.7073C85.1869 78.7073 85.1869 78.7073 85.1028 78.7073H85.0187H84.9346H84.8505C84.7664 78.7073 84.7664 78.7073 84.7664 78.622L84.6822 78.5366C84.5981 78.5366 84.5981 78.5366 84.514 78.5366C84.4299 78.5366 84.4299 78.5366 84.4299 78.4512L84.0935 77.0854C84.0093 77 84.0093 77 84.0093 77C84.0093 77 84.0093 77 84.0093 77.0854C83.9252 77.0854 83.9252 77.1707 83.9252 77.0854L84.0093 77.1707C83.9252 77.1707 83.9252 77.1707 83.9252 77.1707C83.9252 77.1707 83.9252 77.1707 83.8411 77.1707C83.757 77.1707 83.6729 77.1707 83.6729 77.1707C83.6729 77.1707 83.6729 77.1707 83.6729 77.2561C83.6729 77.3415 83.6729 77.3415 83.5888 77.3415C83.5047 77.3415 83.5047 77.3415 83.5047 77.4268C83.4206 77.5122 83.4206 77.5122 83.3364 77.5122C83.2523 77.5122 83.1682 77.5976 83.1682 77.5976C83.0841 77.5976 83 77.5976 83 77.6829C83 77.7683 83.0841 77.939 83.0841 78.0244C83.1682 78.1098 83.1682 78.1098 83.1682 78.1951C83.1682 78.2805 83.0841 78.2805 83.0841 78.2805V78.3659V78.7927C83.1682 78.878 83.1682 78.9634 83.1682 78.9634V79.0488C83.1682 79.1341 83.2523 79.1341 83.2523 79.2195C83.2523 79.3049 83.2523 79.3049 83.2523 79.3902V79.4756C83.2523 79.4756 83.2523 79.4756 83.2523 79.561L83.3364 79.6463V79.7317V79.8171C83.3364 79.8171 83.3364 79.8171 83.3364 79.9024V79.9878C83.3364 79.9878 83.4206 79.9878 83.4206 80.0732C83.4206 80.1585 83.4206 80.1585 83.4206 80.2439C83.4206 80.2439 83.4206 80.2439 83.3364 80.3293C83.3364 80.3293 83.3364 80.3293 83.3364 80.4146L83.2523 80.6707L83.3364 80.7561C83.3364 80.7561 83.3364 80.7561 83.3364 80.8415V80.9268V81.0122C83.4206 81.0976 83.4206 81.0976 83.4206 81.1829C83.4206 81.2683 83.4206 81.2683 83.4206 81.3537C83.4206 81.439 83.4206 81.439 83.4206 81.5244V81.6098V81.6951V81.7805C83.4206 81.7805 83.4206 81.8659 83.5047 81.8659C83.5047 81.9512 83.5047 82.0366 83.5047 82.0366C83.5047 82.0366 83.5047 82.122 83.4206 82.122C83.4206 82.122 83.4206 82.2073 83.4206 82.2927V82.5488V82.6341C83.4206 82.6341 83.4206 82.6341 83.4206 82.7195C83.4206 82.7195 83.4206 82.7195 83.4206 82.8049C83.5047 82.8049 83.5047 82.8049 83.5047 82.8049C83.4206 82.8049 83.4206 82.8049 83.4206 82.8049C83.4206 82.8049 83.4206 82.8049 83.5047 82.8902C83.5047 82.8902 83.5047 82.8902 83.5888 82.8902C83.5888 82.8902 83.5888 82.8902 83.5888 82.9756C83.5047 82.9756 83.5047 82.9756 83.5047 82.9756C83.5047 82.9756 83.5047 82.9756 83.4206 82.8902H83.3364C83.3364 82.8902 83.2523 82.8902 83.2523 82.8049C83.2523 82.8049 83.2523 82.8049 83.2523 82.8902L83.5047 82.9756V83.061V83.2317H83.4206V83.1463L83.3364 83.061C83.2523 83.061 83.2523 83.061 83.2523 83.061C83.2523 83.061 83.2523 83.061 83.2523 83.1463V83.2317V83.3171V83.4024C83.2523 83.4878 83.3364 83.4878 83.2523 83.5732V83.6585V83.7439V83.8293L83.3364 83.9146V84C83.3364 84.0854 83.3364 84.0854 83.3364 84.1707C83.3364 84.2561 83.4206 84.2561 83.4206 84.3415C83.4206 84.4268 83.4206 84.4268 83.4206 84.5122H83.5047C83.5047 84.5122 83.5047 84.5122 83.5888 84.5122H83.6729L83.757 84.5976C83.757 84.6829 83.757 84.7683 83.757 84.7683C83.757 84.7683 83.757 84.8537 83.6729 84.8537L83.757 84.939C83.6729 84.939 83.6729 84.939 83.6729 85.0244C83.6729 85.0244 83.6729 85.0244 83.6729 85.1098V85.1951C83.5888 85.1951 83.5888 85.2805 83.5888 85.2805V85.3659V85.5366C83.5888 85.622 83.5888 85.622 83.6729 85.7073L83.757 85.7927C83.757 85.878 83.757 85.878 83.757 85.878V85.9634C83.757 85.9634 83.757 86.0488 83.6729 86.0488H83.5888C83.5888 86.0488 83.5888 86.0488 83.6729 86.0488C83.6729 86.0488 83.6729 86.0488 83.757 86.0488C83.8411 86.0488 83.8411 86.0488 83.8411 86.0488C83.8411 86.0488 83.757 86.1341 83.757 86.2195H83.6729H83.5888H83.5047L83.3364 86.4756C83.3364 86.4756 83.3364 86.4756 83.4206 86.4756H83.5047C83.5047 86.4756 83.5047 86.4756 83.5047 86.561H83.4206H83.5047C83.5888 86.561 83.6729 86.561 83.757 86.561C83.757 86.561 83.757 86.561 83.8411 86.561V86.6463C83.8411 86.6463 83.9252 86.6463 84.0093 86.6463C84.0093 86.6463 84.0935 86.6463 84.1776 86.7317C84.2617 86.7317 84.2617 86.8171 84.2617 86.8171V86.9024H84.3458C84.3458 86.9024 84.3458 86.9024 84.4299 86.9024H84.514C84.514 86.9024 84.514 86.9024 84.514 86.9878L84.5981 87.0732V87.1585L84.6822 87.0732C84.6822 87.0732 84.6822 87.0732 84.6822 86.9878H84.7664H84.8505V87.0732C84.8505 87.0732 84.8505 87.0732 84.9346 87.0732H85.0187C85.0187 87.0732 85.0187 87.0732 85.0187 87.1585C85.0187 87.1585 85.0187 87.1585 85.1028 87.1585C85.1869 87.1585 85.1869 87.1585 85.271 87.1585H85.3551C85.3551 87.1585 85.3551 87.1585 85.3551 87.2439C85.3551 87.3293 85.3551 87.4146 85.3551 87.4146H85.4393C85.5234 87.4146 85.5234 87.4146 85.5234 87.4146H85.6075L85.6916 87.5C85.6916 87.5854 85.6916 87.5854 85.6916 87.6707V87.7561L85.6075 87.8415C85.6916 87.8415 85.6916 87.8415 85.7757 87.8415H85.8598V87.9268C85.8598 87.9268 85.8598 87.9268 85.9439 87.9268C86.028 87.9268 86.028 87.9268 86.028 87.9268H86.1121L86.1963 88.0122V88.0976C86.2804 88.0976 86.2804 88.0976 86.2804 88.0976C86.2804 88.0976 86.3645 88.0976 86.3645 88.1829C86.4486 88.1829 86.6168 88.1829 86.7009 88.2683V88.3537C86.7009 88.3537 86.785 88.3537 86.8692 88.3537C86.9533 88.3537 86.9533 88.3537 86.9533 88.3537V88.439H87.0374C87.1215 88.439 87.1215 88.3537 87.2056 88.439H87.2897C87.2897 88.439 87.2897 88.439 87.2056 88.439V88.5244V88.6098L87.2897 88.6951H87.3738C87.3738 88.6951 87.3738 88.6951 87.3738 88.7805C87.4579 88.6951 87.5421 88.6951 87.6262 88.7805H87.7103H87.7944L87.8785 88.8659L87.9626 88.9512C87.8785 89.0366 87.8785 89.0366 87.8785 89.0366H87.9626L88.0467 89.122H88.1308C88.1308 89.2073 88.0467 89.2073 88.1308 89.2073C88.1308 89.2073 88.1308 89.2073 88.215 89.2073H88.2991L88.3832 89.2927C88.3832 89.378 88.3832 89.378 88.3832 89.4634C88.3832 89.4634 88.3832 89.4634 88.4673 89.4634H88.5514H88.6355C88.7196 89.4634 88.7196 89.4634 88.8037 89.4634V89.5488C88.8037 89.5488 88.8037 89.6341 88.7196 89.6341H88.8037L88.8878 89.5488H88.972C88.972 89.5488 88.972 89.5488 88.972 89.6341C89.0561 89.6341 89.0561 89.6341 89.0561 89.6341L89.1402 89.7195L89.2243 89.8049H89.3084C89.3084 89.8049 89.3084 89.8049 89.3925 89.8049H89.4766C89.4766 89.8049 89.4766 89.8049 89.4766 89.8902C89.4766 89.9756 89.4766 89.9756 89.4766 89.9756C89.4766 89.9756 89.4766 89.9756 89.4766 90.061V90.1463C89.4766 90.1463 89.5607 90.1463 89.6449 90.1463V90.2317C89.6449 90.2317 89.6449 90.2317 89.6449 90.3171C89.6449 90.3171 89.6449 90.3171 89.729 90.3171C89.729 90.3171 89.8131 90.3171 89.8131 90.4024C89.8131 90.4024 89.8131 90.4878 89.8972 90.5732C89.8972 90.5732 89.8972 90.5732 89.8972 90.6585C89.8972 90.6585 89.9813 90.6585 89.9813 90.5732C89.9813 90.5732 90.0654 90.4878 90.0654 90.5732C90.0654 90.5732 90.0654 90.5732 90.0654 90.6585H90.1495C90.1495 90.6585 90.1495 90.6585 90.2336 90.6585C90.2336 90.7439 90.2336 90.7439 90.2336 90.7439H90.3178C90.3178 90.7439 90.3178 90.7439 90.3178 90.8293C90.3178 90.8293 90.4019 90.9146 90.486 90.9146C90.5701 90.9146 90.5701 90.9146 90.5701 90.9146C90.5701 90.9146 90.5701 90.9146 90.6542 90.9146H90.7383C90.8224 90.9146 90.9065 90.9146 90.9065 91C90.9065 91 90.9907 91 91.1589 91H91.243H91.3271C91.3271 91 91.4112 91 91.4953 90.9146C91.5794 90.8293 91.5794 90.8293 91.5794 90.9146C91.6636 90.9146 91.6636 90.8293 91.6636 90.8293C91.7477 90.8293 91.7477 90.7439 91.8318 90.7439C91.8318 90.6585 91.8318 90.6585 91.8318 90.6585C91.8318 90.6585 91.8318 90.6585 91.9159 90.5732L92 90.4878V90.4024L91.9159 90.3171H91.8318C91.8318 90.3171 91.8318 90.3171 91.7477 90.3171L91.6636 90.2317L91.7477 90.1463C91.8318 90.1463 91.8318 90.1463 91.8318 90.061C91.9159 89.9756 91.9159 89.8902 91.9159 89.8902L91.7477 89.8049C91.6636 89.8049 91.6636 89.8049 91.5794 89.8049C91.4953 89.8049 91.4953 89.8049 91.4953 89.8049C91.4953 89.8049 91.4953 89.8049 91.4112 89.8049C91.4112 89.8049 91.3271 89.8049 91.243 89.8049C91.243 89.8049 91.243 89.8049 91.1589 89.8049C91.1589 89.8049 91.1589 89.7195 91.0748 89.7195C91.0748 89.7195 91.0748 89.7195 90.9907 89.7195C90.9907 89.7195 90.9907 89.7195 90.9065 89.6341L90.8224 89.5488C90.8224 89.5488 90.8224 89.5488 90.7383 89.5488H90.6542C90.6542 89.5488 90.6542 89.5488 90.5701 89.5488V89.4634L90.486 89.378C90.4019 89.2927 90.4019 89.2927 90.3178 89.2927C90.2336 89.2927 90.2336 89.2073 90.1495 89.2073C90.0654 89.2073 90.0654 89.2073 89.9813 89.2073C89.9813 89.2073 89.8972 89.2073 89.8972 89.122C89.8972 89.122 89.8972 89.122 89.8972 89.0366H89.9813C89.9813 88.9512 90.0654 88.9512 90.0654 88.8659C90.0654 88.8659 90.0654 88.7805 90.1495 88.7805L90.2336 88.6951C90.3178 88.6098 90.3178 88.5244 90.3178 88.439C90.3178 88.3537 90.3178 88.3537 90.2336 88.2683C90.2336 88.2683 90.1495 88.2683 90.0654 88.2683C90.0654 88.2683 90.0654 88.2683 89.9813 88.2683C89.9813 88.2683 89.9813 88.2683 89.8972 88.2683C89.8972 88.1829 89.8972 88.1829 89.8972 88.1829C89.8972 88.1829 89.8972 88.1829 89.8131 88.1829C89.729 88.1829 89.729 88.1829 89.729 88.2683H89.6449C89.729 89.0366 89.729 89.0366 89.729 89.0366C89.729 89.0366 89.729 89.122 89.6449 89.2073V89.2927C89.729 89.2927 89.729 89.2927 89.8131 89.2073H89.8972H89.9813L90.0654 89.122C90.0654 89.122 90.0654 89.122 90.0654 89.2073C89.9813 89.2927 89.9813 89.2927 89.9813 89.2927L89.8972 89.378C89.8972 89.378 89.8131 89.4634 89.729 89.4634C89.729 89.4634 89.729 89.4634 89.6449 89.4634H89.5607C89.5607 89.378 89.5607 89.378 89.5607 89.378C89.5607 89.378 89.5607 89.378 89.4766 89.378H89.3925H89.3084V89.2927L89.2243 89.2073L89.1402 89.122L89.0561 89.0366L88.972 88.9512H88.8878C88.8878 88.9512 88.8879 88.9512 88.8037 88.9512C88.7196 88.8659 88.7196 88.8659 88.7196 88.8659L88.5514 88.6951H88.8037C88.8037 88.6951 88.7196 88.6951 88.6355 88.6951H88.5514L88.4673 88.6098C88.4673 88.6098 88.3832 88.5244 88.4673 88.5244L88.3832 88.439V88.3537V88.2683L88.4673 88.1829L88.5514 88.0976C88.4673 88.0976 88.3832 88.0976 88.2991 88.1829C88.215 88.2683 88.215 88.2683 88.1308 88.2683H88.0467L87.9626 88.0122L87.8785 87.9268L87.7944 87.8415L87.7103 87.7561L87.6262 87.6707C87.6262 87.6707 87.6262 87.6707 87.6262 87.5854L87.7103 87.5C87.7103 87.5 87.7944 87.5 87.7944 87.4146V87.3293C87.7944 87.3293 87.7944 87.3293 87.8785 87.2439C87.8785 87.3293 87.9626 87.3293 87.8785 87.3293V87.2439C87.8785 87.2439 87.7944 87.1585 87.6262 87.0732C87.6262 87.1585 87.6262 87.0732 87.6262 87.0732ZM90.5701 89.6341C90.5701 89.7195 90.6542 89.7195 90.7383 89.7195V89.8049L90.6542 89.8902C90.6542 89.8902 90.6542 89.8902 90.6542 89.9756L90.7383 89.8902C90.7383 89.8902 90.7383 89.8902 90.7383 89.8049C90.7383 89.8049 90.7383 89.8049 90.7383 89.7195V89.6341V89.5488H90.6542C90.6542 89.5488 90.5701 89.5488 90.5701 89.6341ZM88.8037 88.0122H88.7196V88.0976H88.6355C88.6355 88.0976 88.5514 88.0976 88.5514 88.1829L88.4673 88.2683C88.5514 88.2683 88.5514 88.2683 88.6355 88.2683L88.8878 88.1829L88.972 88.0976C88.972 88.0976 88.972 88.0976 89.0561 88.0976H88.972C88.8879 88.0976 88.8878 88.0976 88.8878 88.0976C88.8878 88.0976 88.8878 88.0976 88.8878 88.0122C88.8878 88.0976 88.8879 88.0976 88.8037 88.0122ZM89.6449 88.6951C89.5607 88.7805 89.5607 88.7805 89.6449 88.6951C89.5607 88.7805 89.5607 88.7805 89.6449 88.6951C89.5607 88.7805 89.5607 88.7805 89.6449 88.6951ZM88.215 87.7561C88.2991 87.6707 88.2991 87.6707 88.215 87.6707C88.215 87.6707 88.215 87.6707 88.215 87.5854V87.5H88.0467L87.9626 87.5854C87.9626 87.5854 87.9626 87.5854 87.9626 87.6707C87.9626 87.6707 87.9626 87.6707 88.0467 87.6707C88.0467 87.6707 88.0467 87.6707 88.0467 87.7561C88.0467 87.7561 88.0467 87.7561 88.0467 87.8415C88.1308 87.7561 88.1308 87.7561 88.215 87.7561ZM88.3832 87.8415C88.3832 87.7561 88.3832 87.7561 88.3832 87.8415C88.2991 87.8415 88.215 87.8415 88.215 87.8415C88.215 87.8415 88.1308 87.8415 88.1308 87.9268V88.0122C88.1308 88.0122 88.215 88.0122 88.2991 88.0122C88.3832 87.9268 88.3832 87.8415 88.3832 87.8415ZM86.4486 86.9878C86.3645 86.9878 86.3645 86.9878 86.3645 86.9878V87.0732C86.3645 87.0732 86.3645 87.0732 86.3645 87.1585C86.3645 87.1585 86.3645 87.1585 86.3645 87.2439C86.2804 87.2439 86.2804 87.2439 86.2804 87.2439V87.1585H86.1963H86.1121H86.028V87.0732C86.028 87.0732 86.028 87.0732 86.1963 86.9878H86.2804H86.3645C86.3645 86.9878 86.4486 86.9878 86.4486 86.9024C86.4486 86.9024 86.3645 86.9024 86.3645 86.8171V86.7317C86.3645 86.7317 86.3645 86.7317 86.3645 86.6463L86.4486 86.561C86.5327 86.4756 86.5327 86.4756 86.4486 86.3902L86.2804 86.4756C86.3645 86.4756 86.3645 86.4756 86.4486 86.561V86.6463C86.4486 86.6463 86.4486 86.6463 86.4486 86.7317L86.3645 86.8171L86.4486 86.9024C86.5327 86.8171 86.6168 86.8171 86.6168 86.8171C86.7009 86.8171 86.7009 86.7317 86.7009 86.8171C86.7009 86.8171 86.7009 86.8171 86.785 86.8171C86.785 86.8171 86.785 86.8171 86.8692 86.8171C86.8692 86.8171 86.8692 86.8171 86.8692 86.9024H86.785H86.7009H86.6168C86.6168 87.0732 86.5327 87.0732 86.4486 86.9878C86.5327 87.0732 86.4486 86.9878 86.4486 86.9878ZM85.6075 86.3902C85.6075 86.3049 85.6075 86.3049 85.6075 86.3049C85.6075 86.3049 85.6075 86.3049 85.6916 86.2195L85.7757 86.1341H85.8598C85.8598 86.1341 85.8598 86.1341 85.9439 86.1341H86.028C86.028 86.1341 86.028 86.1341 86.028 86.2195C85.9439 86.3049 85.9439 86.3049 85.9439 86.3049C85.9439 86.3049 85.8598 86.3049 85.7757 86.3902C85.6916 86.4756 85.6916 86.4756 85.6075 86.3902C85.6075 86.4756 85.6075 86.4756 85.6075 86.3902C85.6075 86.4756 85.6075 86.4756 85.6075 86.3902H85.6916C85.6916 86.3049 85.6916 86.3049 85.6075 86.3902C85.6916 86.3902 85.6916 86.3902 85.6075 86.3902ZM87.4579 87.5854C87.4579 87.6707 87.3738 87.6707 87.3738 87.6707C87.3738 87.5854 87.3738 87.5 87.4579 87.5854C87.3738 87.5 87.4579 87.5 87.4579 87.5854ZM86.6168 86.8171C86.6168 86.8171 86.7009 86.8171 86.6168 86.8171V86.8171ZM84.8505 86.2195C84.8505 86.2195 84.8505 86.1341 84.8505 86.2195C84.8505 86.1341 84.8505 86.1341 84.8505 86.2195C84.8505 86.1341 84.9346 86.1341 85.0187 86.1341C85.0187 86.1341 85.0187 86.1341 85.1028 86.1341C85.1869 86.1341 85.1869 86.1341 85.1869 86.0488H85.271C85.271 86.0488 85.271 86.1341 85.1869 86.1341C85.1869 86.1341 85.1869 86.1341 85.271 86.1341C85.271 86.1341 85.3551 86.1341 85.3551 86.2195C85.3551 86.2195 85.3551 86.2195 85.271 86.2195C85.3551 86.2195 85.3551 86.2195 85.4393 86.2195H85.5234C85.5234 86.2195 85.5234 86.2195 85.6075 86.2195C85.6916 86.2195 85.6916 86.2195 85.6916 86.2195C85.6916 86.2195 85.6916 86.2195 85.7757 86.2195C85.7757 86.2195 85.6916 86.2195 85.6916 86.3049C85.6075 86.3049 85.5234 86.3902 85.5234 86.3049L85.4393 86.3902H85.3551C85.3551 86.3902 85.3551 86.3902 85.3551 86.3049L85.4393 86.2195C85.5234 86.2195 85.5234 86.2195 85.5234 86.2195C85.4393 86.2195 85.3551 86.2195 85.3551 86.2195C85.3551 86.2195 85.3551 86.2195 85.271 86.2195C85.1028 86.2195 85.0187 86.2195 84.8505 86.2195C84.9346 86.2195 84.9346 86.2195 84.8505 86.2195ZM85.6916 86.2195C85.6916 86.1341 85.6916 86.1341 85.6916 86.2195V86.2195ZM88.972 89.2927C88.8879 89.2927 88.8879 89.2927 88.972 89.2073V89.2927ZM88.1308 88.6951C88.1308 88.6098 88.215 88.6098 88.1308 88.6951C88.215 88.6098 88.2991 88.6098 88.2991 88.6951H88.1308ZM85.7757 86.9878C85.6916 87.0732 85.6916 87.0732 85.6916 87.0732L85.7757 86.9878C85.6916 86.9878 85.6916 86.9878 85.7757 86.9878ZM85.1869 84.6829H85.1028C85.1028 84.5976 85.1028 84.5976 85.1869 84.6829C85.1028 84.5976 85.1869 84.5976 85.1869 84.6829ZM84.9346 86.3902C84.9346 86.4756 85.0187 86.4756 85.0187 86.4756C85.0187 86.4756 85.0187 86.4756 84.9346 86.4756C84.9346 86.4756 84.9346 86.4756 84.8505 86.4756C84.8505 86.4756 84.7664 86.4756 84.6822 86.4756C84.6822 86.4756 84.6822 86.4756 84.5981 86.4756C84.5981 86.4756 84.5981 86.4756 84.6822 86.4756H84.7664C84.7664 86.4756 84.7664 86.4756 84.8505 86.4756C84.8505 86.3902 84.8505 86.3902 84.9346 86.3902C84.8505 86.3902 84.9346 86.3902 84.9346 86.3902ZM86.9533 88.439C86.8692 88.439 86.8692 88.439 86.9533 88.439C86.8692 88.5244 86.8692 88.5244 86.8692 88.439C86.8692 88.439 86.8692 88.439 86.8692 88.3537L86.9533 88.439ZM84.8505 84.7683C84.9346 84.8537 84.9346 84.8537 84.8505 84.7683C84.9346 84.8537 84.8505 84.8537 84.8505 84.7683ZM84.5981 86.2195L84.514 86.3049C84.5981 86.1341 84.5981 86.1341 84.5981 86.2195C84.5981 86.1341 84.5981 86.2195 84.5981 86.2195ZM86.7009 88.1829L86.785 88.2683L86.7009 88.3537C86.6168 88.3537 86.6168 88.3537 86.6168 88.3537L86.5327 88.2683C86.5327 88.2683 86.5327 88.2683 86.5327 88.1829C86.6168 88.0976 86.6168 88.0976 86.5327 88.0976C86.5327 88.1829 86.6168 88.1829 86.7009 88.1829C86.6168 88.1829 86.6168 88.1829 86.7009 88.1829ZM85.5234 80.9268C85.5234 80.9268 85.4393 80.8415 85.5234 80.9268L85.4393 80.8415H85.5234V80.9268ZM86.4486 88.439C86.4486 88.5244 86.3645 88.5244 86.4486 88.439V88.439ZM87.9626 89.9756C87.8785 89.9756 87.9626 89.9756 87.9626 89.9756V89.9756ZM84.4299 83.5732L84.514 83.6585L84.4299 83.4878V83.5732C84.514 83.5732 84.514 83.5732 84.4299 83.5732ZM83.6729 85.2805C83.5888 85.2805 83.5888 85.2805 83.6729 85.2805C83.6729 85.2805 83.5888 85.2805 83.6729 85.2805C83.5888 85.1951 83.6729 85.1951 83.6729 85.2805ZM83.6729 83.4024H83.5888L83.5047 83.2317C83.5888 83.2317 83.6729 83.3171 83.6729 83.4024ZM83.6729 79.9878H83.5888C83.5888 79.9878 83.5888 79.9878 83.6729 79.9878C83.5888 79.9878 83.5888 79.9878 83.6729 79.9878Z" fill="#3E78FE"/>
<circle cx="44.5" cy="45.5" r="19" stroke="black" stroke-width="3"/>
</svg>
