<svg width="139" height="157" viewBox="0 0 139 157" fill="none" xmlns="http://www.w3.org/2000/svg">
<rect x="74" y="76" width="39" height="37" fill="#5689FE"/>
<rect x="74" y="66" width="41" height="62" rx="3" stroke="black" stroke-width="4"/>
<line x1="74" y1="113" x2="114" y2="113" stroke="black" stroke-width="4"/>
<line x1="74" y1="77" x2="114" y2="77" stroke="black" stroke-width="4"/>
<circle cx="94.5" cy="120.5" r="2.5" fill="black"/>
<circle cx="26.5" cy="35.5" r="24.5" fill="#5689FE" stroke="black" stroke-width="4"/>
<circle cx="26.5" cy="26.5" r="24.5" fill="white" stroke="black" stroke-width="4"/>
<path d="M31.3965 32.3203C31.3965 31.3242 31.0801 30.5039 30.4473 29.8594C29.8145 29.2031 28.7598 28.6172 27.2832 28.1016C25.8066 27.5742 24.6582 27.0879 23.8379 26.6426C21.1074 25.1777 19.7422 23.0098 19.7422 20.1387C19.7422 18.1934 20.334 16.5938 21.5176 15.3398C22.7012 14.0859 24.3066 13.3418 26.334 13.1074V9.27539H29.1465V13.1426C31.1855 13.4355 32.7617 14.3027 33.875 15.7441C34.9883 17.1738 35.5449 19.0371 35.5449 21.334H31.291C31.291 19.8574 30.957 18.6973 30.2891 17.8535C29.6328 16.998 28.7363 16.5703 27.5996 16.5703C26.4746 16.5703 25.5957 16.875 24.9629 17.4844C24.3301 18.0938 24.0137 18.9668 24.0137 20.1035C24.0137 21.123 24.3242 21.9434 24.9453 22.5645C25.5781 23.1738 26.6445 23.7539 28.1445 24.3047C29.6445 24.8555 30.8223 25.3652 31.6777 25.834C32.5332 26.3027 33.2539 26.8418 33.8398 27.4512C34.4258 28.0488 34.877 28.7402 35.1934 29.5254C35.5098 30.3105 35.668 31.2305 35.668 32.2852C35.668 34.2656 35.0586 35.8711 33.8398 37.1016C32.6328 38.332 30.9453 39.0586 28.7773 39.2812V42.709H25.9824V39.2988C23.6621 39.041 21.875 38.209 20.6211 36.8027C19.3789 35.3965 18.7578 33.5332 18.7578 31.2129H23.0293C23.0293 32.6895 23.3984 33.832 24.1367 34.6406C24.8867 35.4492 25.9414 35.8535 27.3008 35.8535C28.6367 35.8535 29.6504 35.5312 30.3418 34.8867C31.0449 34.2422 31.3965 33.3867 31.3965 32.3203Z" fill="black"/>
<g clip-path="url(#clip0_982_163)">
<path d="M100.9 34.4C101 34.5 101 34.5 100.9 34.4C101 34.5 101 34.6 101 34.6V34.7C101 34.7 101.1 34.8 101.2 34.8C101.3 34.8 101.3 34.7 101.2 34.6C101.2 34.5 101.2 34.5 101.2 34.4C101.2 34.3 101.2 34.3 101.2 34.3L100.9 34H100.8C100.8 34.2 100.8 34.3 100.9 34.4Z" fill="#3E78FE"/>
<path d="M104.4 44.8001V44.6001C104.3 44.6001 104.3 44.6001 104.4 44.8001C104.3 44.7001 104.3 44.7001 104.4 44.8001Z" fill="#3E78FE"/>
<path d="M101.1 35.1001C101.1 35.2001 101.1 35.2001 101.1 35.1001C101.1 35.3001 101.2 35.4001 101.3 35.4001C101.4 35.4001 101.4 35.4001 101.5 35.4001V35.3001C101.5 35.2001 101.4 35.2001 101.3 35.1001H101.2C101.2 35.1001 101.2 35.1001 101.1 35.1001Z" fill="#3E78FE"/>
<path d="M104 43.2V43.4C104 43.5 104.1 43.6999 104.2 43.7999C104.2 43.8999 104.2 44 104.1 44H104C104 44 104 43.9999 104 44.0999V44.2L104.1 44.2999C104.1 44.2999 104.1 44.3 104.1 44.2C104.1 44.2 104.1 44.0999 104.2 44.0999L104.3 44L104.4 43.9V43.7999C104.4 43.6999 104.3 43.6999 104.3 43.5999V43.5V43.4V43.2999C104.2 43.2999 104.2 43.2 104 43.2Z" fill="#3E78FE"/>
<path d="M101.7 36.8999C101.8 36.9999 101.9 37.0999 101.9 37.0999L102.3 37.3999H102.4H102.5V37.2999L102.4 37.1999L102.3 37.0999C102.2 37.0999 102.2 36.9999 102.1 36.8999C102.1 36.7999 102.1 36.7999 102.1 36.7999C102.1 36.7999 102.1 36.6999 102.1 36.5999L102 36.4999C101.9 36.3999 101.9 36.3999 101.8 36.3999C101.8 36.3999 101.8 36.4999 101.8 36.6999V36.7999H101.7H101.6H101.5L101.7 36.8999Z" fill="#3E78FE"/>
<path d="M100.5 39.1001C100.6 39.1001 100.6 39.1001 100.6 39.2001L100.5 39.1001C100.6 39.1001 100.6 39.1001 100.5 39.1001Z" fill="#3E78FE"/>
<path d="M104.6 47.7C104.5 47.6 104.5 47.5 104.5 47.3C104.4 47.2 104.4 47.2 104.4 47.1C104.4 47 104.4 47 104.4 46.9C104.4 46.8 104.4 46.7 104.3 46.6V46.5V46.4V46.3C104.3 46.2 104.3 46.1 104.3 45.9C104.3 45.8 104.3 45.8 104.3 45.8V45.7C104.3 45.6 104.3 45.5 104.3 45.4C104.3 45.3 104.3 45.2 104.3 45.1H104.2V45.2C104.2 45.2 104.2 45.2 104.2 45.3C104.2 45.3 104.2 45.3 104.1 45.3C104.1 45.3 104.1 45.3 104 45.3V45.2C104 45.1 104 45.1 104 45.1V45C104 44.9 104 44.9 104 44.8V44.6C104 44.4 103.9 44.3 103.9 44.2C103.9 44.1 103.8 43.9 103.8 43.7C103.7 43.6 103.7 43.5 103.7 43.4C103.7 43.3 103.7 43.2 103.6 43.1C103.6 43 103.6 43 103.6 43H103.7C103.8 42.9 103.8 42.9 103.8 42.8L103.9 42.7H104C104.1 42.7 104.2 42.6 104.2 42.3C104.2 42.1 104.2 42 104.2 41.9C104.2 41.8 104.1 41.7 104 41.6V41.5C104 41.4 104 41.4 103.9 41.4C103.9 41.4 103.9 41.3 103.8 41.3V41.2C103.8 41.1 103.8 41.1 103.8 41V40.9C103.8 40.9 103.8 40.9 103.8 40.8V40.7C103.8 40.7 103.8 40.7 103.8 40.6C103.8 40.5 103.8 40.5 103.7 40.5C103.6 40.4 103.6 40.4 103.6 40.4C103.6 40.4 103.5 40.4 103.5 40.3C103.4 40.3 103.4 40.3 103.4 40.4C103.4 40.5 103.4 40.6 103.3 40.6C103.3 40.6 103.2 40.7 103.3 40.7C103.4 40.8 103.4 40.8 103.5 40.8C103.6 40.8 103.6 40.9 103.6 41V41.1C103.6 41.1 103.6 41.1 103.6 41.2C103.6 41.2 103.7 41.3 103.7 41.4L103.9 41.5C103.9 41.6 103.9 41.6 103.9 41.6C103.8 41.6 103.8 41.7 103.8 41.7V41.8V41.9H103.7C103.6 41.9 103.6 41.9 103.5 41.8C103.5 41.7 103.5 41.7 103.4 41.6C103.4 41.6 103.3 41.5 103.3 41.4C103.4 41.3 103.4 41.3 103.4 41.2C103.4 41.2 103.4 41.1 103.3 41.1C103.3 41 103.2 41 103.2 40.9C103.1 40.8 103.1 40.8 103.1 40.7V40.6V40.5L103 40.1V39.9L102.9 39.7L102.8 39.4V39.3C102.8 39.2 102.7 39.2 102.7 39.1V39C102.7 39 102.7 39 102.7 38.9C102.7 38.8 102.6 38.8 102.6 38.8C102.6 38.8 102.6 38.8 102.5 38.8V38.7C102.4 38.5 102.4 38.4 102.3 38.3L102.1 37.8L102 37.9V37.8V37.7C102 37.6 101.9 37.6 101.8 37.5L101.7 37.4L101.6 37.2C101.6 37.1 101.5 37 101.6 36.9L101.5 36.6L101.4 36.5V36.4C101.4 36.3 101.4 36.3 101.4 36.2C101.4 36.1 101.4 36.1 101.5 36.1C101.5 36.1 101.6 36.1 101.6 36H101.7V35.9C101.5 35.8 101.4 35.7 101.3 35.6C101.2 35.6 101.1 35.5 101.1 35.5C101.1 35.4 101 35.4 101 35.3L100.9 35.1C100.8 35 100.8 34.9 100.8 34.8C100.8 34.7 100.7 34.6 100.6 34.4L100.5 34.1C100.4 34 100.4 33.9 100.3 33.8H100.2V33.7H100.3C100.3 33.8 100.4 33.8 100.4 33.7C100.4 33.7 100.5 33.6 100.4 33.6C100.4 33.6 100.4 33.6 100.5 33.5C100.6 33.5 100.7 33.5 100.6 33.5C100.6 33.5 100.6 33.4 100.6 33.3C100.5 33.1 100.4 32.9 100.2 32.7C100.1 32.6 100.1 32.5 100 32.5C99.9 32.4 99.9 32.4 99.9 32.3C99.8 32.2 99.8 32.1 99.7 32H99.6V32.1C99.6 32.2 99.7 32.3 99.7 32.5L99.8 32.6C99.9 32.7 99.9 32.9 99.9 33H99.8H99.7C99.7 33 99.6 33 99.6 32.9C99.6 32.9 99.6 32.9 99.6 32.8C99.6 32.8 99.6 32.8 99.6 32.7C99.6 32.7 99.6 32.7 99.6 32.6C99.6 32.5 99.5 32.5 99.5 32.5C99.4 32.5 99.4 32.4 99.3 32.3C99.3 32.3 99.3 32.2 99.2 32.2V32.1V32C99.2 32 99.2 32 99.2 31.9C99.2 31.9 99.2 31.8 99.2 31.7C99.2 31.7 99.2 31.7 99.1 31.7H99V31.6H99.1H99.2C99.2 31.6 99.3 31.6 99.4 31.6C99.4 31.6 99.4 31.6 99.5 31.6V31.5L99.4 31.4C99.3 31.3 99.2 31.2 99.2 31.1C99.1 30.9 99 30.7 98.9 30.6L98.7 30.4H98.6V30.3C98.5 30.2 98.5 30.1 98.5 30C98.5 29.9 98.3 29.8 98.2 29.7C98.1 29.6 98 29.5 97.9 29.4L97.7 29.2C97.7 29.1 97.6 29.1 97.6 29C97.5 28.9 97.5 28.9 97.4 28.9V28.8C97.4 28.7 97.3 28.7 97.3 28.7C97.3 28.7 97.3 28.6 97.2 28.6L97.1 28.5C97.1 28.5 97 28.4 96.9 28.4L96.7 28L96.5 27.8L96.4 27.7C96.4 27.6 96.3 27.6 96.3 27.6C96.3 27.6 96.3 27.5 96.2 27.5C96.2 27.5 96.2 27.4 96.1 27.4H96C95.9 27.4 95.8 27.3 95.8 27.3L95.7 27.2C95.7 27.1 95.7 27.1 95.7 27C95.6 26.9 95.6 26.9 95.5 26.9L95.4 26.8C95.4 26.8 95.4 26.8 95.3 26.8C95.3 26.8 95.3 26.8 95.2 26.8C95.2 26.8 95.2 26.7 95.1 26.7L95 26.6C94.8 26.5 94.7 26.5 94.6 26.4C94.6 26.4 94.6 26.3 94.5 26.3C94.5 26.3 94.5 26.2 94.4 26.2L94.5 26L94.4 25.9C94.4 25.9 94.3 25.9 94.3 25.8V25.7H94.2H94.1L94 25.6V25.5C93.9 25.4 93.9 25.4 93.9 25.3V25.2H93.8H93.7L93.4 25C93.4 25 93.3 25 93.3 24.9L93.2 24.8C93.2 24.8 93.2 24.7 93.1 24.7H93C93 24.7 92.9 24.6 93 24.6V24.5L92.9 24.4L92.8 24.3C92.8 24.2 92.7 24.2 92.7 24.2C92.7 24.2 92.6 24.1 92.5 24.1H92.4C92.3 24 92.2 23.9 92.1 23.8C92 23.8 92 23.7 91.9 23.7C91.9 23.6 91.8 23.6 91.7 23.5C91.6 23.4 91.5 23.3 91.3 23.3C91.1 23.2 91 23.2 90.8 23.1C90.6 23 90.5 22.9 90.3 22.8C90.3 22.8 90.3 22.8 90.2 22.8C90.2 22.8 90.2 22.8 90.1 22.8C90.1 22.8 90 22.7 90 22.6C89.9 22.5 89.8 22.5 89.7 22.5C89.6 22.4 89.6 22.4 89.6 22.4V22.3H89.5H89.3C89.2 22.2 89 22.1 88.7 22C88.6 21.9 88.5 21.9 88.5 21.8V21.7C88.5 21.6 88.5 21.5 88.4 21.5H88.3C88.3 21.5 88.3 21.5 88.2 21.5L88 21.4V21V21.1C88 21.1 88 21.1 88.1 21.2H88H87.9H87.8C87.7 21.2 87.7 21.1 87.7 21.1C87.7 21.1 87.7 21 87.6 21L87.7 20.9H87.6C87.6 20.9 87.6 20.9 87.5 20.9C87.2 20.9 87.1 20.8 87 20.8C87 20.8 87 20.8 86.9 20.7C86.9 20.7 86.9 20.7 86.8 20.6C86.7 20.5 86.7 20.5 86.6 20.6C86.6 20.6 86.5 20.6 86.4 20.5V20.4L86 19.9C85.9 19.9 85.9 19.8 85.9 19.8C85.8 19.8 85.7 19.8 85.5 19.7C85.5 19.7 85.5 19.7 85.4 19.7C85.4 19.7 85.4 19.7 85.3 19.7C85.2 19.7 85.2 19.7 85.1 19.7C84.8 19.6 84.6 19.5 84.4 19.4C84.2 19.3 84 19.2 83.7 19.1C83.7 19.1 83.7 19.1 83.7 19L83.6 18.9H83.5V19L83.6 19.1C83.6 19.1 83.5 19.1 83.4 19.1V18.9C83.4 18.9 83.4 18.9 83.3 18.9C83.3 18.9 83.3 18.9 83.2 18.8C83.1 18.8 83.1 18.8 83 18.7C82.9 18.7 82.9 18.6 82.8 18.6H82.7C82.6 18.6 82.6 18.6 82.5 18.5C82.4 18.5 82.3 18.5 82.3 18.4C82.2 18.4 82.2 18.3 82.1 18.3C81.9 18.3 81.8 18.3 81.6 18.2C81.4 18.1 81.3 18.1 81.1 18.1C81 18.1 80.9 18.1 80.8 18.1C80.7 18.2 80.6 18.2 80.5 18.1C80.4 18.1 80.4 18 80.4 18C80.4 17.9 80.3 17.9 80.2 17.8C80.1 17.8 80 17.7 79.9 17.7H79.8C79.8 17.7 79.8 17.7 79.7 17.7C79.6 17.7 79.5 17.7 79.5 17.7C79.4 17.7 79.4 17.7 79.3 17.7C79.2 17.7 79.1 17.7 79 17.7C78.9 17.7 78.8 17.7 78.7 17.6C78.6 17.6 78.6 17.6 78.5 17.5C78.5 17.5 78.4 17.5 78.3 17.4C78.2 17.4 78.1 17.4 77.8 17.4H77.7L77.2 17.3C77.1 17.3 77 17.3 77 17.3C76.9 17.3 76.9 17.3 76.8 17.3C76.5 17.2 76.2 17.2 75.8 17.2H75.7H75.6H75.5C75.4 17.2 75.3 17.2 75.3 17.2H74.8V17.1H74.9H75.1C75.1 17 75.1 17 75.2 16.9C75.3 16.8 75.3 16.8 75.4 16.8H75.5V16.7C75.5 16.7 75.5 16.7 75.4 16.7C75.2 16.6 75.2 16.5 75.2 16.6C75.2 16.6 75.2 16.6 75.1 16.6L75 16.5V16.4H75.1C75.1 16.4 75.1 16.4 75.2 16.4V16.3C75.2 16.3 75.2 16.3 75.2 16.2C75.2 16.2 75.2 16.2 75.2 16.1C75.2 16.1 75.2 16.1 75.2 16H75.3C75.3 16 75.4 16 75.5 16H75.6C75.6 16 75.6 16 75.6 15.9C75.6 15.9 75.6 15.9 75.7 15.9H75.8L75.9 16C75.9 16.1 75.9 16.2 75.9 16.3L75.4 16.2C75.4 16.3 75.4 16.4 75.4 16.4V16.5H75.5C75.6 16.5 75.7 16.5 75.7 16.4C75.7 16.4 75.8 16.4 75.8 16.3C75.8 16.3 75.9 16.3 75.9 16.2C76 16.3 76.2 16.2 76.2 16.1C76.2 16 76.2 16 76.2 16C76.2 16 76.2 16 76.1 15.9C76 15.9 76 15.8 76 15.8C76 15.8 76 15.8 76 15.7C76 15.7 76 15.7 75.9 15.6C75.8 15.6 75.8 15.6 75.7 15.6C75.7 15.6 75.6 15.6 75.6 15.5V15.4H75.7C75.7 15.4 75.8 15.4 75.8 15.3L75.9 15.2C76 15.2 76 15.2 76 15.1L76.1 15L76.2 14.9C76.2 14.9 76.3 14.9 76.3 14.8C76.3 14.8 76.4 14.8 76.5 14.8C76.6 14.8 76.7 14.9 76.9 14.9V14.8C76.9 14.8 76.9 14.7 76.8 14.7L76.7 14.6C76.7 14.5 76.7 14.5 76.7 14.5L76.8 14.4L76.9 14.3C76.9 14.2 76.9 14.2 76.9 14.1L77 14H77.1C77.2 14 77.3 14 77.3 14C77.3 14 77.3 14 77.3 13.9C77.3 13.9 77.3 13.9 77.3 13.8L77.4 13.7L77.6 13.5C77.6 13.5 77.7 13.5 77.8 13.4V13.3C77.8 13.3 77.8 13.3 77.9 13.3H78C78 13.3 78 13.3 78 13.2L78.1 13.1L78.2 13L78.3 12.9L78.4 12.7V12.6C78.4 12.6 78.5 12.6 78.6 12.6C78.7 12.6 78.7 12.6 78.7 12.6H78.8C78.8 12.6 78.8 12.5 78.7 12.4H78.8H78.9C79 12.4 79.1 12.5 79.1 12.5L79.2 12.6C79.2 12.6 79.2 12.7 79.3 12.8C79.3 12.8 79.3 12.8 79.3 12.9L79.1 12.8C79 12.8 79 12.8 78.9 12.8C78.9 12.8 78.8 12.8 78.7 12.8C78.8 13 78.7 13 78.6 12.9V13C78.7 13.1 78.7 13.2 78.7 13.2C78.7 13.2 78.7 13.3 78.8 13.3H78.9C78.9 13.3 79 13.3 79.1 13.4H79.2V13.3C79.2 13.3 79.2 13.3 79.2 13.2C79.2 13.2 79.2 13.2 79.3 13.2C79.3 13.2 79.3 13.2 79.4 13.2C79.5 13.2 79.6 13.2 79.6 13.2C79.6 13.2 79.6 13.1 79.7 13C79.7 12.9 79.6 12.7 79.5 12.7L79.4 12.6L79.3 12.5C79.3 12.5 79.3 12.4 79.2 12.3H79.1C79.1 12.3 79.1 12.3 79.1 12.2C79.2 12.2 79.2 12.2 79.2 12.1C79.2 12.1 79.3 12 79.4 12C79.5 11.9 79.5 11.9 79.6 11.8C79.7 11.8 79.7 11.7 79.8 11.7L79.9 11.6C79.9 11.5 79.9 11.5 79.9 11.5C79.9 11.5 79.9 11.5 80 11.5C80 11.5 80 11.5 80.1 11.5H80.2C80.2 11.5 80.2 11.5 80.2 11.6C80.2 11.6 80.2 11.6 80.2 11.7H80.3H80.4C80.4 11.7 80.4 11.6 80.5 11.6L80.6 11.5C80.6 11.5 80.6 11.5 80.7 11.5C80.7 11.5 80.7 11.5 80.8 11.5C80.8 11.5 80.9 11.4 80.9 11.3C80.9 11.3 80.9 11.3 80.9 11.2C80.9 11.2 80.9 11.2 80.9 11.1C80.9 11.1 80.9 11.1 81 11.1C81.1 11.1 81.2 11.1 81.2 11H81.3H81.4C81.4 11 81.5 10.9 81.6 10.9L81.8 10.8C81.9 10.7 81.8 10.7 81.7 10.5C81.7 10.5 81.6 10.5 81.6 10.4L81.5 10.3L81.6 10.2H81.7C81.7 10.2 81.7 10.2 81.8 10.2L81.5 10C81.5 9.9 81.5 9.9 81.5 9.9C81.5 9.9 81.4 9.8 81.3 9.8L81.2 9.7C81.2 9.7 81.2 9.7 81.2 9.6C81.2 9.6 81.2 9.6 81.2 9.5V9.4H81.1C81 9.3 80.9 9.3 80.9 9.3C80.9 9.3 80.8 9.3 80.7 9.2C80.7 9.2 80.7 9.2 80.6 9.2C80.6 9.2 80.5 9.2 80.4 9.2C80.3 9 80.3 9 80.2 9C80.2 9 80.1 9.1 80.1 9C80.1 9 80 9 80 9.1C79.8 9.1 79.7 9 79.7 9.1C79.7 9.1 79.6 9.2 79.5 9.2H79.4C79.4 9.2 79.4 9.2 79.3 9.2C79.3 9.2 79.3 9.2 79.2 9.2C79.2 9.2 79.2 9.2 79.2 9.3C79.2 9.3 79.1 9.3 79 9.3C78.9 9.3 78.8 9.3 78.8 9.4C78.8 9.5 78.8 9.5 78.8 9.5H78.7V9.6H78.6H78.5C78.5 9.6 78.5 9.6 78.5 9.7V9.8C78.5 9.8 78.5 9.8 78.4 9.8C78.3 10.2 78.2 10.1 78.2 10.2C78.2 10.2 78.2 10.2 78.2 10.3C78.1 10.3 78.1 10.4 78.1 10.4C78 10.5 78 10.5 78 10.5C78 10.5 77.9 10.5 77.9 10.6V10.7V10.8C77.8 10.8 77.7 10.7 77.7 10.8V10.9C77.7 11 77.7 11 77.7 11V11.1V11.2H77.6H77.5C77.5 11.2 77.5 11.2 77.4 11.2L77.2 11.4C77.1 11.4 77.1 11.4 77 11.5C77 11.5 77 11.5 77 11.6C77 11.6 77 11.6 77 11.7H76.9C76.9 11.7 76.9 11.7 76.9 11.8C76.9 11.8 77 11.9 76.9 11.9H76.8V11.7H76.7L76.6 11.8V11.9C76.6 11.9 76.7 11.9 76.7 12V12.1C76.7 12.1 76.6 12.1 76.5 12.1C76.4 12.1 76.4 12.1 76.4 12.1C76.4 12.1 76.4 12.1 76.4 12.2C76.4 12.2 76.4 12.2 76.4 12.3H76.3H76.2C76.2 12.3 76.2 12.4 76.2 12.5H76.1C76.1 12.5 76 12.6 76 12.5H75.9C75.9 12.5 75.9 12.6 76 12.7V12.8H75.9L75.7 12.9L75.6 13C75.6 13 75.6 13.1 75.7 13.2C75.6 13.2 75.6 13.3 75.5 13.3L75.4 13.4L75.3 13.5H75.1C75 13.5 74.9 13.5 74.8 13.4H74.7V13.5L74.8 13.6C74.7 13.6 74.7 13.6 74.6 13.7L74.5 13.8V13.9V14H74.6C74.6 14 74.6 14 74.7 14C74.7 14 74.7 14 74.8 14C74.8 14 74.8 14 74.8 14.1H74.7C74.7 14.1 74.6 14.1 74.5 14.1C74.4 14.1 74.4 14.1 74.3 14.1V14.2H74.2C74.1 14.2 74 14.2 74 14.3V14.4C73.9 14.6 73.7 14.7 73.5 14.6L73.4 14.7C73.4 14.7 73.3 14.7 73.2 14.7H73.1C73.1 14.7 73.1 14.8 73.2 14.8C73.2 14.8 73.2 14.8 73.2 14.9C73.2 14.9 73.1 14.9 73.1 15H73C73 15 72.9 15 72.8 15H72.7V15.1H72.6V15.2C72.6 15.2 72.5 15.3 72.4 15.3C72.4 15.3 72.4 15.4 72.5 15.4C72.5 15.5 72.5 15.5 72.5 15.5C72.4 15.6 72.5 15.6 72.5 15.7L72.4 15.9H72.3C72.3 15.9 72.2 15.9 72.1 15.9H72C72 15.9 72 16 72.1 16.1C72.2 16.1 72.2 16.2 72.2 16.2C72.1 16.2 72.1 16.2 72 16.3C72 16.3 71.9 16.3 71.8 16.3H71.7C71.7 16.3 71.7 16.3 71.7 16.4L71.6 16.5C71.6 16.5 71.6 16.5 71.5 16.5V16.6H71.3H71.2C71.2 16.6 71.2 16.6 71.2 16.5H71C71.1 16.5 71.1 16.6 71.1 16.6L71 16.7C71 16.7 71 16.7 71 16.8C71 16.8 71 16.8 70.9 16.8C70.8 16.8 70.8 16.8 70.8 16.8C70.8 16.8 70.8 16.8 70.7 16.8V16.9C70.7 17 70.7 17 70.7 17C70.7 17 70.6 17.1 70.5 17.1C70.4 17.3 70.3 17.3 70.3 17.3C70.2 17.3 70.1 17.4 70.1 17.4C70.1 17.4 70.1 17.4 70.2 17.5C70.1 17.5 70.1 17.5 70.1 17.5C70.1 17.6 69.9 17.6 69.7 17.6H69.6H69.7H69.8C69.8 17.6 69.7 17.6 69.7 17.7C69.6 17.7 69.5 17.7 69.4 17.8C69.3 17.8 69.3 17.8 69.3 17.8H69.2L69 18H69.1H69.3H69.4H69.5C69.5 18.1 69.4 18.1 69.4 18.1C69.4 18.1 69.3 18.1 69.2 18.1H69.1C69.1 18.1 69.1 18.1 69 18.1C69 18.1 69 18.1 69.1 18.1H69.3H69.4H69.5C69.6 18.1 69.6 18.2 69.7 18.2V18.3C69.7 18.3 69.7 18.4 69.8 18.4C69.7 18.7 69.7 18.7 69.7 18.7C69.6 18.8 69.6 18.8 69.7 18.9L69.8 19.1L69.9 19.2C69.9 19.2 69.9 19.2 69.9 19.3C69.9 19.3 69.9 19.3 70 19.3C70.1 19.3 70.1 19.3 70.1 19.3C70.2 19.4 70.3 19.4 70.2 19.4C70.3 19.4 70.3 19.4 70.3 19.5C70.3 19.5 70.4 19.5 70.5 19.5V19.6C70.6 19.6 70.7 19.7 70.7 19.7C70.7 19.7 70.8 19.8 70.8 19.9L70.7 20H70.6V19.9C70.6 19.9 70.6 20 70.5 20H70.4C70.4 20.1 70.5 20.2 70.5 20.2C70.6 20.3 70.6 20.4 70.6 20.5C70.6 20.6 70.7 20.7 70.8 20.8L71 21.1H71.1V21.2C71.1 21.3 71.1 21.3 71.2 21.3L71.3 21.4L71.4 21.5C71.5 21.5 71.5 21.6 71.5 21.7L71.6 21.8C71.6 21.8 71.6 21.9 71.7 21.9C71.7 21.9 71.7 22 71.8 22C71.8 22 71.8 22 71.9 22C71.9 22 71.9 22 72 22C72 22 72 22 72 22.1H72.1C72.1 22.1 72.1 22 72.2 22H72V21.8L72.1 22V22.1L72 22.4C72 22.4 72 22.4 72 22.5C72 22.5 72 22.5 72 22.6C72 22.6 72 22.6 72.1 22.6V22.5C72.1 22.5 72.1 22.4 72.2 22.4C72.2 22.3 72.2 22.3 72.2 22.3C72.2 22.3 72.2 22.3 72.3 22.2V22.3V22.4C72.3 22.4 72.3 22.4 72.3 22.5C72.2 22.6 72.2 22.6 72.2 22.6H72.3V22.5C72.3 22.5 72.3 22.5 72.3 22.6C72.3 22.7 72.2 22.7 72.2 22.8C72.2 22.8 72.2 22.8 72.2 22.9V23H72.3C72.3 23 72.3 23 72.3 23.1V23.2C72.3 23.3 72.3 23.3 72.4 23.3L72.6 23.6C72.6 23.7 72.7 23.8 72.7 23.8C72.8 23.8 72.8 23.8 72.9 23.8C72.9 23.8 73 23.9 73 24C73 24.1 73 24.1 73 24.2C73 24.2 73 24.3 73 24.4V24.5L73.1 24.6C73.1 24.6 73.2 24.7 73.2 24.8C73.2 24.9 73.2 25 73.3 25C73.3 25 73.3 25 73.4 25C73.4 25 73.4 25 73.5 25C73.5 25 73.6 25.1 73.5 25.2L73.6 25.3L73.7 25.4V25.5C73.7 25.5 73.7 25.6 73.7 25.7H74H74.1C74.1 25.7 74.1 25.7 74.2 25.7C74.3 25.7 74.3 25.7 74.4 25.7C74.4 25.7 74.5 25.8 74.5 25.9V26V26.1C74.5 26.1 74.5 26.1 74.6 26.1C74.6 26.1 74.6 26.1 74.7 26.1V26.2L74.8 26.3C74.8 26.3 74.8 26.4 74.8 26.5V26.6L74.9 26.7C75 26.8 75 26.8 75 26.9C75 27 75 27 75.1 27.2H75.2L75 27.3C75 27.3 75.1 27.5 75 27.6V28L75.1 28.1C75.2 28.1 75.3 28 75.3 28.1C75.3 28.1 75.4 28.2 75.3 28.3V28.4C75.3 28.5 75.4 28.7 75.5 28.8C75.5 28.8 75.5 28.8 75.5 28.9C75.5 28.9 75.5 28.9 75.5 29C75.5 29 75.6 29 75.7 29C75.7 29 75.8 29 76 29C76.1 28.9 76.2 28.9 76.3 28.9V29C76.3 29 76.4 29 76.5 29C76.6 29 76.6 29 76.7 29V29.1C76.7 29.1 76.8 29.1 76.9 29C77 28.9 77 28.9 77 28.9H77.1C77.1 28.9 77.1 28.9 77.1 29V29.2C77.1 29.2 77.1 29.2 77.2 29.2C77.2 29.2 77.2 29.2 77.3 29.2H77.4C77.4 29.2 77.5 29.1 77.5 29V28.8C77.5 28.7 77.6 28.7 77.6 28.6C77.6 28.6 77.7 28.5 77.8 28.5H77.9C77.9 28.5 78 28.4 78 28.3H77.9C77.9 28.2 77.9 28.2 78 28.1L78.2 28L78.3 27.9C78.3 27.9 78.3 27.8 78.4 27.8C78.4 27.8 78.4 27.8 78.5 27.8C78.5 27.8 78.5 27.8 78.6 27.8V27.7V27.6V27.5C78.6 27.5 78.7 27.5 78.7 27.4C78.7 27.1 78.8 27 78.8 27C78.8 26.9 78.9 26.8 78.9 26.7C79 26.6 79 26.5 78.9 26.5C78.9 26.4 78.9 26.4 78.9 26.3V26.2V26C78.9 25.9 78.8 25.9 78.8 25.8C78.8 25.8 78.8 25.8 78.7 25.8C78.7 25.7 78.6 25.6 78.5 25.5C78.4 25.4 78.4 25.4 78.3 25.3L78.2 25.2C78.1 25.1 78.1 25.1 78 25.2V25.1V24.9V24.8V24.9V25L77.8 24.5C77.8 24.5 77.8 24.4 77.7 24.4L77.6 24.3L77.3 23.8V23.7C77.3 23.7 77.3 23.6 77.2 23.6L77.1 23.5L77 23.4C77 23.3 77 23.2 76.9 23.2H76.8H76.7L76.6 23.1C76.6 23.1 76.5 23 76.5 22.9C76.5 22.9 76.5 22.8 76.4 22.8C76.4 22.8 76.3 22.7 76.4 22.7C76.4 22.7 76.4 22.6 76.3 22.6C76.2 22.5 76.2 22.5 76.1 22.6C76.1 22.6 76 22.7 76 22.6C76 22.5 76 22.5 76 22.4C76 22.3 76.1 22.2 76 22.2C76 22.1 75.9 22 75.9 21.9C75.8 21.8 75.8 21.8 75.8 21.6H75.7C75.7 21.6 75.7 21.5 75.6 21.5C75.6 21.5 75.6 21.4 75.5 21.4C75.5 21.4 75.4 21.4 75.4 21.3V21.2C75.4 21.2 75.4 21.2 75.3 21.2L75.1 21V20.9L75.2 21H75.3V20.9L75.2 20.8C75.2 20.8 75.2 20.8 75.1 20.8C75 20.7 75 20.6 74.9 20.5C74.9 20.5 74.8 20.4 74.8 20.3H74.9H75C75.2 20.3 75.3 20.3 75.4 20.2C75.5 20.2 75.6 20.2 75.8 20.2H76C76.1 20.2 76.1 20.2 76.1 20.2C76.2 20.2 76.2 20.2 76.3 20.2H76.5C76.6 20.2 76.6 20.2 76.7 20.2C76.8 20.2 76.8 20.2 76.8 20.3H76.9C77 20.3 77 20.3 77 20.3C77 20.3 77.1 20.2 77.2 20.2C77.4 20.2 77.5 20.2 77.6 20.2C77.6 20.2 77.7 20.3 77.8 20.3C77.8 20.3 77.8 20.4 77.9 20.4C77.9 20.4 78 20.4 78 20.5L78.7 20.7C78.8 20.7 78.8 20.7 78.9 20.7C78.9 20.7 79 20.7 79.1 20.7L79.3 20.8L79.5 20.9C79.6 20.9 79.7 20.9 79.8 20.9H79.9C79.9 20.9 79.9 20.9 80 20.9C80.1 20.9 80.2 21 80.4 20.9C80.5 20.9 80.6 20.9 80.7 21H80.8C80.9 21 80.9 21 81 21C81.1 21 81.2 21 81.3 21C81.4 21 81.5 21 81.6 21C81.8 21 81.9 21 82 21.1C82.1 21.1 82.1 21.2 82.2 21.3C82.3 21.3 82.4 21.4 82.6 21.4L83.2 21.6C83.3 21.6 83.4 21.7 83.5 21.7H83.6H83.7V21.8H83.8C83.8 21.8 83.8 21.8 83.9 21.8L84 21.7C84 21.7 84 21.7 84.1 21.7H84C84 21.9 84 22 84 22C84.1 22 84.1 22 84.1 21.9H84.2C84.2 21.9 84.2 21.9 84.3 21.9H84.4H84.5C84.5 21.9 84.5 22 84.4 22H84.3C84.3 22 84.2 22 84.2 22.1H84.1C84.1 22.1 84.1 22.1 84.1 22.2C84.2 22.2 84.2 22.2 84.2 22.2H84.3L84.6 22C84.7 22 84.7 22 84.8 22L85.1 22.2L85 22.3H84.9L84.8 22.2C84.7 22.2 84.7 22.2 84.7 22.3V22.4H84.8C84.8 22.4 84.8 22.4 84.9 22.5L85 22.6C85.1 22.6 85.1 22.7 85.2 22.7C85.3 22.7 85.3 22.8 85.4 22.8H85.5L85.6 22.9H85.7C85.8 22.9 85.9 23 86 23L86.1 23.1L86.3 23.2C86.4 23.2 86.4 23.3 86.5 23.3C86.6 23.3 86.6 23.3 86.7 23.3C86.7 23.3 86.7 23.3 86.8 23.4L86.9 23.5C87 23.6 87.1 23.6 87.3 23.7C87.5 23.7 87.6 23.8 87.7 23.9C87.8 24 87.9 24 88 24.1V24C88 24 88 24 88.1 24H88V23.9H88.1C88.3 24 88.4 24 88.5 24.1C88.5 24.1 88.6 24.2 88.7 24.3H88.9L89 24.4C89 24.5 89 24.5 89.1 24.5L89.2 24.6L89.3 24.7L89.5 24.8C89.5 24.9 89.6 25 89.7 25L89.9 25.1C90 25.2 90.1 25.2 90.2 25.3C90.3 25.4 90.4 25.4 90.5 25.4C90.5 25.4 90.6 25.4 90.8 25.5C90.9 25.6 91 25.7 91.1 25.7C91.2 25.7 91.2 25.8 91.3 25.8C91.4 25.9 91.4 25.9 91.4 26C91.4 26 91.4 26 91.4 26.1L91.3 26.2C91.3 26.2 91.3 26.2 91.3 26.3C91.3 26.3 91.3 26.3 91.4 26.3C91.4 26.3 91.4 26.3 91.5 26.3C91.5 26.3 91.5 26.3 91.6 26.3C91.6 26.3 91.6 26.3 91.7 26.3C91.8 26.3 91.8 26.3 91.8 26.3C91.9 26.4 91.9 26.5 92 26.5L91.9 26.6H91.8V26.7H91.9V26.8C91.9 26.8 91.9 26.8 92 26.8H92.1C92.1 26.8 92.2 26.8 92.3 26.8C92.3 26.8 92.4 26.8 92.4 26.9L92.5 27V27.1H92.4V27.2C92.4 27.2 92.4 27.2 92.5 27.2L92.6 27.3C92.7 27.2 92.8 27.2 92.9 27.3H93C93 27.4 93 27.4 93 27.5C93 27.5 93.1 27.6 93.2 27.6C93.3 27.6 93.3 27.7 93.5 27.8C93.6 27.9 93.7 28 93.7 28L93.8 28.1C93.9 28.2 93.9 28.2 93.9 28.3L94 28.4C94 28.4 94.1 28.4 94.1 28.5C94.1 28.5 94.2 28.6 94.2 28.5H94.3V28.6L94.4 28.7C94.5 28.8 94.5 28.9 94.5 28.9L94.6 29L94.7 28.9V28.8H94.8C94.9 28.8 94.9 28.8 95 28.9C95.1 29 95.1 29 95.1 29.1C95.1 29.1 95.2 29.1 95.2 29.2C95.2 29.2 95.3 29.3 95.4 29.4V29.5C95.4 29.6 95.5 29.6 95.5 29.6C95.6 29.6 95.7 29.6 95.7 29.7C95.8 29.8 95.8 29.8 95.9 29.9V30V30.1C95.9 30.2 95.9 30.3 95.9 30.4V30.5L96 30.6C96.1 30.6 96.1 30.6 96.2 30.7C96.2 30.7 96.3 30.8 96.4 30.8L96.5 31C96.5 31.1 96.5 31.2 96.6 31.3C96.7 31.4 96.7 31.4 96.6 31.5L96.5 31.6L96.6 31.7C96.7 31.8 96.8 31.9 96.8 31.9L96.9 32C96.9 32.1 97 32.1 97 32.1V32.2C97 32.2 97 32.2 97.1 32.3C97.2 32.3 97.2 32.4 97.3 32.4C97.4 32.5 97.4 32.5 97.5 32.6L97.6 32.7C97.7 32.8 97.7 32.9 97.8 32.9C97.8 32.9 97.8 32.9 97.8 33V33.1H97.9C98 33.1 98 33.2 98.1 33.3C98.2 33.4 98.2 33.4 98.2 33.5C98.4 33.6 98.6 33.8 98.7 34C98.7 34.1 98.7 34.1 98.8 34.2C98.8 34.3 98.9 34.4 99 34.5C99.1 34.5 99.1 34.6 99.1 34.6V34.7C99.1 34.8 99.2 34.9 99.3 34.9C99.4 34.9 99.5 35 99.5 35C99.5 35.1 99.6 35.1 99.6 35.1C99.6 35.1 99.6 35.1 99.6 35.2C99.6 35.2 99.5 35.2 99.5 35.1C99.5 35.1 99.5 35.1 99.4 35.1H99.3C99.3 35.1 99.2 35.2 99.3 35.2V35.4C99.3 35.5 99.4 35.6 99.4 35.7C99.4 35.8 99.5 35.9 99.6 35.9V36V36.1H99.7C99.9 36.1 100 36.2 100 36.4L100.2 36.5C100.3 36.5 100.3 36.6 100.3 36.7L100.4 37C100.5 37.2 100.5 37.3 100.6 37.3V37.4C100.5 37.4 100.5 37.5 100.5 37.5C100.5 37.5 100.6 37.6 100.6 37.7L100.7 37.9L100.8 38.1V38.2C100.7 38.3 100.7 38.3 100.7 38.4C100.7 38.5 100.8 38.5 100.8 38.5C100.8 38.5 100.9 38.6 100.9 38.7L101 38.9C101 39.1 101 39.2 101 39.2C101 39.3 101.1 39.3 101.1 39.3L101.2 39.4C101.2 39.5 101.2 39.5 101.2 39.5C101.2 39.5 101.2 39.5 101.2 39.6C101.2 39.7 101.3 39.7 101.3 39.7C101.4 39.7 101.4 39.8 101.5 39.9C101.5 40 101.5 40 101.5 40.1C101.5 40.2 101.5 40.2 101.4 40.2V40.3C101.4 40.4 101.5 40.4 101.5 40.5V40.6H101.6L101.7 40.7C101.7 40.8 101.7 40.8 101.6 40.8C101.6 40.8 101.6 40.8 101.6 40.9C101.7 40.9 101.7 41 101.7 41V41.1V41.2C101.7 41.3 101.8 41.4 101.8 41.5V41.7V41.8C101.8 41.9 101.9 41.9 101.9 41.9C101.9 41.9 101.9 42 102 42C102.1 42 102.1 42.1 102.1 42.1C102.1 42.2 102.1 42.2 102.1 42.2C102.1 42.3 102.1 42.3 102.1 42.4C102.1 42.4 102.1 42.5 102.1 42.6L102 42.7C102 42.7 102.1 42.8 102.2 42.9V43C102.2 43 102.2 43 102.2 43.1C102.2 43.2 102.2 43.2 102.1 43.2V43.3C102.1 43.4 102.1 43.4 102.2 43.5C102.2 43.6 102.2 43.7 102.3 43.8C102.3 43.9 102.3 44 102.3 44.2V44.3C102.3 44.4 102.4 44.4 102.4 44.4C102.5 44.4 102.5 44.4 102.5 44.4V44.5V44.6L102.6 44.7C102.6 44.7 102.6 44.8 102.7 44.8V44.9C102.7 45 102.6 45 102.7 45.1V45.2C102.7 45.2 102.7 45.2 102.7 45.3L102.8 45.4C102.8 45.4 102.8 45.5 102.7 45.6C102.7 45.8 102.8 45.9 102.8 46C102.9 46.1 102.9 46.2 102.9 46.3C102.9 46.3 102.9 46.3 102.9 46.4V46.5V46.6V46.8C103 47 103 47.1 103 47.2V47.3C103 47.4 103.1 47.5 103.2 47.7V47.8C103.2 47.9 103.2 48 103.3 48C103.3 48 103.3 48.1 103.3 48.2V48.3V48.4C103.3 48.5 103.4 48.6 103.5 48.6C103.6 48.6 103.6 48.6 103.6 48.7V48.8C103.7 48.9 103.7 48.9 103.8 48.9C103.9 49 103.9 49 104 49C104 48.9 104.1 48.8 104.1 48.9V48.8C104.1 48.8 104.1 48.8 104.2 48.8C104.2 48.8 104.2 48.8 104.3 48.8C104.4 48.8 104.4 48.8 104.5 48.8C104.5 48.8 104.5 48.7 104.6 48.6V48.4C104.6 48.3 104.6 48.3 104.6 48.2V48.1V47.9H104.7C104.8 48 104.8 48 104.8 48C104.9 48 105 47.9 105 47.7H104.6ZM77.5 13V13.1C77.4 13 77.4 13 77.5 13ZM76.4 14H76.6C76.5 14.1 76.5 14.1 76.4 14.1C76.4 14.1 76.4 14.1 76.4 14C76.3 14 76.4 14 76.4 14ZM75.5 15.6C75.5 15.7 75.5 15.7 75.5 15.6V15.7C75.5 15.7 75.5 15.7 75.4 15.7C75.4 15.7 75.4 15.7 75.3 15.6C75.4 15.6 75.4 15.6 75.5 15.6ZM76.3 22.8L76.4 23H76.3C76.2 23 76.2 22.9 76.3 22.8ZM75.9 22V22.1V22ZM74.4 14.4C74.4 14.5 74.4 14.5 74.4 14.4H74.5L74.6 14.5H74.4V14.4C74.4 14.5 74.4 14.5 74.4 14.4ZM74.1 14.6C74.1 14.6 74.2 14.5 74.2 14.6L74.3 14.7C74.3 14.7 74.3 14.7 74.4 14.7C74.4 14.7 74.4 14.7 74.4 14.8L74.2 14.9H74.1C74.1 14.9 74.1 14.9 74 14.9C74 14.9 74 14.8 74 14.7V14.6C74 14.7 74 14.7 74.1 14.6ZM73.2 16.5C73.2 16.4 73.3 16.4 73.2 16.5C73.3 16.5 73.4 16.5 73.4 16.5H73.5V16.4H73.6C73.6 16.4 73.7 16.5 73.6 16.5C73.6 16.5 73.6 16.5 73.6 16.6C73.6 16.6 73.6 16.7 73.7 16.7C73.7 16.7 73.7 16.7 73.8 16.7C73.8 16.7 73.8 16.7 73.9 16.7C73.9 16.7 73.9 16.7 74 16.7C74 16.7 74.1 16.7 74.1 16.6H74.2V16.7H74.3H74.4H74.5L74.6 16.8L74.7 16.9C74.7 16.9 74.7 16.9 74.6 16.9H74.5V17H74.4C74.4 17 74.3 17 74.1 16.9C74 17 74.1 17 74.1 17.1H74C74 17.1 74 17 73.9 17L73.8 16.9C73.8 16.9 73.8 16.9 73.8 16.8H73.9C73.7 16.6 73.6 16.6 73.6 16.6C73.6 16.6 73.6 16.6 73.5 16.6H73.4C73.3 16.6 73.2 16.5 73.2 16.5ZM73.1 16.6C73.2 16.6 73.2 16.6 73.1 16.6C73.2 16.6 73.1 16.6 73.1 16.6C73 16.6 73 16.6 73.1 16.6H73C73 16.5 73.1 16.5 73.1 16.6ZM71.9 21.9L71.8 22V21.7C71.8 21.7 71.8 21.7 71.8 21.6V21.5C71.8 21.5 71.9 21.5 71.9 21.4V21.5C71.9 21.7 71.9 21.8 71.9 21.9ZM72.7 20.8C72.7 20.9 72.7 20.9 72.7 20.8L72.5 20.5H72.6V20.7H72.7V20.8C72.8 20.8 72.8 20.8 72.7 20.8C72.8 20.8 72.8 20.8 72.7 20.8ZM74.7 25.7C74.7 25.7 74.6 25.7 74.7 25.7C74.6 25.7 74.6 25.7 74.6 25.7H74.7C74.7 25.6 74.7 25.7 74.7 25.7ZM77.4 20.1C77.3 20 77.3 20 77.3 20C77.3 20 77.3 20 77.4 20V20.1ZM79.3 18C79.2 18 79.2 18 79.1 18H79V17.9H79.1L79.3 18ZM85.7 22.6C85.6 22.6 85.6 22.6 85.6 22.6L85.2 22.5V22.4H85.3C85.3 22.4 85.4 22.3 85.6 22.4H85.7C85.6 22.5 85.6 22.5 85.7 22.6C85.6 22.5 85.6 22.6 85.7 22.6ZM86.4 21.9L85.9 21.7C85.9 21.7 85.9 21.7 85.9 21.6C85.9 21.6 85.9 21.5 85.8 21.5H85.9H86C86.1 21.5 86.1 21.6 86.1 21.6L86.4 21.9C86.5 21.9 86.5 21.9 86.4 21.9ZM88.8 22.2C88.7 22.2 88.8 22.1 88.8 22.2V22.2ZM89.2 22.9C89.1 22.8 89 22.8 89.1 22.8H89.2C89.3 22.8 89.3 22.8 89.2 22.9ZM89.8 24.9C89.8 24.9 89.7 24.9 89.8 24.9C89.7 24.9 89.7 24.8 89.7 24.8L89.8 24.9C89.8 24.9 89.9 24.9 89.8 24.9C89.8 25 89.8 24.9 89.8 24.9ZM92.9 26.1C92.8 26 92.8 26 92.7 26L92.6 25.9C92.6 25.9 92.6 25.9 92.5 25.9V25.8C92.6 25.8 92.6 25.8 92.7 25.8L92.8 25.9C93 26 93 26 92.9 26.1ZM94.3 27.3C94.2 27.3 94.2 27.2 94.1 27.2C94.1 27.2 94 27.1 93.9 27C93.8 26.9 93.7 26.9 93.6 26.8L93.5 26.7V26.6H93.6L93.7 26.7C93.7 26.7 93.8 26.7 93.8 26.8C93.8 26.9 93.9 26.9 93.9 26.9C93.9 27 94 27 94 27.1C94.2 27.2 94.3 27.2 94.3 27.3C94.4 27.3 94.4 27.3 94.3 27.3ZM95.2 27.1C95 27.1 94.9 27 94.8 26.9V26.8C94.8 26.8 94.7 26.7 94.7 26.8C94.7 26.8 94.7 26.8 94.6 26.8C94.6 26.9 94.6 26.9 94.6 27V27.1C94.6 27.1 94.5 27.1 94.4 27.1C94.4 27.1 94.4 27 94.4 26.9H94.3C94.3 26.8 94.3 26.8 94.3 26.7C94.3 26.7 94.4 26.6 94.4 26.7V26.6C94.3 26.6 94.2 26.6 94.2 26.6C94.2 26.6 94.2 26.6 94.2 26.7C94.1 26.8 94.1 26.7 93.9 26.7L93.8 26.6C93.8 26.6 93.7 26.5 93.6 26.5C93.5 26.4 93.5 26.4 93.4 26.4L93.3 26.3C93.3 26.3 93.3 26.3 93.3 26.2C93.3 26.2 93.3 26.1 93.4 26.1L93.3 26C93.3 26 93.2 25.9 93.3 25.9C93.4 25.8 93.3 25.8 93.3 25.7L93 25.1L92.9 25C92.9 25 92.8 25 92.8 24.9L92.7 24.8C92.7 24.8 92.7 24.8 92.7 24.7V24.6H92.8L92.9 24.7C93 24.8 93.1 24.9 93.2 25C93.3 25.1 93.4 25.1 93.5 25.2C93.7 25.3 93.8 25.4 93.9 25.4C93.9 25.4 94 25.5 94 25.6C94.2 25.7 94.3 25.8 94.3 25.8C94.4 25.8 94.4 25.9 94.5 26C94.5 26 94.6 26.1 94.6 26.2C94.6 26.3 94.7 26.3 94.7 26.4L94.8 26.5L94.9 26.6C94.9 26.6 95 26.6 95 26.7L95.1 26.8C95.2 26.9 95.3 26.9 95.4 27C95.4 27 95.5 27 95.5 27.1C95.3 27.1 95.2 27.1 95.2 27.1ZM95.5 27.4L95.4 27.3C95.4 27.2 95.5 27.2 95.5 27.4ZM96.6 29.8C96.5 29.8 96.5 29.8 96.5 29.7C96.5 29.7 96.5 29.7 96.5 29.6C96.5 29.6 96.5 29.6 96.5 29.5H96.6L96.7 29.6C96.5 29.7 96.5 29.7 96.6 29.8C96.6 29.7 96.6 29.7 96.6 29.8ZM96.5 28.6C96.4 28.5 96.3 28.5 96.2 28.5C96.1 28.5 96.1 28.6 96.1 28.5C96.1 28.5 96 28.5 96 28.4C96 28.3 96 28.3 96.1 28.2L96 28C96 28 96 28 95.9 28V28.1H95.8H95.7V28C95.7 27.9 95.7 27.9 95.7 27.9C95.7 27.9 95.7 27.8 95.7 27.7C95.7 27.6 95.7 27.6 95.7 27.6C95.8 27.6 95.8 27.6 95.8 27.6H95.9L96 27.7C96 27.7 96 27.8 96.1 27.8C96.2 27.9 96.3 28 96.4 28.1L96.7 28.4L96.8 28.5C96.8 28.6 96.8 28.6 96.8 28.6C96.7 28.6 96.6 28.6 96.5 28.6ZM98.1 30.9C98.1 30.8 98 30.8 98 30.8L97.9 30.7C97.9 30.7 97.9 30.7 97.8 30.7C97.8 30.8 97.8 30.8 97.8 30.8V30.9C97.8 31 97.8 31 97.8 31C97.7 31 97.7 30.9 97.7 30.9C97.7 30.9 97.7 30.8 97.6 30.7C97.6 30.6 97.5 30.6 97.4 30.5C97.3 30.4 97.3 30.4 97.2 30.3C97.1 30.3 97.1 30.2 97 30.1C96.9 30 96.9 29.9 96.9 29.9C96.9 29.8 96.9 29.9 97.1 30C97.1 30.1 97.2 30.1 97.3 30.2C97.4 30.3 97.4 30.3 97.5 30.4C97.6 30.5 97.6 30.5 97.7 30.4V30.3C97.7 30.3 97.7 30.3 97.7 30.2C97.6 30.2 97.6 30.1 97.5 29.9C97.4 29.8 97.4 29.8 97.4 29.7C97.4 29.6 97.4 29.6 97.4 29.6H97.5C97.6 29.5 97.6 29.5 97.5 29.4L97.4 29.3L97.5 29.2C97.6 29.3 97.8 29.4 97.9 29.6C97.9 29.7 97.9 29.7 97.9 29.7C97.9 29.7 97.9 29.7 97.9 29.8L97.8 29.9L98 30.1C98.2 30.1 98.3 30.1 98.3 30.2C98.4 30.2 98.4 30.2 98.5 30.3L98.6 30.4L98.7 30.5C98.7 30.5 98.7 30.5 98.8 30.6C98.8 30.6 98.9 30.6 98.9 30.7L99 30.8L99.1 30.9V31C99.1 31 99.1 31 99 31C99 31 98.9 31 98.9 30.9H98.8V31H98.7C98.2 31 98.1 30.9 98.1 30.9ZM98.8 33.9H98.7C98.6 33.9 98.6 33.8 98.5 33.7C98.5 33.6 98.4 33.5 98.3 33.5V33.4C98.4 33.4 98.4 33.3 98.3 33.2C98.3 33.2 98.3 33.2 98.4 33.3C98.4 33.3 98.4 33.3 98.5 33.4C98.5 33.5 98.6 33.5 98.6 33.5C98.7 33.6 98.8 33.7 98.8 33.9ZM99.1 34.3C99 34.3 99 34.3 99 34.3V34.2L99.2 34.3H99.1ZM99.9 33.4C99.9 33.4 99.8 33.4 99.8 33.3C99.9 33.2 99.9 33.1 99.9 33.2C99.9 33.2 100 33.2 100 33.3L99.9 33.4ZM101.1 36.8C101.1 36.7 101.1 36.7 101.1 36.8V36.6C101.1 36.6 101.1 36.6 101.2 36.6C101.2 36.7 101.3 36.8 101.4 37L101.1 36.8ZM102.2 39.5C102.1 39.4 102.2 39.3 102.2 39.3C102.2 39.4 102.2 39.4 102.2 39.5Z" fill="#3E78FE"/>
<path d="M79.7002 12.2V12.3C79.8002 12.4 79.8002 12.4 79.9002 12.3H80.0002C80.0002 12.3 80.0002 12.3 80.0002 12.2L80.1002 12L80.0002 11.9C80.0002 11.9 80.0002 11.9 80.0002 11.8C80.0002 11.8 80.0002 11.8 79.9002 11.8L79.8002 11.7C79.8002 11.7 79.8002 11.7 79.8002 11.8L79.9002 11.9C80.0002 12 80.0002 12.1 80.0002 12.1C79.9002 12.1 79.8002 12.1 79.7002 12.2Z" fill="#3E78FE"/>
<path d="M80.3002 11.8001V11.9001L80.4002 11.8001C80.3002 11.7001 80.2002 11.7001 80.3002 11.8001Z" fill="#3E78FE"/>
<path d="M78.4004 13.7L78.5004 13.8L78.4004 13.7C78.5004 13.7 78.5004 13.7 78.4004 13.7Z" fill="#3E78FE"/>
<path d="M76.9 15.2999V15.1999C76.9 15.1999 76.8 15.0999 76.7 15.0999C76.6 14.9999 76.5 14.9999 76.5 15.0999C76.5 15.0999 76.5 15.0999 76.6 15.1999L76.7 15.2999C76.7 15.2999 76.8 15.2999 76.8 15.3999C76.9 15.3999 76.9 15.3999 76.9 15.2999Z" fill="#3E78FE"/>
<path d="M77.8 14.6999C77.8 14.5999 77.8 14.5999 77.8 14.5999L77.7 14.4999L77.2 14.3999C77.1 14.3999 77 14.3999 77 14.3999V14.4999L77.1 14.5999H77.2V14.6999C77.1 14.7999 77.1 14.7999 77.2 14.8999C77.2 14.8999 77.3 14.9999 77.4 14.8999L77.5 14.7999V14.6999C77.5 14.6999 77.5 14.6999 77.5 14.5999C77.5 14.5999 77.6 14.5999 77.7 14.5999L77.8 14.6999Z" fill="#3E78FE"/>
<path d="M76.4002 15.5999C76.3002 15.5999 76.3002 15.5999 76.4002 15.5999L76.5002 15.7999H76.7002C76.7002 15.7999 76.7002 15.7999 76.7002 15.6999V15.5999C76.7002 15.5999 76.7002 15.4999 76.6002 15.3999C76.5002 15.3999 76.4002 15.3999 76.4002 15.3999V15.4999C76.4002 15.5999 76.4002 15.5999 76.4002 15.5999C76.5002 15.4999 76.4002 15.4999 76.4002 15.5999Z" fill="#3E78FE"/>
<path d="M75.9002 12.1C75.8002 12.1 75.8002 12.1 75.9002 12.1C75.8002 12.1 75.8002 12.1 75.7002 12L75.9002 12.1C75.8002 12.1 75.9002 12.1 75.9002 12.1Z" fill="#3E78FE"/>
</g>
<g clip-path="url(#clip1_982_163)">
<path d="M10.2998 91.7V91.9C10.3998 91.9 10.3998 91.9 10.2998 91.7C10.4998 91.8 10.3998 91.8 10.2998 91.7Z" fill="#3E78FE"/>
<path d="M14.1996 97.4C14.0996 97.4 14.0996 97.4 14.0996 97.3L14.1996 97.4C14.0996 97.4 14.1996 97.4 14.1996 97.4Z" fill="#3E78FE"/>
<path d="M10.6998 93.3L10.7998 93.1C10.7998 93 10.6998 92.8 10.5998 92.7C10.5998 92.6 10.5998 92.5 10.6998 92.5H10.7998C10.7998 92.5 10.7998 92.5 10.7998 92.4V92.3L10.5998 92.2C10.5998 92.2 10.5998 92.2 10.5998 92.3C10.5998 92.3 10.5998 92.4 10.4998 92.4H10.3998L10.2998 92.5V92.6C10.2998 92.7 10.3998 92.7 10.3998 92.8V92.9V93V93.1C10.4998 93.3 10.5998 93.3 10.6998 93.3Z" fill="#3E78FE"/>
<path d="M13.6002 101.4C13.6002 101.4 13.7002 101.3 13.6002 101.4C13.6002 101.2 13.5002 101.1 13.4002 101.1C13.3002 101.1 13.3002 101.1 13.2002 101.1V101.2C13.2002 101.3 13.3002 101.3 13.4002 101.4H13.5002H13.6002Z" fill="#3E78FE"/>
<path d="M13.7998 102.1C13.7998 102 13.6998 102 13.7998 102.1C13.6998 102 13.6998 101.9 13.6998 101.9V101.8C13.6998 101.8 13.5998 101.7 13.4998 101.7C13.3998 101.7 13.3998 101.8 13.4998 101.9C13.4998 102 13.4998 102 13.4998 102.1C13.4998 102.2 13.4998 102.2 13.4998 102.2L13.7998 102.5H13.8998C13.8998 102.3 13.8998 102.2 13.7998 102.1Z" fill="#3E78FE"/>
<path d="M13.0002 99.7C12.9002 99.6 12.8002 99.5 12.8002 99.5L12.4002 99.2H12.3002H12.2002V99.3L12.3002 99.4L12.4002 99.5C12.5002 99.5 12.5002 99.6 12.6002 99.7C12.6002 99.8 12.6002 99.8 12.6002 99.8C12.6002 99.8 12.6002 99.9 12.6002 100C12.7002 100.1 12.7002 100.1 12.8002 100.1C12.8002 100.1 12.8002 100 12.8002 99.8V99.7H12.9002H13.0002H13.1002H13.0002Z" fill="#3E78FE"/>
<path d="M47.7 118.2C47.5 118 47.3 117.8 47.1 117.6L46.9 117.4C46.9 117.4 46.8 117.4 46.8 117.3C46.8 117.3 46.8 117.3 46.7 117.2C46.6 117.1 46.5 117.1 46.5 117C46.4 116.9 46.4 116.9 46.3 116.8L46 116.5L45.9 116.4C45.8 116.3 45.8 116.3 45.7 116.3C45.6 116.3 45.6 116.2 45.5 116.1C45.4 116 45.3 116 45.3 115.9L45.2 115.8L44.6 115.2L44.5 115.1L44.4 115C44.3 114.9 44.3 114.9 44.2 114.8C44.1 114.8 44.1 114.7 44.1 114.6H44C44 114.6 44 114.6 43.9 114.6L43.8 114.5C43.8 114.5 43.8 114.5 43.7 114.5H43.6C43.5 114.5 43.5 114.5 43.5 114.4C43.5 114.3 43.5 114.3 43.4 114.3H43.3V114.2C43.3 114.1 43.3 114.1 43.2 114L43.1 113.9L42.9 113.8L42.8 113.7C42.8 113.7 42.7 113.7 42.7 113.6C42.6 113.5 42.6 113.5 42.5 113.5H42.4L42.3 113.4C42.1 113 42.1 113 42 112.9H41.9V112.8C41.9 112.7 41.9 112.6 41.8 112.6C41.8 112.6 41.8 112.6 41.7 112.5C41.6 112.4 41.5 112.3 41.5 112.2C41.4 112.1 41.4 112.1 41.3 112.1C41.2 112.1 41.2 112 41.1 112C41.1 112 41.1 112 41 112L40.9 111.8L40.7 111.6C40.6 111.6 40.5 111.5 40.5 111.4C40.4 111.3 40.4 111.3 40.3 111.2L40 111L39.3 110.3C39.3 110.2 39.3 110.2 39.2 110.2C39.2 110.2 39.1 110.2 39 110.1C39 110 39 110 38.9 110C38.9 110 38.8 109.9 38.7 109.9C38.7 109.9 38.6 109.9 38.6 109.8L37.9 109C37.8 109 37.7 108.9 37.7 108.9C37.6 108.9 37.6 108.8 37.5 108.8L37 108.5C37 108.4 36.9 108.4 36.8 108.4C36.7 108.4 36.6 108.4 36.5 108.5C36.4 108.5 36.3 108.6 36.3 108.6C36.2 108.7 36.1 108.8 36 108.9C36 109 35.9 109 35.8 109C35.7 109 35.7 109.1 35.6 109.3L35.5 109.4C35.5 109.4 35.5 109.5 35.4 109.5C35.3 109.6 35.3 109.6 35.3 109.7L35 110.2L34.8 110.7C34.9 110.9 35 111 35 111.2C35.1 111.3 35.1 111.4 35.2 111.6C35.3 111.7 35.3 111.7 35.4 111.8L35.5 111.5C35.5 111.5 35.5 111.5 35.5 111.4V111.3C35.5 111.3 35.5 111.2 35.6 111.2C35.6 111.2 35.6 111.2 35.7 111.1L35.8 111V110.9C35.8 110.9 35.8 110.9 35.8 110.8V110.7C35.8 110.6 35.8 110.6 35.8 110.6C35.9 110.6 36 110.7 36.1 110.7C36.2 110.7 36.2 110.8 36.2 110.9V111.1C36.2 111.2 36.3 111.3 36.4 111.4C36.4 111.4 36.5 111.4 36.4 111.4C36.4 111.4 36.4 111.4 36.4 111.5H36.3L36 111.3C36 111.3 35.9 111.2 35.8 111.2V111.3C35.8 111.3 35.9 111.3 35.9 111.4L36 111.5C36 111.6 36 111.7 36.1 111.7L36.2 111.8C36.3 111.8 36.3 111.8 36.3 111.9C36.3 112 36.4 112.1 36.5 112.1L36.9 112.4C36.9 112.5 36.9 112.5 37 112.5L37.2 112.7C37.2 112.9 37.4 113 37.5 113C37.5 113 37.5 113 37.6 113H37.7L37.8 113.1C37.8 113.2 37.8 113.2 37.9 113.3C37.9 113.3 37.9 113.3 38 113.3C38.1 113.3 38.1 113.3 38.1 113.3V113.4H38.2H38.3C38.4 113.5 38.4 113.5 38.4 113.6H38.5C38.5 113.7 38.5 113.8 38.6 113.8C38.6 113.9 38.6 113.9 38.7 113.9L39.2 114.5C39.3 114.6 39.3 114.6 39.4 114.7C39.5 114.7 39.5 114.8 39.6 114.8C39.7 114.8 39.7 114.8 39.7 114.9H39.8H39.9C40 115 40 115 40.1 115C40.2 115 40.2 115.1 40.3 115.1C40.4 115.1 40.5 115.2 40.5 115.3C40.5 115.4 40.5 115.4 40.6 115.5C40.7 115.5 40.7 115.5 40.7 115.6C40.8 115.7 40.8 115.7 40.8 115.8C40.8 115.8 40.7 115.8 40.7 115.7H40.5L40.1 115.8C39.9 115.9 39.8 115.9 39.6 115.9H39.5L39.4 115.8C39.2 115.8 39.1 115.8 39 115.9C38.9 115.9 38.8 115.9 38.6 115.9H38.4C38.3 115.9 38.3 115.9 38.3 115.9C38.2 115.9 38.2 115.9 38.1 115.9H37.9C37.8 115.9 37.8 115.9 37.7 115.9C37.6 115.9 37.6 115.9 37.6 115.8H37.5C37.4 115.8 37.4 115.8 37.4 115.8C37.4 115.8 37.3 115.9 37.2 115.9C37 115.9 36.9 115.9 36.8 115.9C36.8 115.9 36.7 115.8 36.6 115.8C36.6 115.8 36.6 115.7 36.5 115.7C36.5 115.7 36.4 115.7 36.4 115.6L36 115.7C35.9 115.7 35.9 115.7 35.8 115.7C35.8 115.7 35.7 115.7 35.6 115.7L35.4 115.6L35.2 115.5C35.1 115.5 35 115.5 34.9 115.5H34.8C34.8 115.5 34.8 115.5 34.7 115.5C34.6 115.5 34.5 115.4 34.3 115.5C34.2 115.5 34.1 115.5 34 115.4H33.9C33.8 115.4 33.8 115.4 33.7 115.4C33.6 115.4 33.5 115.4 33.4 115.4C33.3 115.4 33.2 115.4 33.1 115.4C32.9 115.4 32.8 115.4 32.7 115.3C32.6 115.3 32.6 115.2 32.5 115.1C32.4 115.1 32.3 115 32.1 115L31.5 114.8C31.4 114.8 31.3 114.7 31.2 114.7H31.1H31V114.6H30.9C30.9 114.6 30.9 114.6 30.8 114.6L30.7 114.7C30.7 114.7 30.7 114.7 30.6 114.7H30.7C30.7 114.6 30.6 114.6 30.6 114.6C30.5 114.6 30.5 114.6 30.5 114.7H30.4C30.4 114.7 30.4 114.7 30.3 114.7H30.2H30.1C30.1 114.7 30.1 114.6 30.2 114.6H30.3C30.3 114.6 30.4 114.6 30.4 114.5H30.5C30.5 114.5 30.5 114.5 30.5 114.4C30.4 114.4 30.4 114.4 30.4 114.4H30.3L30 114.6C29.9 114.6 29.9 114.6 29.8 114.6L29.5 114.4L29.6 114.3H29.7L29.8 114.4C29.9 114.4 29.9 114.4 29.9 114.3V114.2H29.8C29.8 114.2 29.8 114.2 29.7 114.1L29.6 114C29.5 114 29.5 113.9 29.4 113.9C29.3 113.9 29.3 113.8 29.2 113.8H29.1L29 113.7H28.9C28.8 113.7 28.7 113.6 28.6 113.6L28.5 113.5L28.3 113.4C28.2 113.4 28.2 113.3 28.1 113.3C28 113.3 28 113.3 27.9 113.3C27.9 113.3 27.9 113.3 27.8 113.2L27.9 113C27.8 112.9 27.7 112.9 27.5 112.8C27.3 112.8 27.2 112.7 27.1 112.6C27 112.5 26.9 112.5 26.8 112.4V112.5C26.8 112.5 26.8 112.5 26.7 112.5H26.8V112.6H26.7C26.5 112.5 26.4 112.5 26.3 112.4C26.3 112.4 26.2 112.3 26.1 112.2H25.9L25.8 112.1C25.8 112 25.8 112 25.7 112L25.6 111.9L25.5 111.8L25.3 111.7C25.3 111.6 25.2 111.5 25.1 111.5L24.9 111.4C24.8 111.3 24.7 111.3 24.6 111.2C24.5 111.1 24.4 111.1 24.3 111.1C24.3 111.1 24.2 111.1 24 111C23.9 110.9 23.8 110.8 23.7 110.8C23.6 110.8 23.6 110.7 23.5 110.7C23.4 110.6 23.4 110.6 23.4 110.5C23.4 110.5 23.4 110.5 23.4 110.4L23.5 110.3C23.5 110.3 23.5 110.3 23.5 110.2C23.5 110.2 23.5 110.2 23.4 110.2C23.4 110.2 23.4 110.2 23.3 110.2C23.3 110.2 23.3 110.2 23.2 110.2C23.2 110.2 23.2 110.2 23.1 110.2C23 110.2 23 110.2 23 110.2C23 110.2 23 110.1 22.9 110L23 109.9H23.1V109.8H23V109.7C23 109.7 23 109.7 22.9 109.7H22.8C22.8 109.7 22.7 109.7 22.6 109.7C22.6 109.7 22.5 109.7 22.5 109.6L22.4 109.5V109.4H22.5V109.3C22.5 109.3 22.5 109.3 22.4 109.3L22.3 109.2C22.2 109.3 22.1 109.3 22 109.2H21.9C21.9 109.1 21.9 109.1 21.9 109C21.9 109 21.8 108.9 21.7 108.9C21.6 108.9 21.6 108.8 21.4 108.7C21.3 108.6 21.2 108.5 21.2 108.5L21.1 108.4C21 108.3 21 108.3 21 108.2L20.9 108.1C20.9 108.1 20.8 108.1 20.8 108C20.8 108 20.7 107.9 20.7 108H20.6V107.9L20.5 107.8C20.4 107.7 20.4 107.6 20.4 107.6L20.3 107.5L20.2 107.6V107.7H20.1C20 107.7 20 107.7 19.9 107.6C19.8 107.5 19.8 107.5 19.8 107.4C19.8 107.4 19.7 107.4 19.7 107.3C19.7 107.3 19.6 107.2 19.5 107.1V107C19.6 107 19.5 107 19.5 107C19.4 107 19.3 107 19.3 106.9C19.2 106.8 19.2 106.8 19.1 106.7V106.6V106.5C19.1 106.4 19.1 106.3 19.1 106.2V106.1L19 106C18.9 106 18.9 106 18.8 105.9C18.8 105.9 18.7 105.8 18.6 105.8L18.5 105.6C18.5 105.5 18.5 105.4 18.4 105.3C18.3 105.2 18.3 105.2 18.4 105.1L18.5 105L18.4 104.9C18.3 104.8 18.2 104.7 18.2 104.7H18C18 104.6 17.9 104.6 17.9 104.6V104.5C17.9 104.5 17.9 104.5 17.8 104.4C17.7 104.4 17.7 104.3 17.6 104.3C17.5 104.2 17.5 104.2 17.4 104.1L17.3 104C17.2 103.9 17.2 103.8 17.1 103.8C17.1 103.8 17.1 103.8 17.1 103.7V103.6H17C16.9 103.6 16.9 103.5 16.8 103.4C16.7 103.3 16.7 103.3 16.7 103.2C16.5 103.1 16.3 102.9 16.2 102.7C16.2 102.6 16.2 102.6 16.1 102.5C16.1 102.4 16 102.3 15.9 102.2C15.8 102.2 15.8 102.1 15.8 102.1V102C15.8 101.9 15.7 101.8 15.6 101.8C15.5 101.8 15.4 101.7 15.4 101.7C15.4 101.6 15.3 101.6 15.3 101.6C15.3 101.6 15.3 101.6 15.3 101.5C15.3 101.5 15.4 101.5 15.4 101.6C15.4 101.6 15.4 101.6 15.5 101.6H15.6C15.6 101.6 15.7 101.5 15.6 101.5V101.3C15.6 101.2 15.5 101.1 15.5 101C15.5 100.9 15.4 100.8 15.3 100.8V100.7V100.6H15.2C15 100.6 14.9 100.5 14.9 100.3L14.8 100C14.7 100 14.7 99.9 14.7 99.8L14.6 99.5C14.5 99.3 14.5 99.2 14.4 99.2V99.1C14.5 99.1 14.5 99 14.5 99C14.5 99 14.4 98.9 14.4 98.8L14.3 98.6L14 98.2V98.1C14.1 98 14.1 98 14.1 97.9C14.1 97.8 14 97.8 14 97.8C14 97.8 13.9 97.7 13.9 97.6L13.8 97.4C13.8 97.2 13.8 97.1 13.8 97.1C13.8 97 13.7 97 13.7 97L13.6 96.9C13.6 96.8 13.6 96.8 13.6 96.8C13.6 96.8 13.6 96.8 13.6 96.7C13.6 96.6 13.5 96.6 13.5 96.6C13.4 96.6 13.4 96.5 13.3 96.4C13.3 96.3 13.3 96.3 13.3 96.2C13.3 96.1 13.3 96.1 13.4 96.1V96C13.5 96.1 13.5 96 13.4 96V95.9H13.3L13.2 95.7C13.2 95.6 13.2 95.6 13.3 95.6C13.3 95.6 13.3 95.6 13.3 95.5C13.2 95.5 13.2 95.4 13.2 95.4V95.3V95.2C13.1 95.1 13.1 95 13 94.9V94.7V94.6C13 94.5 12.9 94.5 12.9 94.5C12.9 94.5 12.9 94.4 12.8 94.4C12.7 94.4 12.7 94.3 12.7 94.3C12.7 94.2 12.7 94.2 12.7 94.2C12.7 94.1 12.7 94.1 12.7 94C12.7 94 12.7 93.9 12.7 93.8L12.8 93.7C12.8 93.7 12.7 93.6 12.6 93.5V93.4C12.6 93.4 12.6 93.4 12.6 93.3C12.6 93.2 12.6 93.2 12.7 93.2V93.1C12.7 93 12.7 93 12.6 92.9C12.6 92.8 12.6 92.7 12.5 92.6C12.5 92.5 12.5 92.4 12.5 92.2V92.1C12.5 92 12.4 92 12.4 92C12.3 92 12.3 92 12.3 92V91.9V91.8L12.4 91.6C12.4 91.6 12.4 91.5 12.3 91.5V91.4C12.3 91.3 12.4 91.3 12.3 91.2V91.1C12.3 91.1 12.3 91.1 12.3 91L12.2 90.9C12.2 90.9 12.2 90.8 12.3 90.7C12.3 90.5 12.2 90.4 12.2 90.3C12.1 90.2 12 90.1 12 90.1C12 90.1 12 90.1 12 90V89.9V89.8V89.6C11.9 89.4 11.9 89.2 11.9 89.2V89.1C11.9 89 11.8 88.9 11.7 88.7V88.6C11.7 88.5 11.7 88.4 11.6 88.4C11.6 88.4 11.6 88.3 11.6 88.2V88.1V88C11.6 87.9 11.5 87.8 11.4 87.8C11.3 87.8 11.3 87.8 11.3 87.7V87.6C11.1 87.2 11.1 87.2 11 87.2C11 87.1 10.9 87.1 10.8 87C10.8 87.1 10.7 87.2 10.7 87.2V87.3C10.7 87.3 10.7 87.3 10.6 87.3C10.6 87.3 10.6 87.3 10.5 87.3C10.4 87.3 10.4 87.3 10.3 87.3C10.3 87.3 10.3 87.4 10.2 87.5V87.7C10.2 87.8 10.2 87.8 10.2 87.9V88V88.2H10.1C10.2 88.1 10.2 88.1 10.2 88.1C10.1 88.1 10 88.2 10 88.4L10.1 88.8C10.2 88.9 10.2 89 10.2 89.1C10.3 89.2 10.3 89.2 10.3 89.3C10.3 89.4 10.3 89.4 10.3 89.5C10.3 89.6 10.3 89.7 10.4 89.8V89.9V90V90.1C10.4 90.2 10.4 90.3 10.4 90.5C10.4 90.6 10.4 90.6 10.4 90.6V90.7C10.4 90.8 10.4 90.9 10.4 91C10.4 91.1 10.4 91.2 10.4 91.3H10.5V91.2C10.5 91.2 10.5 91.2 10.5 91.1C10.5 91.1 10.5 91.1 10.6 91.1C10.6 91.1 10.6 91.1 10.7 91.1L10.8 91.2C10.8 91.3 10.8 91.3 10.8 91.3V91.4C10.8 91.5 10.8 91.5 10.8 91.6V91.8C10.8 92 10.9 92.1 10.9 92.2C11 92.5 11 92.7 11.1 92.9C11.1 93 11.2 93.1 11.2 93.2C11.2 93.3 11.2 93.4 11.3 93.5C11.3 93.6 11.3 93.6 11.3 93.6H11.2C11.1 93.7 11 93.7 11 93.8L10.9 93.9H10.8C10.8 93.9 10.7 94 10.6 94.2C10.6 94.4 10.6 94.5 10.6 94.6C10.6 94.7 10.7 94.8 10.8 94.9V95C10.8 95.1 10.8 95.1 10.9 95.1C10.9 95.1 10.9 95.2 11 95.2V95.3C11 95.4 11 95.4 11 95.5V95.6C11 95.6 11 95.6 11 95.7V95.8C11 95.8 11 95.8 11 95.9C11 96 11 96 11.1 96C11.2 96 11.2 96 11.2 96C11.2 96 11.3 96 11.3 96.1C11.4 96.1 11.4 96.1 11.4 96C11.4 95.9 11.4 95.8 11.5 95.8C11.5 95.8 11.6 95.7 11.5 95.7C11.5 95.6 11.4 95.6 11.3 95.5C11.2 95.5 11.2 95.4 11.2 95.3V95.2C11.2 95.2 11.2 95.2 11.2 95.1C11.2 95.1 11.1 95 11.1 94.9L10.9 94.8C10.9 94.7 10.9 94.7 10.9 94.7C11 94.6 11.1 94.6 11 94.5V94.4V94.3H11.1C11.2 94.3 11.2 94.3 11.3 94.4C11.3 94.5 11.3 94.5 11.4 94.6C11.4 94.6 11.5 94.7 11.5 94.8C11.5 94.9 11.4 94.9 11.4 95C11.4 95 11.4 95.1 11.5 95.1C11.5 95.2 11.6 95.2 11.6 95.3C11.7 95.4 11.7 95.4 11.7 95.5V95.6V95.7L11.8 96V96.2L11.9 96.4L12 96.7V96.8C12 96.9 12.1 96.9 12.1 97V97.1C12.1 97.1 12.1 97.1 12.1 97.2C12.1 97.3 12.2 97.3 12.2 97.3C12.2 97.3 12.2 97.3 12.3 97.3V97.4C12.4 97.6 12.4 97.7 12.5 97.8L12.7 98.3L12.8 98.6V98.7V98.8C12.8 98.9 12.9 98.9 13 99V99.1L13.1 99.3C13.1 99.4 13.2 99.5 13.1 99.6L13.2 99.9L13.3 100V100.1C13.3 100.2 13.3 100.2 13.3 100.3C13.3 100.4 13.3 100.4 13.2 100.4C13.2 100.4 13.1 100.4 13.1 100.5H13V100.6C13.2 100.7 13.3 100.8 13.4 100.9C13.5 100.9 13.6 101 13.6 101C13.6 101.1 13.7 101.1 13.7 101.2L14 101.5C14.1 101.6 14.1 101.7 14.1 101.8C14.1 101.9 14.2 102 14.3 102.2L14.4 102.5C14.5 102.6 14.5 102.7 14.6 102.8H14.7V102.9H14.6C14.6 102.8 14.5 102.8 14.5 102.9C14.5 102.9 14.4 103 14.5 103C14.5 103 14.5 103 14.4 103.1C14.3 103.1 14.2 103.1 14.3 103.1C14.3 103.1 14.3 103.2 14.3 103.3C14.4 103.5 14.5 103.7 14.7 103.9C14.8 104 14.8 104.1 14.9 104.1C15 104.2 15 104.2 15 104.3C15.1 104.4 15.1 104.5 15.2 104.6H15.3V104.5C15.3 104.4 15.2 104.3 15.2 104.1L15 103.9C14.9 103.8 14.9 103.6 14.9 103.5H15H15.1C15.1 103.5 15.2 103.5 15.2 103.6C15.2 103.6 15.2 103.6 15.2 103.7C15.2 103.7 15.2 103.7 15.2 103.8C15.2 103.8 15.2 103.8 15.2 103.9C15.2 104 15.3 104 15.3 104C15.4 104 15.4 104.1 15.5 104.2C15.5 104.2 15.5 104.3 15.6 104.3V104.4V104.5C15.6 104.5 15.6 104.5 15.6 104.6C15.6 104.6 15.6 104.7 15.6 104.8C15.6 104.8 15.6 104.8 15.7 104.8H15.8V104.9H15.7H15.6C15.6 104.9 15.5 104.9 15.4 104.9C15.4 104.9 15.4 104.9 15.3 104.9V105L15.4 105.1C15.5 105.2 15.6 105.3 15.6 105.4C15.7 105.6 15.8 105.8 15.9 105.9H16H16.1V106C16.2 106.1 16.2 106.2 16.2 106.3C16.2 106.4 16.4 106.5 16.5 106.6C16.6 106.7 16.7 106.8 16.8 106.9L17 107.1C17 107.2 17.1 107.2 17.1 107.3C17.2 107.4 17.2 107.4 17.3 107.4V107.5C17.3 107.6 17.4 107.6 17.4 107.6C17.4 107.6 17.4 107.7 17.5 107.7L17.6 107.8C17.6 107.8 17.7 107.9 17.8 107.9L18.1 108.3L18.3 108.5L18.4 108.6C18.4 108.7 18.5 108.7 18.5 108.7C18.5 108.7 18.5 108.8 18.6 108.8C18.6 108.8 18.6 108.9 18.7 108.9H18.8C18.9 108.9 19 109 19 109V109.3C19 109.4 19 109.4 19 109.5C19.1 109.6 19.1 109.6 19.2 109.6L19.3 109.7C19.3 109.7 19.3 109.7 19.4 109.7C19.4 109.7 19.4 109.7 19.5 109.7C19.5 109.7 19.5 109.8 19.6 109.8L19.7 109.9C19.9 110 20 110 20.1 110.1C20.1 110.1 20.1 110.2 20.2 110.2C20.2 110.2 20.2 110.3 20.3 110.3L20.4 110.4L20.5 110.5C20.5 110.5 20.6 110.5 20.6 110.6V110.7H20.7H20.8L20.9 110.8V110.9C21 111 21 111 21 111.1V111.2H21.1H21.2L21.4 111.3C21.4 111.3 21.5 111.3 21.5 111.4L21.6 111.5C21.6 111.5 21.6 111.6 21.7 111.6L21.8 111.7C21.8 111.7 21.9 111.8 21.8 111.8V111.9L21.9 112L22 112.1C22 112.2 22.1 112.2 22.1 112.2C22.1 112.2 22.2 112.3 22.3 112.3H22.4C22.5 112.4 22.6 112.5 22.7 112.6C22.8 112.6 22.8 112.7 22.9 112.7C22.9 112.8 23 112.8 23.1 112.9C23.2 113 23.3 113.1 23.5 113.1C23.7 113.2 23.8 113.2 24 113.3C24.2 113.4 24.3 113.5 24.5 113.6C24.5 113.6 24.5 113.6 24.6 113.6C24.6 113.6 24.6 113.6 24.7 113.6C24.7 113.6 24.8 113.7 24.8 113.8C24.9 113.9 25 113.9 25.1 113.9C25.2 114 25.2 114 25.2 114V114.1H25.3H25.5C25.6 114.2 25.8 114.3 26.1 114.4C26.2 114.5 26.3 114.5 26.3 114.6V114.7C26.3 114.8 26.3 114.9 26.4 114.9H26.5C26.5 114.9 26.5 114.9 26.6 114.9L26.8 115L26.9 114.9V114.8C26.9 114.8 26.9 114.8 26.8 114.7H26.9H27H27.1C27.2 114.7 27.2 114.8 27.2 114.8C27.2 114.8 27.2 114.9 27.3 114.9L27 115.8H27.1C27.1 115.8 27.1 115.8 27.2 115.8C27.5 115.8 27.6 115.9 27.7 115.9C27.7 115.9 27.7 115.9 27.8 116C27.8 116 27.8 116 27.9 116.1C28 116.2 28 116.2 28.1 116.1C28.1 116.1 28.2 116.1 28.3 116.2V116.3L28.8 116.6C28.9 116.6 28.9 116.7 28.9 116.7C29 116.7 29.1 116.7 29.3 116.8C29.3 116.8 29.3 116.8 29.4 116.8C29.4 116.8 29.4 116.8 29.5 116.8C29.6 116.8 29.6 116.8 29.7 116.8C30 116.9 30.2 117 30.4 117.1C30.6 117.2 30.8 117.3 31.1 117.4C31.1 117.4 31.1 117.4 31.1 117.5L31.2 117.6H31.3V117.5L31.2 117.4C31.2 117.4 31.3 117.4 31.4 117.4V117.6C31.4 117.6 31.4 117.6 31.5 117.6C31.5 117.6 31.5 117.6 31.6 117.7C31.7 117.7 31.7 117.7 31.8 117.8C31.9 117.8 31.9 117.9 32 117.9H32.1C32.2 117.9 32.2 117.9 32.3 118C32.4 118 32.5 118 32.5 118.1C32.6 118.1 32.6 118.2 32.7 118.2C32.9 118.2 33 118.2 33.2 118.3C33.4 118.4 33.5 118.4 33.7 118.4C33.8 118.4 33.9 118.4 34 118.4C34.1 118.3 34.2 118.3 34.3 118.4C34.4 118.4 34.4 118.5 34.4 118.5C34.4 118.6 34.5 118.6 34.6 118.7C34.7 118.7 34.8 118.8 34.9 118.8H35C35 118.8 35 118.8 35.1 118.8C35.2 118.8 35.3 118.8 35.3 118.8C35.4 118.8 35.4 118.8 35.5 118.8C35.6 118.8 35.7 118.8 35.8 118.8C35.9 118.8 36 118.8 36.1 118.9C36.2 118.9 36.2 118.9 36.3 119C36.3 119 36.4 119 36.5 119.1C36.6 119.1 36.7 119.1 37 119.1H37.1L37.4 119.2C37.5 119.2 37.6 119.2 37.6 119.2C37.7 119.2 37.7 119.2 37.8 119.2C38.1 119.3 38.4 119.3 38.8 119.3H38.9H39H39.1C39.2 119.3 39.3 119.3 39.3 119.3H40.2V119.4V119.5H40.3L40.5 119.4H40.6C40.6 119.5 40.7 119.5 40.9 119.5H41.1C41.3 119.5 41.5 119.5 41.6 119.6C41.8 119.6 42 119.6 42.2 119.6L42.1 119.7L42 119.8C41.9 119.9 41.8 120 41.8 120.1C41.7 120.1 41.7 120.2 41.7 120.2L41.6 120.3L41.3 120.6C41.2 120.6 41.2 120.7 41.1 120.7C41 120.7 41 120.8 41 120.8C40.9 120.8 40.8 120.9 40.8 121L40.6 121.2C40.5 121.2 40.4 121.3 40.4 121.4L40 121.7C39.9 121.7 39.9 121.7 39.9 121.8L39.7 122V122.1C39.6 122.1 39.4 122.2 39.3 122.3C39.2 122.4 39.2 122.4 39.1 122.5C39 122.5 39 122.6 38.9 122.7H38.8L38.5 123C38.4 123.1 38.3 123.2 38.3 123.3C38.2 123.4 38.1 123.5 38 123.5L37.7 123.9C37.6 123.9 37.5 124 37.3 124.1C37.2 124.2 37.2 124.2 37.1 124.3C37.1 124.4 37 124.4 36.9 124.5C36.8 124.5 36.8 124.6 36.8 124.6L36.7 124.7L36.4 125.1C36.3 125.1 36.3 125.1 36.3 125.2C36.2 125.2 36.2 125.3 36.1 125.3C35.9 125.4 35.8 125.6 35.7 125.7C35.6 125.8 35.5 126 35.3 126.1L35.2 126.3C35.1 126.4 34.9 126.5 34.9 126.6L34.7 126.8C34.5 127 34.4 127.3 34.3 127.6C34.5 127.8 34.6 127.9 34.7 128.1C35.3 128.4 35.9 128.8 36.4 129.2C36.5 129.2 36.4 129.2 36.5 129.2C36.5 129.2 36.5 129.3 36.6 129.3C36.6 129.2 37.7 128.1 37.7 128.1L37.8 128L37.9 127.9C38 127.9 38 127.9 38 127.8L37.9 127.7C37.8 127.7 37.8 127.6 37.8 127.5L37.9 127.4L38 127.3C38.1 127.3 38.1 127.3 38.1 127.3H38.2C38.3 127.3 38.3 127.3 38.3 127.3L38.6 127C38.6 126.9 38.6 126.9 38.7 126.9L38.9 126.7C39 126.6 39 126.6 39 126.5L39.1 126.4C39.2 126.4 39.2 126.4 39.2 126.3C39.2 126.2 39.3 126.2 39.3 126.2L39.4 126.1C39.4 126.1 39.5 126.1 39.5 126V125.9H39.6H39.7V125.8C39.7 125.7 39.6 125.7 39.6 125.7C39.8 125.8 39.9 125.7 39.9 125.6V125.5C40 125.5 40.1 125.5 40.1 125.5V125.4C40.1 125.3 40.1 125.3 40.2 125.3H40.3C40.4 125.1 40.6 125 40.7 125L40.8 124.9C40.8 124.9 40.8 124.8 40.9 124.8V124.7C41 124.7 41.1 124.6 41.1 124.6C41.1 124.6 41.1 124.6 41.1 124.5C41.1 124.5 41.1 124.5 41.1 124.4C41.1 124.4 41.1 124.4 41.2 124.4V124.3C41.2 124.2 41.3 124.2 41.4 124.2C41.5 124.2 41.5 124.2 41.5 124.2C41.6 124.1 41.7 124.1 41.7 124.1C41.7 124 41.7 124 41.8 123.9C41.9 123.9 41.9 123.8 41.9 123.7V123.6C41.9 123.6 41.9 123.5 42 123.6H42.1V123.5V123.4C42.2 123.4 42.3 123.4 42.4 123.3C42.4 123.3 42.4 123.3 42.5 123.3C42.5 123.3 42.5 123.3 42.5 123.2C42.6 123.2 42.6 123.1 42.6 123.1C42.6 123.1 42.6 123.1 42.7 123C42.9 123 43 123 43 122.9V122.8H43.1C43.2 122.8 43.2 122.8 43.2 122.7L43.5 122.4C43.5 122.4 43.6 122.3 43.7 122.3C43.7 122.2 43.8 122.1 43.8 122.1C43.9 122.1 43.9 122.1 44 122C44 121.9 44.1 121.9 44.1 121.9C44.1 121.9 44.2 121.9 44.2 121.8C44.2 121.7 44.2 121.7 44.3 121.7L44.4 121.6V121.5C44.4 121.5 44.4 121.4 44.5 121.3C44.5 121.2 44.6 121.2 44.8 121.1L45 120.9V120.8C45.2 120.7 45.3 120.5 45.5 120.4C45.6 120.2 45.8 120.1 45.9 120L46.2 119.7C46.3 119.6 46.4 119.5 46.5 119.4V119.3C46.6 119.2 46.6 119.2 46.6 119.2C46.6 119.2 46.6 119.2 46.7 119.1C47.4 118.6 47.6 118.5 47.7 118.2ZM12.5 97.2C12.5 97.1 12.5 97.1 12.4 97H12.5L12.6 97.1C12.6 97.1 12.6 97.1 12.5 97.2ZM13 97.8L13.1 97.9L13 97.8ZM13.7 99.8C13.6 99.9 13.6 99.9 13.7 99.8C13.6 99.8 13.5 99.7 13.5 99.5L13.7 99.8C13.6 99.8 13.7 99.8 13.7 99.8ZM14.9 103.3L14.8 103.1V103C14.8 103 14.9 103 14.9 103.1C14.9 103.3 14.9 103.3 14.9 103.3ZM18.2 106.7C18.3 106.7 18.3 106.7 18.3 106.8C18.3 106.8 18.3 106.8 18.3 106.9C18.3 106.9 18.3 106.9 18.3 107H18.2L18.1 106.9C18.2 106.8 18.2 106.8 18.2 106.7C18.1 106.8 18.1 106.8 18.2 106.7ZM15.8 102.4L15.6 102.3L15.7 102.2H15.8C15.8 102.3 15.8 102.3 15.8 102.4ZM15.9 102.6H16C16.1 102.6 16.1 102.7 16.2 102.8C16.2 102.9 16.3 103 16.4 103V103.1C16.3 103.1 16.3 103.2 16.4 103.3C16.4 103.3 16.4 103.3 16.3 103.2C16.3 103.2 16.3 103.2 16.2 103.1C16.2 103 16.1 103 16.1 103C16 102.9 15.9 102.8 15.9 102.6ZM17.7 106.5C17.7 106.4 17.6 106.4 17.5 106.3C17.4 106.2 17.4 106.2 17.3 106.1C17.2 106 17.2 106 17.1 106.1V106.2C17.1 106.2 17.1 106.2 17.1 106.3C17.2 106.3 17.2 106.4 17.3 106.6C17.4 106.7 17.4 106.7 17.4 106.8C17.4 106.9 17.4 106.9 17.4 106.9H17.3C17.2 107 17.2 107 17.3 107.1L17.4 107.2L17.3 107.3C17.3 107.1 17.1 107 17 106.8C17 106.7 17 106.7 17 106.7C17 106.7 17 106.7 17 106.6L17.1 106.5L16.9 106.3C16.7 106.3 16.6 106.3 16.6 106.2C16.5 106.2 16.5 106.2 16.4 106.1V106L16.3 105.9C16.3 105.9 16.3 105.9 16.2 105.8C16.2 105.8 16.1 105.8 16.1 105.7L16 105.6V105.5V105.4C16 105.4 16 105.4 16.1 105.4C16.1 105.4 16.2 105.4 16.2 105.5H16.3V105.4H16.4C16.5 105.5 16.5 105.6 16.6 105.6C16.6 105.7 16.7 105.7 16.7 105.7L16.8 105.8C16.8 105.8 16.8 105.8 16.9 105.8C16.9 105.7 16.9 105.7 16.9 105.7V105.6C16.9 105.5 16.9 105.5 16.9 105.5C17 105.5 17 105.6 17 105.6C17 105.6 17 105.7 17.1 105.8C17.1 105.9 17.2 105.9 17.3 106C17.4 106.1 17.4 106.1 17.5 106.2C17.6 106.2 17.6 106.3 17.7 106.4C18 106.4 18 106.5 18 106.5C18 106.6 17.9 106.6 17.7 106.5ZM19 108.9C19 109 19 109 19 108.9C18.9 109 18.9 109 18.8 109H18.7L18.6 108.9C18.6 108.9 18.6 108.8 18.5 108.8C18.4 108.7 18.3 108.6 18.2 108.5L18 108.1C18 108 18 108 18 108C18.1 108 18.1 108 18.2 108C18.3 108.1 18.4 108.1 18.5 108.1C18.6 108.1 18.6 108 18.6 108.1C18.6 108.1 18.7 108.1 18.7 108.2C18.7 108.3 18.7 108.3 18.6 108.4H18.7C18.7 108.4 18.7 108.4 18.8 108.4V108.3H18.9H19V108.4C19 108.5 19 108.5 19 108.5C19 108.8 19 108.8 19 108.9ZM19.2 109.2C19.3 109.3 19.3 109.3 19.2 109.2V109.2ZM20.4 109.2C20.5 109.2 20.5 109.3 20.6 109.3C20.6 109.3 20.7 109.4 20.8 109.5C20.9 109.6 21 109.6 21.1 109.7L21.2 109.8V109.9H21.1L21 109.8C21 109.8 20.9 109.8 20.9 109.7C20.9 109.6 20.8 109.6 20.8 109.6C20.8 109.5 20.7 109.5 20.7 109.4C20.5 109.4 20.4 109.3 20.4 109.2ZM22.1 111.8L22 111.7C21.9 111.6 21.8 111.5 21.7 111.4C21.6 111.3 21.5 111.3 21.4 111.2C21.2 111.1 21.1 111 21 111C21 111 20.9 110.9 20.9 110.8C20.7 110.7 20.6 110.6 20.6 110.6C20.5 110.6 20.5 110.5 20.4 110.4C20.4 110.4 20.3 110.3 20.3 110.2C20.3 110.1 20.2 110.1 20.2 110H20.1L20 109.9C20 109.9 19.9 109.9 19.9 109.8L19.8 109.7C19.7 109.6 19.6 109.6 19.5 109.5C19.5 109.5 19.4 109.5 19.4 109.4H19.5C19.7 109.4 19.8 109.5 19.9 109.6V109.7C19.9 109.7 20 109.8 20 109.7C20 109.7 20 109.7 20.1 109.7C20.1 109.6 20.1 109.6 20.1 109.5V109.4C20.1 109.4 20.2 109.4 20.3 109.4C20.3 109.4 20.3 109.5 20.3 109.6H20.4C20.4 109.7 20.4 109.7 20.4 109.8C20.4 109.8 20.3 109.9 20.3 109.8V109.9C20.4 109.9 20.5 109.9 20.5 109.9C20.5 109.9 20.5 109.9 20.5 109.8C20.6 109.7 20.6 109.8 20.8 109.8L20.9 109.9C20.9 109.9 21 110 21.1 110C21.2 110.1 21.2 110.1 21.3 110.1L21.4 110.2C21.4 110.2 21.4 110.2 21.4 110.3C21.4 110.3 21.4 110.4 21.3 110.4L21.4 110.5C21.4 110.5 21.5 110.6 21.4 110.6C21.3 110.7 21.4 110.7 21.4 110.8L21.5 110.9L21.6 111C21.6 111 21.7 111 21.7 111.1L21.8 111.2C22.1 111.7 22.1 111.7 22.1 111.8C22.1 111.7 22.1 111.8 22.1 111.8ZM22.1 110.7C22 110.7 22 110.7 21.9 110.7L21.8 110.6C21.8 110.6 21.7 110.5 21.8 110.5H21.9L22 110.6L22.1 110.7C22.1 110.6 22.1 110.6 22.1 110.7ZM25 111.7C24.9 111.6 24.9 111.6 24.9 111.6C25 111.6 25 111.6 25 111.7C25 111.6 25 111.7 25 111.7ZM25.6 113.8C25.4 113.7 25.4 113.7 25.5 113.7C25.6 113.7 25.7 113.8 25.6 113.8ZM25.9 114.4C26 114.3 26 114.3 25.9 114.4C26 114.4 26 114.4 25.9 114.4ZM28.8 114.9C28.6 114.9 28.6 114.8 28.6 114.8L28.3 114.7V114.6H28.4L28.9 114.8C28.9 114.8 28.9 114.8 28.8 114.9C28.9 114.9 28.9 114.9 28.8 114.9C28.9 114.9 28.9 114.9 28.8 114.9ZM29.6 114C29.5 114.1 29.4 114.1 29.3 114H29.2H29.1V113.9H29.2C29.2 113.9 29.2 113.9 29.3 113.9L29.6 114ZM33.8 118.2H33.9H33.8ZM35.7 118.6H35.4C35.5 118.5 35.5 118.5 35.7 118.6ZM37.4 116.5L37.3 116.4C37.4 116.4 37.4 116.4 37.4 116.5C37.4 116.5 37.4 116.6 37.4 116.5Z" fill="#3E78FE"/>
</g>
<g clip-path="url(#clip2_982_163)">
<path d="M100.2 95.0001C100.1 95.0001 100.1 95.1001 100.2 95.0001C100.1 95.1001 100 95.2001 99.9 95.2001H99.8C99.8 95.1001 99.8 95.0001 99.8 95.0001V94.9001C99.8 94.8001 99.8 94.7001 99.8 94.6001L99.7 94.5001H99.6H99.5C99.5 94.5001 99.5 94.5001 99.5 94.6001C99.5 94.6001 99.5 94.6001 99.4 94.6001C99.3 94.6001 99.3 94.6001 99.2 94.7001C99.2 94.7001 99.2 94.7001 99.1 94.7001C99.1 94.7001 99.1 94.7001 99.1 94.8001C99.1 94.8001 99.1 94.8001 99.1 94.9001C99.2 94.9001 99.2 95.0001 99.1 95.0001C99.1 95.0001 99.1 95.0001 99 95.0001H98.9L99 95.1001H99.1C99.2 95.1001 99.2 95.1001 99.2 95.1001C99.2 95.1001 99.3 95.1001 99.4 95.1001C99.4 95.1001 99.4 95.1001 99.5 95.1001V95.2001H99.4C99.3 95.2001 99.3 95.3001 99.2 95.4001C99.1 95.5001 99.1 95.6001 99.1 95.7001L99.3 96.0001H99.2V96.1001C99.2 96.1001 99.2 96.2001 99.2 96.3001C99.2 96.3001 99.1 96.4001 99 96.5001C98.9 96.5001 98.9 96.6001 98.8 96.7001L98.7 96.8001V96.9001V97.0001V97.1001C98.7 97.1001 98.7 97.1001 98.6 97.1001V97.2001C98.6 97.2001 98.5 97.2001 98.4 97.2001L98.2 97.5001L98.1 97.6001C98.1 97.6001 98.1 97.6001 98 97.6001C98 97.6001 98 97.6001 98 97.7001C98 97.7001 98 97.7001 98 97.8001H97.9C97.8 97.8001 97.8 97.8001 97.7 97.9001V98.0001C97.7 98.1001 97.7 98.1001 97.7 98.1001C97.7 98.1001 97.6 98.2001 97.5 98.1001V98.2001L97.4 98.3001C97.2 98.4001 97.1 98.5001 97.1 98.5001V98.6001V98.7001V98.8001C97.1 98.9001 97 98.9001 97 98.9001C97 98.9001 97 98.9001 96.9 99.0001V99.1001C96.9 99.1001 96.9 99.1001 96.8 99.1001H96.7V99.2001V99.4001C96.7 99.5001 96.6 99.6001 96.6 99.7001V99.8001H96.5H96.4L96 100.1C96 100.1 95.9 100.1 95.9 100.2C95.9 100.3 95.9 100.3 95.9 100.3V100.4V100.5C95.9 100.6 95.9 100.6 95.9 100.7V100.9L95.7 101C95.7 101.1 95.6 101.1 95.6 101.2C95.6 101.3 95.5 101.3 95.5 101.4C95.5 101.4 95.4 101.5 95.3 101.5C95.3 101.5 95.3 101.5 95.2 101.5C95.2 101.6 95.1 101.8 95 101.9C94.9 101.9 94.9 102 94.9 102C94.9 102.1 94.8 102.2 94.8 102.3C94.7 102.4 94.6 102.5 94.5 102.6C94.4 102.7 94.3 102.7 94.2 102.9C94.1 103 94 103.1 93.9 103.2C93.9 103.3 93.9 103.3 93.8 103.4C93.7 103.5 93.7 103.6 93.6 103.6C93.6 103.7 93.5 103.7 93.5 103.8C93.5 103.8 93.5 103.9 93.5 104L93.4 103.9L93.3 103.8C93.3 103.8 93.2 103.9 93.2 104C93.2 104 93 103.8 92.9 103.7C92.8 103.6 92.7 103.6 92.7 103.6V103.7C92.7 103.9 92.7 103.9 92.6 103.9C92.6 103.9 92.6 103.9 92.5 103.8C92.5 103.8 92.5 103.7 92.4 103.7L92.2 103.6V103.4L92.4 103L92.3 102.9C92.3 102.8 92.2 102.8 92.2 102.8H92.1C92.1 102.8 92.1 102.8 92 102.8V102.9V103.2C92 103.2 92 103.2 91.9 103.1C92 103.1 92 103 92 103C91.8 102.7 91.7 102.5 91.7 102.5C91.7 102.5 91.7 102.5 91.6 102.5C91.6 102.5 91.6 102.5 91.5 102.5C91.4 102.4 91.4 102.4 91.4 102.3C91.4 102.2 91.3 102.2 91.3 102.1V102.2L90.9 101.8H90.8C90.8 101.7 90.7 101.6 90.6 101.5C90.6 101.5 90.6 101.5 90.5 101.5C90.5 101.5 90.5 101.5 90.4 101.5C90.4 101.5 90.3 101.4 90.3 101.3C90.1 101.1 90 100.9 89.8 100.8C89.6 100.7 89.5 100.5 89.3 100.3C89.3 100.3 89.3 100.3 89.2 100.3L89.1 100.2V100.1C89.1 100.1 89.1 100.1 89.1 100C89.1 100 89.1 100 89.1 99.9001H89.2L89.3 100C89.3 100 89.3 99.9001 89.2 99.9001L89 100C89 100 89 100 88.9 100H88.8C88.8 99.9001 88.7 99.9001 88.7 99.8001C88.6 99.8001 88.6 99.7001 88.6 99.7001L88.5 99.6001L88.4 99.5001C88.4 99.4001 88.3 99.4001 88.3 99.4001H88.2C88 99.0001 88 99.0001 87.9 98.9001C87.8 98.8001 87.8 98.7001 87.7 98.6001C87.7 98.6001 87.7 98.5001 87.7 98.3001C87.7 98.2001 87.7 98.1001 87.7 98.1001H87.6C87.5 98.1001 87.5 98.1001 87.4 98.1001C87.3 98.1001 87.3 98.0001 87.3 98.0001C87.3 97.9001 87.3 97.9001 87.2 97.9001L87.1 97.8001C87 97.7001 87 97.6001 87 97.6001L86.9 97.5001H86.8H86.7C86.7 97.5001 86.6 97.4001 86.5 97.2001L86.4 97.0001L86.3 96.9001L86.2 96.8001V96.7001L85.9 96.2001L85.8 96.1001L85.7 96.0001L85.3 95.4001L85.2 95.5001L85.1 95.6001V95.5001V95.3001V95.2001C85 95.2001 85 95.2001 84.9 95.2001H84.8C84.8 95.1001 84.7 95.0001 84.6 95.0001C84.5 94.9001 84.4 94.8001 84.4 94.7001C84.4 94.7001 84.4 94.7001 84.3 94.7001C84.3 94.7001 84.2 94.6001 84.2 94.5001V94.2001C84.2 94.2001 84.2 94.1001 84.1 94.1001C84.1 94.1001 84 94.0001 84 93.9001C84 93.9001 84 93.8001 84.1 93.7001C84.2 93.5001 84.2 93.4001 84.2 93.3001C84.2 93.2001 84.2 93.1001 84.3 93.1001C84.3 93.1001 84.3 93.1001 84.4 93.0001V92.9001C84.3 92.9001 84.3 92.8001 84.4 92.8001V92.7001C84.4 92.7001 84.4 92.7001 84.5 92.7001C84.5 92.7001 84.5 92.7001 84.6 92.7001C84.6 92.7001 84.6 92.6001 84.7 92.6001C84.7 92.6001 84.7 92.5001 84.8 92.5001L85 92.4001C85 92.3001 85.1 92.3001 85.1 92.2001C85.1 92.2001 85.1 92.2001 85 92.2001C85 92.1001 85 92.1001 85.1 92.0001H85.2C85 92.0001 85 91.9001 85.1 91.9001C85.1 91.8001 85.2 91.8001 85.2 91.7001V91.5001C85.2 91.4001 85.2 91.3001 85.3 91.3001H85.4H85.5C85.6 91.3001 85.6 91.3001 85.6 91.3001V91.5001V91.6001C85.7 91.6001 85.7 91.6001 85.7 91.6001C85.7 91.6001 85.8 91.6001 85.8 91.5001C85.9 91.3001 86 91.3001 86 91.3001V91.4001C86.1 91.4001 86.1 91.5001 86.2 91.4001C86.3 91.4001 86.4 91.3001 86.4 91.4001C86.4 91.4001 86.4 91.4001 86.4 91.5001C86.5 91.5001 86.6 91.5001 86.7 91.4001C86.9 91.3001 87 91.3001 87 91.3001C87.1 91.2001 87.2 91.2001 87.3 91.3001C87.3 91.3001 87.3 91.3001 87.3 91.4001C87.3 91.4001 87.3 91.4001 87.3 91.5001C87.4 91.7001 87.5 91.8001 87.5 92.0001V92.1001C87.5 92.2001 87.5 92.3001 87.6 92.3001C87.7 92.3001 87.7 92.3001 87.8 92.3001L88 92.2001V92.6001C88 92.8001 88 92.9001 88.1 92.9001L88.2 93.0001H88.3C88.3 93.1001 88.4 93.2001 88.4 93.3001C88.4 93.4001 88.5 93.4001 88.6 93.5001L88.7 93.6001V93.7001C88.7 93.8001 88.7 93.8001 88.7 93.9001L88.8 94.0001L88.9 94.1001H89C89 94.1001 89 94.1001 89.1 94.1001V94.2001C89.1 94.3001 89.1 94.3001 89.1 94.4001C89.1 94.5001 89.2 94.6001 89.2 94.6001C89.2 94.6001 89.3 94.6001 89.4 94.6001H89.5C89.5 94.6001 89.5 94.6001 89.6 94.6001L90 94.9001C90 95.0001 90 95.0001 90 95.1001C90 95.1001 90 95.2001 90.1 95.2001L90 95.3001L90.1 95.4001C90.1 95.5001 90.1 95.6001 90.2 95.6001C90.2 95.6001 90.2 95.6001 90.3 95.6001C90.3 95.6001 90.3 95.6001 90.4 95.6001C90.5 95.6001 90.5 95.7001 90.5 95.8001C90.5 95.9001 90.6 95.9001 90.6 96.0001L90.7 96.1001L90.8 96.2001C90.8 96.3001 90.9 96.3001 90.9 96.3001V96.4001C90.9 96.5001 90.9 96.5001 90.9 96.6001H91C91 96.6001 91 96.7001 91 96.8001V97.0001C91 97.0001 91 97.1001 91.1 97.1001C91.1 97.1001 91.1 97.1001 91.1 97.2001C91.1 97.2001 91.1 97.2001 91.1 97.3001V97.4001C91.1 97.4001 91.1 97.4001 91.1 97.5001V97.6001C91.1 97.7001 91.1 97.7001 91.1 97.8001V97.9001V97.8001C91.1 97.7001 91.2 97.7001 91.2 97.7001C91.2 97.7001 91.2 97.8001 91.2 97.9001V98.0001V98.1001V98.2001C91.2 98.1001 91.2 98.1001 91.2 98.1001V98.0001C91.2 98.0001 91.2 97.9001 91.2 97.8001C91.2 97.7001 91.2 97.7001 91.2 97.6001C91.2 97.6001 91.2 97.5001 91.2 97.6001C91.2 97.6001 91.2 97.6001 91.2 97.7001V98.1001C91.2 98.2001 91.2 98.2001 91.2 98.2001L91.3 98.4001V98.2001C91.3 98.1001 91.3 98.0001 91.3 98.0001V97.9001C91.3 97.8001 91.3 97.8001 91.3 97.8001V97.9001C91.3 97.9001 91.3 97.9001 91.4 98.0001C91.4 98.0001 91.4 98.1001 91.5 98.1001C91.5 98.2001 91.6 98.3001 91.6 98.3001H91.7C91.7 98.3001 91.7 98.4001 91.8 98.4001C91.8 98.5001 91.8 98.6001 91.9 98.6001C91.9 98.6001 92 98.7001 92.1 98.9001C92.2 99.0001 92.2 99.1001 92.3 99.2001H92.4V99.3001V99.4001V99.5001L92.5 99.6001C92.6 99.6001 92.6 99.6001 92.6 99.6001C92.6 99.6001 92.6 99.5001 92.6 99.3001L92.7 99.4001C92.7 99.3001 92.7 99.2001 92.7 99.2001C92.7 99.2001 92.7 99.2001 92.7 99.1001L92.8 99.0001C92.8 98.9001 92.8 98.8001 92.8 98.8001L92.9 98.7001H93C93 98.6001 93.1 98.7001 93.2 98.7001C93.2 98.7001 93.3 98.8001 93.4 98.8001C93.4 98.7001 93.5 98.7001 93.5 98.7001C93.5 98.7001 93.6 98.7001 93.6 98.6001C93.6 98.6001 93.6 98.5001 93.6 98.4001C93.6 98.4001 93.6 98.4001 93.6 98.3001L93.8 98.0001V97.9001C93.8 97.9001 93.8 97.9001 93.9 98.0001C93.9 98.0001 93.9 98.0001 94 98.1001C94.1 98.2001 94.1 98.2001 94.1 98.2001C94.1 98.1001 94.1 98.1001 94.2 98.0001L94 97.8001H93.9L93.8 97.7001V97.6001C93.8 97.6001 93.8 97.6001 93.9 97.6001C93.9 97.6001 94 97.7001 94.1 97.7001H94.2V97.6001C94.2 97.6001 94.2 97.5001 94.1 97.5001C94.1 97.5001 94.1 97.5001 94.2 97.5001C94.3 97.6001 94.4 97.6001 94.5 97.6001C94.5 97.6001 94.5 97.6001 94.6 97.6001C94.6 97.5001 94.6 97.5001 94.6 97.5001C94.6 97.5001 94.7 97.5001 94.7 97.4001C94.7 97.4001 94.8 97.4001 94.9 97.3001C94.9 97.1001 95 97.0001 95 97.0001C95 97.0001 95 96.9001 95 96.8001V96.7001H95.1C95.1 96.7001 95.1 96.7001 95.2 96.7001H95.3C95.3 96.7001 95.3 96.7001 95.3 96.6001L95.4 96.5001C95.4 96.4001 95.4 96.4001 95.3 96.3001L95.4 96.4001V96.5001H95.5H95.7V96.4001H95.8C95.8 96.4001 95.9 96.4001 95.9 96.3001V96.2001C95.9 96.2001 95.9 96.2001 96 96.2001C96.1 96.2001 96.2 96.2001 96.2 96.2001C96.2 96.2001 96.3 96.1001 96.4 96.1001C96.4 96.1001 96.4 96.1001 96.3 96.0001V95.9001C96.3 95.8001 96.2 95.7001 96.2 95.7001V95.6001H96.3C96.4 95.6001 96.4 95.6001 96.5 95.6001H96.6L96.7 95.5001C96.6 95.4001 96.6 95.4001 96.7 95.3001V95.2001C96.6 95.2001 96.6 95.1001 96.6 95.1001C96.7 95.1001 96.8 95.0001 96.8 95.0001V94.9001L96.9 94.8001V94.7001C96.9 94.7001 96.9 94.7001 97 94.7001C97.1 94.7001 97.1 94.7001 97.2 94.7001L97.3 94.6001V94.5001C97.3 94.4001 97.4 94.4001 97.4 94.4001C97.4 94.4001 97.4 94.4001 97.4 94.3001C97.4 94.3001 97.4 94.2001 97.3 94.2001C97.3 94.2001 97.2 94.2001 97.3 94.2001H97.4C97.5 94.2001 97.5 94.2001 97.6 94.1001L97.7 94.0001C97.9 94.0001 98 93.9001 98.1 93.8001V93.7001C98.1 93.7001 98.2 93.6001 98.3 93.6001C98.4 93.6001 98.4 93.6001 98.4 93.6001L98.3 93.5001C98.3 93.5001 98.4 93.4001 98.5 93.4001C98.6 93.4001 98.7 93.4001 98.7 93.4001C98.7 93.4001 98.8 93.4001 98.8 93.3001C98.8 93.3001 98.8 93.3001 98.8 93.2001H98.7C98.7 93.2001 98.7 93.2001 98.6 93.2001H98.5C98.4 93.2001 98.4 93.1001 98.4 93.1001V93.0001C98.4 93.0001 98.5 92.9001 98.5 92.8001C98.5 92.7001 98.6 92.7001 98.7 92.7001C98.7 92.7001 98.7 92.7001 98.6 92.6001V92.5001H98.7C98.9 92.5001 99 92.5001 99 92.4001H99.2C99.2 92.4001 99.3 92.4001 99.3 92.3001L99.4 92.1001C99.4 92.0001 99.5 92.0001 99.6 91.9001C99.5 91.8001 99.4 91.8001 99.5 91.7001C99.5 91.7001 99.6 91.7001 99.6 91.6001L99.7 91.5001H99.8V91.4001C99.7 91.3001 99.7 91.3001 99.7 91.2001C99.7 91.2001 99.7 91.2001 99.8 91.2001C99.8 91.2001 99.9 91.2001 99.9 91.1001L100 90.7001C100 90.6001 100 90.5001 99.9 90.5001C99.9 90.5001 99.9 90.5001 100 90.5001H100.1V90.4001C100.1 90.4001 100.1 90.4001 100.1 90.3001H100.2C100.3 90.3001 100.4 90.3001 100.4 90.3001V90.2001C100.4 90.2001 100.4 90.1001 100.3 90.1001V90.0001C100.3 90.0001 100.4 90.0001 100.4 89.9001V89.8001H100.5L100.6 89.9001H100.7C100.7 89.9001 100.7 89.8001 100.6 89.8001C100.6 89.8001 100.6 89.8001 100.6 89.7001C100.7 89.7001 100.7 89.7001 100.7 89.7001C100.7 89.7001 100.7 89.7001 100.7 89.6001C100.7 89.6001 100.7 89.6001 100.7 89.5001C100.7 89.4001 100.8 89.4001 100.8 89.4001L101 89.2001H101.1C101.1 89.2001 101.1 89.2001 101.2 89.2001C101.3 89.2001 101.3 89.2001 101.3 89.2001V89.1001C101.3 89.0001 101.3 89.0001 101.3 89.0001V88.9001L101.2 88.8001C101.2 88.8001 101.3 88.8001 101.4 88.8001V88.7001V88.6001C101.4 88.6001 101.4 88.5001 101.5 88.5001L101.6 88.4001C101.6 88.4001 101.6 88.3001 101.7 88.2001V88.1001C101.7 88.1001 101.8 88.1001 101.9 88.1001C102 88.1001 102 88.1001 102 88.1001V88.0001V87.9001H102.1C102.1 87.9001 102.1 87.9001 102.2 87.9001C102.2 87.8001 102.2 87.8001 102.2 87.8001H102.3V87.7001C102.3 87.6001 102.4 87.6001 102.5 87.5001C102.6 87.0001 102.6 87.0001 102.6 87.0001C102.6 87.0001 102.6 87.0001 102.6 86.9001C102.6 86.9001 102.6 86.9001 102.7 86.9001C102.7 86.9001 102.7 86.9001 102.8 86.8001L102.9 86.7001C103 86.6001 103 86.6001 103.1 86.6001C103.1 86.6001 103.2 86.5001 103.4 86.5001C103.4 86.4001 103.5 86.4001 103.5 86.4001C103.5 86.4001 103.6 86.4001 103.6 86.3001C103.6 86.2001 103.7 86.2001 103.8 86.3001C103.9 86.4001 103.9 86.4001 104 86.3001C104 86.3001 104 86.3001 104.1 86.3001C104.2 86.3001 104.3 86.3001 104.3 86.3001C104.4 86.3001 104.5 86.3001 104.6 86.4001H104.7V86.5001C104.7 86.6001 104.7 86.6001 104.7 86.6001C104.7 86.6001 104.7 86.6001 104.8 86.7001C104.8 86.7001 104.8 86.7001 104.9 86.8001C105 86.8001 105 86.8001 105.1 86.9001V87.0001L105 87.1001H104.9C104.9 87.1001 104.9 87.1001 104.8 87.1001L104.9 87.0001L105 87.1001C105.1 87.1001 105.1 87.1001 105.2 87.1001C105.3 87.2001 105.4 87.3001 105.3 87.4001L105.1 87.5001C105 87.5001 104.9 87.6001 104.9 87.6001C104.8 87.6001 104.8 87.6001 104.8 87.6001L104.7 87.7001C104.7 87.7001 104.6 87.8001 104.5 87.8001H104.4C104.4 87.8001 104.4 87.8001 104.4 87.9001C104.4 87.9001 104.4 87.9001 104.4 88.0001C104.4 88.1001 104.4 88.1001 104.3 88.2001C104.3 88.2001 104.3 88.3001 104.2 88.3001C104.2 88.3001 104.2 88.3001 104.1 88.3001C104.1 88.3001 104.1 88.4001 104 88.4001C104 88.5001 104 88.5001 104 88.6001H103.9H103.8C103.8 88.6001 103.8 88.6001 103.7 88.5001C103.7 88.5001 103.7 88.5001 103.6 88.4001H103.5C103.5 88.4001 103.5 88.5001 103.4 88.5001C103.4 88.5001 103.4 88.5001 103.3 88.5001V88.6001L103.2 88.7001C103.1 88.8001 103.1 88.9001 103 88.9001C102.9 88.9001 102.9 89.0001 102.8 89.1001C102.7 89.1001 102.6 89.2001 102.6 89.2001C102.6 89.2001 103.1 89.4001 103 89.4001V89.5001H103.1C103.2 89.6001 103.2 89.6001 103.2 89.7001L103.3 89.8001L103.4 89.9001C103.5 90.0001 103.6 90.1001 103.6 90.2001C103.6 90.3001 103.6 90.4001 103.6 90.4001C103.6 90.4001 103.5 90.5001 103.4 90.5001C103.4 90.5001 103.4 90.5001 103.3 90.5001C103.3 90.5001 103.3 90.5001 103.2 90.5001C103.2 90.5001 103.2 90.5001 103.2 90.6001C103.2 90.7001 103.3 90.7001 103.2 90.7001C103.2 90.7001 103.2 90.7001 103.1 90.7001C103.1 91.0001 103 91.0001 103 91.0001H102.9C102.8 90.9001 102.8 90.9001 102.8 90.9001C102.8 90.9001 102.8 90.8001 102.7 90.7001C102.6 90.7001 102.6 90.6001 102.6 90.6001C102.7 90.6001 102.8 90.6001 102.8 90.6001C102.9 90.6001 102.9 90.6001 103 90.5001C103 90.5001 103.1 90.5001 103.2 90.4001L103.4 90.5001V90.4001C103.3 90.3001 103.2 90.3001 103.3 90.2001L103.2 90.0001C103.1 90.0001 103 90.0001 102.9 89.9001L102.8 90.0001H102.7C102.8 90.1001 102.8 90.1001 102.8 90.2001C102.8 90.2001 102.8 90.2001 102.7 90.2001L102.6 90.3001C102.5 90.3001 102.5 90.3001 102.4 90.3001L102.5 90.4001L102.4 90.6001L102.3 90.7001L102.2 90.8001L102.1 91.0001C102.1 91.0001 102 91.0001 102 91.1001C102 91.1001 102 91.1001 102 91.2001C102 91.2001 102 91.2001 101.9 91.2001C101.9 91.2001 101.9 91.2001 101.8 91.2001V91.3001C101.7 91.4001 101.7 91.5001 101.6 91.5001L101.4 91.8001V92.0001C101.4 92.0001 101.4 92.0001 101.4 92.1001C101.4 92.1001 101.4 92.1001 101.4 92.2001C101.4 92.2001 101.3 92.2001 101.2 92.2001H101.1L101 92.3001C101 92.4001 101 92.4001 101 92.5001L100.9 92.6001V92.7001V92.8001C100.9 92.8001 100.9 92.9001 101 92.9001C101 92.9001 101.1 92.9001 101.1 93.0001L101.2 93.1001C101 93.1001 100.9 93.1001 100.8 93.1001C100.7 93.1001 100.6 93.1001 100.6 93.1001L100.5 93.2001L100.4 93.3001C100.4 93.4001 100.3 93.4001 100.3 93.5001C100.3 93.6001 100.3 93.6001 100.2 93.7001L100.1 93.8001C100 94.0001 100 94.0001 99.9 94.1001H99.8C99.8 94.1001 99.8 94.1001 99.8 94.2001C99.9 94.2001 99.9 94.3001 99.9 94.3001C99.9 94.3001 100 94.3001 100.1 94.3001C100.2 94.3001 100.2 94.4001 100.2 94.4001C100.2 94.4001 100.2 94.4001 100.3 94.5001C100.3 94.5001 100.3 94.5001 100.4 94.6001C100.5 94.6001 100.6 94.6001 100.6 94.6001V94.7001C100.5 94.8001 100.4 94.9001 100.3 95.0001C100.3 94.9001 100.2 95.0001 100.2 95.0001ZM103.7 89.6001V89.5001C103.7 89.4001 103.8 89.4001 104 89.4001C104 89.4001 104 89.3001 103.9 89.2001L103.8 89.1001C103.8 89.1001 103.8 89.1001 103.8 89.0001H104C104 89.0001 104 89.0001 104.1 89.0001C104.1 89.0001 104.1 89.0001 104.1 89.1001C104.1 89.1001 104.1 89.1001 104.2 89.2001L104.3 89.3001C104.3 89.4001 104.4 89.4001 104.4 89.4001C104.4 89.4001 104.3 89.4001 104.3 89.5001C103.9 89.7001 103.8 89.7001 103.7 89.6001ZM104.2 88.9001C104.1 88.9001 104.2 88.9001 104.3 88.9001L104.2 89.0001C104.2 89.0001 104.2 89.0001 104.2 88.9001ZM101.7 93.0001C101.6 93.0001 101.6 93.0001 101.5 93.0001C101.4 93.0001 101.4 92.9001 101.5 92.8001V92.7001H101.4C101.4 92.7001 101.3 92.7001 101.3 92.6001L101.2 92.5001C101.3 92.5001 101.4 92.5001 101.5 92.5001H102H102.1V92.6001H102C101.9 92.6001 101.9 92.6001 101.8 92.7001V92.8001C101.7 92.9001 101.7 92.9001 101.7 93.0001ZM102.6 91.5001C102.5 91.5001 102.5 91.4001 102.5 91.4001C102.5 91.5001 102.5 91.5001 102.6 91.5001ZM100.9 93.7001C101 93.7001 101 93.8001 101 93.8001V93.9001C101 94.0001 101 94.0001 101 94.0001L100.8 94.1001L100.7 94.0001V93.9001H100.8V93.8001C100.8 93.8001 100.8 93.8001 100.8 93.7001C100.7 93.7001 100.8 93.7001 100.9 93.7001ZM101.2 93.5001L101.3 93.6001C101.3 93.6001 101.2 93.7001 101.2 93.6001C101.1 93.6001 101.1 93.5001 101.1 93.5001C101.1 93.5001 101 93.5001 101 93.4001C100.9 93.4001 100.9 93.3001 100.9 93.3001C100.9 93.2001 101 93.2001 101.1 93.3001C101 93.4001 101.1 93.4001 101.2 93.5001ZM98.5 95.7001C98.4 95.7001 98.4 95.7001 98.5 95.7001C98.4 95.8001 98.4 95.8001 98.4 95.8001C98.4 95.7001 98.3 95.7001 98.3 95.7001C98.3 95.7001 98.3 95.7001 98.3 95.6001C98.3 95.6001 98.3 95.5001 98.2 95.5001C98.1 95.5001 98.1 95.5001 98.1 95.5001V95.6001L98 95.7001C97.9 95.7001 97.9 95.8001 97.8 95.8001C97.8 95.8001 97.7 95.8001 97.7 95.9001C97.7 96.0001 97.7 96.0001 97.7 96.0001C97.7 96.0001 97.8 96.0001 97.9 96.0001L98 95.9001C98.1 95.9001 98.1 95.8001 98.1 95.8001C98.1 95.8001 98.2 95.8001 98.3 95.8001V95.9001L98.2 96.0001V96.1001V96.2001L98.3 96.3001C98.4 96.4001 98.4 96.4001 98.4 96.5001L98.5 96.6001C98.6 96.6001 98.7 96.5001 98.7 96.4001C98.7 96.4001 98.7 96.3001 98.6 96.3001C98.6 96.3001 98.5 96.3001 98.5 96.2001C98.4 96.2001 98.4 96.1001 98.4 96.1001L98.5 96.0001C98.7 96.0001 98.8 96.0001 98.8 96.0001C98.9 96.0001 99 96.0001 99 96.0001V95.9001C99 95.9001 99 95.9001 99.1 95.9001H99.2V95.8001C99.2 95.8001 99.2 95.8001 99.1 95.7001C99.1 95.7001 99.1 95.7001 99 95.7001H98.9H98.8H98.7C98.6 95.6001 98.6 95.6001 98.5 95.7001ZM97.3 97.3001C97.3 97.4001 97.3 97.4001 97.3 97.4001V97.5001L97.4 97.6001C97.4 97.7001 97.5 97.7001 97.5 97.7001C97.6 97.7001 97.6 97.7001 97.6 97.7001C97.6 97.7001 97.6 97.7001 97.7 97.7001V97.6001C97.7 97.6001 97.7 97.6001 97.7 97.5001C97.7 97.4001 97.8 97.4001 97.9 97.3001L98.1 97.2001C98.1 97.2001 98.1 97.1001 98 97.1001C97.9 97.0001 97.8 97.0001 97.8 97.1001C97.8 97.2001 97.7 97.2001 97.5 97.1001C97.4 97.0001 97.4 97.0001 97.4 97.0001H97.3C97.3 97.0001 97.3 97.1001 97.4 97.2001H97.3C97.3 97.2001 97.3 97.2001 97.2 97.2001C97.4 97.3001 97.3 97.3001 97.3 97.3001ZM99.8 94.4001C99.8 94.3001 99.8 94.3001 99.8 94.3001C99.7 94.3001 99.7 94.3001 99.7 94.3001C99.7 94.4001 99.7 94.4001 99.8 94.4001C99.7 94.4001 99.7 94.4001 99.8 94.4001ZM95.7 98.8001L95.6 98.9001V99.0001C95.6 99.0001 95.6 99.0001 95.6 99.1001C95.6 99.1001 95.6 99.2001 95.7 99.3001V99.4001C95.7 99.4001 95.7 99.5001 95.7 99.6001C95.8 99.7001 95.8 99.8001 95.7 99.8001L95.6 99.9001L95.5 100C95.5 100 95.4 100 95.4 100.1V100.2V100.3C95.4 100.4 95.4 100.4 95.4 100.4H95.5V100.3C95.6 100.2 95.6 100 95.7 100C95.7 99.9001 95.8 99.9001 95.9 99.8001C96 99.7001 96.1 99.6001 96.2 99.5001C96.2 99.4001 96.2 99.4001 96.2 99.3001C96.3 99.2001 96.4 99.1001 96.5 99.1001C96.6 99.1001 96.6 99.0001 96.7 98.9001C96.7 98.8001 96.8 98.8001 96.8 98.7001C96.8 98.6001 96.8 98.6001 96.9 98.5001L97 98.3001V98.2001C97 98.2001 97.1 98.2001 97.1 98.1001C97.1 98.0001 97.1 98.0001 97.1 98.0001C97.2 98.0001 97.3 97.9001 97.3 97.9001H97.4C97.3 97.9001 97.3 97.8001 97.3 97.8001C97.1 97.8001 97 97.8001 97 97.9001V98.0001C97 98.1001 96.9 98.1001 96.9 98.0001C96.9 98.0001 96.9 98.0001 96.8 98.0001C96.8 97.9001 96.7 97.9001 96.7 97.8001V97.7001C96.7 97.7001 96.6 97.7001 96.5 97.7001C96.5 97.7001 96.5 97.8001 96.5 97.9001H96.4C96.4 98.0001 96.5 98.1001 96.5 98.1001C96.6 98.1001 96.6 98.2001 96.6 98.2001V98.3001C96.5 98.3001 96.4 98.3001 96.4 98.3001C96.4 98.3001 96.4 98.2001 96.3 98.2001C96.2 98.1001 96.1 98.1001 96 98.2001L95.9 98.3001C95.8 98.7001 95.8 98.8001 95.7 98.8001ZM97.3 97.9001L97.4 97.8001L97.3 97.9001ZM101.4 90.9001C101.3 90.9001 101.4 91.0001 101.4 91.0001V90.9001ZM100.4 92.3001C100.5 92.4001 100.5 92.4001 100.5 92.4001C100.5 92.4001 100.6 92.3001 100.7 92.2001L100.4 92.3001C100.5 92.3001 100.4 92.3001 100.4 92.3001ZM100.9 91.2001H101H100.9ZM97.4 96.1001C97.3 96.0001 97.2 96.0001 97.2 96.0001L97.4 96.1001C97.3 96.2001 97.4 96.1001 97.4 96.1001ZM93.1 103.1V103V102.9C93.1 103 93.1 103 93.1 103C93.1 102.9 93.1 103 93.1 103.1ZM96 98.1001C96 98.0001 96 98.0001 96.1 97.9001C96.2 97.8001 96.2 97.8001 96.3 97.7001C96.3 97.7001 96.2 97.7001 96.2 97.8001L96.1 97.9001C95.8 98.0001 95.7 98.0001 95.6 98.0001L95.5 98.1001C95.5 98.1001 95.5 98.2001 95.6 98.2001H95.7C95.7 98.2001 95.8 98.1001 95.8 98.2001H95.9C95.9 98.1001 95.9 98.1001 96 98.1001ZM98.6 93.3001H98.5C98.5 93.3001 98.5 93.3001 98.5 93.4001H98.7L98.6 93.3001ZM93.2 102.1C93.3 102.2 93.3 102.2 93.2 102.1C93.3 102.1 93.3 102 93.3 101.9C93.2 102.1 93.2 102.1 93.2 102.1ZM95.3 98.9001V98.8001H95.2L95.1 98.9001V99.0001C95.1 99.0001 95.1 99.0001 95 99.0001V99.1001C95.1 99.1001 95.1 99.1001 95.1 99.1001L95.3 98.9001C95.2 98.9001 95.2 98.9001 95.3 98.9001ZM98.3 93.8001L98.4 93.6001C98.4 93.6001 98.4 93.6001 98.4 93.5001C98.4 93.5001 98.4 93.5001 98.3 93.5001L98.2 93.4001C98.1 93.4001 98.1 93.4001 98.1 93.5001C98.1 93.6001 98 93.6001 98 93.6001C98 93.6001 98 93.6001 98 93.7001C98.1 93.8001 98.1 93.8001 98.1 93.9001C98.1 93.9001 98.1 93.9001 98.2 93.9001C98.3 93.8001 98.3 93.8001 98.3 93.8001ZM87.4 97.6001C87.4 97.5001 87.4 97.5001 87.4 97.5001L87.3 97.6001V97.7001L87.4 97.6001ZM97.9 93.5001C97.8 93.5001 97.8 93.5001 97.8 93.5001H97.9ZM99.7 90.4001C99.7 90.4001 99.7 90.4001 99.6 90.4001C99.6 90.4001 99.6 90.4001 99.7 90.4001C99.6 90.4001 99.6 90.4001 99.7 90.4001ZM91.6 100L91.7 100.2C91.7 100.3 91.7 100.2 91.7 100.2C91.7 100.1 91.7 100.1 91.7 100.1L91.5 99.7001C91.5 99.7001 91.5 99.7001 91.5 99.8001L91.6 100C91.5 100 91.5 100 91.6 100ZM93.3 99.0001V98.9001C93.2 98.9001 93.2 98.9001 93.3 99.0001ZM91.6 98.5001V98.4001V98.3001C91.6 98.3001 91.6 98.3001 91.6 98.2001L91.5 97.9001V98.0001V98.1001C91.5 98.2001 91.5 98.3001 91.6 98.4001V98.5001C91.6 98.4001 91.6 98.4001 91.6 98.5001ZM91 97.6001V97.5001V97.6001ZM88.7 94.7001L88.8 94.6001C88.8 94.6001 88.8 94.6001 88.7 94.7001C88.7 94.6001 88.7 94.6001 88.7 94.7001Z" fill="white"/>
</g>
<path d="M67.544 147.112C66.5827 147.112 65.7427 146.907 65.024 146.496C64.3147 146.076 63.7687 145.483 63.386 144.718C63.0033 143.953 62.812 143.047 62.812 142.002C62.812 140.966 63.0033 140.065 63.386 139.3C63.7687 138.535 64.3147 137.947 65.024 137.536C65.7427 137.125 66.5827 136.92 67.544 136.92C68.2253 136.92 68.8553 137.027 69.434 137.242C70.022 137.447 70.5167 137.751 70.918 138.152L70.414 139.216C69.9473 138.833 69.4853 138.558 69.028 138.39C68.58 138.213 68.09 138.124 67.558 138.124C66.522 138.124 65.7193 138.46 65.15 139.132C64.59 139.804 64.31 140.761 64.31 142.002C64.31 143.253 64.59 144.219 65.15 144.9C65.7193 145.572 66.522 145.908 67.558 145.908C68.09 145.908 68.58 145.824 69.028 145.656C69.4853 145.479 69.9473 145.199 70.414 144.816L70.918 145.88C70.5167 146.281 70.022 146.589 69.434 146.804C68.8553 147.009 68.2253 147.112 67.544 147.112ZM75.5076 147.098C74.8169 147.098 74.2103 146.949 73.6876 146.65C73.1649 146.351 72.7589 145.927 72.4696 145.376C72.1896 144.825 72.0496 144.181 72.0496 143.444C72.0496 142.707 72.1896 142.063 72.4696 141.512C72.7589 140.952 73.1649 140.523 73.6876 140.224C74.2103 139.925 74.8169 139.776 75.5076 139.776C76.1889 139.776 76.7909 139.925 77.3136 140.224C77.8363 140.523 78.2376 140.952 78.5176 141.512C78.8069 142.063 78.9516 142.707 78.9516 143.444C78.9516 144.181 78.8069 144.825 78.5176 145.376C78.2376 145.927 77.8363 146.351 77.3136 146.65C76.7909 146.949 76.1889 147.098 75.5076 147.098ZM75.4936 145.978C76.1469 145.978 76.6463 145.763 76.9916 145.334C77.3369 144.905 77.5096 144.275 77.5096 143.444C77.5096 142.632 77.3323 142.007 76.9776 141.568C76.6323 141.129 76.1423 140.91 75.5076 140.91C74.8636 140.91 74.3643 141.129 74.0096 141.568C73.6549 142.007 73.4776 142.632 73.4776 143.444C73.4776 144.275 73.6503 144.905 73.9956 145.334C74.3503 145.763 74.8496 145.978 75.4936 145.978ZM84.3564 139.776C86.0457 139.776 86.8904 140.719 86.8904 142.604V147H85.4764V142.688C85.4764 142.072 85.355 141.624 85.1124 141.344C84.879 141.064 84.501 140.924 83.9784 140.924C83.381 140.924 82.9004 141.111 82.5364 141.484C82.1817 141.857 82.0044 142.357 82.0044 142.982V147H80.6044V141.932C80.6044 141.195 80.567 140.532 80.4924 139.944H81.8084L81.9344 141.162C82.1584 140.714 82.4804 140.373 82.9004 140.14C83.3297 139.897 83.815 139.776 84.3564 139.776ZM90.7372 141.036V144.578C90.7372 145.063 90.8399 145.409 91.0452 145.614C91.2599 145.81 91.5539 145.908 91.9272 145.908C92.1699 145.908 92.4172 145.871 92.6692 145.796V146.944C92.3612 147.047 92.0112 147.098 91.6192 147.098C90.8912 147.098 90.3265 146.893 89.9252 146.482C89.5239 146.071 89.3232 145.474 89.3232 144.69V141.036H87.9512V139.944H89.3232V138.18L90.7372 137.69V139.944H92.6832V141.036H90.7372ZM100.443 139.944V147H99.0431V145.796C98.8378 146.216 98.5298 146.538 98.1191 146.762C97.7178 146.986 97.2465 147.098 96.7051 147.098C96.0798 147.098 95.5291 146.949 95.0531 146.65C94.5865 146.351 94.2225 145.931 93.9611 145.39C93.6998 144.839 93.5691 144.2 93.5691 143.472C93.5691 142.744 93.6998 142.1 93.9611 141.54C94.2318 140.98 94.6051 140.546 95.0811 140.238C95.5571 139.93 96.0985 139.776 96.7051 139.776C97.2465 139.776 97.7178 139.893 98.1191 140.126C98.5205 140.35 98.8285 140.672 99.0431 141.092V139.944H100.443ZM97.0411 145.978C97.6758 145.978 98.1658 145.759 98.5111 145.32C98.8658 144.872 99.0431 144.247 99.0431 143.444C99.0431 142.632 98.8658 142.007 98.5111 141.568C98.1658 141.129 97.6711 140.91 97.0271 140.91C96.3925 140.91 95.8931 141.139 95.5291 141.596C95.1745 142.044 94.9971 142.669 94.9971 143.472C94.9971 144.265 95.1745 144.881 95.5291 145.32C95.8931 145.759 96.3971 145.978 97.0411 145.978ZM105.586 147.098C104.877 147.098 104.256 146.949 103.724 146.65C103.202 146.351 102.8 145.931 102.52 145.39C102.24 144.839 102.1 144.2 102.1 143.472C102.1 142.744 102.245 142.1 102.534 141.54C102.833 140.98 103.248 140.546 103.78 140.238C104.312 139.93 104.933 139.776 105.642 139.776C106.137 139.776 106.613 139.86 107.07 140.028C107.528 140.187 107.896 140.406 108.176 140.686L107.742 141.708C107.08 141.185 106.412 140.924 105.74 140.924C105.059 140.924 104.527 141.148 104.144 141.596C103.762 142.035 103.57 142.655 103.57 143.458C103.57 144.261 103.762 144.881 104.144 145.32C104.527 145.749 105.059 145.964 105.74 145.964C106.431 145.964 107.098 145.703 107.742 145.18L108.176 146.202C107.878 146.482 107.495 146.701 107.028 146.86C106.571 147.019 106.09 147.098 105.586 147.098ZM111.368 141.036V144.578C111.368 145.063 111.471 145.409 111.676 145.614C111.891 145.81 112.185 145.908 112.558 145.908C112.801 145.908 113.048 145.871 113.3 145.796V146.944C112.992 147.047 112.642 147.098 112.25 147.098C111.522 147.098 110.957 146.893 110.556 146.482C110.155 146.071 109.954 145.474 109.954 144.69V141.036H108.582V139.944H109.954V138.18L111.368 137.69V139.944H113.314V141.036H111.368ZM122.468 147.112C121.143 147.112 120.135 146.767 119.444 146.076C118.763 145.385 118.422 144.373 118.422 143.038V137.032H119.836V143.136C119.836 144.06 120.056 144.76 120.494 145.236C120.942 145.703 121.6 145.936 122.468 145.936C123.327 145.936 123.976 145.698 124.414 145.222C124.862 144.746 125.086 144.051 125.086 143.136V137.032H126.514V143.038C126.514 144.373 126.169 145.385 125.478 146.076C124.797 146.767 123.794 147.112 122.468 147.112ZM131.111 147.098C129.879 147.098 128.909 146.799 128.199 146.202L128.619 145.18C129.357 145.74 130.201 146.02 131.153 146.02C131.639 146.02 132.007 145.941 132.259 145.782C132.511 145.614 132.637 145.381 132.637 145.082C132.637 144.83 132.549 144.634 132.371 144.494C132.203 144.345 131.914 144.219 131.503 144.116L130.327 143.836C129.711 143.705 129.24 143.477 128.913 143.15C128.596 142.814 128.437 142.399 128.437 141.904C128.437 141.269 128.689 140.756 129.193 140.364C129.707 139.972 130.383 139.776 131.223 139.776C131.727 139.776 132.203 139.855 132.651 140.014C133.109 140.173 133.496 140.397 133.813 140.686L133.379 141.68C132.698 141.139 131.979 140.868 131.223 140.868C130.766 140.868 130.411 140.957 130.159 141.134C129.907 141.302 129.781 141.54 129.781 141.848C129.781 142.091 129.861 142.287 130.019 142.436C130.178 142.585 130.43 142.702 130.775 142.786L131.979 143.08C132.651 143.229 133.146 143.467 133.463 143.794C133.79 144.111 133.953 144.527 133.953 145.04C133.953 145.675 133.697 146.179 133.183 146.552C132.679 146.916 131.989 147.098 131.111 147.098Z" fill="white"/>
<defs>
<clipPath id="clip0_982_163">
<rect width="35.7" height="40.5" fill="white" transform="translate(69 9)"/>
</clipPath>
<clipPath id="clip1_982_163">
<rect width="37.8" height="42.3" fill="white" transform="translate(10 87)"/>
</clipPath>
<clipPath id="clip2_982_163">
<rect width="21.3" height="18" fill="white" transform="translate(84 86)"/>
</clipPath>
</defs>
</svg>
