<?xml version="1.0" encoding="utf-8"?>
<!-- Generator: Adobe Illustrator 22.1.0, SVG Export Plug-In . SVG Version: 6.00 Build 0)  -->
<svg version="1.1" id="Capa_1" xmlns="http://www.w3.org/2000/svg" xmlns:xlink="http://www.w3.org/1999/xlink" x="0px" y="0px"
	 viewBox="0 0 618 769.9" style="enable-background:new 0 0 618 769.9;" xml:space="preserve">
<style type="text/css">
	.st0{fill:none;stroke:#FFFFFF;stroke-width:42;stroke-linecap:round;stroke-miterlimit:10;}
	.st1{fill:#FFFFFF;stroke:#FFFFFF;stroke-width:42;stroke-linecap:round;stroke-miterlimit:10;}
</style>
<g>
	<path class="st0" d="M276.6,748.9h-46.3c-9.9,0-18-8.1-18-18V563.7c0-9.9,8.1-18,18-18h46.3c9.9,0,18,8.1,18,18v167.2
		C294.6,740.8,286.5,748.9,276.6,748.9z"/>
	<path class="st0" d="M125.4,748.9H79.1c-9.9,0-18-8.1-18-18v-91.5c0-9.9,8.1-18,18-18h46.3c9.9,0,18,8.1,18,18v91.5
		C143.4,740.8,135.3,748.9,125.4,748.9z"/>
	<path class="st0" d="M427.8,748.9h-46.3c-9.9,0-18-8.1-18-18V484.3c0-9.9,8.1-18,18-18h46.3c9.9,0,18,8.1,18,18v246.6
		C445.8,740.8,437.7,748.9,427.8,748.9z"/>
	<path class="st0" d="M579,748.9h-46.3c-9.9,0-18-8.1-18-18V407.6c0-9.9,8.1-18,18-18H579c9.9,0,18,8.1,18,18v323.3
		C597,740.8,588.9,748.9,579,748.9z"/>
	<circle class="st0" cx="188.3" cy="203.2" r="157.3"/>
	<path class="st1" d="M376.4,200.2c0-98.9-80.2-179.2-179.2-179.2v179.5L376.4,200.2z"/>
</g>
</svg>
