<?xml version="1.0" encoding="utf-8"?>
<!-- Generator: Adobe Illustrator 22.1.0, SVG Export Plug-In . SVG Version: 6.00 Build 0)  -->
<svg version="1.1" id="Layer_1" xmlns="http://www.w3.org/2000/svg" xmlns:xlink="http://www.w3.org/1999/xlink" x="0px" y="0px"
	 viewBox="0 0 234.1 287.2" style="enable-background:new 0 0 234.1 287.2;" xml:space="preserve">
<style type="text/css">
	.st0{fill:#FFFFFF;}
</style>
<g>
	<path class="st0" d="M234.1,25.3c0-14-11.2-25.3-25.1-25.3h-184C11.2,0,0,11.3,0,25.3v236.5c0,14,11.2,25.3,25.1,25.3h33.4
		c5.3,0,11.2,0,16.7,0h3.1h130.7c13.9,0,25.1-11.3,25.1-25.3V50.7c0-5.3,0-11.6,0-16.9V25.3z M217.4,261.8c0,4.7-3.7,8.4-8.4,8.4
		h-184c-4.6,0-8.4-3.8-8.4-8.4V25.3c0-4.7,3.7-8.4,8.4-8.4h184c4.6,0,8.4,3.8,8.4,8.4V261.8z"/>
	<path class="st0" d="M197.6,34h-161v50h161V34z M182.9,69.7H51.2V48.3h131.7V69.7z"/>
	<path class="st0" d="M69.1,96h-16c-8.8,0-16,7.2-16,16v16c0,8.8,7.2,16,16,16h16c8.8,0,16-7.2,16-16v-16C85.1,103.2,78,96,69.1,96z
		 M53.1,128v-16h16v16H53.1z"/>
	<path class="st0" d="M125.1,96h-16c-8.8,0-16,7.2-16,16v16c0,8.8,7.2,16,16,16h16c8.8,0,16-7.2,16-16v-16
		C141.1,103.2,133.9,96,125.1,96z M109.1,128v-16h16v16H109.1z"/>
	<path class="st0" d="M181.1,96h-16c-8.8,0-16,7.2-16,16v16c0,8.8,7.2,16,16,16h16c8.8,0,16-7.2,16-16v-16
		C197.1,103.2,190,96,181.1,96z M165.1,128v-16h16v16H165.1z"/>
	<path class="st0" d="M69.1,152h-16c-8.8,0-16,7.2-16,16v16c0,8.8,7.2,16,16,16h16c8.8,0,16-7.2,16-16v-16
		C85.1,159.2,78,152,69.1,152z M53.1,184v-16h16v16H53.1z"/>
	<path class="st0" d="M125.1,152h-16c-8.8,0-16,7.2-16,16v16c0,8.8,7.2,16,16,16h16c8.8,0,16-7.2,16-16v-16
		C141.1,159.2,133.9,152,125.1,152z M109.1,184v-16h16v16H109.1z"/>
	<path class="st0" d="M181.1,152h-16c-8.8,0-16,7.2-16,16v16c0,8.8,7.2,16,16,16h16c8.8,0,16-7.2,16-16v-16
		C197.1,159.2,190,152,181.1,152z M165.1,184v-16h16v16H165.1z"/>
	<path class="st0" d="M69.1,208h-16c-8.8,0-16,7.2-16,16v16c0,8.8,7.2,16,16,16h16c8.8,0,16-7.2,16-16v-16
		C85.1,215.2,78,208,69.1,208z M53.1,240v-16h16v16H53.1z"/>
	<path class="st0" d="M125.1,208h-16c-8.8,0-16,7.2-16,16v16c0,8.8,7.2,16,16,16h16c8.8,0,16-7.2,16-16v-16
		C141.1,215.2,133.9,208,125.1,208z M109.1,240v-16h16v16H109.1z"/>
	<path class="st0" d="M181.1,208h-16c-8.8,0-16,7.2-16,16v16c0,8.8,7.2,16,16,16h16c8.8,0,16-7.2,16-16v-16
		C197.1,215.2,190,208,181.1,208z M165.1,240v-16h16v16H165.1z"/>
</g>
</svg>
