<?xml version="1.0" encoding="utf-8"?>
<!-- Generator: Adobe Illustrator 22.1.0, SVG Export Plug-In . SVG Version: 6.00 Build 0)  -->
<svg version="1.1" id="Capa_1" xmlns="http://www.w3.org/2000/svg" xmlns:xlink="http://www.w3.org/1999/xlink" x="0px" y="0px"
	 viewBox="0 0 283.4 293.1" style="enable-background:new 0 0 283.4 293.1;" xml:space="preserve">
<style type="text/css">
	.st0{fill:none;stroke:#FFFFFF;stroke-width:16;stroke-linecap:round;stroke-linejoin:round;stroke-miterlimit:10;}
	.st1{fill:none;stroke:#FFFFFF;stroke-width:12;stroke-linecap:round;stroke-linejoin:round;stroke-miterlimit:10;}
</style>
<g>
	<path class="st0" d="M97,169.5c0,0-28.9,0-52.7,0c-39.2,0-58.8-76.6,5.1-80.8c3.2-39,26.5-46.7,54.3-41.1
		C122,0.1,193.4-8.9,219.3,44"/>
	<path class="st0" d="M176.1,169.8c0,0,34.9,0,51.5,0c68.6,0,58.2-83.4,1.4-83.4c0-11.8,0-20.8,0-20.8"/>
	<polyline class="st0" points="42.5,228 118.2,228 118.2,113 	"/>
	<polyline class="st0" points="148.6,149.4 148.6,204 184,204 	"/>
	<line class="st0" x1="170.8" y1="239.9" x2="242.1" y2="239.9"/>
	<line class="st0" x1="271" y1="273.3" x2="66" y2="273.3"/>
	<circle class="st1" cx="157" cy="239.9" r="11.8"/>
	<circle class="st1" cx="259.2" cy="239.9" r="11.8"/>
	<circle class="st1" cx="200.2" cy="204.9" r="11.8"/>
	<circle class="st1" cx="54.2" cy="273.3" r="11.8"/>
	<circle class="st1" cx="150" cy="135.4" r="11.8"/>
	<circle class="st1" cx="180.2" cy="96.5" r="11.8"/>
	<circle class="st1" cx="118.6" cy="96.5" r="11.8"/>
	<circle class="st1" cx="73" cy="135.4" r="11.8"/>
</g>
</svg>
