<?xml version="1.0" encoding="utf-8"?>
<!-- Generator: Adobe Illustrator 22.1.0, SVG Export Plug-In . SVG Version: 6.00 Build 0)  -->
<svg version="1.1" id="Capa_1" xmlns="http://www.w3.org/2000/svg" xmlns:xlink="http://www.w3.org/1999/xlink" x="0px" y="0px"
	 viewBox="0 0 877 1020" style="enable-background:new 0 0 877 1020;" xml:space="preserve">
<style type="text/css">
	.st0{fill:#FFFFFF;}
	.st1{fill:none;stroke:#FFFFFF;stroke-width:65;stroke-linecap:round;stroke-linejoin:round;stroke-miterlimit:10;}
	.st2{fill:none;stroke:#FFFFFF;stroke-width:65;stroke-linecap:round;stroke-miterlimit:10;}
</style>
<g>
	<path class="st0" d="M3554.1,2783.7v598.1H3049v-598.1H3554.1 M3565.1,2718.7H3038c-29.8,0-54,24.2-54,54v620.1
		c0,29.8,24.2,54,54,54h527.1c29.8,0,54-24.2,54-54v-620.1C3619.1,2742.8,3594.9,2718.7,3565.1,2718.7L3565.1,2718.7z"/>
</g>
<path class="st1" d="M3605.3,2875.2h204c0,0,9,285.6-195,353.8"/>
<g>
	<path class="st0" d="M3090,3042.7l136.1-60.3v47.6l-98.2,40.9l98.2,40.9v47.6l-136.1-60.3V3042.7z"/>
	<path class="st0" d="M3315.4,2920.9h48.5l-80.5,312.6H3235L3315.4,2920.9z"/>
	<path class="st0" d="M3512.6,3099.1l-135.7,60.3v-47.6l97.8-40.9L3377,3030v-47.6l135.7,60.3V3099.1z"/>
</g>
<g>
	<line class="st2" x1="3277.1" y1="2480.6" x2="3205.5" y2="2610.7"/>
	<line class="st2" x1="3445.1" y1="2480.6" x2="3373.5" y2="2610.7"/>
</g>
</svg>
