<?xml version="1.0" encoding="utf-8"?>
<!-- Generator: Adobe Illustrator 22.1.0, SVG Export Plug-In . SVG Version: 6.00 Build 0)  -->
<svg version="1.1" id="Capa_1" xmlns="http://www.w3.org/2000/svg" xmlns:xlink="http://www.w3.org/1999/xlink" x="0px" y="0px"
	 viewBox="0 0 329.3 265.7" style="enable-background:new 0 0 329.3 265.7;" xml:space="preserve">
<style type="text/css">
	.st0{fill:#FFFFFF;stroke:#3E78FE;stroke-width:4;stroke-miterlimit:10;}
</style>
<path class="st0" d="M291.3,139.7l-17.8-4.3v-3.2c11.6-8.1,19.1-21.5,19.1-36.7V72.4c0-24.7-20.1-44.8-44.8-44.8
	c-11.1,0-21.2,4.1-29,10.7C210.1,17.1,189.2,2,164.7,2c-24.5,0-45.4,15.1-54.1,36.5c-7.8-6.7-18-10.8-29.1-10.8
	c-24.7,0-44.8,20.1-44.8,44.8V74v21.6c0,15.2,7.6,28.6,19.1,36.7v3.2l-17.8,4.3C16.8,144.7,2,163.5,2,185.4V204c0,5.5,4.5,10,10,10
	h46c-0.1,1.2-0.1,2.4-0.1,3.7v36c0,5.5,4.5,10,10,10l132.4,0h61.1c5.5,0,10-4.5,10-10v-35.9c0-1.2,0-2.5-0.1-3.7h46.1
	c5.5,0,10-4.5,10-10v-18.7C327.3,163.5,312.5,144.7,291.3,139.7z M247.9,47.7c13.1,0,23.9,10.2,24.7,23.1h-13.9
	c-11.7,0-23.2-2.8-33.5-8.2C228.9,53.8,237.7,47.7,247.9,47.7z M223.1,94.1c0-0.5,0-1,0-1.5v-8.9c11.2,4.6,23.3,7.1,35.5,7.1h14v4.8
	c0,13.6-11.1,24.8-24.8,24.8s-24.8-11.1-24.8-24.8V94.1z M213.7,124.4c2.5,3,5.4,5.6,8.6,7.8v3.1l-17.9,4.3
	c-2.8,0.7-5.5,1.6-8.1,2.7v-0.7C203.3,137.2,209.2,131.3,213.7,124.4z M126.3,60.4c0-21.2,17.2-38.4,38.4-38.4
	c19.1,0,35,14,37.9,32.3l-16.8-9.9c-4.2-2.5-9.6-1.5-12.7,2.2c-8.2,9.8-20.3,15.4-33.1,15.4h-13.7V60.4z M126.3,82.1H140
	c15.9,0,30.9-5.9,42.5-16.4l20.6,12.1v16.3c-0.8,20.5-17.7,36.9-38.4,36.9c-21.2,0-38.4-17.2-38.4-38.4V82.1z M176.4,149.9v7.2
	l-11.7,26.6L152.9,157v-7.1c3.8,0.8,7.8,1.2,11.8,1.2C168.7,151,172.6,150.6,176.4,149.9z M107,132.2c3.2-2.3,6.1-4.9,8.7-7.9
	c4.5,6.9,10.3,12.8,17.2,17.2v0.8h0h0c-2.6-1.1-5.2-2-8-2.7l-17.9-4.3V132.2z M81.5,47.7c10.2,0,18.9,6.2,22.7,15
	c-10.3,5.4-21.8,8.2-33.5,8.2H56.8C57.6,57.9,68.4,47.7,81.5,47.7z M56.7,90.8h14c12.2,0,24.3-2.4,35.6-7.1v11.8
	c0,13.7-11.1,24.8-24.8,24.8s-24.8-11.1-24.8-24.8V90.8z M62.5,194H22v-8.7c0-12.5,8.5-23.3,20.7-26.3l25.5-6.1
	c4.5-1.1,7.7-5.1,7.7-9.7v-3.4c1.8,0.2,3.7,0.4,5.6,0.4c1.9,0,3.7-0.1,5.6-0.4v2.9c0,0.1,0,0.3,0,0.4c0,3.3,1.6,6.5,4.6,8.4
	c1.1,0.7,2.3,1.2,3.6,1.4l14.9,3.6l-5.1,1.2C85.4,162.6,69.9,176.3,62.5,194z M251.4,243.7H77.8v-26c0-19.3,13.1-35.9,31.9-40.4
	l27.4-6.6l18.4,41.8c1.6,3.6,5.2,6,9.2,6h0c4,0,7.6-2.3,9.2-6l18.3-41.7l27.4,6.5c18.8,4.5,31.9,21.1,31.9,40.4V243.7z M307.3,194
	h-40.7c-7.4-17.7-22.8-31.5-42.5-36.2l-5-1.2l15-3.6c1.2-0.2,2.5-0.7,3.6-1.4c3-1.9,4.6-5.1,4.6-8.4c0-0.1,0-0.2,0-0.2v-3.1
	c1.8,0.2,3.7,0.4,5.6,0.4c1.9,0,3.8-0.1,5.6-0.4v3.4c0,4.6,3.2,8.7,7.7,9.7l25.5,6.1c12.2,2.9,20.7,13.7,20.7,26.3V194z"/>
</svg>
