<?xml version="1.0" encoding="utf-8"?>
<!-- Generator: Adobe Illustrator 22.1.0, SVG Export Plug-In . SVG Version: 6.00 Build 0)  -->
<svg version="1.1" id="Capa_1" xmlns="http://www.w3.org/2000/svg" xmlns:xlink="http://www.w3.org/1999/xlink" x="0px" y="0px"
	 viewBox="0 0 625 601.1" style="enable-background:new 0 0 625 601.1;" xml:space="preserve">
<style type="text/css">
	.st0{fill:#FFFFFF;}
	.st1{fill:none;stroke:#FFFFFF;stroke-width:12;stroke-linecap:round;stroke-linejoin:round;stroke-miterlimit:10;}
	.st2{fill:none;stroke:#FFFFFF;stroke-width:29;stroke-linecap:round;stroke-linejoin:round;stroke-miterlimit:10;}
</style>
<g>
	<g>
		<g>
			<g>
				<path class="st0" d="M317.1,14c-26.5,0-48,21.5-48,48s21.5,48,48,48c26.5,0,48-21.5,48-48C365.1,35.5,343.6,14,317.1,14z
					 M317.1,94c-17.7,0-32-14.3-32-32s14.3-32,32-32s32,14.3,32,32S334.7,94,317.1,94z"/>
			</g>
		</g>
		<g>
			<g>
				<path class="st1" d="M317.1,14c-26.5,0-48,21.5-48,48s21.5,48,48,48c26.5,0,48-21.5,48-48C365.1,35.5,343.6,14,317.1,14z
					 M317.1,94c-17.7,0-32-14.3-32-32s14.3-32,32-32s32,14.3,32,32S334.7,94,317.1,94z"/>
			</g>
		</g>
	</g>
	<g>
		<g>
			<g>
				<path class="st0" d="M349.1,122h-1.9l-1.7,0.8c-17.9,8.9-38.9,8.9-56.8,0l-1.7-0.8h-1.9c-22.1,0-40,17.9-40,40v48
					c0,13.3,10.7,24,24,24h96c13.3,0,24-10.7,24-24v-48C389,139.9,371.1,122,349.1,122z M373.1,210c0,4.4-3.6,8-8,8h-96
					c-4.4,0-8-3.6-8-8v-48c0-12.6,9.7-23,22.3-23.9c21.4,9.9,46,9.9,67.4,0c12.6,0.9,22.3,11.3,22.3,23.9V210z"/>
			</g>
		</g>
		<g>
			<g>
				<path class="st1" d="M349.1,122h-1.9l-1.7,0.8c-17.9,8.9-38.9,8.9-56.8,0l-1.7-0.8h-1.9c-22.1,0-40,17.9-40,40v48
					c0,13.3,10.7,24,24,24h96c13.3,0,24-10.7,24-24v-48C389,139.9,371.1,122,349.1,122z M373.1,210c0,4.4-3.6,8-8,8h-96
					c-4.4,0-8-3.6-8-8v-48c0-12.6,9.7-23,22.3-23.9c21.4,9.9,46,9.9,67.4,0c12.6,0.9,22.3,11.3,22.3,23.9V210z"/>
			</g>
		</g>
	</g>
	<g>
		<g>
			<g>
				<path class="st0" d="M539,321c-26.5,0-48,21.5-48,48s21.5,48,48,48s48-21.5,48-48C587,342.5,565.5,321,539,321z M539,401
					c-17.7,0-32-14.3-32-32s14.3-32,32-32s32,14.3,32,32S556.7,401,539,401z"/>
			</g>
		</g>
		<g>
			<g>
				<path class="st1" d="M539,321c-26.5,0-48,21.5-48,48s21.5,48,48,48s48-21.5,48-48C587,342.5,565.5,321,539,321z M539,401
					c-17.7,0-32-14.3-32-32s14.3-32,32-32s32,14.3,32,32S556.7,401,539,401z"/>
			</g>
		</g>
	</g>
	<g>
		<g>
			<g>
				<path class="st0" d="M571,431h-1.9l-1.7,0.8c-17.9,8.9-38.9,8.9-56.8,0l-1.7-0.8H507c-22.1,0-40,17.9-40,40v48
					c0,13.3,10.7,24,24,24h96c13.3,0,24-10.7,24-24v-48C611,448.9,593.1,431,571,431z M595,519c0,4.4-3.6,8-8,8h-96
					c-4.4,0-8-3.6-8-8v-48c0-12.6,9.7-23,22.3-23.9c21.4,9.9,46,9.9,67.4,0C585.3,448,595,458.4,595,471V519z"/>
			</g>
		</g>
		<g>
			<g>
				<path class="st1" d="M571,431h-1.9l-1.7,0.8c-17.9,8.9-38.9,8.9-56.8,0l-1.7-0.8H507c-22.1,0-40,17.9-40,40v48
					c0,13.3,10.7,24,24,24h96c13.3,0,24-10.7,24-24v-48C611,448.9,593.1,431,571,431z M595,519c0,4.4-3.6,8-8,8h-96
					c-4.4,0-8-3.6-8-8v-48c0-12.6,9.7-23,22.3-23.9c21.4,9.9,46,9.9,67.4,0C585.3,448,595,458.4,595,471V519z"/>
			</g>
		</g>
	</g>
	<g>
		<g>
			<g>
				<path class="st0" d="M86,322c-26.5,0-48,21.5-48,48s21.5,48,48,48s48-21.5,48-48C134,343.5,112.5,322,86,322z M86,402
					c-17.7,0-32-14.3-32-32s14.3-32,32-32s32,14.3,32,32S103.7,402,86,402z"/>
			</g>
		</g>
		<g>
			<g>
				<path class="st1" d="M86,322c-26.5,0-48,21.5-48,48s21.5,48,48,48s48-21.5,48-48C134,343.5,112.5,322,86,322z M86,402
					c-17.7,0-32-14.3-32-32s14.3-32,32-32s32,14.3,32,32S103.7,402,86,402z"/>
			</g>
		</g>
	</g>
	<g>
		<g>
			<g>
				<path class="st0" d="M118,431h-1.9l-1.7,0.8c-17.9,8.9-38.9,8.9-56.8,0l-1.7-0.8H54c-22.1,0-40,17.9-40,40v48
					c0,13.3,10.7,24,24,24h96c13.3,0,24-10.7,24-24v-48C158,448.9,140.1,431,118,431z M142,519c0,4.4-3.6,8-8,8H38c-4.4,0-8-3.6-8-8
					v-48c0-12.6,9.7-23,22.3-23.9c21.4,9.9,46,9.9,67.4,0C132.3,448,142,458.4,142,471V519z"/>
			</g>
		</g>
		<g>
			<g>
				<path class="st1" d="M118,431h-1.9l-1.7,0.8c-17.9,8.9-38.9,8.9-56.8,0l-1.7-0.8H54c-22.1,0-40,17.9-40,40v48
					c0,13.3,10.7,24,24,24h96c13.3,0,24-10.7,24-24v-48C158,448.9,140.1,431,118,431z M142,519c0,4.4-3.6,8-8,8H38c-4.4,0-8-3.6-8-8
					v-48c0-12.6,9.7-23,22.3-23.9c21.4,9.9,46,9.9,67.4,0C132.3,448,142,458.4,142,471V519z"/>
			</g>
		</g>
	</g>
	<g>
		<path class="st2" d="M78.4,267.9c-1.5-59.6,45.6-109.2,105.3-110.7"/>
		<polyline class="st2" points="146.2,125.4 195.1,155.8 163.1,196.8 		"/>
	</g>
	<g>
		<path class="st2" d="M444.8,132.3c58.9,9.7,98.7,65.3,89,124.2"/>
		<polyline class="st2" points="572,225.6 533,267.9 498.7,228.8 		"/>
	</g>
	<g>
		<path class="st2" d="M404,531c-43.9,43.9-117.5,41.6-164.4-5.2"/>
		<polyline class="st2" points="244.3,578.6 229.8,517.6 285.3,513.9 		"/>
	</g>
</g>
</svg>
