<?xml version="1.0" encoding="utf-8"?>
<!-- Generator: Adobe Illustrator 22.1.0, SVG Export Plug-In . SVG Version: 6.00 Build 0)  -->
<svg version="1.1" id="Capa_1" xmlns="http://www.w3.org/2000/svg" xmlns:xlink="http://www.w3.org/1999/xlink" x="0px" y="0px"
	 viewBox="0 0 434.4 523.7" style="enable-background:new 0 0 434.4 523.7;" xml:space="preserve">
<style type="text/css">
	.st0{fill:#FFFFFF;stroke:#FFFFFF;stroke-width:12;stroke-miterlimit:10;}
</style>
<g>
	<path class="st0" d="M426.7,449.8l-59.6-84.3c16.7-5,31-15.6,40.7-30.1c12.1-20.9,6.6-46.5,1.3-71.1c-3.2-12.7-5.1-25.6-5.7-38.7
		c0.6-13.1,2.5-26,5.7-38.7c5.3-24.7,10.8-50.2-1.3-71.1c-12.5-21.7-37.8-29.7-62.2-37.4c-12.2-3.3-23.9-8-35.1-13.8
		c-10.2-6.6-19.6-14.2-28.1-22.8C264.2,25,243.6,6,217.5,6s-46.7,19-64.8,35.8c-8.5,8.6-18,16.2-28.1,22.8
		c-11.2,5.8-23,10.4-35.1,13.7c-24.4,7.7-49.7,15.8-62.2,37.4c-12.1,20.9-6.6,46.5-1.3,71.1c3.2,12.7,5.1,25.7,5.7,38.7
		c-0.6,13.1-2.5,26-5.7,38.7c-5.3,24.7-10.8,50.2,1.3,71.1c9.6,14.5,24,25.1,40.7,30.1L7.8,453.4c-2.9,3.7-2.2,9,1.5,11.9
		c1.8,1.4,4,2,6.2,1.7l60.4-7.5l14.9,52.2c0.9,3.1,3.4,5.4,6.5,6c0.5,0.1,1.1,0.2,1.6,0.2c2.6,0,5.1-1.2,6.7-3.3l62.7-91.1
		c13.3,12.9,30.7,20.7,49.2,22c18.5-1.3,35.9-9,49.2-22l62.1,87.5c1.6,2.1,4.1,3.3,6.7,3.3c0.5,0,1.1-0.1,1.6-0.2
		c3.1-0.6,5.6-2.9,6.5-6l14.9-52.2l60.4,7.5c4.6,0.6,8.9-2.7,9.4-7.3C428.7,453.9,428,451.6,426.7,449.8z M102.5,491l-12.3-43.1
		c-1.1-4-5-6.6-9.2-6.1l-47.3,5.9l51.1-76.3l4.7,1.5c12.1,3.3,23.9,7.9,35.1,13.7c10.2,6.6,19.6,14.2,28.1,22.8l2.9,2.7L102.5,491z
		 M217.5,428.4c-19.5,0-35.9-15.2-53.3-31.3c-9.5-9.5-19.9-17.9-31.2-25.1c-12.2-6.4-25.1-11.5-38.5-15.2
		C72.2,349.7,51.1,343,41.9,327c-8.8-15.3-4.3-36.6,0.6-59.1c3.5-13.8,5.5-28,6.1-42.2c-0.6-14.3-2.6-28.4-6.1-42.2
		c-4.8-22.5-9.4-43.8-0.6-59.1c9.3-16,30.4-22.7,52.7-29.8c13.3-3.7,26.2-8.8,38.5-15.2c11.3-7.2,21.7-15.6,31.2-25.1
		c17.4-16.1,33.8-31.3,53.3-31.3s35.9,15.2,53.3,31.3c9.5,9.5,19.9,17.9,31.2,25.1c12.2,6.4,25.1,11.5,38.5,15.2
		c22.3,7.1,43.4,13.8,52.7,29.8c8.8,15.3,4.3,36.6-0.6,59.1c-3.5,13.8-5.5,28-6.1,42.2c0.6,14.3,2.6,28.4,6.1,42.2
		c4.8,22.5,9.4,43.8,0.6,59.1c-9.3,16-30.4,22.7-52.7,29.8c-13.3,3.7-26.2,8.8-38.5,15.2c-11.3,7.2-21.7,15.6-31.2,25.1
		C253.4,413.2,237,428.4,217.5,428.4z M353.5,438.2c-4.1-0.5-8,2.1-9.2,6.1L332,487.4l-52.6-75.2l2.9-2.7c8.5-8.6,18-16.2,28.1-22.8
		c11.2-5.8,23-10.4,35.1-13.7l4.7-1.5l50.6,72.7L353.5,438.2z"/>
	<g>
		<path class="st0" d="M217.5,83c-79.5,0-144,64.5-144,144s64.5,144,144,144s144-64.5,144-144C361.4,147.5,297,83.1,217.5,83z
			 M217.5,355c-70.7,0-128-57.3-128-128s57.3-128,128-128s128,57.3,128,128C345.4,297.7,288.2,354.9,217.5,355z"/>
	</g>
	<g>
		<path class="st0" d="M303.6,195.4c-2.8-3.9-7.3-6.1-12.1-6.1h-45.7l-14.2-43.5c-2.6-7.8-11-12.1-18.8-9.5c-4.5,1.5-8,5-9.5,9.5
			l-14.1,43.5h-45.7c-8.2,0-14.9,6.7-14.9,14.9c0,4.8,2.3,9.3,6.1,12.1l37,26.9l-14.1,43.5c-2.5,7.8,1.7,16.3,9.6,18.8
			c4.5,1.5,9.5,0.7,13.4-2.1l37-26.9l37,26.9c5.2,3.9,12.3,3.9,17.6,0c5.3-3.8,7.5-10.5,5.4-16.7l-14.1-43.5l37-26.9
			C307,211.4,308.5,202.1,303.6,195.4z M250.2,234.3c-2.6,1.9-3.7,5.3-2.7,8.4l15.8,48.7l-41.4-30.1c-2.6-1.9-6.2-1.9-8.8,0
			l-41.4,30.1l15.8-48.7c1-3.1-0.1-6.4-2.7-8.3l-41.4-30.1h51.2c3.2,0,6.1-2.1,7.1-5.2l15.8-48.7l15.8,48.7c1,3.1,3.9,5.2,7.1,5.2
			l51.2,0L250.2,234.3z"/>
	</g>
</g>
</svg>
