<?xml version="1.0" encoding="UTF-8"?>
<svg id="_Слой_2" data-name="Слой 2" xmlns="http://www.w3.org/2000/svg" viewBox="0 0 522 485.86">
  <defs>
    <style>
      .cls-1 {
        fill: #fff;
        stroke: #fff;
        stroke-miterlimit: 10;
        stroke-width: 10px;
      }
    </style>
  </defs>
  <g id="Layer_1" data-name="Layer 1">
    <g>
      <path class="cls-1" d="M239.01,86v20c0,33.15,26.85,60,60,60s60-26.91,60-60v-20c5.52,0,10-4.48,10-10s-4.48-10-10-10h-20c-5.52,0-10,4.48-10,10s4.48,10,10,10v20c0,22.05-17.95,40-40,40s-40-17.9-40-40v-20c5.52,0,10-4.48,10-10s-4.48-10-10-10h-20c-5.52,0-10,4.48-10,10s4.48,10,10,10Z"/>
      <path class="cls-1" d="M121.22,477.94c1.95,1.95,4.51,2.92,7.07,2.92s5.12-.98,7.07-2.93l30.71-30.71c10-10,14.82-23.69,13.43-37.52l11.01-10.63c8.74-8.42,20.23-13.06,32.34-13.06h131.66c23.59,0,45.88-9.06,62.77-25.51,.25-.24,.48-.5,.71-.77l89.59-107.58c14.23-16.84,12.11-42.13-4.75-56.38-16.75-14.12-41.85-12.09-56.13,4.48l-9.68,10.01V15c0-5.52-4.48-10-10-10H170c-5.52,0-10,4.48-10,10V239.05c-38.73,8.13-69.44,32.17-85.98,67.31-13.05-.68-25.77,4.12-35.21,13.57l-30.86,30.71c-1.88,1.88-2.94,4.42-2.95,7.08,0,2.66,1.05,5.21,2.93,7.09l113.29,113.13ZM417.02,25V230.94l-28.94,29.92c-7.45-9.15-18.8-14.86-31.06-14.86h-115.95c-.64,0-1.34-.15-2.04-.43-15.58-6.35-32.07-9.57-49.02-9.57-3.35,0-6.68,.12-10,.34V25h237.01Zm-245.58,232.32c20.23-2.93,40.46-1.21,60.08,6.79,3.12,1.26,6.33,1.9,9.55,1.9h115.95c10.84,0,20,8.84,20,20s-8.97,20-20,20h-87c-5.52,0-10,4.48-10,10s4.48,10,10,10h87c22.06,0,40-17.95,40-40,0-1.77-.13-3.52-.36-5.25,2.09-2.14,62.53-64.65,64.62-66.82,.15-.16,.3-.32,.45-.49,7.12-8.41,19.78-9.48,28.2-2.38,8.43,7.12,9.49,19.77,2.33,28.24l-89.29,107.22c-13.09,12.57-30.28,19.48-48.45,19.48H222.85c-17.32,0-33.74,6.62-46.23,18.67l-4.41,4.26c-1.77-2.71-3.82-5.25-6.14-7.57l-61.42-61.42c-3.28-3.28-7-6.01-11.03-8.16,15.28-30.13,42.57-49.34,77.82-54.46Zm-118.5,76.77c10.51-10.52,27.3-10.27,37.56,0l61.43,61.43c10.3,10.28,10.48,27.09,0,37.56l-23.65,23.64L29.16,357.75l23.77-23.66Z"/>
    </g>
  </g>
</svg>