<?xml version="1.0" encoding="utf-8"?>
<!-- Generator: Adobe Illustrator 22.1.0, SVG Export Plug-In . SVG Version: 6.00 Build 0)  -->
<svg version="1.1" id="Capa_1" xmlns="http://www.w3.org/2000/svg" xmlns:xlink="http://www.w3.org/1999/xlink" x="0px" y="0px"
	 viewBox="0 0 556.7 542.5" style="enable-background:new 0 0 556.7 542.5;" xml:space="preserve">
<style type="text/css">
	.st0{fill:#FFFFFF;}
	.st1{fill:none;stroke:#FFFFFF;stroke-width:13;stroke-linecap:round;stroke-miterlimit:10;}
</style>
<g>
	<g>
		<g>
			<g>
				<path class="st0" d="M191.4,217.6c-1.4-2.7-4-4.4-7-4.6l-71.8-4.8c-3.7-0.4-7.2,1.9-8.5,5.4L52.3,345.8
					c-1.4,3.5-0.3,7.6,2.8,9.9c1.5,1.2,3.3,1.7,5.2,1.7c1.8,0,3.6-0.6,5.1-1.7l43-32.2l25,5c4.1,0.8,8.2-1.4,9.6-5.3
					c13.4-35.2,29.6-67.9,48-97.2C192.6,223.5,192.7,220.3,191.4,217.6z M129.6,310.4l-21.7-4.3c-2.4-0.5-4.8,0.1-6.8,1.5l-22,16.5
					l38.5-98.5l51.5,3.4C154.3,254.2,141,281.5,129.6,310.4z"/>
			</g>
		</g>
		<g>
			<g>
				<path class="st1" d="M191.4,217.6c-1.4-2.7-4-4.4-7-4.6l-71.8-4.8c-3.7-0.4-7.2,1.9-8.5,5.4L52.3,345.8
					c-1.4,3.5-0.3,7.6,2.8,9.9c1.5,1.2,3.3,1.7,5.2,1.7c1.8,0,3.6-0.6,5.1-1.7l43-32.2l25,5c4.1,0.8,8.2-1.4,9.6-5.3
					c13.4-35.2,29.6-67.9,48-97.2C192.6,223.5,192.7,220.3,191.4,217.6z M129.6,310.4l-21.7-4.3c-2.4-0.5-4.8,0.1-6.8,1.5l-22,16.5
					l38.5-98.5l51.5,3.4C154.3,254.2,141,281.5,129.6,310.4z"/>
			</g>
		</g>
	</g>
	<g>
		<g>
			<g>
				<path class="st0" d="M350.5,446.1l-4.8-71.8c-0.2-3-2-5.7-4.6-7c-2.7-1.4-5.9-1.2-8.4,0.4c-29.3,18.4-62,34.6-97.2,48
					c-3.9,1.5-6.1,5.6-5.3,9.6l5,25l-32.2,42.9c-2.3,3.1-2.3,7.3,0,10.3c1.6,2.2,4.2,3.4,6.8,3.4c1,0,2.1-0.2,3.1-0.6l132.3-51.8
					C348.6,453.3,350.7,449.9,350.5,446.1z M234.5,479.6l16.5-22c1.5-1.9,2-4.4,1.5-6.8l-4.3-21.7c29-11.4,56.2-24.7,81.4-39.5
					L333,441L234.5,479.6z"/>
			</g>
		</g>
		<g>
			<g>
				<path class="st1" d="M350.5,446.1l-4.8-71.8c-0.2-3-2-5.7-4.6-7c-2.7-1.4-5.9-1.2-8.4,0.4c-29.3,18.4-62,34.6-97.2,48
					c-3.9,1.5-6.1,5.6-5.3,9.6l5,25l-32.2,42.9c-2.3,3.1-2.3,7.3,0,10.3c1.6,2.2,4.2,3.4,6.8,3.4c1,0,2.1-0.2,3.1-0.6l132.3-51.8
					C348.6,453.3,350.7,449.9,350.5,446.1z M234.5,479.6l16.5-22c1.5-1.9,2-4.4,1.5-6.8l-4.3-21.7c29-11.4,56.2-24.7,81.4-39.5
					L333,441L234.5,479.6z"/>
			</g>
		</g>
	</g>
	<g>
		<g>
			<g>
				<path class="st0" d="M276.1,274h-57.5c-3.1,0-5.9,1.7-7.5,4.4L139,408.1c-1.9,3.4-1.2,7.6,1.5,10.3c1.6,1.6,3.8,2.4,5.9,2.4
					c1.5,0,3-0.4,4.4-1.2L280.5,341c2.6-1.5,4.1-4.3,4.1-7.3v-51.2C284.7,277.8,280.8,274,276.1,274z M267.6,328.9l-98,59.3
					l54.1-97.2v0h44V328.9z"/>
			</g>
		</g>
		<g>
			<g>
				<path class="st1" d="M276.1,274h-57.5c-3.1,0-5.9,1.7-7.5,4.4L139,408.1c-1.9,3.4-1.2,7.6,1.5,10.3c1.6,1.6,3.8,2.4,5.9,2.4
					c1.5,0,3-0.4,4.4-1.2L280.5,341c2.6-1.5,4.1-4.3,4.1-7.3v-51.2C284.7,277.8,280.8,274,276.1,274z M267.6,328.9l-98,59.3
					l54.1-97.2v0h44V328.9z"/>
			</g>
		</g>
	</g>
	<g>
		<g>
			<g>
				<path class="st0" d="M540.2,26.2c-0.3-4.2-3.6-7.4-7.8-7.8C529.6,18.2,248.6-1.4,127,317.1c-1.2,3.1-0.4,6.7,1.9,9.1l40.6,40.6
					c1.9,1.9,4.6,2.8,7.2,2.4c2.7-0.4,5-2,6.3-4.3l40.6-73.8h43.9v38l-74.3,46.9c-2.2,1.4-3.6,3.7-3.9,6.3c-0.3,2.6,0.6,5.1,2.4,7
					l40.6,40.6c1.6,1.6,3.8,2.5,6,2.5c1,0,2.1-0.2,3-0.6C560.1,310,540.5,29,540.2,26.2z M495.5,177.6
					c-29.9,74.1-98.5,174.8-254.9,236.1l-29.1-29.1l69.2-43.7c2.5-1.6,4-4.3,4-7.2v-51.2c0-4.7-3.8-8.5-8.5-8.5h-57.5
					c-3.1,0-6,1.7-7.5,4.4l-37.6,68.3l-28.6-28.6C251.7,45.7,479.3,34.6,523.5,35.2C523.8,55.1,522,112,495.5,177.6z"/>
			</g>
		</g>
		<g>
			<g>
				<path class="st1" d="M540.2,26.2c-0.3-4.2-3.6-7.4-7.8-7.8C529.6,18.2,248.6-1.4,127,317.1c-1.2,3.1-0.4,6.7,1.9,9.1l40.6,40.6
					c1.9,1.9,4.6,2.8,7.2,2.4c2.7-0.4,5-2,6.3-4.3l40.6-73.8h43.9v38l-74.3,46.9c-2.2,1.4-3.6,3.7-3.9,6.3c-0.3,2.6,0.6,5.1,2.4,7
					l40.6,40.6c1.6,1.6,3.8,2.5,6,2.5c1,0,2.1-0.2,3-0.6C560.1,310,540.5,29,540.2,26.2z M495.5,177.6
					c-29.9,74.1-98.5,174.8-254.9,236.1l-29.1-29.1l69.2-43.7c2.5-1.6,4-4.3,4-7.2v-51.2c0-4.7-3.8-8.5-8.5-8.5h-57.5
					c-3.1,0-6,1.7-7.5,4.4l-37.6,68.3l-28.6-28.6C251.7,45.7,479.3,34.6,523.5,35.2C523.8,55.1,522,112,495.5,177.6z"/>
			</g>
		</g>
	</g>
	<g>
		<g>
			<g>
				<path class="st0" d="M167.3,407.9c-1.9-2.1-4.8-3.2-7.8-2.9c0.3-2.5-0.9-5-3.4-6.6c-13-8.4-29.7-11.2-45.9-7.7
					c-17.2,3.7-31.3,13.8-38.6,27.6L20.8,514c-1.5,2.8-0.8,6.1,1.7,8.3c1.6,1.4,3.8,2.2,6.1,2.2c1.2,0,2.4-0.2,3.6-0.7L144,480.3
					c16.1-6.3,27.9-18.3,32.2-33.1C180.4,433.3,177.1,419,167.3,407.9z M159.6,443.6c-3.1,10.4-11.4,18.9-22.7,23.3l-91,35.4
					l41.4-77.9c5.2-9.7,15.1-16.8,27.2-19.4c3.2-0.7,6.4-1,9.6-1c5.4,0,10.6,1,15.4,2.9l-8.2,12.4c-1.9,2.9-1.3,6.5,1.4,8.8
					c2.7,2.3,7,2.8,10.3,1.2l14.5-7C161,428.7,161.8,436.2,159.6,443.6z"/>
			</g>
		</g>
		<g>
			<g>
				<path class="st1" d="M167.3,407.9c-1.9-2.1-4.8-3.2-7.8-2.9c0.3-2.5-0.9-5-3.4-6.6c-13-8.4-29.7-11.2-45.9-7.7
					c-17.2,3.7-31.3,13.8-38.6,27.6L20.8,514c-1.5,2.8-0.8,6.1,1.7,8.3c1.6,1.4,3.8,2.2,6.1,2.2c1.2,0,2.4-0.2,3.6-0.7L144,480.3
					c16.1-6.3,27.9-18.3,32.2-33.1C180.4,433.3,177.1,419,167.3,407.9z M159.6,443.6c-3.1,10.4-11.4,18.9-22.7,23.3l-91,35.4
					l41.4-77.9c5.2-9.7,15.1-16.8,27.2-19.4c3.2-0.7,6.4-1,9.6-1c5.4,0,10.6,1,15.4,2.9l-8.2,12.4c-1.9,2.9-1.3,6.5,1.4,8.8
					c2.7,2.3,7,2.8,10.3,1.2l14.5-7C161,428.7,161.8,436.2,159.6,443.6z"/>
			</g>
		</g>
	</g>
	<g>
		<g>
			<g>
				<path class="st0" d="M540.2,26.2c-0.3-4.2-3.6-7.4-7.8-7.8C529.1,18.2,450,12.2,357,55c-2.5,1.2-4.3,3.5-4.8,6.2
					s0.4,5.6,2.4,7.5l135.3,135.3c1.6,1.6,3.8,2.5,6,2.5c0.5,0,1,0,1.5-0.1c2.7-0.5,5.1-2.3,6.2-4.8
					C546.5,108.7,540.5,29.5,540.2,26.2z M493.1,183.3L375.4,65.5c68.1-28.7,127.7-30.7,148.1-30.4C523.9,55.6,522,115,493.1,183.3z
					"/>
			</g>
		</g>
		<g>
			<g>
				<path class="st1" d="M540.2,26.2c-0.3-4.2-3.6-7.4-7.8-7.8C529.1,18.2,450,12.2,357,55c-2.5,1.2-4.3,3.5-4.8,6.2
					s0.4,5.6,2.4,7.5l135.3,135.3c1.6,1.6,3.8,2.5,6,2.5c0.5,0,1,0,1.5-0.1c2.7-0.5,5.1-2.3,6.2-4.8
					C546.5,108.7,540.5,29.5,540.2,26.2z M493.1,183.3L375.4,65.5c68.1-28.7,127.7-30.7,148.1-30.4C523.9,55.6,522,115,493.1,183.3z
					"/>
			</g>
		</g>
	</g>
	<g>
		<g>
			<g>
				<path class="st0" d="M405.5,153.2c-28.7-28.7-75.4-28.7-104.1,0s-28.7,75.4,0,104.1c14.3,14.4,33.2,21.5,52,21.5
					c18.8,0,37.7-7.2,52-21.5C434.2,228.5,434.2,181.8,405.5,153.2z M393.5,245.2c-22,22-57.9,22-79.9,0c-22-22-22-57.9,0-79.9
					c11-11,25.5-16.5,40-16.5s29,5.5,40,16.5C415.5,187.3,415.5,223.1,393.5,245.2z"/>
			</g>
		</g>
		<g>
			<g>
				<path class="st1" d="M405.5,153.2c-28.7-28.7-75.4-28.7-104.1,0s-28.7,75.4,0,104.1c14.3,14.4,33.2,21.5,52,21.5
					c18.8,0,37.7-7.2,52-21.5C434.2,228.5,434.2,181.8,405.5,153.2z M393.5,245.2c-22,22-57.9,22-79.9,0c-22-22-22-57.9,0-79.9
					c11-11,25.5-16.5,40-16.5s29,5.5,40,16.5C415.5,187.3,415.5,223.1,393.5,245.2z"/>
			</g>
		</g>
	</g>
</g>
</svg>
