<?xml version="1.0" encoding="utf-8"?>
<!-- Generator: Adobe Illustrator 22.1.0, SVG Export Plug-In . SVG Version: 6.00 Build 0)  -->
<svg version="1.1" id="Capa_1" xmlns="http://www.w3.org/2000/svg" xmlns:xlink="http://www.w3.org/1999/xlink" x="0px" y="0px"
	 viewBox="0 0 564.3 483.6" style="enable-background:new 0 0 564.3 483.6;" xml:space="preserve">
<style type="text/css">
	.st0{fill:none;stroke:#FFFFFF;stroke-width:26;stroke-linecap:round;stroke-linejoin:round;stroke-miterlimit:10;}
	.st1{fill:none;stroke:#FFFFFF;stroke-width:24;stroke-linecap:round;stroke-linejoin:round;stroke-miterlimit:10;}
	.st2{fill:#FFFFFF;}
</style>
<g>
	<path class="st0" d="M193.3,299.4V366c0,24.3,19.7,44,44,44h164c0,0,5.6,60.6,104,60.6c-12.1-17.1-23.6-48.1-25.4-60.6l27.4,0
		c24.3,0,44-19.7,44-44V176c0-24.3-19.7-44-44-44H373.9"/>
	<path class="st0" d="M327,291H153c0,0-12.5,63-105,63c22.1-26.6,27.4-38.8,36.4-63L57,291c-24.3,0-44-19.7-44-44V57
		c0-24.3,19.7-44,44-44h270c24.3,0,44,19.7,44,44v190C371,271.3,351.3,291,327,291z"/>
	<g>
		<path class="st1" d="M253.8,129.3c0,35.9-65,104.3-65,104.3s-65-68.4-65-104.3s29.1-65,65-65S253.8,93.4,253.8,129.3z"/>
		<circle class="st2" cx="188.8" cy="132.3" r="20.7"/>
	</g>
</g>
</svg>
