<?xml version="1.0" encoding="utf-8"?>
<!-- Generator: Adobe Illustrator 22.1.0, SVG Export Plug-In . SVG Version: 6.00 Build 0)  -->
<svg version="1.1" id="Capa_1" xmlns="http://www.w3.org/2000/svg" xmlns:xlink="http://www.w3.org/1999/xlink" x="0px" y="0px"
	 viewBox="0 0 293.6 289" style="enable-background:new 0 0 293.6 289;" xml:space="preserve">
<style type="text/css">
	.st0{fill:#FFFFFF;}
	.st1{fill:none;stroke:#FFFFFF;stroke-width:17;stroke-miterlimit:10;}
	.st2{fill:none;stroke:#FFFFFF;stroke-width:17;stroke-linecap:round;stroke-miterlimit:10;}
</style>
<g>
	<g>
		<path class="st0" d="M212.1,137.7l18.6,64.9h-14l-4-14.9h-19l-4.1,14.9h-12.9l18.6-64.9H212.1z M196.8,176.7h13l-6.2-23.2h-0.4
			L196.8,176.7z"/>
	</g>
	<path class="st1" d="M203.1,92.3c-10.9,0-21.3,2.2-30.9,6c-2.1,32-22.5,59-50.9,70.6c-0.1,1.8-0.2,3.6-0.2,5.4
		c0,45.3,36.7,82,82,82s82-36.7,82-82C285.1,129,248.4,92.3,203.1,92.3z"/>
	<path class="st1" d="M172.4,93c0-45.3-36.7-82-82-82c-45.3,0-82,36.7-82,82c0,45.3,36.7,82,82,82c10.9,0,21.3-2.2,30.9-6"/>
	<g>
		<path class="st0" d="M65.5,95.3v-4.6c0-19.3,8.2-31.4,24.6-31.4c16.1,0,23.3,10.6,23.3,26.6v0.7h-13.2v-0.7c0-9.8-3.1-15-10-15
			c-6.9,0-10.5,5.6-10.5,17.1v9.9c0,11.5,3.9,17.2,11.3,17.2c6,0,9.4-4.1,9.4-11.5v-0.8h-8.3V92.5h21.5v32.8h-10.2l-1.1-6.6
			c-1.9,4.9-6.8,7.7-13.8,7.7C73.6,126.4,65.5,114.5,65.5,95.3z M77.7,42.8h7.8c0,4,1.8,6.2,4.9,6.2c3.2,0,4.8-2.2,4.8-6.2h7.9
			c0,9.1-4.6,14.4-12.8,14.4S77.7,51.8,77.7,42.8z"/>
	</g>
	<g>
		<path class="st2" d="M205.8,11.5c18.9-8.9,60.5,0.5,45.5,48"/>
		<polyline class="st2" points="232.3,44 253.3,66 274.3,45.5 		"/>
	</g>
	<g>
		<path class="st2" d="M110.8,277.5c-18.9,8.9-60.5-0.5-45.5-48"/>
		<polyline class="st2" points="84.3,245 63.3,223 42.3,243.5 		"/>
	</g>
</g>
</svg>
