<?xml version="1.0" encoding="utf-8"?>
<!-- Generator: Adobe Illustrator 22.1.0, SVG Export Plug-In . SVG Version: 6.00 Build 0)  -->
<svg version="1.1" id="Capa_1" xmlns="http://www.w3.org/2000/svg" xmlns:xlink="http://www.w3.org/1999/xlink" x="0px" y="0px"
	 viewBox="0 0 563 480" style="enable-background:new 0 0 563 480;" xml:space="preserve">
<style type="text/css">
	.st0{fill:none;stroke:#FFFFFF;stroke-width:30;stroke-miterlimit:10;}
	.st1{fill:none;stroke:#FFFFFF;stroke-width:30;stroke-linecap:round;stroke-miterlimit:10;}
	.st2{fill:#FFFFFF;}
</style>
<g>
	<path class="st0" d="M505.8,336.2c0,23.1-9.5,43.9-24.9,58.8c-14.8,14.3-34.9,23.2-57.1,23.2c-45.3,0-82-36.7-82-82s36.7-82,82-82
		S505.8,291,505.8,336.2z"/>
	<line class="st1" x1="484" y1="401" x2="548" y2="465"/>
	<path class="st1" d="M423.9,254.3c16.7,0,32.2,5,45.1,13.5V138c0-24.3-19.7-44-44-44H155c-24.3,0-44,19.7-44,44v190
		c0,24.3,19.7,44,44,44h195.1c-5.3-10.8-8.2-23-8.2-35.8C341.9,291,378.6,254.3,423.9,254.3z"/>
	<path class="st1" d="M111.3,293H59c-24.3,0-44-19.7-44-44V59c0-24.3,19.7-44,44-44h270c24.3,0,44,19.7,44,44v35"/>
	<g>
		<path class="st2" d="M216.9,297.6h-11.8c-7.7,0-13.9-6.2-13.9-13.9V180.9c0-7.7,6.2-13.9,13.9-13.9h11.8c7.7,0,13.9,6.2,13.9,13.9
			v102.8C230.8,291.4,224.6,297.6,216.9,297.6z"/>
		<path class="st2" d="M296,297.6h-11.8c-7.7,0-13.9-6.2-13.9-13.9V180.9c0-7.7,6.2-13.9,13.9-13.9H296c7.7,0,13.9,6.2,13.9,13.9
			v102.8C309.9,291.4,303.7,297.6,296,297.6z"/>
		<path class="st2" d="M375.1,279.2h-11.8c-7.7,0-13.9-6.2-13.9-13.9v-84.4c0-7.7,6.2-13.9,13.9-13.9h11.8c7.7,0,13.9,6.2,13.9,13.9
			v84.4C389,273,382.8,279.2,375.1,279.2z"/>
	</g>
</g>
</svg>
