<?xml version="1.0" encoding="utf-8"?>
<!-- Generator: Adobe Illustrator 22.1.0, SVG Export Plug-In . SVG Version: 6.00 Build 0)  -->
<svg version="1.1" id="Capa_1" xmlns="http://www.w3.org/2000/svg" xmlns:xlink="http://www.w3.org/1999/xlink" x="0px" y="0px"
	 viewBox="0 0 407.8 438.6" style="enable-background:new 0 0 407.8 438.6;" xml:space="preserve">
<style type="text/css">
	.st0{fill:none;stroke:#FFFFFF;stroke-width:27;stroke-linecap:round;stroke-miterlimit:10;}
	.st1{fill:none;stroke:#FFFFFF;stroke-width:27;stroke-linecap:round;stroke-linejoin:round;stroke-miterlimit:10;}
	.st2{fill:none;stroke:#FFFFFF;stroke-width:27;stroke-miterlimit:10;}
</style>
<g>
	<path class="st0" d="M371.5,143.3v144.6c0,24.3-19.7,44-44,44h-270c-24.3,0-44-19.7-44-44V112.4c0-24.3,19.7-44,44-44h190"/>
	<line class="st0" x1="80.8" y1="425.1" x2="304.2" y2="425.1"/>
	<g>
		<line class="st0" x1="174.5" y1="347.3" x2="174.5" y2="413.9"/>
		<line class="st0" x1="210.5" y1="347.3" x2="210.5" y2="413.9"/>
	</g>
	<g>
		
			<rect x="295.3" y="21.7" transform="matrix(-0.7706 -0.6373 0.6373 -0.7706 516.4784 364.456)" class="st0" width="57" height="135.2"/>
		<polyline class="st1" points="295.4,168.1 247,185.4 252.2,132.4 		"/>
	</g>
	<path class="st2" d="M76.7,289.1c0,0,31.5-61.5,72-40.5s82.5-39,82.5-39"/>
</g>
</svg>
